<svg xmlns="http://www.w3.org/2000/svg" viewBox="-151 -21 731 1023" width="731" height="1023"><g fill="none"><title>Canvas 1</title><path fill="#fff" d="M-151-21h731v1023h-731z"/><title>Layer 1</title><title>Canvas_1</title><title>Canvas_1: Layer 1</title><title>Group_362</title><title>Group_290</title><title>Graphic_317</title><path fill="#eaedef" d="M-151 54.8h730.955v946.5H-151z"/><title>Group_311</title><title>Graphic_316</title><path d="M-122.192 85.83l-2.148 3.733h-5.625a1.4 1.4 0 0 1-1.215-.704l-4.55-7.933a1.401 1.401 0 0 1 0-1.392l1.732-3.018 2.137 3.713 3.222 5.6z" fill="#fbbc05"/><title>Graphic_315</title><path d="M-115.101 80.926l-4.55 7.934a1.4 1.4 0 0 1-1.215.704h-3.475l2.147-3.734 3.225-5.6-3.225-5.6h4.28l2.812 4.904c.249.43.25.961.001 1.392z" fill="#ea4335"/><title>Graphic_314</title><path d="M-117.913 74.63h-10.726l-3.222 5.6-2.137-3.715 2.818-4.915a1.4 1.4 0 0 1 1.215-.704h9.1a1.4 1.4 0 0 1 1.215.704z" fill="#4285f4"/><title>Graphic_312</title><circle cx="-125.415" cy="80.229" r="2.801" fill="#fff"/><title>Group_291</title><title>Graphic_310</title><path d="M-56.317 80.534c0-3.23 2.441-5.671 5.64-5.671 1.639 0 3.019.652 3.99 1.774l-.971.94c-.758-.94-1.775-1.38-3.018-1.38-2.29 0-4.216 1.668-4.216 4.337 0 2.67 1.926 4.337 4.216 4.337 1.365 0 2.517-.636 3.336-1.577l.97.97c-.955 1.138-2.486 1.942-4.306 1.942-3.2 0-5.641-2.442-5.641-5.672" fill="#757575"/><title>Graphic_309</title><path fill="#757575" d="M-45.278 75.106h1.395v10.858h-1.395z"/><title>Graphic_308</title><path d="M-36.59 82.248c0-1.698-1.182-2.684-2.426-2.684-1.243 0-2.426.986-2.426 2.684 0 1.699 1.183 2.684 2.426 2.684 1.244 0 2.427-.985 2.427-2.684m1.395 0c0 2.26-1.593 3.958-3.822 3.958s-3.821-1.699-3.821-3.958c0-2.26 1.592-3.958 3.821-3.958 2.23 0 3.822 1.699 3.822 3.958" fill="#757575"/><title>Graphic_307</title><path d="M-28.886 85.963v-1.03h-.06c-.41.681-1.336 1.273-2.351 1.273-1.911 0-2.836-1.29-2.836-3.124v-4.55h1.395v4.323c0 1.547.773 2.077 1.834 2.077 1.214 0 1.957-1.168 1.957-2.305v-4.094h1.395v7.43z" fill="#757575"/><title>Graphic_306</title><path d="M-20.304 82.248c0-1.698-1.122-2.684-2.366-2.684-1.243 0-2.365 1.016-2.365 2.684 0 1.668 1.122 2.684 2.365 2.684 1.244 0 2.366-.985 2.366-2.684m-6.126 0c0-2.275 1.652-3.958 3.533-3.958 1.183 0 2.108.591 2.532 1.274h.061l-.061-1.03v-3.428h1.395v10.857h-1.334v-1.031h-.061c-.424.682-1.35 1.274-2.532 1.274-1.88 0-3.533-1.683-3.533-3.958" fill="#757575"/><title>Graphic_305</title><path d="M-11.434 80.231c1.244 0 1.941-1.03 1.941-1.895 0-.864-.697-1.896-1.94-1.896h-2.336v3.791zm-3.73 5.732V75.106h3.7c1.804 0 3.396 1.334 3.396 3.23 0 1.895-1.592 3.23-3.396 3.23h-2.305v4.397z" fill="#757575"/><title>Graphic_304</title><path fill="#757575" d="M-7.082 75.106h1.395v10.858h-1.395z"/><title>Graphic_303</title><path d="M.788 82.764s-.592-.485-1.775-.485c-1.47 0-2.047.788-2.047 1.47 0 .789.82 1.183 1.547 1.183 1.107 0 2.275-.956 2.275-2.168m-5.278.955c0-1.683 1.517-2.593 3.261-2.593 1 0 1.728.288 2.017.455v-.213c0-1.122-.895-1.804-1.942-1.804-.772 0-1.516.379-1.774 1.077l-1.273-.547c.257-.682 1.152-1.804 3.017-1.804 1.82 0 3.306 1.092 3.306 3.185v4.488H.788v-1.03H.727c-.41.62-1.168 1.273-2.441 1.273-1.517 0-2.776-.94-2.776-2.487" fill="#757575"/><title>Graphic_302</title><path d="M4.139 83.704v-3.898H2.835v-1.273h1.304v-2.275h1.395v2.275h1.82v1.273h-1.82v3.792c0 .834.349 1.213 1 1.213.258 0 .44-.03.637-.122l.486 1.198c-.319.137-.652.197-1.122.197-1.563 0-2.396-.864-2.396-2.38" fill="#757575"/><title>Graphic_301</title><path d="M13.206 75.242l-.485 1.198c-.182-.091-.379-.121-.637-.121-.698 0-1.243.409-1.243 1.274v.94h1.94v1.273h-1.94v6.157H9.446v-6.157H8.05v-1.273h1.396v-.986c0-1.516 1.076-2.502 2.638-2.502.47 0 .804.061 1.122.197" fill="#757575"/><title>Graphic_300</title><path d="M19.408 82.248c0-1.698-1.183-2.684-2.426-2.684-1.244 0-2.426.986-2.426 2.684 0 1.699 1.182 2.684 2.426 2.684 1.243 0 2.426-.985 2.426-2.684m1.395 0c0 2.26-1.592 3.958-3.821 3.958-2.23 0-3.822-1.699-3.822-3.958 0-2.26 1.593-3.958 3.822-3.958s3.821 1.699 3.821 3.958" fill="#757575"/><title>Graphic_299</title><path d="M21.925 85.963v-7.43h1.334v1.213h.061c.303-.849 1.38-1.395 2.154-1.395.454 0 .758.06 1.046.182l-.53 1.304c-.198-.076-.44-.106-.744-.106-.956 0-1.926.803-1.926 2.169v4.063z" fill="#757575"/><title>Graphic_298</title><path d="M27.278 78.533h1.334v1.03h.06c.426-.712 1.411-1.273 2.29-1.273 1.198 0 1.972.546 2.35 1.425a3.023 3.023 0 0 1 2.594-1.425c1.82 0 2.654 1.29 2.654 3.124v4.55h-1.395v-4.337c0-1.547-.592-2.063-1.653-2.063-1.138 0-1.896 1.152-1.896 2.29v4.11h-1.395v-4.337c0-1.547-.591-2.063-1.653-2.063-1.137 0-1.896 1.152-1.896 2.29v4.11h-1.394z" fill="#757575"/><title>Graphic_297</title><path d="M-108.905 79.989c0-3.428 2.881-6.218 6.309-6.218 1.895 0 3.245.743 4.26 1.714l-1.197 1.198c-.728-.682-1.714-1.213-3.063-1.213-2.503 0-4.459 2.016-4.459 4.519 0 2.502 1.956 4.519 4.459 4.519 1.622 0 2.547-.652 3.138-1.244.486-.485.805-1.183.926-2.138h-4.064v-1.698h5.716c.061.303.091.667.091 1.061 0 1.274-.348 2.85-1.47 3.973-1.092 1.137-2.487 1.744-4.337 1.744-3.428 0-6.309-2.79-6.309-6.217" fill="#757575"/><title>Graphic_296</title><path d="M-92.168 84.629c-1.214 0-2.26-1.001-2.26-2.427 0-1.44 1.046-2.426 2.26-2.426 1.213 0 2.259.986 2.259 2.426 0 1.426-1.046 2.427-2.26 2.427m0-6.43c-2.214 0-4.018 1.683-4.018 4.003 0 2.305 1.804 4.004 4.019 4.004 2.213 0 4.018-1.699 4.018-4.004 0-2.32-1.805-4.003-4.018-4.003" fill="#757575"/><title>Graphic_295</title><path d="M-83.402 84.629c-1.213 0-2.26-1.001-2.26-2.427 0-1.44 1.047-2.426 2.26-2.426 1.213 0 2.26.986 2.26 2.426 0 1.426-1.047 2.427-2.26 2.427m0-6.43c-2.214 0-4.019 1.683-4.019 4.003 0 2.305 1.805 4.004 4.019 4.004 2.214 0 4.019-1.699 4.019-4.004 0-2.32-1.805-4.003-4.019-4.003" fill="#757575"/><title>Graphic_294</title><path d="M-74.659 84.629c-1.212 0-2.229-1.016-2.229-2.411 0-1.41 1.017-2.442 2.23-2.442 1.197 0 2.137 1.031 2.137 2.442 0 1.395-.94 2.41-2.138 2.41zm2.017-6.187v.652h-.06c-.395-.47-1.153-.895-2.108-.895-2.002 0-3.837 1.759-3.837 4.019 0 2.244 1.835 3.988 3.837 3.988.955 0 1.713-.425 2.107-.91h.061v.576c0 1.532-.819 2.35-2.138 2.35-1.077 0-1.744-.772-2.017-1.425l-1.532.637c.44 1.062 1.608 2.366 3.549 2.366 2.063 0 3.806-1.213 3.806-4.17v-7.188z" fill="#757575"/><title>Graphic_293</title><path fill="#757575" d="M-69.76 74.196h1.759v11.767h-1.759z"/><title>Graphic_292</title><path d="M-63.316 79.746c.698 0 1.29.349 1.486.85l-3.578 1.485c-.046-1.547 1.197-2.335 2.092-2.335m.137 4.883c-.895 0-1.532-.41-1.941-1.213l5.353-2.214-.182-.455c-.334-.895-1.35-2.548-3.427-2.548-2.063 0-3.776 1.623-3.776 4.003 0 2.245 1.698 4.004 3.973 4.004 1.835 0 2.896-1.122 3.336-1.774l-1.365-.91c-.455.667-1.077 1.107-1.971 1.107" fill="#757575"/><title>Graphic_321</title><path d="M-131 109.8h697.477v872H-131z" stroke="#616161" stroke-linecap="round" stroke-linejoin="round" stroke-dasharray="1.0,3.0"/><title>Text</title><text transform="translate(-121 125.05)" fill="#000"><tspan font-family="Roboto" font-size="10" font-weight="400" x=".292" y="9">Project</tspan></text><title>Group_336</title><title>Graphic_335</title><path fill="#e5f5fd" d="M-111 153.8h661.644v807.5H-111z"/><path stroke="#fff" stroke-linecap="round" stroke-linejoin="round" stroke-width="2" d="M-111 153.8h661.644v807.5H-111z"/><title>Text</title><text transform="translate(-101 169.05)" fill="#000"><tspan font-family="Roboto" font-size="10" font-weight="400" x=".491" y="9">VPC Network</tspan></text><title>Group_324</title><title>Graphic_334</title><path d="M-83.755 172.97l-3.864-6.72c-.31-.536-.87-.863-1.449-.863h-7.728c-.619 0-1.16.363-1.449.863l-3.864 6.706a1.686 1.686 0 0 0 0 1.68l3.864 6.75c.31.536.871.894 1.449.894h7.728c.62 0 1.16-.39 1.449-.89l3.864-6.72a1.72 1.72 0 0 0 0-1.7" fill="#4285f4"/><path d="M-83.755 172.97l-3.864-6.72c-.31-.536-.87-.863-1.449-.863h-7.728c-.619 0-1.16.363-1.449.863l-3.864 6.706a1.686 1.686 0 0 0 0 1.68l3.864 6.75c.31.536.871.894 1.449.894h7.728c.62 0 1.16-.39 1.449-.89l3.864-6.72a1.72 1.72 0 0 0 0-1.7"/><title>Graphic_333</title><path d="M-89.46 170.352l-3.071 1.477-1.469-1.47-2.4 2.412 1.598 1.598-1.6 2.935 4.976 4.976h2.358c.62 0 1.16-.39 1.45-.89l3.356-5.84z" fill="#000" fill-opacity=".07"/><path d="M-89.46 170.352l-3.071 1.477-1.469-1.47-2.4 2.412 1.598 1.598-1.6 2.935 4.976 4.976h2.358c.62 0 1.16-.39 1.45-.89l3.356-5.84z"/><title>Graphic_332</title><path fill="#fff" d="M-95.429 172.438h.734v2.864h-.734z"/><path d="M-95.429 172.438h.734v2.864h-.734z"/><title>Graphic_331</title><path fill="#fff" d="M-91.169 172.089h.734v3.206h-.734z"/><path d="M-91.169 172.089h.734v3.206h-.734z"/><title>Graphic_330</title><path fill="#fff" d="M-94.346 171.336h2.828v.734h-2.828z"/><path d="M-94.346 171.336h2.828v.734h-2.828z"/><title>Graphic_329</title><path fill="#fff" d="M-94.346 175.596h2.828v.734h-2.828z"/><path d="M-94.346 175.596h2.828v.734h-2.828z"/><g><title>Graphic_328</title><path d="M-96.31 170.308h2.203c.081 0 .147.066.147.147v2.203a.147.147 0 0 1-.147.147h-2.203a.147.147 0 0 1-.147-.147v-2.203c0-.081.065-.147.147-.147" fill="#fff"/><path d="M-96.31 170.308h2.203c.081 0 .147.066.147.147v2.203a.147.147 0 0 1-.147.147h-2.203a.147.147 0 0 1-.147-.147v-2.203c0-.081.065-.147.147-.147"/></g><g><title>Graphic_327</title><path d="M-91.757 170.308h2.204c.08 0 .147.066.147.147v2.203a.147.147 0 0 1-.147.147h-2.204a.147.147 0 0 1-.147-.147v-2.203c0-.081.066-.147.147-.147" fill="#fff"/><path d="M-91.757 170.308h2.204c.08 0 .147.066.147.147v2.203a.147.147 0 0 1-.147.147h-2.204a.147.147 0 0 1-.147-.147v-2.203c0-.081.066-.147.147-.147"/></g><g><title>Graphic_326</title><path d="M-96.31 174.862h2.203c.081 0 .147.065.147.147v2.203a.147.147 0 0 1-.147.147h-2.203a.147.147 0 0 1-.147-.147v-2.203c0-.082.065-.147.147-.147" fill="#fff"/><path d="M-96.31 174.862h2.203c.081 0 .147.065.147.147v2.203a.147.147 0 0 1-.147.147h-2.203a.147.147 0 0 1-.147-.147v-2.203c0-.082.065-.147.147-.147"/></g><g><title>Graphic_325</title><path d="M-91.757 174.862h2.204c.08 0 .147.065.147.147v2.203a.147.147 0 0 1-.147.147h-2.204a.147.147 0 0 1-.147-.147v-2.203c0-.082.066-.147.147-.147" fill="#fff"/><path d="M-91.757 174.862h2.204c.08 0 .147.065.147.147v2.203a.147.147 0 0 1-.147.147h-2.204a.147.147 0 0 1-.147-.147v-2.203c0-.082.066-.147.147-.147"/></g><g><title>Graphic_20</title><path fill="#e5f2ec" d="M100.978 271.483H315V568.8H100.978z"/><path stroke="#fff" stroke-linecap="round" stroke-linejoin="round" stroke-width="2" d="M100.978 271.483H315V568.8H100.978z"/><title>Text</title><text transform="translate(110.978 286.733)" fill="#000"><tspan font-family="Roboto" font-size="10" font-weight="400" x=".056" y="9">Region: us-west1</tspan></text></g><g><title>Graphic_71</title><path fill="#ede7f7" d="M115 318.8h187v240H115z"/><path stroke="#fff" stroke-linecap="round" stroke-linejoin="round" stroke-width="2" d="M115 318.8h187v240H115z"/><title>Text</title><text transform="translate(125 333.05)" fill="#000"><tspan font-family="Roboto" font-size="10" font-weight="400" x="12.301" y="9">subnet1: </tspan> <tspan font-family="Roboto" font-size="10" font-weight="400" x=".223" y="20">10.240.0.0/24</tspan></text></g><g><title>Graphic_24</title><path fill="#fef7e0" d="M135.41 366.736h150.792v177H135.41z"/><path stroke="#fff" stroke-linecap="round" stroke-linejoin="round" stroke-width="2" d="M135.41 366.736h150.792v177H135.41z"/><title>Text</title><text transform="translate(145.41 381.986)" fill="#000"><tspan font-family="Roboto" font-size="10" font-weight="400" x=".112" y="9">Zone: us-west1-a</tspan></text></g><g><title>Group_25</title><title>Graphic_31</title><path fill="#fff" d="M149.478 403.483h123v56h-123z"/><path stroke="#dfdfdf" stroke-linecap="round" stroke-linejoin="round" stroke-width="2" d="M149.478 403.483h123v56h-123z"/><title>Text</title><text transform="translate(200.478 417.233)" fill="#000"><tspan font-family="Roboto" font-size="12" font-weight="400" x="19.444" y="11">VM</tspan> <tspan font-family="Roboto" font-size="12" font-weight="400" x=".179" y="25">10.240.0.2</tspan></text><title>Group_26</title><title>Graphic_30</title><path d="M193.144 430.197l-5.754-10.006c-.462-.799-1.298-1.286-2.158-1.286h-11.508c-.922 0-1.728.54-2.158 1.285l-5.754 9.986a2.51 2.51 0 0 0 0 2.502l5.753 10.052c.461.799 1.298 1.331 2.158 1.331h11.508c.923 0 1.728-.58 2.158-1.325l5.754-10.007a2.566 2.566 0 0 0 0-2.532" fill="#4285f4"/><title>Graphic_29</title><path d="M191.492 435.6l-9.47-9.47-.678 1.47-1.477-1.476-.683 1.463-1.46-1.46-.359 1.77-1.299.223-.27 1.155-1.68.402 1.506 1.506-1.49.663 1.49 1.49-1.5.64 10.086 10.085h1.023c.922 0 1.728-.58 2.158-1.325z" fill="#000" fill-opacity=".07"/><title>Graphic_28</title><path d="M180.753 429.973h-2.496a.266.266 0 0 0-.265.266v2.495c0 .146.119.265.265.266h2.496c.146 0 .265-.12.265-.266v-2.495a.266.266 0 0 0-.265-.266" fill="#fff"/><g><title>Graphic_27</title><path d="M182.593 434.574h-6.176v-6.176h6.177zm2.11-4.802a.24.24 0 0 0 .239-.239v-.388a.24.24 0 0 0-.239-.238h-1.214v-1.135a.267.267 0 0 0-.265-.266h-1.14v-1.218a.24.24 0 0 0-.238-.238h-.388a.24.24 0 0 0-.239.238v1.218h-1.281v-1.218a.24.24 0 0 0-.238-.238h-.39a.24.24 0 0 0-.238.238v1.218h-1.281v-1.218a.24.24 0 0 0-.238-.238h-.39a.24.24 0 0 0-.238.238v1.218h-1.138a.266.266 0 0 0-.266.266v1.134h-1.214a.24.24 0 0 0-.238.239v.389a.24.24 0 0 0 .238.238h1.214v1.282h-1.214a.24.24 0 0 0-.238.238v.388a.24.24 0 0 0 .238.239h1.214v1.282h-1.214a.24.24 0 0 0-.238.238v.388a.24.24 0 0 0 .238.239h1.214v1.135c0 .146.12.265.266.265h1.139v1.218a.24.24 0 0 0 .238.239h.388a.239.239 0 0 0 .238-.239v-1.218h1.282v1.218a.24.24 0 0 0 .239.239h.388a.239.239 0 0 0 .238-.239v-1.218h1.282v1.218a.24.24 0 0 0 .239.239h.388a.24.24 0 0 0 .239-.239v-1.218h1.139a.267.267 0 0 0 .265-.265v-1.135h1.214a.239.239 0 0 0 .239-.239v-.388a.239.239 0 0 0-.239-.238h-1.214v-1.282h1.214a.239.239 0 0 0 .239-.239v-.388a.24.24 0 0 0-.239-.238h-1.214v-1.282z" fill="#fff"/></g></g><g><title>Group_33</title><title>Graphic_39</title><path fill="#fff" d="M149.478 477.983h123v56h-123z"/><path stroke="#dfdfdf" stroke-linecap="round" stroke-linejoin="round" stroke-width="2" d="M149.478 477.983h123v56h-123z"/><title>Text</title><text transform="translate(200.478 491.733)" fill="#000"><tspan font-family="Roboto" font-size="12" font-weight="400" x="19.444" y="11">VM</tspan> <tspan font-family="Roboto" font-size="12" font-weight="400" x=".179" y="25">10.240.0.3</tspan></text><title>Group_34</title><title>Graphic_38</title><path d="M193.144 504.697l-5.754-10.006c-.462-.799-1.298-1.286-2.158-1.286h-11.508c-.922 0-1.728.54-2.158 1.285l-5.754 9.986a2.51 2.51 0 0 0 0 2.502l5.753 10.052c.461.799 1.298 1.332 2.158 1.332h11.508c.923 0 1.728-.582 2.158-1.326l5.754-10.007a2.566 2.566 0 0 0 0-2.532" fill="#4285f4"/><title>Graphic_37</title><path d="M191.492 510.1l-9.47-9.47-.678 1.47-1.477-1.476-.683 1.463-1.46-1.46-.359 1.77-1.299.223-.27 1.155-1.68.402 1.506 1.505-1.49.664 1.49 1.49-1.5.64 10.086 10.085h1.023c.922 0 1.728-.58 2.158-1.325z" fill="#000" fill-opacity=".07"/><title>Graphic_36</title><path d="M180.753 504.473h-2.496a.266.266 0 0 0-.265.266v2.495c0 .146.119.265.265.266h2.496c.146 0 .265-.12.265-.266v-2.495a.267.267 0 0 0-.265-.266" fill="#fff"/><g><title>Graphic_35</title><path d="M182.593 509.074h-6.176v-6.176h6.177zm2.11-4.802a.24.24 0 0 0 .239-.239v-.388a.24.24 0 0 0-.239-.238h-1.214v-1.135a.267.267 0 0 0-.265-.266h-1.14v-1.218a.24.24 0 0 0-.238-.238h-.388a.24.24 0 0 0-.239.238v1.218h-1.281v-1.218a.24.24 0 0 0-.238-.238h-.39a.24.24 0 0 0-.238.238v1.218h-1.281v-1.218a.24.24 0 0 0-.238-.238h-.39a.24.24 0 0 0-.238.238v1.218h-1.138a.266.266 0 0 0-.266.266v1.134h-1.214a.24.24 0 0 0-.238.239v.389a.24.24 0 0 0 .238.238h1.214v1.282h-1.214a.24.24 0 0 0-.238.238v.388a.24.24 0 0 0 .238.239h1.214v1.282h-1.214a.24.24 0 0 0-.238.238v.388a.24.24 0 0 0 .238.239h1.214v1.135c0 .146.12.265.266.265h1.139v1.218a.24.24 0 0 0 .238.239h.388a.239.239 0 0 0 .238-.239v-1.218h1.282v1.218a.24.24 0 0 0 .239.239h.388a.239.239 0 0 0 .238-.239v-1.218h1.282v1.218a.24.24 0 0 0 .239.239h.388a.24.24 0 0 0 .239-.239v-1.218h1.139a.267.267 0 0 0 .265-.265v-1.135h1.214a.239.239 0 0 0 .239-.239v-.388a.239.239 0 0 0-.239-.238h-1.214v-1.282h1.214a.239.239 0 0 0 .239-.239v-.388a.24.24 0 0 0-.239-.238h-1.214v-1.282z" fill="#fff"/></g></g><g><title>Graphic_221</title><path fill="#e5f2ec" d="M-89.022 618.3h619.667v322.5H-89.022z"/><path stroke="#fff" stroke-linecap="round" stroke-linejoin="round" stroke-width="2" d="M-89.022 618.3h619.667v322.5H-89.022z"/><title>Text</title><text transform="translate(-79.022 633.55)" fill="#000"><tspan font-family="Roboto" font-size="10" font-weight="400" x=".093" y="9">Region: us-east1</tspan></text></g><g><title>Graphic_247</title><path fill="#ff7fff" d="M327.509 706.3h20v20h-20z"/></g><g><title>Graphic_213</title><path fill="#ede7f7" d="M-51 670.8h173.978v230.5H-51z"/><path stroke="#fff" stroke-linecap="round" stroke-linejoin="round" stroke-width="2" d="M-51 670.8h173.978v230.5H-51z"/><title>Text</title><text transform="translate(-41 686.05)" fill="#000"><tspan font-family="Roboto" font-size="10" font-weight="400" x=".479" y="9">subnet2: 192.168.1.0/24</tspan></text></g><g><title>Graphic_217</title><path fill="#fef7e0" d="M-40.839 712.8h154.112v177H-40.839z"/><path stroke="#fff" stroke-linecap="round" stroke-linejoin="round" stroke-width="2" d="M-40.839 712.8h154.112v177H-40.839z"/><title>Text</title><text transform="translate(-30.839 728.05)" fill="#000"><tspan font-family="Roboto" font-size="10" font-weight="400" x=".149" y="9">Zone: us-east1-a</tspan></text></g><g><title>Group_203</title><title>Graphic_209</title><path fill="#fff" d="M-28.933 750.3h130.3v56h-130.3z"/><path stroke="#dfdfdf" stroke-linecap="round" stroke-linejoin="round" stroke-width="2" d="M-28.933 750.3h130.3v56h-130.3z"/><title>Text</title><text transform="translate(22.067 764.05)" fill="#000"><tspan font-family="Roboto" font-size="12" font-weight="400" x="22.944" y="11">VM</tspan> <tspan font-family="Roboto" font-size="12" font-weight="400" x=".31" y="25">192.168.1.2</tspan></text><title>Group_204</title><title>Graphic_208</title><path d="M14.734 777.014L8.98 767.008c-.462-.8-1.298-1.286-2.158-1.286H-4.686c-.922 0-1.728.54-2.158 1.285l-5.754 9.986a2.51 2.51 0 0 0-.001 2.502l5.754 10.052c.461.798 1.298 1.331 2.158 1.331H6.821c.922 0 1.727-.581 2.158-1.326l5.754-10.006a2.566 2.566 0 0 0 0-2.532" fill="#4285f4"/><title>Graphic_207</title><path d="M13.082 782.417l-9.47-9.47-.678 1.47-1.477-1.476-.683 1.463-1.46-1.46-.359 1.77-1.299.223-.27 1.155-1.68.401L-2.788 778l-1.49.664 1.49 1.49-1.5.64 10.086 10.085h1.023c.922 0 1.728-.581 2.158-1.326z" fill="#000" fill-opacity=".07"/><title>Graphic_206</title><path d="M2.343 776.79H-.153a.266.266 0 0 0-.265.265v2.495c0 .147.119.266.265.266h2.496a.266.266 0 0 0 .265-.266v-2.495a.266.266 0 0 0-.265-.265" fill="#fff"/><g><title>Graphic_205</title><path d="M4.183 781.391h-6.176v-6.176h6.176zm2.11-4.803a.24.24 0 0 0 .239-.238v-.389a.239.239 0 0 0-.239-.238H5.08v-1.134a.267.267 0 0 0-.265-.266h-1.14v-1.218a.24.24 0 0 0-.238-.239h-.388a.24.24 0 0 0-.239.239v1.218H1.529v-1.219a.24.24 0 0 0-.238-.238H.9a.24.24 0 0 0-.238.239v1.218h-1.28v-1.219a.24.24 0 0 0-.238-.238h-.39a.24.24 0 0 0-.238.239v1.218h-1.138a.266.266 0 0 0-.266.265v1.135h-1.214a.24.24 0 0 0-.238.238v.39c0 .13.107.237.238.237h1.214v1.283h-1.214a.24.24 0 0 0-.238.237v.389c0 .132.107.238.238.238h1.214v1.282h-1.214a.24.24 0 0 0-.238.238v.389c0 .131.107.238.238.238h1.214v1.135c0 .147.12.265.266.266h1.139v1.218a.24.24 0 0 0 .238.238h.388a.239.239 0 0 0 .238-.238v-1.218H.663v1.218a.24.24 0 0 0 .239.238h.388a.239.239 0 0 0 .238-.238v-1.218H2.81v1.218a.24.24 0 0 0 .239.238h.388a.24.24 0 0 0 .239-.238v-1.218h1.139a.267.267 0 0 0 .265-.266v-1.135h1.214a.239.239 0 0 0 .239-.238v-.389a.239.239 0 0 0-.239-.238H5.08v-1.282h1.214a.239.239 0 0 0 .239-.238v-.388a.24.24 0 0 0-.239-.239H5.08v-1.282z" fill="#fff"/></g></g><g><title>Group_196</title><title>Graphic_202</title><path fill="#fff" d="M-28.933 826.3h130.3v56h-130.3z"/><path stroke="#dfdfdf" stroke-linecap="round" stroke-linejoin="round" stroke-width="2" d="M-28.933 826.3h130.3v56h-130.3z"/><title>Text</title><text transform="translate(22.067 840.05)" fill="#000"><tspan font-family="Roboto" font-size="12" font-weight="400" x="22.944" y="11">VM</tspan> <tspan font-family="Roboto" font-size="12" font-weight="400" x=".31" y="25">192.168.1.3</tspan></text><title>Group_197</title><title>Graphic_201</title><path d="M14.734 853.014L8.98 843.008c-.462-.8-1.298-1.286-2.158-1.286H-4.686c-.922 0-1.728.54-2.158 1.285l-5.754 9.986a2.51 2.51 0 0 0-.001 2.502l5.754 10.052c.461.798 1.298 1.331 2.158 1.331H6.821c.922 0 1.727-.581 2.158-1.326l5.754-10.006a2.566 2.566 0 0 0 0-2.532" fill="#4285f4"/><title>Graphic_200</title><path d="M13.082 858.417l-9.47-9.47-.678 1.47-1.477-1.476-.683 1.463-1.46-1.46-.359 1.77-1.299.223-.27 1.155-1.68.401L-2.788 854l-1.49.664 1.49 1.49-1.5.64 10.086 10.085h1.023c.922 0 1.728-.581 2.158-1.326z" fill="#000" fill-opacity=".07"/><title>Graphic_199</title><path d="M2.343 852.79H-.153a.266.266 0 0 0-.265.265v2.495c0 .147.119.266.265.266h2.496a.266.266 0 0 0 .265-.266v-2.495a.266.266 0 0 0-.265-.265" fill="#fff"/><g><title>Graphic_198</title><path d="M4.183 857.391h-6.176v-6.176h6.176zm2.11-4.803a.24.24 0 0 0 .239-.238v-.389a.239.239 0 0 0-.239-.238H5.08v-1.134a.267.267 0 0 0-.265-.266h-1.14v-1.218a.24.24 0 0 0-.238-.239h-.388a.24.24 0 0 0-.239.239v1.218H1.529v-1.219a.24.24 0 0 0-.238-.238H.9a.24.24 0 0 0-.238.239v1.218h-1.28v-1.219a.24.24 0 0 0-.238-.238h-.39a.24.24 0 0 0-.238.239v1.218h-1.138a.266.266 0 0 0-.266.265v1.135h-1.214a.24.24 0 0 0-.238.238v.39c0 .13.107.237.238.237h1.214v1.283h-1.214a.24.24 0 0 0-.238.237v.389c0 .132.107.238.238.238h1.214v1.282h-1.214a.24.24 0 0 0-.238.238v.389c0 .131.107.238.238.238h1.214v1.135c0 .147.12.265.266.266h1.139v1.218a.24.24 0 0 0 .238.238h.388a.239.239 0 0 0 .238-.238v-1.218H.663v1.218a.24.24 0 0 0 .239.238h.388a.239.239 0 0 0 .238-.238v-1.218H2.81v1.218a.24.24 0 0 0 .239.238h.388a.24.24 0 0 0 .239-.238v-1.218h1.139a.267.267 0 0 0 .265-.266v-1.135h1.214a.239.239 0 0 0 .239-.238v-.389a.239.239 0 0 0-.239-.238H5.08v-1.282h1.214a.239.239 0 0 0 .239-.238v-.388a.24.24 0 0 0-.239-.239H5.08v-1.282z" fill="#fff"/></g></g><g><title>Graphic_244</title><path fill="#ede7f7" d="M142.978 670.8h347.667v155.5H142.978z"/><path stroke="#fff" stroke-linecap="round" stroke-linejoin="round" stroke-width="2" d="M142.978 670.8h347.667v155.5H142.978z"/><title>Text</title><text transform="translate(152.978 686.05)" fill="#000"><tspan font-family="Roboto" font-size="10" font-weight="400" x=".401" y="9">subnet3: 10.2.0.0/16</tspan></text></g><g><title>Graphic_248</title><path fill="#fef7e0" d="M327.509 712.8h154.112v103H327.509z"/><path stroke="#fff" stroke-linecap="round" stroke-linejoin="round" stroke-width="2" d="M327.509 712.8h154.112v103H327.509z"/><title>Text</title><text transform="translate(337.51 728.05)" fill="#000"><tspan font-family="Roboto" font-size="10" font-weight="400" x=".064" y="9">Zone: us-east1-b</tspan></text></g><g><title>Graphic_363</title><path fill="#fef7e0" d="M153.687 712.8h154.112v103H153.687z"/><path stroke="#fff" stroke-linecap="round" stroke-linejoin="round" stroke-width="2" d="M153.687 712.8h154.112v103H153.687z"/><title>Text</title><text transform="translate(163.687 728.05)" fill="#000"><tspan font-family="Roboto" font-size="10" font-weight="400" x=".149" y="9">Zone: us-east1-a</tspan></text></g><g><title>Graphic_367</title><path fill="#fef7e0" d="M106.555 712.8H159.2v103h-52.645z"/><path stroke="#fff" stroke-linecap="round" stroke-linejoin="round" stroke-width="2" d="M106.555 712.8H159.2v103h-52.645z"/></g><g><title>Graphic_368</title><path fill="#fef7e0" d="M104.579 713.832h7.6v103h-7.6z"/></g><g><title>Graphic_369</title><path fill="#fef7e0" d="M155.378 714.211h7.6v100.2h-7.6z"/></g><g><title>Group_234</title><title>Graphic_240</title><path fill="#fff" d="M162.978 750.3h123v56h-123z"/><path stroke="#dfdfdf" stroke-linecap="round" stroke-linejoin="round" stroke-width="2" d="M162.978 750.3h123v56h-123z"/><title>Text</title><text transform="translate(213.978 764.05)" fill="#000"><tspan font-family="Roboto" font-size="12" font-weight="400" x="12.944" y="11">VM</tspan> <tspan font-family="Roboto" font-size="12" font-weight="400" x=".417" y="25">10.2.0.2</tspan></text><title>Group_235</title><title>Graphic_239</title><path d="M206.644 777.014l-5.754-10.006c-.462-.8-1.298-1.286-2.158-1.286h-11.508c-.922 0-1.728.54-2.158 1.285l-5.754 9.986a2.51 2.51 0 0 0 0 2.502l5.753 10.052c.461.798 1.298 1.331 2.158 1.331h11.508c.923 0 1.728-.581 2.158-1.326l5.754-10.006a2.566 2.566 0 0 0 0-2.532" fill="#4285f4"/><title>Graphic_238</title><path d="M204.992 782.417l-9.47-9.47-.678 1.47-1.477-1.476-.683 1.463-1.46-1.46-.359 1.77-1.299.223-.27 1.155-1.68.401 1.506 1.506-1.49.664 1.49 1.49-1.5.64 10.086 10.085h1.023c.922 0 1.728-.581 2.158-1.326z" fill="#000" fill-opacity=".07"/><title>Graphic_237</title><path d="M194.253 776.79h-2.496a.266.266 0 0 0-.265.265v2.495c0 .147.119.266.265.266h2.496a.266.266 0 0 0 .265-.266v-2.495a.266.266 0 0 0-.265-.265" fill="#fff"/><g><title>Graphic_236</title><path d="M196.093 781.391h-6.176v-6.176h6.177zm2.11-4.803a.24.24 0 0 0 .239-.238v-.389a.239.239 0 0 0-.239-.238h-1.214v-1.134a.267.267 0 0 0-.265-.266h-1.14v-1.218a.24.24 0 0 0-.238-.239h-.388a.24.24 0 0 0-.239.239v1.218h-1.281v-1.219a.24.24 0 0 0-.238-.238h-.39a.24.24 0 0 0-.238.239v1.218h-1.281v-1.219a.24.24 0 0 0-.238-.238h-.39a.24.24 0 0 0-.238.239v1.218h-1.138a.266.266 0 0 0-.266.265v1.135h-1.214a.24.24 0 0 0-.238.238v.39c0 .13.107.237.238.237h1.214v1.283h-1.214a.24.24 0 0 0-.238.237v.389c0 .132.107.238.238.238h1.214v1.282h-1.214a.24.24 0 0 0-.238.238v.389c0 .131.107.238.238.238h1.214v1.135c0 .147.12.265.266.266h1.139v1.218a.24.24 0 0 0 .238.238h.388a.239.239 0 0 0 .238-.238v-1.218h1.282v1.218a.24.24 0 0 0 .239.238h.388a.239.239 0 0 0 .238-.238v-1.218h1.282v1.218a.24.24 0 0 0 .239.238h.388a.24.24 0 0 0 .239-.238v-1.218h1.139a.267.267 0 0 0 .265-.266v-1.135h1.214a.239.239 0 0 0 .239-.238v-.389a.239.239 0 0 0-.239-.238h-1.214v-1.282h1.214a.239.239 0 0 0 .239-.238v-.388a.24.24 0 0 0-.239-.239h-1.214v-1.282z" fill="#fff"/></g></g><g><title>Group_227</title><title>Graphic_233</title><path fill="#fff" d="M347.644 750.3h123v56h-123z"/><path stroke="#dfdfdf" stroke-linecap="round" stroke-linejoin="round" stroke-width="2" d="M347.644 750.3h123v56h-123z"/><title>Text</title><text transform="translate(398.644 764.05)" fill="#000"><tspan font-family="Roboto" font-size="12" font-weight="400" x="12.944" y="11">VM</tspan> <tspan font-family="Roboto" font-size="12" font-weight="400" x=".417" y="25">10.2.0.3</tspan></text><title>Group_228</title><title>Graphic_232</title><path d="M391.31 777.014l-5.754-10.006c-.461-.8-1.297-1.286-2.157-1.286H371.89c-.922 0-1.727.54-2.158 1.285l-5.754 9.986a2.51 2.51 0 0 0 0 2.502l5.754 10.052c.461.798 1.297 1.331 2.158 1.331h11.508c.922 0 1.727-.581 2.158-1.326l5.754-10.006a2.566 2.566 0 0 0 0-2.532" fill="#4285f4"/><title>Graphic_231</title><path d="M389.659 782.417l-9.47-9.47-.679 1.47-1.476-1.476-.684 1.463-1.459-1.46-.359 1.77-1.299.223-.27 1.155-1.68.401 1.506 1.506-1.49.664 1.49 1.49-1.5.64 10.086 10.085h1.023c.922 0 1.727-.581 2.158-1.326z" fill="#000" fill-opacity=".07"/><title>Graphic_230</title><path d="M378.92 776.79h-2.496a.266.266 0 0 0-.266.265v2.495c.001.147.12.266.266.266h2.495a.266.266 0 0 0 .266-.266v-2.495a.266.266 0 0 0-.265-.265" fill="#fff"/><g><title>Graphic_229</title><path d="M380.76 781.391h-6.176v-6.176h6.176zm2.11-4.803a.24.24 0 0 0 .238-.238v-.389a.239.239 0 0 0-.238-.238h-1.214v-1.134a.267.267 0 0 0-.265-.266h-1.14v-1.218a.24.24 0 0 0-.238-.239h-.389a.24.24 0 0 0-.238.239v1.218h-1.281v-1.219a.24.24 0 0 0-.239-.238h-.389a.24.24 0 0 0-.238.239v1.218h-1.281v-1.219a.24.24 0 0 0-.239-.238h-.389a.24.24 0 0 0-.238.239v1.218h-1.139a.266.266 0 0 0-.265.265v1.135h-1.214a.24.24 0 0 0-.239.238v.39a.24.24 0 0 0 .239.237h1.214v1.283h-1.214a.239.239 0 0 0-.238.237v.389c0 .132.106.238.238.238h1.214v1.282h-1.214a.24.24 0 0 0-.238.238v.389c0 .131.106.238.238.238h1.214v1.135c0 .147.119.265.265.266h1.14v1.218a.24.24 0 0 0 .238.238h.388a.239.239 0 0 0 .238-.238v-1.218h1.282v1.218a.24.24 0 0 0 .239.238h.388a.239.239 0 0 0 .238-.238v-1.218h1.282v1.218a.24.24 0 0 0 .239.238h.388a.24.24 0 0 0 .238-.238v-1.218h1.14a.267.267 0 0 0 .265-.266v-1.135h1.214a.239.239 0 0 0 .238-.238v-.389a.239.239 0 0 0-.238-.238h-1.214v-1.282h1.214a.239.239 0 0 0 .238-.238v-.388a.24.24 0 0 0-.238-.239h-1.214v-1.282z" fill="#fff"/></g></g><g><title>Group_276</title><title>Graphic_12</title><path fill="#fff" d="M137.478-19.2h147v54h-147z"/><path stroke="#dfdfdf" stroke-linecap="round" stroke-linejoin="round" stroke-width="2" d="M137.478-19.2h147v54h-147z"/><title>Text</title><text transform="translate(178.478 1.05)" fill="#000"><tspan font-family="Roboto" font-size="12" font-weight="400" x=".439" y="11">Internet</tspan></text><title>Graphic_275</title><path d="M167.99 6.33a5.617 5.617 0 0 0-5.512-4.53 5.622 5.622 0 0 0-4.988 3.03 4.496 4.496 0 0 0-4.012 4.47c0 2.482 2.017 4.5 4.5 4.5h9.75c2.07 0 3.75-1.68 3.75-3.75a3.732 3.732 0 0 0-3.488-3.72z" fill="#616161"/></g><g><title>Graphic_351</title><path d="M210.478 34.8v163.4a.5.5 0 1 0 1 0V34.8a.5.5 0 0 0-1 0z" fill="#616161"/></g><g><title>Graphic_352</title><path d="M351.478 224.2h-67a.5.5 0 0 0 0 1h67a.5.5 0 1 0 0-1z" fill="#616161"/></g><g><title>Graphic_353</title><path d="M351.478 430.483h-79a.5.5 0 0 0 0 1h79a.5.5 0 1 0 0-1z" fill="#616161"/></g><g><title>Graphic_354</title><path d="M351.478 504.983h-79a.5.5 0 0 0 0 1h79a.5.5 0 1 0 0-1z" fill="#616161"/></g><g><title>Graphic_355</title><path d="M352.843 604.967V224.8a.5.5 0 0 0-1 0v380.167a.5.5 0 0 0 1 0z" fill="#616161"/></g><g><title>Graphic_356</title><path d="M133.31 606.475h316.168a.5.5 0 1 0 0-1H133.31a.5.5 0 1 0 0 1z" fill="#616161"/></g><g><title>Graphic_357</title><path d="M133.978 853.467v-247a.5.5 0 1 0-1 0v247a.5.5 0 0 0 1 0z" fill="#616161"/></g><g><title>Graphic_358</title><path d="M266.478 749.8v-144a.5.5 0 0 0-1 0v144a.5.5 0 0 0 1 0z" fill="#616161"/></g><g><title>Graphic_359</title><path d="M450.144 749.8v-144a.5.5 0 0 0-1 0v144a.5.5 0 0 0 1 0z" fill="#616161"/></g><g><title>Graphic_360</title><path d="M101.478 779.55h31a.5.5 0 0 0 0-1h-31a.5.5 0 0 0 0 1z" fill="#616161"/></g><g><title>Graphic_361</title><path d="M101.478 854.3h31.666a.5.5 0 0 0 0-1h-31.666a.5.5 0 0 0 0 1z" fill="#616161"/></g><g><title>Group_364</title><title>Graphic_366</title><path fill="#fff" d="M140.382 184h144.191v54H140.382z"/><path stroke="#dfdfdf" stroke-linecap="round" stroke-linejoin="round" stroke-width="2" d="M140.382 184h144.191v54H140.382z"/><title>Text</title><text transform="translate(181.382 204.25)" fill="#000"><tspan font-family="Roboto" font-size="12" font-weight="400" x=".49" y="11">VPC Routing</tspan></text><title>Graphic_365</title><path d="M163.796 207.816L157.968 202l-1.586 1.586 5.816 5.816zm4.399-5.816l2.295 2.295-14.108 14.119 1.586 1.586 14.12-14.107 2.294 2.294V202zm.37 10.586l-1.585 1.587 3.52 3.52-2.305 2.307h6.187v-6.188l-2.295 2.295z" fill="#616161"/></g></g></svg>