<svg xmlns="http://www.w3.org/2000/svg" viewBox="87 60 540 415" width="540" height="415"><g fill="none"><title>Canvas 1</title><title>Layer 1</title><title>GCP Zone</title><path fill="#eaedef" d="M87 60h533.5v409H87z"/><title>Page-1</title><title>Shape</title><path d="M137.808 91.03l-2.148 3.733h-5.625a1.4 1.4 0 0 1-1.215-.704l-4.55-7.933a1.401 1.401 0 0 1 0-1.392l1.732-3.018 2.137 3.713 3.222 5.6z" fill="#fbbc05"/><title>Shape</title><path d="M144.899 86.126l-4.55 7.934c-.25.436-.713.704-1.214.704h-3.476l2.147-3.734 3.225-5.6-3.225-5.6h4.28l2.812 4.904c.249.43.25.961.001 1.392z" fill="#ea4335"/><title>Shape</title><path d="M142.087 79.83H131.36l-3.222 5.6-2.137-3.715 2.818-4.915c.25-.436.713-.704 1.215-.704h9.1c.502 0 .966.269 1.215.704z" fill="#4285f4"/><title>Shape</title><title>Oval</title><circle cx="134.585" cy="85.429" r="2.801" fill="#fff"/><g><title>GCP logo</title><title>Fill-3</title><path d="M203.683 85.734c0-3.23 2.441-5.671 5.64-5.671 1.639 0 3.019.652 3.99 1.774l-.971.94c-.758-.94-1.775-1.38-3.018-1.38-2.29 0-4.216 1.668-4.216 4.337 0 2.67 1.926 4.337 4.216 4.337 1.365 0 2.517-.636 3.336-1.577l.97.97c-.955 1.138-2.486 1.942-4.306 1.942-3.2 0-5.641-2.442-5.641-5.672" fill="#757575"/><title>Fill-5</title><path fill="#757575" d="M214.722 80.306h1.395v10.858h-1.395z"/><title>Fill-7</title><path d="M223.41 87.448c0-1.698-1.182-2.684-2.426-2.684-1.243 0-2.426.986-2.426 2.684 0 1.699 1.183 2.684 2.426 2.684 1.244 0 2.427-.985 2.427-2.684m1.395 0c0 2.26-1.593 3.958-3.822 3.958s-3.821-1.699-3.821-3.958c0-2.26 1.592-3.958 3.821-3.958 2.23 0 3.822 1.699 3.822 3.958" fill="#757575"/><title>Fill-8</title><path d="M231.114 91.163v-1.03h-.06c-.41.681-1.336 1.273-2.351 1.273-1.911 0-2.836-1.29-2.836-3.124v-4.55h1.395v4.323c0 1.547.773 2.077 1.834 2.077 1.214 0 1.957-1.168 1.957-2.305v-4.094h1.395v7.43z" fill="#757575"/><title>Fill-9</title><path d="M239.696 87.448c0-1.698-1.122-2.684-2.366-2.684-1.243 0-2.365 1.016-2.365 2.684 0 1.668 1.122 2.684 2.365 2.684 1.244 0 2.366-.985 2.366-2.684m-6.126 0c0-2.275 1.652-3.958 3.533-3.958 1.183 0 2.108.591 2.532 1.274h.061l-.061-1.03v-3.428h1.395v10.857h-1.334v-1.031h-.061c-.424.682-1.35 1.274-2.532 1.274-1.88 0-3.534-1.683-3.534-3.958" fill="#757575"/><title>Fill-10</title><path d="M248.566 85.431c1.244 0 1.941-1.03 1.941-1.895 0-.864-.697-1.896-1.94-1.896h-2.336v3.791zm-3.73 5.732V80.306h3.7c1.804 0 3.396 1.334 3.396 3.23 0 1.895-1.592 3.23-3.396 3.23h-2.305v4.397z" fill="#757575"/><title>Fill-11</title><path fill="#757575" d="M252.918 80.306h1.395v10.858h-1.395z"/><title>Fill-12</title><path d="M260.788 87.964s-.592-.485-1.775-.485c-1.47 0-2.047.788-2.047 1.47 0 .789.82 1.183 1.547 1.183 1.107 0 2.275-.956 2.275-2.168m-5.278.955c0-1.683 1.517-2.593 3.261-2.593 1 0 1.728.288 2.017.455v-.213c0-1.122-.895-1.804-1.942-1.804-.772 0-1.516.379-1.774 1.077l-1.273-.547c.258-.682 1.152-1.804 3.017-1.804 1.82 0 3.306 1.092 3.306 3.185v4.488h-1.334v-1.03h-.061c-.41.62-1.168 1.273-2.441 1.273-1.517 0-2.776-.94-2.776-2.487" fill="#757575"/><title>Fill-13</title><path d="M264.139 88.904v-3.898h-1.304v-1.273h1.304v-2.275h1.395v2.275h1.82v1.273h-1.82v3.792c0 .834.349 1.213 1 1.213.258 0 .44-.03.637-.122l.486 1.198c-.319.137-.652.197-1.122.197-1.563 0-2.396-.864-2.396-2.38" fill="#757575"/><title>Fill-14</title><path d="M273.206 80.442l-.485 1.198c-.182-.091-.379-.121-.637-.121-.698 0-1.243.409-1.243 1.274v.94h1.94v1.273h-1.94v6.157h-1.395v-6.157h-1.396v-1.273h1.396v-.986c0-1.516 1.076-2.502 2.638-2.502.47 0 .804.061 1.122.197" fill="#757575"/><g><title>Fill-15</title><path d="M279.408 87.448c0-1.698-1.183-2.684-2.426-2.684-1.244 0-2.426.986-2.426 2.684 0 1.699 1.182 2.684 2.426 2.684 1.243 0 2.426-.985 2.426-2.684m1.395 0c0 2.26-1.592 3.958-3.821 3.958-2.23 0-3.822-1.699-3.822-3.958 0-2.26 1.593-3.958 3.822-3.958s3.821 1.699 3.821 3.958" fill="#757575"/></g><g><title>Fill-16</title><path d="M281.925 91.163v-7.43h1.334v1.213h.061c.303-.849 1.38-1.395 2.154-1.395.454 0 .758.06 1.046.182l-.53 1.304c-.198-.076-.44-.106-.744-.106-.956 0-1.926.803-1.926 2.169v4.063z" fill="#757575"/></g><g><title>Fill-17</title><path d="M287.278 83.733h1.334v1.03h.06c.426-.712 1.411-1.273 2.29-1.273 1.198 0 1.972.546 2.35 1.425a3.023 3.023 0 0 1 2.594-1.425c1.82 0 2.654 1.29 2.654 3.124v4.55h-1.395v-4.337c0-1.547-.592-2.063-1.653-2.063-1.138 0-1.896 1.152-1.896 2.29v4.11h-1.395v-4.337c0-1.547-.591-2.063-1.653-2.063-1.137 0-1.896 1.152-1.896 2.29v4.11h-1.394z" fill="#757575"/></g><g><title>Fill-18</title><path d="M151.095 85.189c0-3.428 2.881-6.218 6.309-6.218 1.895 0 3.245.743 4.26 1.714l-1.197 1.198c-.728-.682-1.714-1.213-3.063-1.213-2.503 0-4.459 2.016-4.459 4.519 0 2.502 1.956 4.519 4.459 4.519 1.622 0 2.547-.652 3.138-1.244.486-.485.805-1.183.926-2.138h-4.064v-1.698h5.716c.061.303.091.667.091 1.061 0 1.274-.348 2.85-1.47 3.973-1.092 1.137-2.487 1.744-4.337 1.744-3.428 0-6.309-2.79-6.309-6.217" fill="#757575"/></g><g><title>Fill-19</title><path d="M167.832 89.829c-1.214 0-2.26-1.001-2.26-2.427 0-1.44 1.046-2.426 2.26-2.426 1.213 0 2.259.986 2.259 2.426 0 1.426-1.046 2.427-2.26 2.427m0-6.43c-2.214 0-4.018 1.683-4.018 4.003 0 2.305 1.804 4.004 4.019 4.004 2.213 0 4.018-1.699 4.018-4.004 0-2.32-1.805-4.003-4.018-4.003" fill="#757575"/></g><g><title>Fill-20</title><path d="M176.598 89.829c-1.213 0-2.26-1.001-2.26-2.427 0-1.44 1.047-2.426 2.26-2.426 1.213 0 2.26.986 2.26 2.426 0 1.426-1.047 2.427-2.26 2.427m0-6.43c-2.214 0-4.019 1.683-4.019 4.003 0 2.305 1.805 4.004 4.019 4.004 2.214 0 4.019-1.699 4.019-4.004 0-2.32-1.805-4.003-4.019-4.003" fill="#757575"/></g><g><title>Fill-21</title><path d="M185.341 89.829c-1.212 0-2.229-1.016-2.229-2.411 0-1.41 1.017-2.442 2.23-2.442 1.197 0 2.137 1.031 2.137 2.442 0 1.395-.94 2.41-2.138 2.41zm2.017-6.187v.652h-.06c-.395-.47-1.153-.895-2.108-.895-2.002 0-3.837 1.759-3.837 4.019 0 2.244 1.835 3.988 3.837 3.988.955 0 1.713-.425 2.107-.91h.061v.576c0 1.532-.819 2.35-2.138 2.35-1.077 0-1.744-.772-2.017-1.425l-1.532.637c.44 1.062 1.608 2.366 3.549 2.366 2.063 0 3.806-1.213 3.806-4.17v-7.188z" fill="#757575"/></g><g><title>Fill-22</title><path fill="#757575" d="M190.24 79.396h1.759v11.767h-1.759z"/></g><g><title>Fill-23</title><path d="M196.684 84.946c.698 0 1.29.349 1.486.85l-3.578 1.485c-.046-1.547 1.197-2.335 2.092-2.335m.137 4.883c-.895 0-1.532-.41-1.941-1.213l5.353-2.214-.182-.455c-.334-.895-1.35-2.548-3.427-2.548-2.063 0-3.776 1.623-3.776 4.003 0 2.245 1.698 4.004 3.973 4.004 1.835 0 2.896-1.122 3.336-1.774l-1.365-.91c-.455.667-1.077 1.107-1.971 1.107" fill="#757575"/></g></g><g><title>Container Engine</title><title>Fill-1</title><path d="M398.808 140.328l-20.55-35.736c-1.648-2.853-4.634-4.592-7.707-4.592h-41.1c-3.293 0-6.17 1.93-7.707 4.59l-20.55 35.665a8.964 8.964 0 0 0-.003 8.934l20.551 35.9c1.647 2.852 4.634 4.755 7.706 4.755h41.1c3.295 0 6.17-2.076 7.708-4.735l20.55-35.738c1.647-2.853 1.535-6.381.002-9.043" fill="#4285f4"/><text transform="translate(305 189.274)" fill="#666"><tspan font-family="Google Sans" font-size="14" font-weight="400" x="23.377" y="14">Config </tspan> <tspan font-family="Google Sans" font-size="14" font-weight="400" x="10.665" y="32">Connector</tspan></text><g><title>Fill-4</title><path d="M370.023 132.768l-20.024-8.94-19.141 10.4-.8 22.918 32.698 32.698h7.793c3.294 0 6.17-2.076 7.707-4.735l16.104-28.006z" fill="#000" fill-opacity=".07"/></g><g><title>Fill-7</title><path d="M367.013 153.555l-6.451-3.724v-9.815l-9.533 5.5v11.004l8.5-4.904 6.454 3.724L350 164.569l-15.983-9.23 6.455-3.723 8.498 4.904v-11.004l-9.53-5.5v9.815l-6.452 3.725v-18.453l15.982-9.229v7.449l-8.498 4.909 9.528 5.5 9.53-5.5-8.5-4.91v-7.448l15.984 9.23zm2.537-21.138l-18.497-10.68a2.124 2.124 0 0 0-2.109 0l-18.496 10.68a2.112 2.112 0 0 0-1.054 1.83v21.355c0 .754.401 1.451 1.054 1.824l18.496 10.68a2.105 2.105 0 0 0 2.109 0l18.497-10.68a2.1 2.1 0 0 0 1.055-1.824v-21.356c0-.755-.403-1.451-1.055-1.829z" fill="#fff"/></g></g><g><title>zone internal - blue</title><path fill="#e1f6fe" d="M109 302h205v152.5H109z"/><path stroke="#fff" stroke-linecap="round" stroke-linejoin="round" stroke-width="2" d="M109 302h205v152.5H109z"/><text transform="translate(119 317)" fill="#757575"><tspan font-family="Google Sans" font-size="14" font-weight="400" x="0" y="14">Project 1</tspan> <tspan font-family="Google Sans" font-size="14" font-weight="400" x="0" y="120">my-service-account</tspan></text></g><g><title>BigQuery</title><title>Fill-1</title><path d="M166.666 376.292l-5.754-10.006c-.461-.8-1.297-1.286-2.158-1.286h-11.508c-.922 0-1.727.54-2.158 1.285l-5.754 9.986a2.51 2.51 0 0 0 0 2.502l5.754 10.052c.46.798 1.297 1.331 2.158 1.331h11.508c.922 0 1.727-.581 2.158-1.326l5.754-10.006a2.566 2.566 0 0 0 0-2.532" fill="#4285f4"/><title>Fill-4</title><path d="M160.912 388.83l3.835-6.67-8.11-8.11-3.637-.972-3.267 1.213-1.261 3.287 1.014 3.66 8.92 8.918h.348c.922 0 1.727-.58 2.158-1.326" fill="#000" fill-opacity=".07"/><title>Fill-6</title><path d="M153 381.427a3.85 3.85 0 1 1 0-7.7 3.85 3.85 0 0 1 0 7.7m0-8.923a5.074 5.074 0 1 0 0 10.147 5.074 5.074 0 0 0 0-10.147" fill="#fff"/><title>Fill-8</title><path d="M150.592 377.382v1.577c.233.401.563.737.958.98v-2.557z" fill="#fff"/><g><title>Fill-10</title><path d="M152.491 376.053v4.246c.163.03.33.048.501.048.157 0 .309-.016.458-.041v-4.253z" fill="#fff"/></g><g><title>Fill-12</title><path d="M154.48 378.038v1.872c.4-.255.732-.608.959-1.028v-.844z" fill="#fff"/></g><g><title>Fill-14</title><path d="M156.651 380.703l-.525.527a.237.237 0 0 0 0 .335l1.993 1.994a.238.238 0 0 0 .336 0l.526-.526a.238.238 0 0 0 0-.335l-1.994-1.995a.238.238 0 0 0-.336 0" fill="#fff"/></g></g><g><title>Cloud Pub/Sub</title><title>Fill-1</title><path d="M225.166 376.292l-5.754-10.006c-.461-.8-1.297-1.286-2.158-1.286h-11.508c-.922 0-1.727.54-2.158 1.285l-5.754 9.986a2.51 2.51 0 0 0 0 2.502l5.754 10.052c.46.798 1.297 1.331 2.158 1.331h11.508c.922 0 1.727-.581 2.158-1.326l5.754-10.006a2.566 2.566 0 0 0 0-2.532" fill="#4285f4"/><title>Fill-4</title><path d="M217.017 374.022l-1.282.266-3.195-3.194-1.021 1.911-.555 2.212.938.938-1.801.368-2.472-2.471-1.678 1.613 3.09 3.089-3.274 2.604 8.799 8.798h2.688c.922 0 1.727-.581 2.158-1.326l4.532-7.88z" fill="#000" fill-opacity=".07"/><title>Fill-7</title><path d="M215.625 373.852a1.164 1.164 0 1 1 1.166 2.015 1.164 1.164 0 0 1-1.166-2.015" fill="#fff"/><title>Fill-9</title><path d="M206.21 375.868a1.165 1.165 0 1 1 1.165-2.018 1.165 1.165 0 0 1-1.165 2.018" fill="#fff"/><title>Fill-11</title><path d="M212.665 383.013a1.164 1.164 0 1 1-2.329 0 1.164 1.164 0 0 1 2.329 0" fill="#fff"/><title>Fill-13</title><path d="M211.5 375.158c.185 0 .364.023.537.062v-3.078h-1.074v3.078c.173-.04.352-.062.537-.062" fill="#fff"/><g><title>Fill-15</title><path d="M213.812 378.292a2.41 2.41 0 0 1-.54.93l2.666 1.54.538-.932z" fill="#fff"/></g><g><title>Fill-17</title><path d="M209.188 378.292l-2.664 1.538.538.931 2.666-1.54a2.41 2.41 0 0 1-.54-.929" fill="#fff"/></g><g><title>Fill-19</title><path d="M213.382 377.578a1.881 1.881 0 1 1-3.762 0 1.881 1.881 0 0 1 3.762 0" fill="#fff"/></g><g><title>Fill-21</title><path d="M206.054 379.015a1.48 1.48 0 1 1 1.477 2.563 1.48 1.48 0 0 1-1.477-2.563" fill="#fff"/></g><g><title>Fill-23</title><path d="M215.469 381.575a1.479 1.479 0 1 1 1.48-2.558 1.479 1.479 0 0 1-1.48 2.558" fill="#fff"/></g><g><title>Fill-25</title><path d="M212.978 372.142a1.479 1.479 0 1 1-2.957 0 1.479 1.479 0 0 1 2.957 0" fill="#fff"/></g></g><g><title>Compute Engine</title><title>Fill-1</title><path d="M279.666 376.292l-5.754-10.006c-.461-.8-1.297-1.286-2.158-1.286h-11.508c-.922 0-1.727.54-2.158 1.285l-5.754 9.986a2.51 2.51 0 0 0 0 2.502l5.754 10.052c.46.798 1.297 1.331 2.158 1.331h11.508c.922 0 1.727-.581 2.158-1.326l5.754-10.006a2.566 2.566 0 0 0 0-2.532" fill="#4285f4"/><title>Fill-4</title><path d="M278.015 381.695l-9.47-9.47-.679 1.47-1.476-1.476-.684 1.463-1.46-1.46-.358 1.77-1.3.223-.269 1.155-1.68.401 1.506 1.506-1.49.664 1.49 1.49-1.5.64 10.086 10.085h1.023c.922 0 1.727-.581 2.158-1.326z" fill="#000" fill-opacity=".07"/><g><title>Fill-7</title><path d="M267.275 376.068h-2.495a.266.266 0 0 0-.266.266v2.495c.001.146.12.265.266.266h2.495c.147-.001.265-.12.266-.266v-2.495a.266.266 0 0 0-.266-.266" fill="#fff"/></g><g><title>Fill-9</title><path d="M269.116 380.67h-6.177v-6.177h6.177zm2.11-4.803a.24.24 0 0 0 .238-.239v-.388a.24.24 0 0 0-.238-.239h-1.214v-1.134a.267.267 0 0 0-.266-.266h-1.139v-1.218a.24.24 0 0 0-.238-.238h-.389a.24.24 0 0 0-.238.238v1.218h-1.282v-1.219a.24.24 0 0 0-.238-.238h-.389a.24.24 0 0 0-.238.239v1.218h-1.282v-1.219a.24.24 0 0 0-.238-.238h-.389a.24.24 0 0 0-.238.239v1.218h-1.139a.266.266 0 0 0-.266.265v1.135h-1.214a.24.24 0 0 0-.238.238v.39c.001.13.107.237.239.238h1.213v1.282h-1.214a.24.24 0 0 0-.238.237v.39c0 .13.107.237.239.237h1.214v1.282h-1.214a.24.24 0 0 0-.238.238v.389c0 .131.106.238.238.238h1.214v1.135c0 .147.119.265.265.266h1.14v1.218a.24.24 0 0 0 .237.238h.389a.239.239 0 0 0 .238-.238v-1.218h1.282v1.218c0 .132.107.238.238.238h.389a.239.239 0 0 0 .238-.238v-1.218h1.282v1.218a.24.24 0 0 0 .238.238h.389a.24.24 0 0 0 .238-.238v-1.218h1.14a.267.267 0 0 0 .265-.265v-1.136h1.214a.239.239 0 0 0 .238-.238v-.388a.239.239 0 0 0-.238-.239h-1.214v-1.282h1.214a.239.239 0 0 0 .238-.238v-.388a.24.24 0 0 0-.238-.239h-1.214v-1.281z" fill="#fff"/></g></g><g><title>zone internal - blue</title><path fill="#80ffff" d="M402 302h205v152.5H402z"/><path stroke="#fff" stroke-linecap="round" stroke-linejoin="round" stroke-width="2" d="M402 302h205v152.5H402z"/><text transform="translate(412 317)" fill="#757575"><tspan font-family="Google Sans" font-size="14" font-weight="400" x="0" y="14">Project 2</tspan> <tspan font-family="Google Sans" font-size="14" font-weight="400" x="0" y="120">another-service-account</tspan></text></g><g><title>BigQuery</title><title>Fill-1</title><path d="M459.666 376.292l-5.754-10.006c-.461-.8-1.297-1.286-2.158-1.286h-11.508c-.922 0-1.727.54-2.158 1.285l-5.754 9.986a2.51 2.51 0 0 0 0 2.502l5.754 10.052c.46.798 1.297 1.331 2.158 1.331h11.508c.922 0 1.727-.581 2.158-1.326l5.754-10.006a2.566 2.566 0 0 0 0-2.532" fill="#4285f4"/><title>Fill-4</title><path d="M453.912 388.83l3.835-6.67-8.11-8.11-3.637-.972-3.267 1.213-1.261 3.287 1.014 3.66 8.92 8.918h.348c.922 0 1.727-.58 2.158-1.326" fill="#000" fill-opacity=".07"/><title>Fill-6</title><path d="M446 381.427a3.85 3.85 0 1 1 0-7.7 3.85 3.85 0 0 1 0 7.7m0-8.923a5.074 5.074 0 1 0 0 10.147 5.074 5.074 0 0 0 0-10.147" fill="#fff"/><title>Fill-8</title><path d="M443.592 377.382v1.577c.233.401.563.737.958.98v-2.557z" fill="#fff"/><g><title>Fill-10</title><path d="M445.491 376.053v4.246c.163.03.33.048.501.048.157 0 .309-.016.458-.041v-4.253z" fill="#fff"/></g><g><title>Fill-12</title><path d="M447.48 378.038v1.872c.4-.255.732-.608.959-1.028v-.844z" fill="#fff"/></g><g><title>Fill-14</title><path d="M449.651 380.703l-.525.527a.237.237 0 0 0 0 .335l1.993 1.994a.238.238 0 0 0 .336 0l.526-.526a.238.238 0 0 0 0-.335l-1.994-1.995a.238.238 0 0 0-.336 0" fill="#fff"/></g></g><g><title>Cloud Pub/Sub</title><title>Fill-1</title><path d="M518.166 376.292l-5.754-10.006c-.461-.8-1.297-1.286-2.158-1.286h-11.508c-.922 0-1.727.54-2.158 1.285l-5.754 9.986a2.51 2.51 0 0 0 0 2.502l5.754 10.052c.46.798 1.297 1.331 2.157 1.331h11.509c.922 0 1.727-.581 2.158-1.326l5.754-10.006a2.566 2.566 0 0 0 0-2.532" fill="#4285f4"/><title>Fill-4</title><path d="M510.017 374.022l-1.282.266-3.195-3.194-1.021 1.911-.555 2.212.938.938-1.801.368-2.472-2.471-1.678 1.613 3.09 3.089-3.274 2.604 8.799 8.798h2.688c.922 0 1.727-.581 2.158-1.326l4.532-7.88z" fill="#000" fill-opacity=".07"/><title>Fill-7</title><path d="M508.625 373.852a1.164 1.164 0 1 1 1.166 2.015 1.164 1.164 0 0 1-1.166-2.015" fill="#fff"/><title>Fill-9</title><path d="M499.21 375.868a1.165 1.165 0 1 1 1.165-2.018 1.165 1.165 0 0 1-1.165 2.018" fill="#fff"/><title>Fill-11</title><path d="M505.665 383.013a1.164 1.164 0 1 1-2.329 0 1.164 1.164 0 0 1 2.329 0" fill="#fff"/><title>Fill-13</title><path d="M504.5 375.158c.185 0 .365.023.538.062v-3.078h-1.075v3.078c.173-.04.352-.062.537-.062" fill="#fff"/><g><title>Fill-15</title><path d="M506.812 378.292a2.41 2.41 0 0 1-.54.93l2.666 1.54.538-.932z" fill="#fff"/></g><g><title>Fill-17</title><path d="M502.188 378.292l-2.664 1.538.538.931 2.666-1.54a2.409 2.409 0 0 1-.54-.929" fill="#fff"/></g><g><title>Fill-19</title><path d="M506.382 377.578a1.881 1.881 0 1 1-3.762 0 1.881 1.881 0 0 1 3.762 0" fill="#fff"/></g><g><title>Fill-21</title><path d="M499.054 379.015a1.48 1.48 0 1 1 1.477 2.563 1.48 1.48 0 0 1-1.477-2.563" fill="#fff"/></g><g><title>Fill-23</title><path d="M508.469 381.575a1.479 1.479 0 1 1 1.48-2.558 1.479 1.479 0 0 1-1.48 2.558" fill="#fff"/></g><g><title>Fill-25</title><path d="M505.978 372.142a1.479 1.479 0 1 1-2.957 0 1.479 1.479 0 0 1 2.957 0" fill="#fff"/></g></g><g><title>Compute Engine</title><title>Fill-1</title><path d="M572.666 376.292l-5.754-10.006c-.461-.8-1.297-1.286-2.158-1.286h-11.508c-.922 0-1.727.54-2.158 1.285l-5.754 9.986a2.51 2.51 0 0 0 0 2.502l5.754 10.052c.46.798 1.297 1.331 2.158 1.331h11.508c.922 0 1.727-.581 2.158-1.326l5.754-10.006a2.566 2.566 0 0 0 0-2.532" fill="#4285f4"/><title>Fill-4</title><path d="M571.015 381.695l-9.47-9.47-.679 1.47-1.476-1.476-.684 1.463-1.46-1.46-.358 1.77-1.3.223-.269 1.155-1.68.401 1.506 1.506-1.49.664 1.49 1.49-1.5.64 10.086 10.085h1.023c.922 0 1.727-.581 2.158-1.326z" fill="#000" fill-opacity=".07"/><g><title>Fill-7</title><path d="M560.275 376.068h-2.495a.266.266 0 0 0-.266.266v2.495c.001.146.12.265.266.266h2.495c.147-.001.265-.12.266-.266v-2.495a.266.266 0 0 0-.266-.266" fill="#fff"/></g><g><title>Fill-9</title><path d="M562.116 380.67h-6.177v-6.177h6.177zm2.11-4.803a.24.24 0 0 0 .238-.239v-.388a.24.24 0 0 0-.238-.239h-1.214v-1.134a.267.267 0 0 0-.266-.266h-1.139v-1.218a.24.24 0 0 0-.238-.238h-.389a.24.24 0 0 0-.238.238v1.218h-1.282v-1.219a.24.24 0 0 0-.238-.238h-.389a.24.24 0 0 0-.238.239v1.218h-1.282v-1.219a.24.24 0 0 0-.238-.238h-.389a.24.24 0 0 0-.238.239v1.218h-1.139a.266.266 0 0 0-.266.265v1.135h-1.213a.24.24 0 0 0-.239.238v.39c.001.13.107.237.239.238h1.213v1.282h-1.213a.24.24 0 0 0-.239.237v.39c0 .13.107.237.239.237h1.214v1.282h-1.214a.24.24 0 0 0-.239.238v.389c0 .131.107.238.239.238h1.214v1.135c0 .147.119.265.265.266h1.14v1.218a.24.24 0 0 0 .237.238h.389a.239.239 0 0 0 .238-.238v-1.218h1.282v1.218c0 .132.107.238.238.238h.389a.239.239 0 0 0 .238-.238v-1.218h1.282v1.218a.24.24 0 0 0 .238.238h.389a.24.24 0 0 0 .238-.238v-1.218h1.14a.267.267 0 0 0 .265-.265v-1.136h1.214a.239.239 0 0 0 .238-.238v-.388a.239.239 0 0 0-.238-.239h-1.214v-1.282h1.214a.239.239 0 0 0 .238-.238v-.388a.24.24 0 0 0-.238-.239h-1.214v-1.281z" fill="#fff"/></g></g><g><path d="M377.003 186.608l70.463 106.414a.5.5 0 1 0 .833-.553l-70.462-106.413a.5.5 0 0 0-.834.552zM452.3 299.416l-1.915-8.327-5.003 3.313zm.488-.112l-1.916-8.327-.162-.703-.601.398-5.003 3.313-.601.398.584.424 6.918 5.014 1.08.782zm-.975.224l.78-.517-6.917-5.014-.018.822 5.003-3.313-.763-.305z" fill="#000"/></g><g><path d="M323.956 187.819l-61.978 104.413a.5.5 0 0 0 .86.51l61.978-104.413a.5.5 0 1 0-.86-.51zm-65.632 111.547l6.663-5.348-5.159-3.062zm.313.39l6.663-5.348.563-.452-.62-.368-5.16-3.062-.62-.369-.127.71-1.504 8.411-.235 1.313zm-.626-.78l.805.478 1.504-8.41-.747.341 5.16 3.063-.058-.82z" fill="#000"/></g></g></svg>