<?xml version="1.0" encoding="UTF-8" standalone="no"?>
<svg
   xmlns:dc="http://purl.org/dc/elements/1.1/"
   xmlns:cc="http://creativecommons.org/ns#"
   xmlns:rdf="http://www.w3.org/1999/02/22-rdf-syntax-ns#"
   xmlns:svg="http://www.w3.org/2000/svg"
   xmlns="http://www.w3.org/2000/svg"
   xmlns:sodipodi="http://sodipodi.sourceforge.net/DTD/sodipodi-0.dtd"
   xmlns:inkscape="http://www.inkscape.org/namespaces/inkscape"
   version="1.1"
   viewBox="0 0 847.98944 387.35428"
   stroke-miterlimit="10"
   id="svg157"
   sodipodi:docname="kubeDNS.svg"
   width="847.98944"
   height="387.35428"
   style="fill:none;stroke:none;stroke-linecap:square;stroke-miterlimit:10"
   inkscape:version="0.92.4 (5da689c313, 2019-01-14)">
  <metadata
     id="metadata163">
    <rdf:RDF>
      <cc:Work
         rdf:about="">
        <dc:format>image/svg+xml</dc:format>
        <dc:type
           rdf:resource="http://purl.org/dc/dcmitype/StillImage" />
        <dc:title></dc:title>
      </cc:Work>
    </rdf:RDF>
  </metadata>
  <defs
     id="defs161" />
  <sodipodi:namedview
     pagecolor="#ffffff"
     bordercolor="#666666"
     borderopacity="1"
     objecttolerance="10"
     gridtolerance="10"
     guidetolerance="10"
     inkscape:pageopacity="0"
     inkscape:pageshadow="2"
     inkscape:window-width="1920"
     inkscape:window-height="1019"
     id="namedview159"
     showgrid="false"
     fit-margin-top="0"
     fit-margin-left="0"
     fit-margin-right="0"
     fit-margin-bottom="0"
     inkscape:zoom="1.2"
     inkscape:cx="434.91234"
     inkscape:cy="183.89336"
     inkscape:window-x="2560"
     inkscape:window-y="919"
     inkscape:window-maximized="1"
     inkscape:current-layer="g155" />
  <clipPath
     id="g64a025a6a8_0_1262.0">
    <path
       d="M 0,0 H 960 V 540 H 0 Z"
       id="path2"
       inkscape:connector-curvature="0"
       style="clip-rule:nonzero" />
  </clipPath>
  <g
     clip-path="url(#g64a025a6a8_0_1262.0)"
     id="g155"
     transform="translate(-53.333332,-83.333336)">
    <path
       d="M 58.677166,195.97897 H 901.32277 V 470.68762 H 58.677166 Z"
       id="path7"
       inkscape:connector-curvature="0"
       style="fill:#f3f3f3;fill-rule:evenodd" />
    <path
       d="M 58.677166,195.97897 H 901.32277 V 470.68762 H 58.677166 Z"
       id="path9"
       inkscape:connector-curvature="0"
       style="fill-rule:evenodd;stroke:#666666;stroke-width:2;stroke-linecap:butt;stroke-linejoin:round" />
    <path
       d="m 73.89591,219.29335 q -1.515625,0 -2.78125,-0.70313 -1.265625,-0.71875 -2.015625,-1.96875 -0.75,-1.25 -0.75,-2.8125 0,-1.54687 0.75,-2.79687 0.75,-1.26563 2.015625,-1.96875 1.265625,-0.71875 2.78125,-0.71875 1.234375,0 2.25,0.4375 1.015625,0.4375 1.75,1.21875 l -1.359375,1.34375 q -0.53125,-0.5625 -1.171875,-0.84375 -0.640625,-0.28125 -1.484375,-0.28125 -0.96875,0 -1.78125,0.45312 -0.796875,0.45313 -1.28125,1.28125 -0.46875,0.82813 -0.46875,1.875 0,1.0625 0.484375,1.89063 0.484375,0.82812 1.296875,1.28125 0.8125,0.4375 1.78125,0.4375 1.453125,0 2.390625,-0.85938 0.296875,-0.26562 0.515625,-0.67187 0.21875,-0.42188 0.328125,-0.90625 h -3.296875 v -1.6875 h 5.140625 q 0.109375,0.42187 0.109375,0.92187 0,1.04688 -0.328125,1.9375 -0.3125,0.89063 -0.953125,1.57813 -0.703125,0.75 -1.703125,1.15625 -0.984375,0.40625 -2.21875,0.40625 z m 7.090485,-10.73438 h 1.984375 v 4.5 h 0.109375 l 3.84375,-4.5 h 2.390625 v 0.125 l -3.796875,4.34375 4.1875,5.90625 v 0.125 H 87.28327 l -3.125,-4.46875 -1.1875,1.39063 v 3.07812 h -1.984375 z m 10.010254,0 h 6.65625 v 1.875 h -4.671875 v 2.4375 h 4.203125 v 1.875 h -4.203125 v 2.4375 h 4.671875 v 1.875 h -6.65625 z m 7.488067,10.5 z m 9.308124,0.23438 q -1.53125,0 -2.79688,-0.71875 -1.25,-0.73438 -1.98437,-1.98438 -0.71875,-1.25 -0.71875,-2.78125 0,-1.51562 0.71875,-2.76562 0.73437,-1.26563 1.98437,-1.98438 1.26563,-0.73437 2.79688,-0.73437 2.375,0 3.92187,1.71875 l -1.39062,1.34375 q -1.01563,-1.1875 -2.51563,-1.1875 -0.98437,0 -1.79687,0.45312 -0.79688,0.45313 -1.26563,1.28125 -0.45312,0.8125 -0.45312,1.875 0,1.07813 0.45312,1.90625 0.46875,0.8125 1.26563,1.26563 0.8125,0.4375 1.79687,0.4375 1.65625,0 2.76563,-1.375 l 1.40625,1.32812 q -0.78125,0.9375 -1.84375,1.4375 -1.0625,0.48438 -2.34375,0.48438 z m 5.61119,-10.73438 h 1.92187 v 10.5 h -1.92187 z m 6.51376,10.73438 q -1.35937,0 -2.0625,-0.82813 -0.70312,-0.84375 -0.70312,-2.34375 v -4.53125 h 1.92187 v 4.29688 q 0,0.76562 0.35938,1.20312 0.375,0.4375 0.98437,0.4375 0.8125,0 1.29688,-0.59375 0.48437,-0.60937 0.48437,-1.54687 v -3.79688 h 1.92188 v 7.46875 h -1.8125 v -0.9375 h -0.10938 q -0.34375,0.54688 -0.95312,0.85938 -0.59375,0.3125 -1.32813,0.3125 z m 8.84643,0 q -1.35938,0 -2.20313,-0.54688 -0.84375,-0.5625 -1.1875,-1.45312 l 1.71875,-0.75 q 0.23437,0.51562 0.65625,0.79687 0.4375,0.26563 1.01563,0.26563 0.53125,0 0.875,-0.15625 0.35937,-0.17188 0.35937,-0.5625 0,-0.35938 -0.32812,-0.54688 -0.3125,-0.1875 -0.96875,-0.32812 l -0.87501,-0.1875 q -0.90625,-0.21875 -1.51562,-0.79688 -0.59375,-0.57812 -0.59375,-1.45312 0,-0.64063 0.39062,-1.15625 0.39063,-0.51563 1.04688,-0.78125 0.67187,-0.28125 1.48438,-0.28125 2.3125,0 3.07812,1.625 l -1.64062,0.71875 q -0.4375,-0.79688 -1.40625,-0.79688 -0.5,0 -0.79688,0.1875 -0.28125,0.17188 -0.28125,0.45313 0,0.53125 1,0.79687 l 1.09375,0.26563 q 1.10938,0.28125 1.67188,0.85937 0.57812,0.5625 0.57812,1.39063 0,0.71875 -0.42187,1.28125 -0.42188,0.54687 -1.15625,0.85937 -0.71875,0.29688 -1.59375,0.29688 z m 7.73434,-0.10938 q -0.54687,0 -1.01562,-0.17187 -0.46875,-0.17188 -0.76563,-0.46875 -0.6875,-0.65625 -0.6875,-1.875 v -3.4375 h -1.3125 v -1.64063 h 1.3125 v -2.10937 h 1.92188 v 2.10937 h 1.82812 v 1.64063 h -1.82812 v 3.09375 q 0,0.5625 0.25,0.8125 0.20312,0.23437 0.70312,0.23437 0.26563,0 0.45313,-0.0625 0.1875,-0.0781 0.48437,-0.26562 v 1.89062 q -0.64062,0.25 -1.34375,0.25 z m 6.11235,0.10938 q -1.10937,0 -2.01562,-0.51563 -0.89063,-0.51562 -1.39063,-1.40625 -0.5,-0.90625 -0.5,-2.03125 0,-1.07812 0.5,-1.98437 0.5,-0.92188 1.375,-1.45313 0.875,-0.54687 1.96875,-0.54687 1.15625,0 1.98438,0.5 0.84375,0.48437 1.26562,1.35937 0.4375,0.85938 0.4375,1.92188 0,0.32812 -0.0469,0.64062 h -5.60938 q 0.14063,0.89063 0.70313,1.35938 0.5625,0.45312 1.35937,0.45312 0.65625,0 1.125,-0.28125 0.48438,-0.28125 0.76563,-0.76562 l 1.5625,0.75 q -1.15625,2 -3.48438,2 z m 1.78125,-4.875 q -0.0312,-0.35938 -0.26562,-0.70313 -0.21875,-0.34375 -0.625,-0.5625 -0.40625,-0.23437 -0.95313,-0.23437 -0.6875,0 -1.17187,0.40625 -0.48438,0.40625 -0.71875,1.09375 z m 3.32201,-2.82813 h 1.79688 v 0.98438 h 0.125 q 0.28125,-0.51563 0.85937,-0.85938 0.59375,-0.34375 1.29688,-0.34375 0.51562,0 0.9375,0.15625 v 1.92188 q -0.39063,-0.15625 -0.67188,-0.21875 -0.26562,-0.0625 -0.57812,-0.0625 -0.84375,0 -1.34375,0.625 -0.5,0.60937 -0.5,1.54687 v 3.71875 h -1.92188 z"
       id="path11"
       inkscape:connector-curvature="0"
       style="fill:#666666;fill-rule:nonzero" />
    <path
       d="m 752.8423,262.16208 h 106.42523 v 63.24411 H 752.8423 Z"
       id="path13"
       inkscape:connector-curvature="0"
       style="fill:#e8f0fe;fill-rule:evenodd" />
    <path
       d="m 752.8423,262.16208 h 106.42523 v 63.24411 H 752.8423 Z"
       id="path15"
       inkscape:connector-curvature="0"
       style="fill-rule:evenodd;stroke:#4285f4;stroke-width:2;stroke-linecap:butt;stroke-linejoin:round" />
    <path
       d="m 773.4954,288.36414 h 1.92188 v 5.71875 h 0.0937 l 2.6875,-2.6875 h 2.35937 v 0.10938 l -2.82812,2.76562 2.96875,4.46875 v 0.125 h -2.28125 l -2.03125,-3.26562 -0.96875,0.95312 v 2.3125 h -1.92188 z m 10.896,10.73438 q -1.35938,0 -2.0625,-0.82813 -0.70313,-0.84375 -0.70313,-2.34375 v -4.53125 h 1.92188 v 4.29688 q 0,0.76562 0.35937,1.20312 0.375,0.4375 0.98438,0.4375 0.8125,0 1.29687,-0.59375 0.48438,-0.60937 0.48438,-1.54687 v -3.79688 h 1.92187 v 7.46875 h -1.8125 v -0.9375 h -0.10937 q -0.34375,0.54688 -0.95313,0.85938 -0.59375,0.3125 -1.32812,0.3125 z m 10.2323,0 q -0.75,0 -1.34375,-0.3125 -0.59375,-0.32813 -0.89063,-0.8125 h -0.125 v 0.89062 h -1.79687 v -10.5 h 1.92187 v 2.875 l -0.125,1.0625 h 0.125 q 0.3125,-0.48437 0.89063,-0.8125 0.59375,-0.32812 1.34375,-0.32812 1.01562,0 1.84375,0.5 0.82812,0.5 1.29687,1.42187 0.46875,0.90625 0.46875,2.04688 0,1.15625 -0.46875,2.0625 -0.46875,0.89062 -1.29687,1.40625 -0.82813,0.5 -1.84375,0.5 z m -0.32813,-1.76563 q 0.54688,0 1.01563,-0.28125 0.46875,-0.28125 0.73437,-0.78125 0.28125,-0.5 0.28125,-1.14062 0,-0.64063 -0.28125,-1.14063 -0.26562,-0.5 -0.73437,-0.76562 -0.46875,-0.28125 -1.01563,-0.28125 -0.53125,0 -1,0.28125 -0.46875,0.26562 -0.75,0.76562 -0.28125,0.5 -0.28125,1.14063 0,0.64062 0.28125,1.14062 0.28125,0.5 0.75,0.78125 0.46875,0.28125 1,0.28125 z m 8.91998,1.76563 q -1.10937,0 -2.01562,-0.51563 -0.89063,-0.51562 -1.39063,-1.40625 -0.5,-0.90625 -0.5,-2.03125 0,-1.07812 0.5,-1.98437 0.5,-0.92188 1.375,-1.45313 0.875,-0.54687 1.96875,-0.54687 1.15625,0 1.98438,0.5 0.84375,0.48437 1.26562,1.35937 0.4375,0.85938 0.4375,1.92188 0,0.32812 -0.0469,0.64062 h -5.60938 q 0.14063,0.89063 0.70313,1.35938 0.5625,0.45312 1.35937,0.45312 0.65625,0 1.125,-0.28125 0.48438,-0.28125 0.76563,-0.76562 l 1.5625,0.75 q -1.15625,2 -3.48438,2 z m 1.78125,-4.875 q -0.0312,-0.35938 -0.26562,-0.70313 -0.21875,-0.34375 -0.625,-0.5625 -0.40625,-0.23437 -0.95313,-0.23437 -0.6875,0 -1.17187,0.40625 -0.48438,0.40625 -0.71875,1.09375 z m 3.3064,-0.75 h 4.96875 v 1.70312 h -4.96875 z m 10.03388,5.625 q -1,0 -1.82807,-0.5 -0.82812,-0.51563 -1.3125,-1.40625 -0.46875,-0.90625 -0.46875,-2.0625 0,-1.14063 0.46875,-2.04688 0.48438,-0.92187 1.3125,-1.42187 0.82806,-0.5 1.82807,-0.5 0.76562,0 1.34375,0.32812 0.59375,0.32813 0.90625,0.8125 h 0.10937 l -0.10937,-1.0625 v -2.875 h 1.90625 v 10.5 h -1.79688 v -0.89062 h -0.10937 q -0.29688,0.48437 -0.89063,0.8125 -0.59375,0.3125 -1.35937,0.3125 z m 0.32812,-1.76563 q 0.54688,0 1.01563,-0.28125 0.46875,-0.28125 0.73437,-0.78125 0.28125,-0.5 0.28125,-1.14062 0,-0.64063 -0.28125,-1.14063 -0.26562,-0.5 -0.73437,-0.76562 -0.46875,-0.28125 -1.01563,-0.28125 -0.53125,0 -1,0.28125 -0.46875,0.26562 -0.75,0.76562 -0.26556,0.5 -0.26556,1.14063 0,0.64062 0.26556,1.14062 0.28125,0.5 0.75,0.78125 0.46875,0.28125 1,0.28125 z m 5.71692,-5.9375 h 1.79687 v 0.9375 h 0.125 q 0.32813,-0.54687 0.9375,-0.85937 0.625,-0.3125 1.34375,-0.3125 1.35938,0 2.0625,0.82812 0.70313,0.8125 0.70313,2.23438 v 4.64062 h -1.92188 v -4.40625 q 0,-0.71875 -0.375,-1.10937 -0.35937,-0.40625 -1.01562,-0.40625 -0.78125,0 -1.26563,0.60937 -0.46875,0.59375 -0.46875,1.5 v 3.8125 h -1.92187 z m 11.5495,7.70313 q -1.35938,0 -2.20313,-0.54688 -0.84375,-0.5625 -1.1875,-1.45312 l 1.71875,-0.75 q 0.23438,0.51562 0.65625,0.79687 0.4375,0.26563 1.01563,0.26563 0.53125,0 0.875,-0.15625 0.35937,-0.17188 0.35937,-0.5625 0,-0.35938 -0.32812,-0.54688 -0.3125,-0.1875 -0.96875,-0.32812 l -0.875,-0.1875 q -0.90625,-0.21875 -1.51563,-0.79688 -0.59375,-0.57812 -0.59375,-1.45312 0,-0.64063 0.39063,-1.15625 0.39062,-0.51563 1.04687,-0.78125 0.67188,-0.28125 1.48438,-0.28125 2.3125,0 3.07812,1.625 l -1.64062,0.71875 q -0.4375,-0.79688 -1.40625,-0.79688 -0.5,0 -0.79688,0.1875 -0.28125,0.17188 -0.28125,0.45313 0,0.53125 1,0.79687 l 1.09375,0.26563 q 1.10938,0.28125 1.67188,0.85937 0.57812,0.5625 0.57812,1.39063 0,0.71875 -0.42187,1.28125 -0.42188,0.54687 -1.15625,0.85937 -0.71875,0.29688 -1.59375,0.29688 z"
       id="path17"
       inkscape:connector-curvature="0"
       style="fill:#4285f4;fill-rule:nonzero" />
    <path
       d="m 79.99475,-88.5538 h 600 V 96.48557 h -600 z"
       id="path19"
       inkscape:connector-curvature="0"
       style="fill:#000000;fill-opacity:0;fill-rule:evenodd" />
    <path
       d="m 284.23532,334.65878 -6.83466,7.59055 -6.83465,-7.59055 z"
       id="path23"
       inkscape:connector-curvature="0"
       style="fill:#ffffff;fill-rule:evenodd" />
    <path
       d="m 87.95801,244.9769 h 194.4567 V 414.5202 H 87.95801 Z"
       id="path25"
       inkscape:connector-curvature="0"
       style="fill:#ffffff;fill-rule:evenodd" />
    <path
       d="m 87.95801,244.9769 h 194.4567 V 414.5202 H 87.95801 Z"
       id="path27"
       inkscape:connector-curvature="0"
       style="fill-rule:evenodd;stroke:#666666;stroke-width:1;stroke-linecap:butt;stroke-linejoin:round" />
    <path
       d="m 139.15956,257.5569 h 2.20312 l 1.4375,5.89062 0.17188,1.10938 h 0.10937 l 0.23438,-1.10938 1.85937,-5.89062 h 1.9375 l 1.8125,5.89062 0.23438,1.07813 h 0.10937 l 0.17188,-1.07813 1.42187,-5.89062 h 2.20313 l -2.70313,10.5 h -2.125 l -1.79687,-6.32813 -0.23438,-1.125 h -0.10937 l -0.23438,1.125 -1.875,6.32813 h -2.04687 z m 17.8221,10.73437 q -1.15625,0 -2.07813,-0.51562 -0.90625,-0.53125 -1.40625,-1.42188 -0.5,-0.90625 -0.5,-2.03125 0,-1.10937 0.5,-2.01562 0.5,-0.92188 1.40625,-1.4375 0.92188,-0.51563 2.07813,-0.51563 1.14062,0 2.04687,0.51563 0.90625,0.51562 1.40625,1.4375 0.51563,0.90625 0.51563,2.01562 0,1.125 -0.51563,2.03125 -0.5,0.89063 -1.40625,1.42188 -0.90625,0.51562 -2.04687,0.51562 z m 0,-1.76562 q 0.5625,0 1.03125,-0.26563 0.46875,-0.26562 0.73437,-0.76562 0.28125,-0.5 0.28125,-1.17188 0,-0.65625 -0.28125,-1.15625 -0.26562,-0.5 -0.73437,-0.76562 -0.46875,-0.26563 -1.03125,-0.26563 -0.5625,0 -1.03125,0.26563 -0.46875,0.26562 -0.75,0.76562 -0.28125,0.5 -0.28125,1.15625 0,0.65625 0.28125,1.17188 0.28125,0.5 0.75,0.76562 0.46875,0.26563 1.03125,0.26563 z m 5.28883,-5.9375 h 1.79688 v 0.98437 h 0.125 q 0.28125,-0.51562 0.85937,-0.85937 0.59375,-0.34375 1.29688,-0.34375 0.51562,0 0.9375,0.15625 v 1.92187 q -0.39063,-0.15625 -0.67188,-0.21875 -0.26562,-0.0625 -0.57812,-0.0625 -0.84375,0 -1.34375,0.625 -0.5,0.60938 -0.5,1.54688 v 3.71875 h -1.92188 z m 6.33158,-3.03125 h 1.92187 v 5.71875 h 0.0937 l 2.6875,-2.6875 h 2.35938 v 0.10937 l -2.82813,2.76563 2.96875,4.46875 v 0.125 h -2.28125 l -2.03125,-3.26563 -0.96875,0.95313 v 2.3125 h -1.92187 z m 11.47287,10.73437 q -1.10938,0 -2.01563,-0.51562 -0.89062,-0.51563 -1.39062,-1.40625 -0.5,-0.90625 -0.5,-2.03125 0,-1.07813 0.5,-1.98438 0.5,-0.92187 1.375,-1.45312 0.875,-0.54688 1.96875,-0.54688 1.15625,0 1.98437,0.5 0.84375,0.48438 1.26563,1.35938 0.4375,0.85937 0.4375,1.92187 0,0.32813 -0.0469,0.64063 h -5.60937 q 0.14062,0.89062 0.70312,1.35937 0.5625,0.45313 1.35938,0.45313 0.65625,0 1.125,-0.28125 0.48437,-0.28125 0.76562,-0.76563 l 1.5625,0.75 q -1.15625,2 -3.48437,2 z m 1.78125,-4.875 q -0.0312,-0.35937 -0.26563,-0.70312 -0.21875,-0.34375 -0.625,-0.5625 -0.40625,-0.23438 -0.95312,-0.23438 -0.6875,0 -1.17188,0.40625 -0.48437,0.40625 -0.71875,1.09375 z m 3.322,-2.82812 h 1.79688 v 0.98437 h 0.125 q 0.28125,-0.51562 0.85937,-0.85937 0.59375,-0.34375 1.29688,-0.34375 0.51562,0 0.9375,0.15625 v 1.92187 q -0.39063,-0.15625 -0.67188,-0.21875 -0.26562,-0.0625 -0.57812,-0.0625 -0.84375,0 -1.34375,0.625 -0.5,0.60938 -0.5,1.54688 v 3.71875 h -1.92188 z m 5.32074,7.46875 z m 4.63271,-10.5 h 2.29687 l 4.21875,7.04687 h 0.125 l -0.125,-2.03125 v -5.01562 h 1.96875 v 10.5 h -2.07812 l -4.45313,-7.4375 h -0.125 l 0.125,2.03125 v 5.40625 h -1.95312 z m 14.05546,10.73437 q -1.15625,0 -2.07812,-0.51562 -0.90625,-0.53125 -1.40625,-1.42188 -0.5,-0.90625 -0.5,-2.03125 0,-1.10937 0.5,-2.01562 0.5,-0.92188 1.40625,-1.4375 0.92187,-0.51563 2.07812,-0.51563 1.14063,0 2.04688,0.51563 0.90625,0.51562 1.40625,1.4375 0.51562,0.90625 0.51562,2.01562 0,1.125 -0.51562,2.03125 -0.5,0.89063 -1.40625,1.42188 -0.90625,0.51562 -2.04688,0.51562 z m 0,-1.76562 q 0.5625,0 1.03125,-0.26563 0.46875,-0.26562 0.73438,-0.76562 0.28125,-0.5 0.28125,-1.17188 0,-0.65625 -0.28125,-1.15625 -0.26563,-0.5 -0.73438,-0.76562 -0.46875,-0.26563 -1.03125,-0.26563 -0.5625,0 -1.03125,0.26563 -0.46875,0.26562 -0.75,0.76562 -0.28125,0.5 -0.28125,1.15625 0,0.65625 0.28125,1.17188 0.28125,0.5 0.75,0.76562 0.46875,0.26563 1.03125,0.26563 z m 8.63863,1.76562 q -1,0 -1.82813,-0.5 -0.82812,-0.51562 -1.3125,-1.40625 -0.46875,-0.90625 -0.46875,-2.0625 0,-1.14062 0.46875,-2.04687 0.48438,-0.92188 1.3125,-1.42188 0.82813,-0.5 1.82813,-0.5 0.76562,0 1.34375,0.32813 0.59375,0.32812 0.90625,0.8125 h 0.10937 l -0.10937,-1.0625 v -2.875 h 1.90625 v 10.5 h -1.79688 v -0.89063 h -0.10937 q -0.29688,0.48438 -0.89063,0.8125 -0.59375,0.3125 -1.35937,0.3125 z m 0.32812,-1.76562 q 0.54688,0 1.01563,-0.28125 0.46875,-0.28125 0.73437,-0.78125 0.28125,-0.5 0.28125,-1.14063 0,-0.64062 -0.28125,-1.14062 -0.26562,-0.5 -0.73437,-0.76563 -0.46875,-0.28125 -1.01563,-0.28125 -0.53125,0 -1,0.28125 -0.46875,0.26563 -0.75,0.76563 -0.26562,0.5 -0.26562,1.14062 0,0.64063 0.26562,1.14063 0.28125,0.5 0.75,0.78125 0.46875,0.28125 1,0.28125 z m 9.14354,1.76562 q -1.10937,0 -2.01562,-0.51562 -0.89063,-0.51563 -1.39063,-1.40625 -0.5,-0.90625 -0.5,-2.03125 0,-1.07813 0.5,-1.98438 0.5,-0.92187 1.375,-1.45312 0.875,-0.54688 1.96875,-0.54688 1.15625,0 1.98438,0.5 0.84375,0.48438 1.26562,1.35938 0.4375,0.85937 0.4375,1.92187 0,0.32813 -0.0469,0.64063 h -5.60938 q 0.14063,0.89062 0.70313,1.35937 0.5625,0.45313 1.35937,0.45313 0.65625,0 1.125,-0.28125 0.48438,-0.28125 0.76563,-0.76563 l 1.5625,0.75 q -1.15625,2 -3.48438,2 z m 1.78125,-4.875 q -0.0312,-0.35937 -0.26562,-0.70312 -0.21875,-0.34375 -0.625,-0.5625 -0.40625,-0.23438 -0.95313,-0.23438 -0.6875,0 -1.17187,0.40625 -0.48438,0.40625 -0.71875,1.09375 z"
       id="path29"
       inkscape:connector-curvature="0"
       style="fill:#666666;fill-rule:nonzero" />
    <path
       d="m 109.97923,359.1686 h 34.58267 v 24.53543 h -34.58268 z"
       id="path31"
       inkscape:connector-curvature="0"
       style="fill:#000000;fill-opacity:0;fill-rule:evenodd" />
    <path
       d="m 119.7042,293.22955 h 106.42519 v 72.37796 H 119.7042 Z"
       id="path33"
       inkscape:connector-curvature="0"
       style="fill:#e8f0fe;fill-rule:evenodd" />
    <path
       d="m 119.7042,293.22955 h 106.42519 v 72.37796 H 119.7042 Z"
       id="path35"
       inkscape:connector-curvature="0"
       style="fill-rule:evenodd;stroke:#4285f4;stroke-width:2;stroke-linecap:butt;stroke-linejoin:round" />
    <path
       d="m 119.7326,315.3132 h 106.42519 v 22.4567 H 119.7326 Z"
       id="path37"
       inkscape:connector-curvature="0"
       style="fill:#000000;fill-opacity:0;fill-rule:evenodd" />
    <path
       d="m 160.09457,324.1528 h 1.8125 v 0.90625 h 0.10937 q 0.3125,-0.48437 0.89063,-0.8125 0.59375,-0.32812 1.35937,-0.32812 1,0 1.82813,0.5 0.82812,0.5 1.29687,1.42187 0.46875,0.90625 0.46875,2.04688 0,1.15625 -0.46875,2.0625 -0.46875,0.89062 -1.29687,1.40625 -0.82813,0.5 -1.82813,0.5 -0.76562,0 -1.35937,-0.3125 -0.59375,-0.32813 -0.89063,-0.8125 h -0.10937 l 0.10937,1.04687 v 3.01563 h -1.92187 z m 3.82812,5.9375 q 0.54688,0 1.01563,-0.28125 0.46875,-0.28125 0.73437,-0.78125 0.28125,-0.5 0.28125,-1.14062 0,-0.64063 -0.28125,-1.14063 -0.26562,-0.5 -0.73437,-0.76562 -0.46875,-0.28125 -1.01563,-0.28125 -0.53125,0 -1,0.28125 -0.46875,0.26562 -0.75,0.76562 -0.26562,0.5 -0.26562,1.14063 0,0.64062 0.26562,1.14062 0.28125,0.5 0.75,0.78125 0.46875,0.28125 1,0.28125 z m 9.002,1.76563 q -1.15625,0 -2.07812,-0.51563 -0.90625,-0.53125 -1.40625,-1.42187 -0.5,-0.90625 -0.5,-2.03125 0,-1.10938 0.5,-2.01563 0.5,-0.92187 1.40625,-1.4375 0.92187,-0.51562 2.07812,-0.51562 1.14063,0 2.04688,0.51562 0.90625,0.51563 1.40625,1.4375 0.51562,0.90625 0.51562,2.01563 0,1.125 -0.51562,2.03125 -0.5,0.89062 -1.40625,1.42187 -0.90625,0.51563 -2.04688,0.51563 z m 0,-1.76563 q 0.5625,0 1.03125,-0.26562 0.46875,-0.26563 0.73438,-0.76563 0.28125,-0.5 0.28125,-1.17187 0,-0.65625 -0.28125,-1.15625 -0.26563,-0.5 -0.73438,-0.76563 -0.46875,-0.26562 -1.03125,-0.26562 -0.5625,0 -1.03125,0.26562 -0.46875,0.26563 -0.75,0.76563 -0.28125,0.5 -0.28125,1.15625 0,0.65625 0.28125,1.17187 0.28125,0.5 0.75,0.76563 0.46875,0.26562 1.03125,0.26562 z m 8.63863,1.76563 q -1,0 -1.82813,-0.5 -0.82812,-0.51563 -1.3125,-1.40625 -0.46875,-0.90625 -0.46875,-2.0625 0,-1.14063 0.46875,-2.04688 0.48438,-0.92187 1.3125,-1.42187 0.82813,-0.5 1.82813,-0.5 0.76562,0 1.34375,0.32812 0.59375,0.32813 0.90623,0.8125 h 0.10938 l -0.10938,-1.0625 v -2.875 h 1.90625 v 10.5 h -1.79687 v -0.89062 h -0.10938 q -0.29686,0.48437 -0.89061,0.8125 -0.59375,0.3125 -1.35937,0.3125 z m 0.32812,-1.76563 q 0.54688,0 1.01563,-0.28125 0.46875,-0.28125 0.73437,-0.78125 0.28124,-0.5 0.28124,-1.14062 0,-0.64063 -0.28124,-1.14063 -0.26562,-0.5 -0.73437,-0.76562 -0.46875,-0.28125 -1.01563,-0.28125 -0.53125,0 -1,0.28125 -0.46875,0.26562 -0.75,0.76562 -0.26562,0.5 -0.26562,1.14063 0,0.64062 0.26562,1.14062 0.28125,0.5 0.75,0.78125 0.46875,0.28125 1,0.28125 z"
       id="path39"
       inkscape:connector-curvature="0"
       style="fill:#4285f4;fill-rule:nonzero" />
    <path
       d="m 271.34573,359.1686 h 34.5827 v 24.53543 h -34.5827 z"
       id="path41"
       inkscape:connector-curvature="0"
       style="fill:#000000;fill-opacity:0;fill-rule:evenodd" />
    <path
       d="m 330.25452,359.1686 h 34.5827 v 24.53543 h -34.5827 z"
       id="path43"
       inkscape:connector-curvature="0"
       style="fill:#000000;fill-opacity:0;fill-rule:evenodd" />
    <path
       d="m 318.8149,359.54462 h 34.58267 v 24.53543 H 318.8149 Z"
       id="path45"
       inkscape:connector-curvature="0"
       style="fill:#000000;fill-opacity:0;fill-rule:evenodd" />
    <path
       d="m 343.09082,359.1686 h 34.58267 v 24.53543 h -34.58267 z"
       id="path47"
       inkscape:connector-curvature="0"
       style="fill:#000000;fill-opacity:0;fill-rule:evenodd" />
    <path
       d="m 464.00174,366.65887 h 34.58267 v 24.53543 h -34.58267 z"
       id="path49"
       inkscape:connector-curvature="0"
       style="fill:#000000;fill-opacity:0;fill-rule:evenodd" />
    <path
       d="m 305.92914,244.9769 h 194.4567 v 169.5433 h -194.4567 z"
       id="path51"
       inkscape:connector-curvature="0"
       style="fill:#ffffff;fill-rule:evenodd" />
    <path
       d="m 305.92914,244.9769 h 194.4567 v 169.5433 h -194.4567 z"
       id="path53"
       inkscape:connector-curvature="0"
       style="fill-rule:evenodd;stroke:#666666;stroke-width:1;stroke-linecap:butt;stroke-linejoin:round" />
    <path
       d="m 357.13068,257.5569 h 2.20312 l 1.4375,5.89062 0.17188,1.10938 h 0.10937 l 0.23438,-1.10938 1.85937,-5.89062 h 1.9375 l 1.8125,5.89062 0.23438,1.07813 h 0.10937 l 0.17188,-1.07813 1.42187,-5.89062 h 2.20313 l -2.70313,10.5 h -2.125 l -1.79687,-6.32813 -0.23438,-1.125 h -0.10937 l -0.23438,1.125 -1.875,6.32813 h -2.04687 z m 17.82211,10.73437 q -1.15625,0 -2.07812,-0.51562 -0.90625,-0.53125 -1.40625,-1.42188 -0.5,-0.90625 -0.5,-2.03125 0,-1.10937 0.5,-2.01562 0.5,-0.92188 1.40625,-1.4375 0.92187,-0.51563 2.07812,-0.51563 1.14063,0 2.04688,0.51563 0.90625,0.51562 1.40625,1.4375 0.51562,0.90625 0.51562,2.01562 0,1.125 -0.51562,2.03125 -0.5,0.89063 -1.40625,1.42188 -0.90625,0.51562 -2.04688,0.51562 z m 0,-1.76562 q 0.5625,0 1.03125,-0.26563 0.46875,-0.26562 0.73438,-0.76562 0.28125,-0.5 0.28125,-1.17188 0,-0.65625 -0.28125,-1.15625 -0.26563,-0.5 -0.73438,-0.76562 -0.46875,-0.26563 -1.03125,-0.26563 -0.5625,0 -1.03125,0.26563 -0.46875,0.26562 -0.75,0.76562 -0.28125,0.5 -0.28125,1.15625 0,0.65625 0.28125,1.17188 0.28125,0.5 0.75,0.76562 0.46875,0.26563 1.03125,0.26563 z m 5.28882,-5.9375 h 1.79688 v 0.98437 h 0.125 q 0.28125,-0.51562 0.85937,-0.85937 0.59375,-0.34375 1.29688,-0.34375 0.51562,0 0.9375,0.15625 v 1.92187 q -0.39063,-0.15625 -0.67188,-0.21875 -0.26562,-0.0625 -0.57812,-0.0625 -0.84375,0 -1.34375,0.625 -0.5,0.60938 -0.5,1.54688 v 3.71875 h -1.92188 z m 6.33157,-3.03125 h 1.92188 v 5.71875 h 0.0937 l 2.6875,-2.6875 h 2.35937 v 0.10937 l -2.82812,2.76563 2.96875,4.46875 v 0.125 h -2.28125 l -2.03125,-3.26563 -0.96875,0.95313 v 2.3125 h -1.92188 z m 11.47287,10.73437 q -1.10937,0 -2.01562,-0.51562 -0.89063,-0.51563 -1.39063,-1.40625 -0.5,-0.90625 -0.5,-2.03125 0,-1.07813 0.5,-1.98438 0.5,-0.92187 1.375,-1.45312 0.875,-0.54688 1.96875,-0.54688 1.15625,0 1.98438,0.5 0.84375,0.48438 1.26562,1.35938 0.4375,0.85937 0.4375,1.92187 0,0.32813 -0.0469,0.64063 h -5.60938 q 0.14063,0.89062 0.70313,1.35937 0.5625,0.45313 1.35937,0.45313 0.65625,0 1.125,-0.28125 0.48438,-0.28125 0.76563,-0.76563 l 1.5625,0.75 q -1.15625,2 -3.48438,2 z m 1.78125,-4.875 q -0.0312,-0.35937 -0.26562,-0.70312 -0.21875,-0.34375 -0.625,-0.5625 -0.40625,-0.23438 -0.95313,-0.23438 -0.6875,0 -1.17187,0.40625 -0.48438,0.40625 -0.71875,1.09375 z m 3.32203,-2.82812 h 1.79687 v 0.98437 h 0.125 q 0.28125,-0.51562 0.85938,-0.85937 0.59375,-0.34375 1.29687,-0.34375 0.51563,0 0.9375,0.15625 v 1.92187 q -0.39062,-0.15625 -0.67187,-0.21875 -0.26563,-0.0625 -0.57813,-0.0625 -0.84375,0 -1.34375,0.625 -0.5,0.60938 -0.5,1.54688 v 3.71875 h -1.92187 z m 5.32074,7.46875 z m 4.63269,-10.5 h 2.29687 l 4.21875,7.04687 h 0.125 l -0.125,-2.03125 v -5.01562 h 1.96875 v 10.5 h -2.07812 l -4.45313,-7.4375 h -0.125 l 0.125,2.03125 v 5.40625 h -1.95312 z m 14.05548,10.73437 q -1.15625,0 -2.07813,-0.51562 -0.90625,-0.53125 -1.40625,-1.42188 -0.5,-0.90625 -0.5,-2.03125 0,-1.10937 0.5,-2.01562 0.5,-0.92188 1.40625,-1.4375 0.92188,-0.51563 2.07813,-0.51563 1.14062,0 2.04687,0.51563 0.90625,0.51562 1.40625,1.4375 0.51563,0.90625 0.51563,2.01562 0,1.125 -0.51563,2.03125 -0.5,0.89063 -1.40625,1.42188 -0.90625,0.51562 -2.04687,0.51562 z m 0,-1.76562 q 0.5625,0 1.03125,-0.26563 0.46875,-0.26562 0.73437,-0.76562 0.28125,-0.5 0.28125,-1.17188 0,-0.65625 -0.28125,-1.15625 -0.26562,-0.5 -0.73437,-0.76562 -0.46875,-0.26563 -1.03125,-0.26563 -0.5625,0 -1.03125,0.26563 -0.46875,0.26562 -0.75,0.76562 -0.28125,0.5 -0.28125,1.15625 0,0.65625 0.28125,1.17188 0.28125,0.5 0.75,0.76562 0.46875,0.26563 1.03125,0.26563 z m 8.63861,1.76562 q -1,0 -1.82813,-0.5 -0.82812,-0.51562 -1.3125,-1.40625 -0.46875,-0.90625 -0.46875,-2.0625 0,-1.14062 0.46875,-2.04687 0.48438,-0.92188 1.3125,-1.42188 0.82813,-0.5 1.82813,-0.5 0.76562,0 1.34375,0.32813 0.59375,0.32812 0.90625,0.8125 h 0.10937 l -0.10937,-1.0625 v -2.875 h 1.90625 v 10.5 h -1.79688 v -0.89063 h -0.10937 q -0.29688,0.48438 -0.89063,0.8125 -0.59375,0.3125 -1.35937,0.3125 z m 0.32812,-1.76562 q 0.54688,0 1.01563,-0.28125 0.46875,-0.28125 0.73437,-0.78125 0.28125,-0.5 0.28125,-1.14063 0,-0.64062 -0.28125,-1.14062 -0.26562,-0.5 -0.73437,-0.76563 -0.46875,-0.28125 -1.01563,-0.28125 -0.53125,0 -1,0.28125 -0.46875,0.26563 -0.75,0.76563 -0.26562,0.5 -0.26562,1.14062 0,0.64063 0.26562,1.14063 0.28125,0.5 0.75,0.78125 0.46875,0.28125 1,0.28125 z m 9.14356,1.76562 q -1.10938,0 -2.01563,-0.51562 -0.89062,-0.51563 -1.39062,-1.40625 -0.5,-0.90625 -0.5,-2.03125 0,-1.07813 0.5,-1.98438 0.5,-0.92187 1.375,-1.45312 0.875,-0.54688 1.96875,-0.54688 1.15625,0 1.98437,0.5 0.84375,0.48438 1.26563,1.35938 0.4375,0.85937 0.4375,1.92187 0,0.32813 -0.0469,0.64063 h -5.60937 q 0.14062,0.89062 0.70312,1.35937 0.5625,0.45313 1.35938,0.45313 0.65625,0 1.125,-0.28125 0.48437,-0.28125 0.76562,-0.76563 l 1.5625,0.75 q -1.15625,2 -3.48437,2 z m 1.78125,-4.875 q -0.0312,-0.35937 -0.26563,-0.70312 -0.21875,-0.34375 -0.625,-0.5625 -0.40625,-0.23438 -0.95312,-0.23438 -0.6875,0 -1.17188,0.40625 -0.48437,0.40625 -0.71875,1.09375 z"
       id="path55"
       inkscape:connector-curvature="0"
       style="fill:#666666;fill-rule:nonzero" />
    <path
       d="M 537.50714,257.0399 H 673.31818 V 296.158 H 537.50714 Z"
       id="path57"
       inkscape:connector-curvature="0"
       style="fill:#fff7e1;fill-rule:evenodd" />
    <path
       d="M 537.50714,257.0399 H 673.31818 V 296.158 H 537.50714 Z"
       id="path59"
       inkscape:connector-curvature="0"
       style="fill-rule:evenodd;stroke:#fbbc05;stroke-width:2;stroke-linecap:butt;stroke-linejoin:round" />
    <path
       d="m 554.87585,271.00583 h 2.09375 v 6.23437 h 0.10938 l 2.92187,-2.9375 h 2.57813 v 0.125 l -3.09375,3.01563 3.23437,4.89062 v 0.125 h -2.46875 l -2.23437,-3.5625 -1.04688,1.03125 v 2.53125 h -2.09375 z m 11.88147,11.70312 q -1.46875,0 -2.25,-0.90625 -0.76562,-0.90625 -0.76562,-2.54687 v -4.95313 h 2.10937 v 4.70313 q 0,0.82812 0.39063,1.29687 0.40625,0.46875 1.0625,0.46875 0.89062,0 1.42187,-0.64062 0.53125,-0.65625 0.53125,-1.67188 v -4.15625 h 2.09375 v 8.15625 h -1.96875 v -1.03125 h -0.125 q -0.375,0.59375 -1.04687,0.9375 -0.65625,0.34375 -1.45313,0.34375 z m 11.17779,0 q -0.82812,0 -1.48437,-0.34375 -0.64063,-0.35937 -0.95313,-0.875 h -0.14062 v 0.96875 h -1.95313 v -11.45312 h 2.09375 v 3.14062 l -0.14062,1.14063 h 0.14062 q 0.32813,-0.53125 0.96875,-0.89063 0.64063,-0.35937 1.46875,-0.35937 1.10938,0 2.01563,0.5625 0.90625,0.54687 1.40625,1.54687 0.51562,0.98438 0.51562,2.23438 0,1.26562 -0.51562,2.25 -0.5,0.98437 -1.40625,1.53125 -0.90625,0.54687 -2.01563,0.54687 z m -0.35937,-1.9375 q 0.59375,0 1.09375,-0.29687 0.51562,-0.29688 0.8125,-0.84375 0.3125,-0.54688 0.3125,-1.25 0,-0.70313 -0.3125,-1.25 -0.29688,-0.54688 -0.8125,-0.84375 -0.5,-0.29688 -1.09375,-0.29688 -0.57813,0 -1.09375,0.29688 -0.51563,0.29687 -0.82813,0.84375 -0.29687,0.54687 -0.29687,1.25 0,0.70312 0.29687,1.25 0.3125,0.54687 0.82813,0.84375 0.51562,0.29687 1.09375,0.29687 z m 9.73663,1.9375 q -1.21875,0 -2.1875,-0.54687 -0.96875,-0.5625 -1.53125,-1.54688 -0.54687,-0.98437 -0.54687,-2.21875 0,-1.17187 0.53125,-2.17187 0.54687,-1 1.5,-1.59375 0.96875,-0.59375 2.15625,-0.59375 1.26562,0 2.17187,0.54687 0.92188,0.54688 1.39063,1.5 0.46875,0.9375 0.46875,2.09375 0,0.35938 -0.0469,0.70313 h -6.125 q 0.15625,0.96875 0.76563,1.48437 0.625,0.5 1.48437,0.5 0.71875,0 1.23438,-0.3125 0.53125,-0.3125 0.82812,-0.84375 l 1.70313,0.82813 q -1.25,2.17187 -3.79688,2.17187 z m 1.9375,-5.32812 q -0.0312,-0.375 -0.28125,-0.75 -0.25,-0.375 -0.6875,-0.625 -0.4375,-0.25 -1.03125,-0.25 -0.75,0 -1.29687,0.4375 -0.53125,0.4375 -0.76563,1.1875 z m 3.62641,-0.8125 h 5.42187 v 1.85937 h -5.42187 z m 10.95562,6.14062 q -1.10937,0 -2.01562,-0.54687 -0.90625,-0.54688 -1.42188,-1.53125 -0.51562,-0.98438 -0.51562,-2.25 0,-1.25 0.51562,-2.23438 0.51563,-1 1.42188,-1.54687 0.90625,-0.5625 2.01562,-0.5625 0.82813,0 1.46875,0.35937 0.64063,0.35938 0.96875,0.89063 h 0.14063 l -0.14063,-1.14063 v -3.14062 h 2.09375 v 11.45312 h -1.95312 v -0.96875 h -0.14063 q -0.3125,0.51563 -0.96875,0.875 -0.64062,0.34375 -1.46875,0.34375 z m 0.34375,-1.9375 q 0.59375,0 1.10938,-0.29687 0.51562,-0.29688 0.8125,-0.84375 0.3125,-0.54688 0.3125,-1.25 0,-0.70313 -0.3125,-1.25 -0.29688,-0.54688 -0.8125,-0.84375 -0.51563,-0.29688 -1.10938,-0.29688 -0.57812,0 -1.09375,0.29688 -0.5,0.29687 -0.8125,0.84375 -0.29687,0.54687 -0.29687,1.25 0,0.70312 0.29687,1.25 0.3125,0.54687 0.8125,0.84375 0.51563,0.29687 1.09375,0.29687 z m 6.25226,-6.46875 h 1.95313 v 1.01563 h 0.14062 q 0.35938,-0.59375 1.03125,-0.9375 0.67188,-0.34375 1.45313,-0.34375 1.48437,0 2.25,0.90625 0.76562,0.89062 0.76562,2.4375 v 5.07812 h -2.09375 v -4.8125 q 0,-0.78125 -0.40625,-1.21875 -0.39062,-0.4375 -1.10937,-0.4375 -0.85938,0 -1.375,0.65625 -0.51563,0.65625 -0.51563,1.65625 v 4.15625 h -2.09375 z m 12.59778,8.40625 q -1.48437,0 -2.40625,-0.59375 -0.92187,-0.60937 -1.28125,-1.59375 l 1.85938,-0.8125 q 0.26562,0.57813 0.73437,0.875 0.46875,0.29688 1.09375,0.29688 0.57813,0 0.95313,-0.1875 0.39062,-0.1875 0.39062,-0.60938 0,-0.39062 -0.35937,-0.59375 -0.34375,-0.20312 -1.04688,-0.35937 l -0.95312,-0.20313 q -1,-0.25 -1.65625,-0.875 -0.65625,-0.64062 -0.65625,-1.57812 0,-0.70313 0.42187,-1.26563 0.42188,-0.5625 1.15625,-0.85937 0.73438,-0.3125 1.60938,-0.3125 2.53125,0 3.375,1.78125 l -1.79688,0.78125 q -0.46875,-0.85938 -1.53125,-0.85938 -0.54687,0 -0.875,0.20313 -0.3125,0.20312 -0.3125,0.5 0,0.57812 1.09375,0.85937 l 1.20313,0.29688 q 1.21875,0.29687 1.82812,0.92187 0.60938,0.625 0.60938,1.53125 0,0.79688 -0.45313,1.39063 -0.45312,0.59375 -1.25,0.9375 -0.78125,0.32812 -1.75,0.32812 z m 3.95502,-0.25 z m 7.86902,0.25 q -1.48438,0 -2.40625,-0.59375 -0.92188,-0.60937 -1.28125,-1.59375 l 1.85937,-0.8125 q 0.26563,0.57813 0.73438,0.875 0.46875,0.29688 1.09375,0.29688 0.57812,0 0.95312,-0.1875 0.39063,-0.1875 0.39063,-0.60938 0,-0.39062 -0.35938,-0.59375 -0.34375,-0.20312 -1.04687,-0.35937 l -0.95313,-0.20313 q -1,-0.25 -1.65625,-0.875 -0.65625,-0.64062 -0.65625,-1.57812 0,-0.70313 0.42188,-1.26563 0.42187,-0.5625 1.15625,-0.85937 0.73437,-0.3125 1.60937,-0.3125 2.53125,0 3.375,1.78125 l -1.79687,0.78125 q -0.46875,-0.85938 -1.53125,-0.85938 -0.54688,0 -0.875,0.20313 -0.3125,0.20312 -0.3125,0.5 0,0.57812 1.09375,0.85937 l 1.20312,0.29688 q 1.21875,0.29687 1.82813,0.92187 0.60937,0.625 0.60937,1.53125 0,0.79688 -0.45312,1.39063 -0.45313,0.59375 -1.25,0.9375 -0.78125,0.32812 -1.75,0.32812 z m 4.06439,-8.40625 h 2.39062 l 2.0625,5.3125 h 0.125 l 2.09375,-5.3125 h 2.35938 l -3.5,8.15625 h -2.07813 z m 13.75799,8.40625 q -1.23437,0 -2.20312,-0.54687 -0.96875,-0.54688 -1.53125,-1.53125 -0.54688,-1 -0.54688,-2.25 0,-1.25 0.54688,-2.23438 0.5625,-0.98437 1.53125,-1.54687 0.96875,-0.5625 2.20312,-0.5625 1.35938,0 2.32813,0.59375 0.98437,0.57812 1.42187,1.65625 l -1.92187,0.79687 q -0.51563,-1.09375 -1.82813,-1.09375 -0.95312,0 -1.57812,0.65625 -0.60938,0.65625 -0.60938,1.73438 0,1.09375 0.60938,1.75 0.625,0.64062 1.57812,0.64062 1.32813,0 1.92188,-1.14062 l 1.90625,0.82812 q -0.53125,1.07813 -1.51563,1.67188 -0.96875,0.57812 -2.3125,0.57812 z"
       id="path61"
       inkscape:connector-curvature="0"
       style="fill:#ff9900;fill-rule:nonzero" />
    <path
       d="M 605.41266,296.158 V 433.23457 H 173.38116 V 408.22099"
       id="path63"
       inkscape:connector-curvature="0"
       style="fill:#000000;fill-opacity:0;fill-rule:evenodd" />
    <path
       d="M 605.41266,303.01215 V 433.23459 H 173.3812 v -25.01358"
       id="path65"
       inkscape:connector-curvature="0"
       style="fill-rule:evenodd;stroke:#34a853;stroke-width:2;stroke-linecap:butt;stroke-linejoin:round" />
    <path
       d="m 605.41266,303.01218 2.24921,2.24915 -2.24921,-6.17954 -2.24915,6.17954 z"
       id="path67"
       inkscape:connector-curvature="0"
       style="fill:#34a853;fill-rule:evenodd;stroke:#34a853;stroke-width:2;stroke-linecap:butt" />
    <path
       d="M 605.41266,296.158 V 433.23457 H 390.89301 v -25.01358"
       id="path69"
       inkscape:connector-curvature="0"
       style="fill:#000000;fill-opacity:0;fill-rule:evenodd" />
    <path
       d="M 605.41266,303.01215 V 433.23459 H 390.89301 v -25.01358"
       id="path71"
       inkscape:connector-curvature="0"
       style="fill-rule:evenodd;stroke:#34a853;stroke-width:2;stroke-linecap:butt;stroke-linejoin:round" />
    <path
       d="m 605.41266,303.01218 2.24921,2.24915 -2.24921,-6.17954 -2.24915,6.17954 z"
       id="path73"
       inkscape:connector-curvature="0"
       style="fill:#34a853;fill-rule:evenodd;stroke:#34a853;stroke-width:2;stroke-linecap:butt" />
    <path
       d="m 120.1526,383.6989 h 106.4567 v 24.53543 H 120.1526 Z"
       id="path75"
       inkscape:connector-curvature="0"
       style="fill:#000000;fill-opacity:0;fill-rule:evenodd" />
    <path
       d="m 137.23802,392.76538 -1.76563,1.26562 -0.64062,-0.95312 2.85937,-2.0625 h 0.79688 v 10.03125 h -1.25 z m 7.22565,8.51562 q -1.1875,0 -2.10938,-0.6875 -0.90625,-0.70312 -1.40625,-1.89062 -0.48437,-1.20313 -0.48437,-2.67188 0,-1.46875 0.48437,-2.65625 0.5,-1.1875 1.40625,-1.89062 0.90625,-0.70313 2.10938,-0.70313 1.20312,0 2.10937,0.70313 0.90625,0.70312 1.40625,1.89062 0.5,1.1875 0.5,2.65625 0,1.46875 -0.5,2.67188 -0.5,1.1875 -1.42187,1.89062 -0.90625,0.6875 -2.09375,0.6875 z m 0,-1.1875 q 0.84375,0 1.45312,-0.53125 0.60938,-0.53125 0.9375,-1.45312 0.34375,-0.9375 0.34375,-2.07813 0,-1.14062 -0.34375,-2.0625 -0.32812,-0.92187 -0.9375,-1.45312 -0.60937,-0.54688 -1.45312,-0.54688 -0.82813,0 -1.45313,0.54688 -0.60937,0.53125 -0.9375,1.45312 -0.32812,0.92188 -0.32812,2.0625 0,1.14063 0.32812,2.07813 0.32813,0.92187 0.9375,1.45312 0.625,0.53125 1.45313,0.53125 z m 6.48457,1.04688 q -0.40625,0 -0.67187,-0.26563 -0.26563,-0.28125 -0.26563,-0.67187 0,-0.39063 0.26563,-0.65625 0.26562,-0.26563 0.67187,-0.26563 0.39063,0 0.65625,0.26563 0.28125,0.26562 0.28125,0.65625 0,0.39062 -0.28125,0.67187 -0.26562,0.26563 -0.65625,0.26563 z m 6.45696,0.14062 q -1.1875,0 -2.10938,-0.6875 -0.90625,-0.70312 -1.40625,-1.89062 -0.48437,-1.20313 -0.48437,-2.67188 0,-1.46875 0.48437,-2.65625 0.5,-1.1875 1.40625,-1.89062 0.90625,-0.70313 2.10938,-0.70313 1.20312,0 2.10937,0.70313 0.90625,0.70312 1.40625,1.89062 0.5,1.1875 0.5,2.65625 0,1.46875 -0.5,2.67188 -0.5,1.1875 -1.42187,1.89062 -0.90625,0.6875 -2.09375,0.6875 z m 0,-1.1875 q 0.84375,0 1.45312,-0.53125 0.60938,-0.53125 0.9375,-1.45312 0.34375,-0.9375 0.34375,-2.07813 0,-1.14062 -0.34375,-2.0625 -0.32812,-0.92187 -0.9375,-1.45312 -0.60937,-0.54688 -1.45312,-0.54688 -0.82813,0 -1.45313,0.54688 -0.60937,0.53125 -0.9375,1.45312 -0.32812,0.92188 -0.32812,2.0625 0,1.14063 0.32812,2.07813 0.32813,0.92187 0.9375,1.45312 0.625,0.53125 1.45313,0.53125 z m 6.48457,1.04688 q -0.40625,0 -0.67188,-0.26563 -0.26562,-0.28125 -0.26562,-0.67187 0,-0.39063 0.26562,-0.65625 0.26563,-0.26563 0.67188,-0.26563 0.39062,0 0.65625,0.26563 0.28125,0.26562 0.28125,0.65625 0,0.39062 -0.28125,0.67187 -0.26563,0.26563 -0.65625,0.26563 z m 6.45695,0.14062 q -1.1875,0 -2.10937,-0.6875 -0.90625,-0.70312 -1.40625,-1.89062 -0.48438,-1.20313 -0.48438,-2.67188 0,-1.46875 0.48438,-2.65625 0.5,-1.1875 1.40625,-1.89062 0.90625,-0.70313 2.10937,-0.70313 1.20313,0 2.10938,0.70313 0.90625,0.70312 1.40625,1.89062 0.5,1.1875 0.5,2.65625 0,1.46875 -0.5,2.67188 -0.5,1.1875 -1.42188,1.89062 -0.90625,0.6875 -2.09375,0.6875 z m 0,-1.1875 q 0.84375,0 1.45313,-0.53125 0.60937,-0.53125 0.9375,-1.45312 0.34375,-0.9375 0.34375,-2.07813 0,-1.14062 -0.34375,-2.0625 -0.32813,-0.92187 -0.9375,-1.45312 -0.60938,-0.54688 -1.45313,-0.54688 -0.82812,0 -1.45312,0.54688 -0.60938,0.53125 -0.9375,1.45312 -0.32813,0.92188 -0.32813,2.0625 0,1.14063 0.32813,2.07813 0.32812,0.92187 0.9375,1.45312 0.625,0.53125 1.45312,0.53125 z m 6.48458,1.04688 q -0.40625,0 -0.67188,-0.26563 -0.26562,-0.28125 -0.26562,-0.67187 0,-0.39063 0.26562,-0.65625 0.26563,-0.26563 0.67188,-0.26563 0.39062,0 0.65625,0.26563 0.28125,0.26562 0.28125,0.65625 0,0.39062 -0.28125,0.67187 -0.26563,0.26563 -0.65625,0.26563 z m 4.21403,-8.375 -1.76562,1.26562 -0.64063,-0.95312 2.85938,-2.0625 h 0.79687 v 10.03125 h -1.25 z m 7.22565,8.51562 q -1.1875,0 -2.10938,-0.6875 -0.90625,-0.70312 -1.40625,-1.89062 -0.48437,-1.20313 -0.48437,-2.67188 0,-1.46875 0.48437,-2.65625 0.5,-1.1875 1.40625,-1.89062 0.90625,-0.70313 2.10938,-0.70313 1.20312,0 2.10937,0.70313 0.90625,0.70312 1.40625,1.89062 0.5,1.1875 0.5,2.65625 0,1.46875 -0.5,2.67188 -0.5,1.1875 -1.42187,1.89062 -0.90625,0.6875 -2.09375,0.6875 z m 0,-1.1875 q 0.84375,0 1.45312,-0.53125 0.60938,-0.53125 0.9375,-1.45312 0.34375,-0.9375 0.34375,-2.07813 0,-1.14062 -0.34375,-2.0625 -0.32812,-0.92187 -0.9375,-1.45312 -0.60937,-0.54688 -1.45312,-0.54688 -0.82813,0 -1.45313,0.54688 -0.60937,0.53125 -0.9375,1.45312 -0.32812,0.92188 -0.32812,2.0625 0,1.14063 0.32812,2.07813 0.32813,0.92187 0.9375,1.45312 0.625,0.53125 1.45313,0.53125 z m 6.48457,-4.73437 q -0.40625,0 -0.67187,-0.26563 -0.26563,-0.28125 -0.26563,-0.67187 0,-0.39063 0.26563,-0.65625 0.26562,-0.28125 0.67187,-0.28125 0.39063,0 0.65625,0.28125 0.28125,0.26562 0.28125,0.65625 0,0.39062 -0.28125,0.67187 -0.26562,0.26563 -0.65625,0.26563 z m 0,5.78125 q -0.40625,0 -0.67187,-0.26563 -0.26563,-0.28125 -0.26563,-0.67187 0,-0.39063 0.26563,-0.65625 0.26562,-0.26563 0.67187,-0.26563 0.39063,0 0.65625,0.26563 0.28125,0.26562 0.28125,0.65625 0,0.39062 -0.28125,0.67187 -0.26562,0.26563 -0.65625,0.26563 z m 5.75383,0.14062 q -0.70312,0 -1.39062,-0.29687 -0.6875,-0.29688 -1.21875,-0.90625 -0.53125,-0.60938 -0.75,-1.51563 l 1.10937,-0.4375 q 0.23438,0.90625 0.8125,1.4375 0.59375,0.53125 1.40625,0.53125 0.98438,0 1.60938,-0.59375 0.625,-0.60937 0.625,-1.57812 0,-0.95313 -0.625,-1.5625 -0.60938,-0.625 -1.57813,-0.625 -0.53125,0 -1,0.23437 -0.46875,0.23438 -0.76562,0.67188 l -1.25,-0.5625 0.64062,-5.0625 h 5.1875 v 1.1875 h -4.15625 l -0.40625,3.04687 h 0.0625 q 0.78125,-0.65625 1.90625,-0.65625 0.85938,0 1.59375,0.4375 0.75,0.42188 1.1875,1.1875 0.4375,0.75 0.4375,1.6875 0,0.9375 -0.45312,1.71875 -0.4375,0.76563 -1.21875,1.21875 -0.78125,0.4375 -1.76563,0.4375 z m 8.064,0 q -0.64063,0 -1.29688,-0.26562 -0.65625,-0.26563 -1.1875,-0.82813 -0.53125,-0.5625 -0.76562,-1.40625 l 1.125,-0.46875 q 0.23437,0.84375 0.79687,1.3125 0.5625,0.46875 1.32813,0.46875 0.54687,0 1.03125,-0.23437 0.48437,-0.25 0.76562,-0.67188 0.29688,-0.4375 0.29688,-0.96875 0,-0.51562 -0.29688,-0.9375 -0.28125,-0.42187 -0.76562,-0.65625 -0.48438,-0.25 -1.07813,-0.25 h -0.85937 v -1.15625 h 0.76562 q 0.8125,0 1.34375,-0.45312 0.54688,-0.46875 0.54688,-1.23438 0,-0.70312 -0.53125,-1.125 -0.51563,-0.4375 -1.29688,-0.4375 -0.76562,0 -1.20312,0.40625 -0.42188,0.39063 -0.60938,0.96875 l -1.14062,-0.48437 q 0.26562,-0.79688 1.01562,-1.4375 0.75,-0.64063 1.9375,-0.64063 0.875,0 1.57813,0.35938 0.70312,0.34375 1.10937,0.98437 0.40625,0.625 0.40625,1.40625 0,0.78125 -0.40625,1.32813 -0.39062,0.53125 -0.96875,0.84375 v 0.0469 q 0.75,0.3125 1.23438,0.95313 0.48437,0.64062 0.48437,1.5 0,0.875 -0.45312,1.57812 -0.45313,0.70313 -1.21875,1.10938 -0.76563,0.39062 -1.6875,0.39062 z"
       id="path77"
       inkscape:connector-curvature="0"
       style="fill:#666666;fill-rule:nonzero" />
    <path
       d="m 337.6717,294.89438 h 106.4252 v 63.24408 H 337.6717 Z"
       id="path79"
       inkscape:connector-curvature="0"
       style="fill:#e8f0fe;fill-rule:evenodd" />
    <path
       d="m 337.6717,294.89438 h 106.4252 v 63.24408 H 337.6717 Z"
       id="path81"
       inkscape:connector-curvature="0"
       style="fill-rule:evenodd;stroke:#4285f4;stroke-width:2;stroke-linecap:butt;stroke-linejoin:round" />
    <path
       d="m 337.7001,314.1934 h 106.42517 v 19.62204 H 337.7001 Z"
       id="path83"
       inkscape:connector-curvature="0"
       style="fill:#000000;fill-opacity:0;fill-rule:evenodd" />
    <path
       d="m 378.06207,321.61566 h 1.8125 v 0.90625 h 0.10937 q 0.3125,-0.48438 0.89063,-0.8125 0.59375,-0.32813 1.35937,-0.32813 1,0 1.82813,0.5 0.82812,0.5 1.29687,1.42188 0.46875,0.90625 0.46875,2.04687 0,1.15625 -0.46875,2.0625 -0.46875,0.89063 -1.29687,1.40625 -0.82813,0.5 -1.82813,0.5 -0.76562,0 -1.35937,-0.3125 -0.59375,-0.32812 -0.89063,-0.8125 h -0.10937 l 0.10937,1.04688 v 3.01562 h -1.92187 z m 3.82812,5.9375 q 0.54688,0 1.01563,-0.28125 0.46875,-0.28125 0.73437,-0.78125 0.28125,-0.5 0.28125,-1.14063 0,-0.64062 -0.28125,-1.14062 -0.26562,-0.5 -0.73437,-0.76563 -0.46875,-0.28125 -1.01563,-0.28125 -0.53125,0 -1,0.28125 -0.46875,0.26563 -0.75,0.76563 -0.26562,0.5 -0.26562,1.14062 0,0.64063 0.26562,1.14063 0.28125,0.5 0.75,0.78125 0.46875,0.28125 1,0.28125 z m 9.00199,1.76562 q -1.15625,0 -2.07813,-0.51562 -0.90625,-0.53125 -1.40625,-1.42188 -0.5,-0.90625 -0.5,-2.03125 0,-1.10937 0.5,-2.01562 0.5,-0.92188 1.40625,-1.4375 0.92188,-0.51563 2.07813,-0.51563 1.14062,0 2.04687,0.51563 0.90625,0.51562 1.40625,1.4375 0.51563,0.90625 0.51563,2.01562 0,1.125 -0.51563,2.03125 -0.5,0.89063 -1.40625,1.42188 -0.90625,0.51562 -2.04687,0.51562 z m 0,-1.76562 q 0.5625,0 1.03125,-0.26563 0.46875,-0.26562 0.73437,-0.76562 0.28125,-0.5 0.28125,-1.17188 0,-0.65625 -0.28125,-1.15625 -0.26562,-0.5 -0.73437,-0.76562 -0.46875,-0.26563 -1.03125,-0.26563 -0.5625,0 -1.03125,0.26563 -0.46875,0.26562 -0.75,0.76562 -0.28125,0.5 -0.28125,1.15625 0,0.65625 0.28125,1.17188 0.28125,0.5 0.75,0.76562 0.46875,0.26563 1.03125,0.26563 z m 8.63864,1.76562 q -1,0 -1.82813,-0.5 -0.82812,-0.51562 -1.3125,-1.40625 -0.46875,-0.90625 -0.46875,-2.0625 0,-1.14062 0.46875,-2.04687 0.48438,-0.92188 1.3125,-1.42188 0.82813,-0.5 1.82813,-0.5 0.76562,0 1.34375,0.32813 0.59375,0.32812 0.90625,0.8125 h 0.10937 l -0.10937,-1.0625 v -2.875 h 1.90625 v 10.5 h -1.79688 v -0.89063 h -0.10937 q -0.29688,0.48438 -0.89063,0.8125 -0.59375,0.3125 -1.35937,0.3125 z m 0.32812,-1.76562 q 0.54688,0 1.01563,-0.28125 0.46875,-0.28125 0.73437,-0.78125 0.28125,-0.5 0.28125,-1.14063 0,-0.64062 -0.28125,-1.14062 -0.26562,-0.5 -0.73437,-0.76563 -0.46875,-0.28125 -1.01563,-0.28125 -0.53125,0 -1,0.28125 -0.46875,0.26563 -0.75,0.76563 -0.26562,0.5 -0.26562,1.14062 0,0.64063 0.26562,1.14063 0.28125,0.5 0.75,0.78125 0.46875,0.28125 1,0.28125 z"
       id="path85"
       inkscape:connector-curvature="0"
       style="fill:#4285f4;fill-rule:nonzero" />
    <path
       d="m 337.67624,383.6989 h 106.4567 v 24.53543 h -106.4567 z"
       id="path87"
       inkscape:connector-curvature="0"
       style="fill:#000000;fill-opacity:0;fill-rule:evenodd" />
    <path
       d="m 354.76166,392.76538 -1.76563,1.26562 -0.64062,-0.95312 2.85937,-2.0625 h 0.79688 v 10.03125 h -1.25 z m 7.22565,8.51562 q -1.1875,0 -2.10938,-0.6875 -0.90625,-0.70312 -1.40625,-1.89062 -0.48437,-1.20313 -0.48437,-2.67188 0,-1.46875 0.48437,-2.65625 0.5,-1.1875 1.40625,-1.89062 0.90625,-0.70313 2.10938,-0.70313 1.20312,0 2.10937,0.70313 0.90625,0.70312 1.40625,1.89062 0.5,1.1875 0.5,2.65625 0,1.46875 -0.5,2.67188 -0.5,1.1875 -1.42187,1.89062 -0.90625,0.6875 -2.09375,0.6875 z m 0,-1.1875 q 0.84375,0 1.45312,-0.53125 0.60938,-0.53125 0.9375,-1.45312 0.34375,-0.9375 0.34375,-2.07813 0,-1.14062 -0.34375,-2.0625 -0.32812,-0.92187 -0.9375,-1.45312 -0.60937,-0.54688 -1.45312,-0.54688 -0.82813,0 -1.45313,0.54688 -0.60937,0.53125 -0.9375,1.45312 -0.32812,0.92188 -0.32812,2.0625 0,1.14063 0.32812,2.07813 0.32813,0.92187 0.9375,1.45312 0.625,0.53125 1.45313,0.53125 z m 6.48455,1.04688 q -0.40625,0 -0.67187,-0.26563 -0.26563,-0.28125 -0.26563,-0.67187 0,-0.39063 0.26563,-0.65625 0.26562,-0.26563 0.67187,-0.26563 0.39063,0 0.65625,0.26563 0.28125,0.26562 0.28125,0.65625 0,0.39062 -0.28125,0.67187 -0.26562,0.26563 -0.65625,0.26563 z m 6.45697,0.14062 q -1.1875,0 -2.10937,-0.6875 -0.90625,-0.70312 -1.40625,-1.89062 -0.48438,-1.20313 -0.48438,-2.67188 0,-1.46875 0.48438,-2.65625 0.5,-1.1875 1.40625,-1.89062 0.90625,-0.70313 2.10937,-0.70313 1.20313,0 2.10938,0.70313 0.90625,0.70312 1.40625,1.89062 0.5,1.1875 0.5,2.65625 0,1.46875 -0.5,2.67188 -0.5,1.1875 -1.42188,1.89062 -0.90625,0.6875 -2.09375,0.6875 z m 0,-1.1875 q 0.84375,0 1.45313,-0.53125 0.60937,-0.53125 0.9375,-1.45312 0.34375,-0.9375 0.34375,-2.07813 0,-1.14062 -0.34375,-2.0625 -0.32813,-0.92187 -0.9375,-1.45312 -0.60938,-0.54688 -1.45313,-0.54688 -0.82812,0 -1.45312,0.54688 -0.60938,0.53125 -0.9375,1.45312 -0.32813,0.92188 -0.32813,2.0625 0,1.14063 0.32813,2.07813 0.32812,0.92187 0.9375,1.45312 0.625,0.53125 1.45312,0.53125 z m 6.48456,1.04688 q -0.40625,0 -0.67187,-0.26563 -0.26563,-0.28125 -0.26563,-0.67187 0,-0.39063 0.26563,-0.65625 0.26562,-0.26563 0.67187,-0.26563 0.39063,0 0.65625,0.26563 0.28125,0.26562 0.28125,0.65625 0,0.39062 -0.28125,0.67187 -0.26562,0.26563 -0.65625,0.26563 z m 6.45697,0.14062 q -1.1875,0 -2.10937,-0.6875 -0.90625,-0.70312 -1.40625,-1.89062 -0.48438,-1.20313 -0.48438,-2.67188 0,-1.46875 0.48438,-2.65625 0.5,-1.1875 1.40625,-1.89062 0.90625,-0.70313 2.10937,-0.70313 1.20313,0 2.10938,0.70313 0.90625,0.70312 1.40625,1.89062 0.5,1.1875 0.5,2.65625 0,1.46875 -0.5,2.67188 -0.5,1.1875 -1.42188,1.89062 -0.90625,0.6875 -2.09375,0.6875 z m 0,-1.1875 q 0.84375,0 1.45313,-0.53125 0.60937,-0.53125 0.9375,-1.45312 0.34375,-0.9375 0.34375,-2.07813 0,-1.14062 -0.34375,-2.0625 -0.32813,-0.92187 -0.9375,-1.45312 -0.60938,-0.54688 -1.45313,-0.54688 -0.82812,0 -1.45312,0.54688 -0.60938,0.53125 -0.9375,1.45312 -0.32813,0.92188 -0.32813,2.0625 0,1.14063 0.32813,2.07813 0.32812,0.92187 0.9375,1.45312 0.625,0.53125 1.45312,0.53125 z m 6.48456,1.04688 q -0.40625,0 -0.67187,-0.26563 -0.26563,-0.28125 -0.26563,-0.67187 0,-0.39063 0.26563,-0.65625 0.26562,-0.26563 0.67187,-0.26563 0.39063,0 0.65625,0.26563 0.28125,0.26562 0.28125,0.65625 0,0.39062 -0.28125,0.67187 -0.26562,0.26563 -0.65625,0.26563 z m 4.21405,-8.375 -1.76562,1.26562 -0.64063,-0.95312 2.85938,-2.0625 h 0.79687 v 10.03125 h -1.25 z m 7.22565,8.51562 q -1.1875,0 -2.10938,-0.6875 -0.90625,-0.70312 -1.40625,-1.89062 -0.48437,-1.20313 -0.48437,-2.67188 0,-1.46875 0.48437,-2.65625 0.5,-1.1875 1.40625,-1.89062 0.90625,-0.70313 2.10938,-0.70313 1.20312,0 2.10937,0.70313 0.90625,0.70312 1.40625,1.89062 0.5,1.1875 0.5,2.65625 0,1.46875 -0.5,2.67188 -0.5,1.1875 -1.42187,1.89062 -0.90625,0.6875 -2.09375,0.6875 z m 0,-1.1875 q 0.84375,0 1.45312,-0.53125 0.60938,-0.53125 0.9375,-1.45312 0.34375,-0.9375 0.34375,-2.07813 0,-1.14062 -0.34375,-2.0625 -0.32812,-0.92187 -0.9375,-1.45312 -0.60937,-0.54688 -1.45312,-0.54688 -0.82813,0 -1.45313,0.54688 -0.60937,0.53125 -0.9375,1.45312 -0.32812,0.92188 -0.32812,2.0625 0,1.14063 0.32812,2.07813 0.32813,0.92187 0.9375,1.45312 0.625,0.53125 1.45313,0.53125 z m 6.48456,-4.73437 q -0.40625,0 -0.67188,-0.26563 -0.26562,-0.28125 -0.26562,-0.67187 0,-0.39063 0.26562,-0.65625 0.26563,-0.28125 0.67188,-0.28125 0.39062,0 0.65625,0.28125 0.28125,0.26562 0.28125,0.65625 0,0.39062 -0.28125,0.67187 -0.26563,0.26563 -0.65625,0.26563 z m 0,5.78125 q -0.40625,0 -0.67188,-0.26563 -0.26562,-0.28125 -0.26562,-0.67187 0,-0.39063 0.26562,-0.65625 0.26563,-0.26563 0.67188,-0.26563 0.39062,0 0.65625,0.26563 0.28125,0.26562 0.28125,0.65625 0,0.39062 -0.28125,0.67187 -0.26563,0.26563 -0.65625,0.26563 z m 5.75384,0.14062 q -0.70312,0 -1.39062,-0.29687 -0.6875,-0.29688 -1.21875,-0.90625 -0.53125,-0.60938 -0.75,-1.51563 l 1.10937,-0.4375 q 0.23438,0.90625 0.8125,1.4375 0.59375,0.53125 1.40625,0.53125 0.98438,0 1.60938,-0.59375 0.625,-0.60937 0.625,-1.57812 0,-0.95313 -0.625,-1.5625 -0.60938,-0.625 -1.57813,-0.625 -0.53125,0 -1,0.23437 -0.46875,0.23438 -0.76562,0.67188 l -1.25,-0.5625 0.64062,-5.0625 h 5.1875 v 1.1875 h -4.15625 l -0.40625,3.04687 h 0.0625 q 0.78125,-0.65625 1.90625,-0.65625 0.85938,0 1.59375,0.4375 0.75,0.42188 1.1875,1.1875 0.4375,0.75 0.4375,1.6875 0,0.9375 -0.45312,1.71875 -0.4375,0.76563 -1.21875,1.21875 -0.78125,0.4375 -1.76563,0.4375 z m 8.064,0 q -0.64063,0 -1.29688,-0.26562 -0.65625,-0.26563 -1.1875,-0.82813 -0.53125,-0.5625 -0.76562,-1.40625 l 1.125,-0.46875 q 0.23437,0.84375 0.79687,1.3125 0.5625,0.46875 1.32813,0.46875 0.54687,0 1.03125,-0.23437 0.48437,-0.25 0.76562,-0.67188 0.29688,-0.4375 0.29688,-0.96875 0,-0.51562 -0.29688,-0.9375 -0.28125,-0.42187 -0.76562,-0.65625 -0.48438,-0.25 -1.07813,-0.25 h -0.85937 v -1.15625 h 0.76562 q 0.8125,0 1.34375,-0.45312 0.54688,-0.46875 0.54688,-1.23438 0,-0.70312 -0.53125,-1.125 -0.51563,-0.4375 -1.29688,-0.4375 -0.76562,0 -1.20312,0.40625 -0.42188,0.39063 -0.60938,0.96875 l -1.14062,-0.48437 q 0.26562,-0.79688 1.01562,-1.4375 0.75,-0.64063 1.9375,-0.64063 0.875,0 1.57813,0.35938 0.70312,0.34375 1.10937,0.98437 0.40625,0.625 0.40625,1.40625 0,0.78125 -0.40625,1.32813 -0.39062,0.53125 -0.96875,0.84375 v 0.0469 q 0.75,0.3125 1.23438,0.95313 0.48437,0.64062 0.48437,1.5 0,0.875 -0.45312,1.57812 -0.45313,0.70313 -1.21875,1.10938 -0.76563,0.39062 -1.6875,0.39062 z"
       id="path89"
       inkscape:connector-curvature="0"
       style="fill:#666666;fill-rule:nonzero" />
    <path
       d="m 173.38095,383.6989 v -25 h 0.063 v 25.06299"
       id="path91"
       inkscape:connector-curvature="0"
       style="fill:#000000;fill-opacity:0;fill-rule:evenodd" />
    <path
       d="m 173.38095,376.84473 v -18.14581 h 0.063 v 25.06299"
       id="path93"
       inkscape:connector-curvature="0"
       style="fill-rule:evenodd;stroke:#34a853;stroke-width:2;stroke-linecap:butt;stroke-linejoin:round" />
    <path
       d="m 173.38095,376.84473 -2.24918,-2.24918 2.24918,6.17954 2.24916,-6.17954 z"
       id="path95"
       inkscape:connector-curvature="0"
       style="fill:#34a853;fill-rule:evenodd;stroke:#34a853;stroke-width:2;stroke-linecap:butt" />
    <path
       d="m 390.90457,383.6989 v -12.78995 h 0.063 V 358.1241"
       id="path97"
       inkscape:connector-curvature="0"
       style="fill:#000000;fill-opacity:0;fill-rule:evenodd" />
    <path
       d="m 390.90457,376.84473 v -5.93576 h 0.063 v -12.78488"
       id="path99"
       inkscape:connector-curvature="0"
       style="fill-rule:evenodd;stroke:#34a853;stroke-width:2;stroke-linecap:butt;stroke-linejoin:round" />
    <path
       d="m 390.90457,376.84473 -2.24918,-2.24918 2.24918,6.17954 2.24918,-6.17954 z"
       id="path101"
       inkscape:connector-curvature="0"
       style="fill:#34a853;fill-rule:evenodd;stroke:#34a853;stroke-width:2;stroke-linecap:butt" />
    <path
       d="m 735.97876,276.59778 h -31.33032 v 0.063 h -31.31531"
       id="path103"
       inkscape:connector-curvature="0"
       style="fill:#000000;fill-opacity:0;fill-rule:evenodd" />
    <path
       d="m 729.1246,276.59778 h -24.47614 v 0.063 h -31.3153"
       id="path105"
       inkscape:connector-curvature="0"
       style="fill-rule:evenodd;stroke:#34a853;stroke-width:2;stroke-linecap:butt;stroke-linejoin:round" />
    <path
       d="m 729.1246,276.59778 -2.24915,2.24918 6.17951,-2.24918 -6.17951,-2.24915 z"
       id="path107"
       inkscape:connector-curvature="0"
       style="fill:#34a853;fill-rule:evenodd;stroke:#34a853;stroke-width:2;stroke-linecap:butt" />
    <path
       d="M 682.6286,96.485565 H 897.14831 V 179.22572 H 682.6286 Z"
       id="path109"
       inkscape:connector-curvature="0"
       style="fill:#f3f3f3;fill-rule:evenodd" />
    <path
       d="M 682.6286,96.485565 H 897.14831 V 179.22572 H 682.6286 Z"
       id="path111"
       inkscape:connector-curvature="0"
       style="fill-rule:evenodd;stroke:#666666;stroke-width:2;stroke-linecap:butt;stroke-linejoin:round" />
    <path
       d="m 758.43774,143.17001 q -1.53125,0 -2.79688,-0.71875 -1.25,-0.73438 -1.98437,-1.98438 -0.71875,-1.25 -0.71875,-2.78125 0,-1.51562 0.71875,-2.76562 0.73437,-1.26563 1.98437,-1.98438 1.26563,-0.73437 2.79688,-0.73437 2.375,0 3.92187,1.71875 l -1.39062,1.34375 q -1.01563,-1.1875 -2.51563,-1.1875 -0.98437,0 -1.79687,0.45312 -0.79688,0.45313 -1.26563,1.28125 -0.45312,0.8125 -0.45312,1.875 0,1.07813 0.45312,1.90625 0.46875,0.8125 1.26563,1.26563 0.8125,0.4375 1.79687,0.4375 1.65625,0 2.76563,-1.375 l 1.40625,1.32812 q -0.78125,0.9375 -1.84375,1.4375 -1.0625,0.48438 -2.34375,0.48438 z m 5.61114,-10.73438 h 1.92188 v 10.5 h -1.92188 z m 7.31543,10.73438 q -1.15625,0 -2.07812,-0.51563 -0.90625,-0.53125 -1.40625,-1.42187 -0.5,-0.90625 -0.5,-2.03125 0,-1.10938 0.5,-2.01563 0.5,-0.92187 1.40625,-1.4375 0.92187,-0.51562 2.07812,-0.51562 1.14063,0 2.04688,0.51562 0.90625,0.51563 1.40625,1.4375 0.51562,0.90625 0.51562,2.01563 0,1.125 -0.51562,2.03125 -0.5,0.89062 -1.40625,1.42187 -0.90625,0.51563 -2.04688,0.51563 z m 0,-1.76563 q 0.5625,0 1.03125,-0.26562 0.46875,-0.26563 0.73438,-0.76563 0.28125,-0.5 0.28125,-1.17187 0,-0.65625 -0.28125,-1.15625 -0.26563,-0.5 -0.73438,-0.76563 -0.46875,-0.26562 -1.03125,-0.26562 -0.5625,0 -1.03125,0.26562 -0.46875,0.26563 -0.75,0.76563 -0.28125,0.5 -0.28125,1.15625 0,0.65625 0.28125,1.17187 0.28125,0.5 0.75,0.76563 0.46875,0.26562 1.03125,0.26562 z m 8.06531,1.76563 q -1.35937,0 -2.0625,-0.82813 -0.70312,-0.84375 -0.70312,-2.34375 v -4.53125 h 1.92187 v 4.29688 q 0,0.76562 0.35938,1.20312 0.375,0.4375 0.98437,0.4375 0.8125,0 1.29688,-0.59375 0.48437,-0.60937 0.48437,-1.54687 v -3.79688 h 1.92188 v 7.46875 h -1.8125 v -0.9375 h -0.10938 q -0.34375,0.54688 -0.95312,0.85938 -0.59375,0.3125 -1.32813,0.3125 z m 9.20581,0 q -1,0 -1.82812,-0.5 -0.82813,-0.51563 -1.3125,-1.40625 -0.46875,-0.90625 -0.46875,-2.0625 0,-1.14063 0.46875,-2.04688 0.48437,-0.92187 1.3125,-1.42187 0.82812,-0.5 1.82812,-0.5 0.76563,0 1.34375,0.32812 0.59375,0.32813 0.90625,0.8125 h 0.10938 l -0.10938,-1.0625 v -2.875 h 1.90625 v 10.5 h -1.79687 v -0.89062 h -0.10938 q -0.29687,0.48437 -0.89062,0.8125 -0.59375,0.3125 -1.35938,0.3125 z m 0.32813,-1.76563 q 0.54687,0 1.01562,-0.28125 0.46875,-0.28125 0.73438,-0.78125 0.28125,-0.5 0.28125,-1.14062 0,-0.64063 -0.28125,-1.14063 -0.26563,-0.5 -0.73438,-0.76562 -0.46875,-0.28125 -1.01562,-0.28125 -0.53125,0 -1,0.28125 -0.46875,0.26562 -0.75,0.76562 -0.26563,0.5 -0.26563,1.14063 0,0.64062 0.26563,1.14062 0.28125,0.5 0.75,0.78125 0.46875,0.28125 1,0.28125 z m 4.77936,1.53125 z m 4.63269,-10.5 h 3.54687 q 1.64063,0 2.85938,0.67188 1.21875,0.65625 1.875,1.84375 0.65625,1.1875 0.65625,2.73437 0,1.5625 -0.65625,2.75 -0.65625,1.1875 -1.875,1.84375 -1.21875,0.65625 -2.85938,0.65625 h -3.54687 z m 3.45312,8.625 q 1.70313,0 2.59375,-0.89062 0.90625,-0.90625 0.90625,-2.48438 0,-1.5625 -0.90625,-2.46875 -0.89062,-0.90625 -2.59375,-0.90625 h -1.46875 v 6.75 z m 7.36328,-8.625 h 2.29688 l 4.21875,7.04688 h 0.125 l -0.125,-2.03125 v -5.01563 h 1.96875 v 10.5 h -2.07813 l -4.45312,-7.4375 h -0.125 l 0.125,2.03125 v 5.40625 h -1.95313 z m 14.06147,10.73438 q -1.39063,0 -2.45313,-0.76563 -1.04687,-0.78125 -1.46875,-2.20312 l 1.85938,-0.73438 q 0.21875,0.82813 0.75,1.32813 0.53125,0.5 1.3125,0.5 0.67187,0 1.14062,-0.32813 0.46875,-0.32812 0.46875,-0.92187 0,-0.57813 -0.45312,-0.95313 -0.45313,-0.375 -1.59375,-0.79687 l -0.64063,-0.23438 q -1.01562,-0.35937 -1.73437,-1.07812 -0.71875,-0.73438 -0.71875,-1.82813 0,-0.82812 0.42187,-1.5 0.4375,-0.67187 1.20313,-1.0625 0.78125,-0.39062 1.76562,-0.39062 1.42188,0 2.23438,0.67187 0.82812,0.67188 1.14062,1.5625 l -1.75,0.73438 q -0.15625,-0.48438 -0.5625,-0.8125 -0.40625,-0.32813 -1.03125,-0.32813 -0.64062,0 -1.0625,0.29688 -0.42187,0.29687 -0.42187,0.78125 0,0.46875 0.39062,0.79687 0.40625,0.32813 1.3125,0.64063 l 0.65625,0.21875 q 1.35938,0.46875 2.07813,1.25 0.73437,0.76562 0.73437,2 0,1.03125 -0.53125,1.75 -0.51562,0.70312 -1.34375,1.0625 -0.82812,0.34375 -1.70312,0.34375 z"
       id="path113"
       inkscape:connector-curvature="0"
       style="fill:#666666;fill-rule:nonzero" />
    <path
       d="m 789.8884,179.22572 -0.69287,65.76378"
       id="path115"
       inkscape:connector-curvature="0"
       style="fill:#000000;fill-opacity:0;fill-rule:evenodd" />
    <path
       d="m 789.8163,186.07951 -0.62073,58.90999"
       id="path117"
       inkscape:connector-curvature="0"
       style="fill-rule:evenodd;stroke:#ea4335;stroke-width:2;stroke-linecap:butt;stroke-linejoin:round" />
    <path
       d="m 789.8162,186.07951 2.22534,2.27274 -2.1839,-6.20289 -2.31415,6.15549 z"
       id="path119"
       inkscape:connector-curvature="0"
       style="fill:#ea4335;fill-rule:evenodd;stroke:#ea4335;stroke-width:2;stroke-linecap:butt" />
    <path
       d="m 746.6612,252.6529 h 106.42517 v 63.24411 H 746.6612 Z"
       id="path121"
       inkscape:connector-curvature="0"
       style="fill:#e8f0fe;fill-rule:evenodd" />
    <path
       d="m 746.6612,252.6529 h 106.42517 v 63.24411 H 746.6612 Z"
       id="path123"
       inkscape:connector-curvature="0"
       style="fill-rule:evenodd;stroke:#4285f4;stroke-width:2;stroke-linecap:butt;stroke-linejoin:round" />
    <path
       d="m 767.31433,278.85495 h 1.92188 v 5.71875 h 0.0937 l 2.6875,-2.6875 h 2.35937 v 0.10937 l -2.82812,2.76563 2.96875,4.46875 v 0.125 h -2.28125 l -2.03125,-3.26563 -0.96875,0.95313 v 2.3125 h -1.92188 z m 10.896,10.73437 q -1.35938,0 -2.0625,-0.82812 -0.70313,-0.84375 -0.70313,-2.34375 v -4.53125 h 1.92188 v 4.29687 q 0,0.76563 0.35937,1.20313 0.375,0.4375 0.98438,0.4375 0.8125,0 1.29687,-0.59375 0.48438,-0.60938 0.48438,-1.54688 v -3.79687 h 1.92187 v 7.46875 h -1.8125 v -0.9375 h -0.10937 q -0.34375,0.54687 -0.95313,0.85937 -0.59375,0.3125 -1.32812,0.3125 z m 10.23224,0 q -0.75,0 -1.34375,-0.3125 -0.59375,-0.32812 -0.89063,-0.8125 h -0.125 v 0.89063 h -1.79687 v -10.5 h 1.92187 v 2.875 l -0.125,1.0625 h 0.125 q 0.3125,-0.48438 0.89063,-0.8125 0.59375,-0.32813 1.34375,-0.32813 1.01562,0 1.84375,0.5 0.82812,0.5 1.29687,1.42188 0.46875,0.90625 0.46875,2.04687 0,1.15625 -0.46875,2.0625 -0.46875,0.89063 -1.29687,1.40625 -0.82813,0.5 -1.84375,0.5 z m -0.32813,-1.76562 q 0.54688,0 1.01563,-0.28125 0.46875,-0.28125 0.73437,-0.78125 0.28125,-0.5 0.28125,-1.14063 0,-0.64062 -0.28125,-1.14062 -0.26562,-0.5 -0.73437,-0.76563 -0.46875,-0.28125 -1.01563,-0.28125 -0.53125,0 -1,0.28125 -0.46875,0.26563 -0.75,0.76563 -0.28125,0.5 -0.28125,1.14062 0,0.64063 0.28125,1.14063 0.28125,0.5 0.75,0.78125 0.46875,0.28125 1,0.28125 z m 8.92004,1.76562 q -1.10937,0 -2.01562,-0.51562 -0.89063,-0.51563 -1.39063,-1.40625 -0.5,-0.90625 -0.5,-2.03125 0,-1.07813 0.5,-1.98438 0.5,-0.92187 1.375,-1.45312 0.875,-0.54688 1.96875,-0.54688 1.15625,0 1.98438,0.5 0.84375,0.48438 1.26562,1.35938 0.4375,0.85937 0.4375,1.92187 0,0.32813 -0.0469,0.64063 h -5.60938 q 0.14063,0.89062 0.70313,1.35937 0.5625,0.45313 1.35937,0.45313 0.65625,0 1.125,-0.28125 0.48438,-0.28125 0.76563,-0.76563 l 1.5625,0.75 q -1.15625,2 -3.48438,2 z m 1.78125,-4.875 q -0.0312,-0.35937 -0.26562,-0.70312 -0.21875,-0.34375 -0.625,-0.5625 -0.40625,-0.23438 -0.95313,-0.23438 -0.6875,0 -1.17187,0.40625 -0.48438,0.40625 -0.71875,1.09375 z m 3.30634,-0.75 h 4.96875 v 1.70313 h -4.96875 z m 10.03394,5.625 q -1,0 -1.82813,-0.5 -0.82812,-0.51562 -1.3125,-1.40625 -0.46875,-0.90625 -0.46875,-2.0625 0,-1.14062 0.46875,-2.04687 0.48438,-0.92188 1.3125,-1.42188 0.82813,-0.5 1.82813,-0.5 0.76562,0 1.34375,0.32813 0.59375,0.32812 0.90625,0.8125 h 0.10937 l -0.10937,-1.0625 v -2.875 h 1.90625 v 10.5 h -1.79688 v -0.89063 h -0.10937 q -0.29688,0.48438 -0.89063,0.8125 -0.59375,0.3125 -1.35937,0.3125 z m 0.32812,-1.76562 q 0.54688,0 1.01563,-0.28125 0.46875,-0.28125 0.73437,-0.78125 0.28125,-0.5 0.28125,-1.14063 0,-0.64062 -0.28125,-1.14062 -0.26562,-0.5 -0.73437,-0.76563 -0.46875,-0.28125 -1.01563,-0.28125 -0.53125,0 -1,0.28125 -0.46875,0.26563 -0.75,0.76563 -0.26562,0.5 -0.26562,1.14062 0,0.64063 0.26562,1.14063 0.28125,0.5 0.75,0.78125 0.46875,0.28125 1,0.28125 z m 5.71692,-5.9375 h 1.79687 v 0.9375 h 0.125 q 0.32813,-0.54688 0.9375,-0.85938 0.625,-0.3125 1.34375,-0.3125 1.35938,0 2.0625,0.82813 0.70313,0.8125 0.70313,2.23437 v 4.64063 h -1.92188 v -4.40625 q 0,-0.71875 -0.375,-1.10938 -0.35937,-0.40625 -1.01562,-0.40625 -0.78125,0 -1.26563,0.60938 -0.46875,0.59375 -0.46875,1.5 v 3.8125 h -1.92187 z m 11.5495,7.70312 q -1.35938,0 -2.20313,-0.54687 -0.84375,-0.5625 -1.1875,-1.45313 l 1.71875,-0.75 q 0.23438,0.51563 0.65625,0.79688 0.4375,0.26562 1.01563,0.26562 0.53125,0 0.875,-0.15625 0.35937,-0.17187 0.35937,-0.5625 0,-0.35937 -0.32812,-0.54687 -0.3125,-0.1875 -0.96875,-0.32813 l -0.875,-0.1875 q -0.90625,-0.21875 -1.51563,-0.79687 -0.59375,-0.57813 -0.59375,-1.45313 0,-0.64062 0.39063,-1.15625 0.39062,-0.51562 1.04687,-0.78125 0.67188,-0.28125 1.48438,-0.28125 2.3125,0 3.07812,1.625 l -1.64062,0.71875 q -0.4375,-0.79687 -1.40625,-0.79687 -0.5,0 -0.79688,0.1875 -0.28125,0.17187 -0.28125,0.45312 0,0.53125 1,0.79688 l 1.09375,0.26562 q 1.10938,0.28125 1.67188,0.85938 0.57812,0.5625 0.57812,1.39062 0,0.71875 -0.42187,1.28125 -0.42188,0.54688 -1.15625,0.85938 -0.71875,0.29687 -1.59375,0.29687 z"
       id="path125"
       inkscape:connector-curvature="0"
       style="fill:#4285f4;fill-rule:nonzero" />
    <path
       d="m 735.97876,244.97574 h 106.42523 v 63.24408 H 735.97876 Z"
       id="path127"
       inkscape:connector-curvature="0"
       style="fill:#e8f0fe;fill-rule:evenodd" />
    <path
       d="m 735.97876,244.97574 h 106.42523 v 63.24408 H 735.97876 Z"
       id="path129"
       inkscape:connector-curvature="0"
       style="fill-rule:evenodd;stroke:#4285f4;stroke-width:2;stroke-linecap:butt;stroke-linejoin:round" />
    <path
       d="m 756.6319,271.1778 h 1.92187 v 5.71875 h 0.0937 l 2.6875,-2.6875 h 2.35938 v 0.10937 l -2.82813,2.76563 2.96875,4.46875 v 0.125 h -2.28125 l -2.03125,-3.26563 -0.96875,0.95313 v 2.3125 h -1.92187 z m 10.896,10.73437 q -1.35938,0 -2.0625,-0.82812 -0.70313,-0.84375 -0.70313,-2.34375 v -4.53125 h 1.92188 v 4.29687 q 0,0.76563 0.35937,1.20313 0.375,0.4375 0.98438,0.4375 0.8125,0 1.29687,-0.59375 0.48438,-0.60938 0.48438,-1.54688 v -3.79687 h 1.92187 v 7.46875 h -1.8125 v -0.9375 h -0.10937 q -0.34375,0.54687 -0.95313,0.85937 -0.59375,0.3125 -1.32812,0.3125 z m 10.2323,0 q -0.75,0 -1.34375,-0.3125 -0.59375,-0.32812 -0.89063,-0.8125 h -0.125 v 0.89063 h -1.79687 v -10.5 h 1.92187 v 2.875 l -0.125,1.0625 h 0.125 q 0.3125,-0.48438 0.89063,-0.8125 0.59375,-0.32813 1.34375,-0.32813 1.01562,0 1.84375,0.5 0.82812,0.5 1.29687,1.42188 0.46875,0.90625 0.46875,2.04687 0,1.15625 -0.46875,2.0625 -0.46875,0.89063 -1.29687,1.40625 -0.82813,0.5 -1.84375,0.5 z m -0.32813,-1.76562 q 0.54688,0 1.01563,-0.28125 0.46875,-0.28125 0.73437,-0.78125 0.28125,-0.5 0.28125,-1.14063 0,-0.64062 -0.28125,-1.14062 -0.26562,-0.5 -0.73437,-0.76563 -0.46875,-0.28125 -1.01563,-0.28125 -0.53125,0 -1,0.28125 -0.46875,0.26563 -0.75,0.76563 -0.28125,0.5 -0.28125,1.14062 0,0.64063 0.28125,1.14063 0.28125,0.5 0.75,0.78125 0.46875,0.28125 1,0.28125 z m 8.91998,1.76562 q -1.10937,0 -2.01562,-0.51562 -0.89063,-0.51563 -1.39063,-1.40625 -0.5,-0.90625 -0.5,-2.03125 0,-1.07813 0.5,-1.98438 0.5,-0.92187 1.375,-1.45312 0.875,-0.54688 1.96875,-0.54688 1.15625,0 1.98438,0.5 0.84375,0.48438 1.26562,1.35938 0.4375,0.85937 0.4375,1.92187 0,0.32813 -0.0469,0.64063 h -5.60938 q 0.14063,0.89062 0.70313,1.35937 0.5625,0.45313 1.35937,0.45313 0.65625,0 1.125,-0.28125 0.48438,-0.28125 0.76563,-0.76563 l 1.5625,0.75 q -1.15625,2 -3.48438,2 z m 1.78125,-4.875 q -0.0312,-0.35937 -0.26562,-0.70312 -0.21875,-0.34375 -0.625,-0.5625 -0.40625,-0.23438 -0.95313,-0.23438 -0.6875,0 -1.17187,0.40625 -0.48438,0.40625 -0.71875,1.09375 z m 3.3064,-0.75 h 4.96875 v 1.70313 h -4.96875 z m 10.03394,5.625 q -1,0 -1.82813,-0.5 -0.82812,-0.51562 -1.3125,-1.40625 -0.46875,-0.90625 -0.46875,-2.0625 0,-1.14062 0.46875,-2.04687 0.48438,-0.92188 1.3125,-1.42188 0.82813,-0.5 1.82813,-0.5 0.76562,0 1.34375,0.32813 0.59375,0.32812 0.90625,0.8125 h 0.10937 l -0.10937,-1.0625 v -2.875 h 1.90625 v 10.5 h -1.79688 v -0.89063 h -0.10937 q -0.29688,0.48438 -0.89063,0.8125 -0.59375,0.3125 -1.35937,0.3125 z m 0.32812,-1.76562 q 0.54688,0 1.01563,-0.28125 0.46875,-0.28125 0.73437,-0.78125 0.28125,-0.5 0.28125,-1.14063 0,-0.64062 -0.28125,-1.14062 -0.26562,-0.5 -0.73437,-0.76563 -0.46875,-0.28125 -1.01563,-0.28125 -0.53125,0 -1,0.28125 -0.46875,0.26563 -0.75,0.76563 -0.26562,0.5 -0.26562,1.14062 0,0.64063 0.26562,1.14063 0.28125,0.5 0.75,0.78125 0.46875,0.28125 1,0.28125 z m 5.71686,-5.9375 h 1.79687 v 0.9375 h 0.125 q 0.32813,-0.54688 0.9375,-0.85938 0.625,-0.3125 1.34375,-0.3125 1.35938,0 2.0625,0.82813 0.70313,0.8125 0.70313,2.23437 v 4.64063 h -1.92188 v -4.40625 q 0,-0.71875 -0.375,-1.10938 -0.35937,-0.40625 -1.01562,-0.40625 -0.78125,0 -1.26563,0.60938 -0.46875,0.59375 -0.46875,1.5 v 3.8125 h -1.92187 z m 11.54956,7.70312 q -1.35937,0 -2.20312,-0.54687 -0.84375,-0.5625 -1.1875,-1.45313 l 1.71875,-0.75 q 0.23437,0.51563 0.65625,0.79688 0.4375,0.26562 1.01562,0.26562 0.53125,0 0.875,-0.15625 0.35938,-0.17187 0.35938,-0.5625 0,-0.35937 -0.32813,-0.54687 -0.3125,-0.1875 -0.96875,-0.32813 l -0.875,-0.1875 q -0.90625,-0.21875 -1.51562,-0.79687 -0.59375,-0.57813 -0.59375,-1.45313 0,-0.64062 0.39062,-1.15625 0.39063,-0.51562 1.04688,-0.78125 0.67187,-0.28125 1.48437,-0.28125 2.3125,0 3.07813,1.625 l -1.64063,0.71875 q -0.4375,-0.79687 -1.40625,-0.79687 -0.5,0 -0.79687,0.1875 -0.28125,0.17187 -0.28125,0.45312 0,0.53125 1,0.79688 l 1.09375,0.26562 q 1.10937,0.28125 1.67187,0.85938 0.57813,0.5625 0.57813,1.39062 0,0.71875 -0.42188,1.28125 -0.42187,0.54688 -1.15625,0.85938 -0.71875,0.29687 -1.59375,0.29687 z"
       id="path131"
       inkscape:connector-curvature="0"
       style="fill:#4285f4;fill-rule:nonzero" />
    <path
       d="m 752.8423,395.89175 h 106.42523 v 63.24408 H 752.8423 Z"
       id="path133"
       inkscape:connector-curvature="0"
       style="fill:#e8f0fe;fill-rule:evenodd" />
    <path
       d="m 752.8423,395.89175 h 106.42523 v 63.24408 H 752.8423 Z"
       id="path135"
       inkscape:connector-curvature="0"
       style="fill-rule:evenodd;stroke:#4285f4;stroke-width:2;stroke-linecap:butt;stroke-linejoin:round" />
    <path
       d="m 770.0878,413.09378 h 1.92188 v 5.71875 h 0.0937 l 2.6875,-2.6875 h 2.35937 v 0.10937 l -2.82812,2.76563 2.96875,4.46875 v 0.125 h -2.28125 l -2.03125,-3.26563 -0.96875,0.95313 v 2.3125 h -1.92188 z m 10.896,10.73437 q -1.35938,0 -2.0625,-0.82812 -0.70313,-0.84375 -0.70313,-2.34375 v -4.53125 h 1.92188 v 4.29687 q 0,0.76563 0.35937,1.20313 0.375,0.4375 0.98438,0.4375 0.8125,0 1.29687,-0.59375 0.48438,-0.60938 0.48438,-1.54688 v -3.79687 h 1.92187 v 7.46875 h -1.8125 v -0.9375 h -0.10937 q -0.34375,0.54687 -0.95313,0.85937 -0.59375,0.3125 -1.32812,0.3125 z m 10.2323,0 q -0.75,0 -1.34375,-0.3125 -0.59375,-0.32812 -0.89063,-0.8125 h -0.125 v 0.89063 h -1.79687 v -10.5 h 1.92187 v 2.875 l -0.125,1.0625 h 0.125 q 0.3125,-0.48438 0.89063,-0.8125 0.59375,-0.32813 1.34375,-0.32813 1.01562,0 1.84375,0.5 0.82812,0.5 1.29687,1.42188 0.46875,0.90625 0.46875,2.04687 0,1.15625 -0.46875,2.0625 -0.46875,0.89063 -1.29687,1.40625 -0.82813,0.5 -1.84375,0.5 z m -0.32813,-1.76562 q 0.54688,0 1.01563,-0.28125 0.46875,-0.28125 0.73437,-0.78125 0.28125,-0.5 0.28125,-1.14063 0,-0.64062 -0.28125,-1.14062 -0.26562,-0.5 -0.73437,-0.76563 -0.46875,-0.28125 -1.01563,-0.28125 -0.53125,0 -1,0.28125 -0.46875,0.26563 -0.75,0.76563 -0.28125,0.5 -0.28125,1.14062 0,0.64063 0.28125,1.14063 0.28125,0.5 0.75,0.78125 0.46875,0.28125 1,0.28125 z m 8.91998,1.76562 q -1.10937,0 -2.01562,-0.51562 -0.89063,-0.51563 -1.39063,-1.40625 -0.5,-0.90625 -0.5,-2.03125 0,-1.07813 0.5,-1.98438 0.5,-0.92187 1.375,-1.45312 0.875,-0.54688 1.96875,-0.54688 1.15625,0 1.98438,0.5 0.84375,0.48438 1.26562,1.35938 0.4375,0.85937 0.4375,1.92187 0,0.32813 -0.0469,0.64063 h -5.60938 q 0.14063,0.89062 0.70313,1.35937 0.5625,0.45313 1.35937,0.45313 0.65625,0 1.125,-0.28125 0.48438,-0.28125 0.76563,-0.76563 l 1.5625,0.75 q -1.15625,2 -3.48438,2 z m 1.78125,-4.875 q -0.0312,-0.35937 -0.26562,-0.70312 -0.21875,-0.34375 -0.625,-0.5625 -0.40625,-0.23438 -0.95313,-0.23438 -0.6875,0 -1.17187,0.40625 -0.48438,0.40625 -0.71875,1.09375 z m 3.3064,-0.75 h 4.96875 v 1.70313 h -4.96875 z m 10.03394,5.625 q -1,0 -1.82813,-0.5 -0.82812,-0.51562 -1.3125,-1.40625 -0.46875,-0.90625 -0.46875,-2.0625 0,-1.14062 0.46875,-2.04687 0.48438,-0.92188 1.3125,-1.42188 0.82813,-0.5 1.82813,-0.5 0.76562,0 1.34375,0.32813 0.59369,0.32812 0.90619,0.8125 h 0.10937 l -0.10937,-1.0625 v -2.875 h 1.90625 v 10.5 h -1.79688 v -0.89063 h -0.10937 q -0.29688,0.48438 -0.89057,0.8125 -0.59375,0.3125 -1.35937,0.3125 z m 0.32812,-1.76562 q 0.54688,0 1.01563,-0.28125 0.46875,-0.28125 0.73431,-0.78125 0.28125,-0.5 0.28125,-1.14063 0,-0.64062 -0.28125,-1.14062 -0.26556,-0.5 -0.73431,-0.76563 -0.46875,-0.28125 -1.01563,-0.28125 -0.53125,0 -1,0.28125 -0.46875,0.26563 -0.75,0.76563 -0.26562,0.5 -0.26562,1.14062 0,0.64063 0.26562,1.14063 0.28125,0.5 0.75,0.78125 0.46875,0.28125 1,0.28125 z m 5.71686,-5.9375 h 1.79687 v 0.9375 h 0.125 q 0.32813,-0.54688 0.9375,-0.85938 0.625,-0.3125 1.34375,-0.3125 1.35938,0 2.0625,0.82813 0.70313,0.8125 0.70313,2.23437 v 4.64063 h -1.92188 v -4.40625 q 0,-0.71875 -0.375,-1.10938 -0.35937,-0.40625 -1.01562,-0.40625 -0.78125,0 -1.26563,0.60938 -0.46875,0.59375 -0.46875,1.5 v 3.8125 h -1.92187 z m 11.5495,7.70312 q -1.35938,0 -2.20313,-0.54687 -0.84375,-0.5625 -1.1875,-1.45313 l 1.71875,-0.75 q 0.23438,0.51563 0.65625,0.79688 0.4375,0.26562 1.01563,0.26562 0.53125,0 0.875,-0.15625 0.35937,-0.17187 0.35937,-0.5625 0,-0.35937 -0.32812,-0.54687 -0.3125,-0.1875 -0.96875,-0.32813 l -0.875,-0.1875 q -0.90625,-0.21875 -1.51563,-0.79687 -0.59375,-0.57813 -0.59375,-1.45313 0,-0.64062 0.39063,-1.15625 0.39062,-0.51562 1.04687,-0.78125 0.67188,-0.28125 1.48438,-0.28125 2.3125,0 3.07812,1.625 l -1.64062,0.71875 q -0.4375,-0.79687 -1.40625,-0.79687 -0.5,0 -0.79688,0.1875 -0.28125,0.17187 -0.28125,0.45312 0,0.53125 1,0.79688 l 1.09375,0.26562 q 1.10938,0.28125 1.67188,0.85938 0.57812,0.5625 0.57812,1.39062 0,0.71875 -0.42187,1.28125 -0.42188,0.54688 -1.15625,0.85938 -0.71875,0.29687 -1.59375,0.29687 z m 4.54205,-5.625 h 4.96875 v 1.70313 h -4.96875 z"
       id="path137"
       inkscape:connector-curvature="0"
       style="fill:#4285f4;fill-rule:nonzero" />
    <path
       d="m 772.0248,441.82816 q -1.1875,0 -1.95312,-0.6875 -0.75,-0.70312 -0.75,-1.82812 0,-0.75 0.39062,-1.3125 0.39063,-0.57813 1.07813,-0.89063 0.70312,-0.3125 1.53125,-0.3125 1.15625,0 1.98437,0.34375 v -0.32812 q 0,-0.60938 -0.46875,-0.98438 -0.45312,-0.39062 -1.23437,-0.39062 -0.53125,0 -1.03125,0.25 -0.48438,0.23437 -0.79688,0.625 l -1.23437,-0.96875 q 0.54687,-0.70313 1.35937,-1.07813 0.82813,-0.375 1.79688,-0.375 1.70312,0 2.59375,0.79688 0.90625,0.78125 0.90625,2.29687 v 4.60938 h -1.89063 v -0.76563 h -0.125 q -0.32812,0.4375 -0.89062,0.71875 -0.54688,0.28125 -1.26563,0.28125 z m 0.45313,-1.5 q 0.84375,0 1.32812,-0.53125 0.5,-0.53125 0.5,-1.25 -0.75,-0.35937 -1.57812,-0.35937 -1.48438,0 -1.48438,1.125 0,0.45312 0.3125,0.73437 0.32813,0.28125 0.92188,0.28125 z m 8.19091,1.5 q -1.35937,0 -2.0625,-0.82812 -0.70312,-0.84375 -0.70312,-2.34375 v -4.53125 h 1.92187 v 4.29687 q 0,0.76563 0.35938,1.20313 0.375,0.4375 0.98437,0.4375 0.8125,0 1.29688,-0.59375 0.48437,-0.60938 0.48437,-1.54688 v -3.79687 h 1.92188 v 7.46875 h -1.8125 v -0.9375 h -0.10938 q -0.34375,0.54687 -0.95312,0.85937 -0.59375,0.3125 -1.32813,0.3125 z m 9.39936,-0.10937 q -0.54688,0 -1.01563,-0.17188 -0.46875,-0.17187 -0.76562,-0.46875 -0.6875,-0.65625 -0.6875,-1.875 v -3.4375 h -1.3125 v -1.64062 h 1.3125 v -2.10938 h 1.92187 v 2.10938 h 1.82813 v 1.64062 h -1.82813 v 3.09375 q 0,0.5625 0.25,0.8125 0.20313,0.23438 0.70313,0.23438 0.26562,0 0.45312,-0.0625 0.1875,-0.0781 0.48438,-0.26563 v 1.89063 q -0.64063,0.25 -1.34375,0.25 z m 6.19049,0.10937 q -1.15625,0 -2.07813,-0.51562 -0.90625,-0.53125 -1.40625,-1.42188 -0.5,-0.90625 -0.5,-2.03125 0,-1.10937 0.5,-2.01562 0.5,-0.92188 1.40625,-1.4375 0.92188,-0.51563 2.07813,-0.51563 1.14062,0 2.04687,0.51563 0.90625,0.51562 1.40625,1.4375 0.51563,0.90625 0.51563,2.01562 0,1.125 -0.51563,2.03125 -0.5,0.89063 -1.40625,1.42188 -0.90625,0.51562 -2.04687,0.51562 z m 0,-1.76562 q 0.5625,0 1.03125,-0.26563 0.46875,-0.26562 0.73437,-0.76562 0.28125,-0.5 0.28125,-1.17188 0,-0.65625 -0.28125,-1.15625 -0.26562,-0.5 -0.73437,-0.76562 -0.46875,-0.26563 -1.03125,-0.26563 -0.5625,0 -1.03125,0.26563 -0.46875,0.26562 -0.75,0.76562 -0.28125,0.5 -0.28125,1.15625 0,0.65625 0.28125,1.17188 0.28125,0.5 0.75,0.76562 0.46875,0.26563 1.03125,0.26563 z m 8.20587,1.76562 q -1.35938,0 -2.20313,-0.54687 -0.84375,-0.5625 -1.1875,-1.45313 l 1.71875,-0.75 q 0.23438,0.51563 0.65625,0.79688 0.4375,0.26562 1.01563,0.26562 0.53125,0 0.875,-0.15625 0.35937,-0.17187 0.35937,-0.5625 0,-0.35937 -0.32812,-0.54687 -0.3125,-0.1875 -0.96875,-0.32813 l -0.875,-0.1875 q -0.90625,-0.21875 -1.51563,-0.79687 -0.59375,-0.57813 -0.59375,-1.45313 0,-0.64062 0.39063,-1.15625 0.39062,-0.51562 1.04687,-0.78125 0.67188,-0.28125 1.48438,-0.28125 2.3125,0 3.07812,1.625 l -1.64062,0.71875 q -0.4375,-0.79687 -1.40625,-0.79687 -0.5,0 -0.79688,0.1875 -0.28125,0.17187 -0.28125,0.45312 0,0.53125 1,0.79688 l 1.09375,0.26562 q 1.10938,0.28125 1.67188,0.85938 0.57812,0.5625 0.57812,1.39062 0,0.71875 -0.42187,1.28125 -0.42188,0.54688 -1.15625,0.85938 -0.71875,0.29687 -1.59375,0.29687 z m 8.14667,0 q -1.125,0 -2.03125,-0.5 -0.89063,-0.51562 -1.39063,-1.42187 -0.5,-0.90625 -0.5,-2.04688 0,-1.14062 0.5,-2.04687 0.5,-0.90625 1.39063,-1.40625 0.90625,-0.51563 2.03125,-0.51563 1.25,0 2.14062,0.53125 0.89063,0.53125 1.29688,1.51563 l -1.76563,0.73437 q -0.46875,-1 -1.67187,-1 -0.875,0 -1.4375,0.60938 -0.5625,0.59375 -0.5625,1.57812 0,1 0.5625,1.60938 0.5625,0.59375 1.4375,0.59375 1.21875,0 1.76562,-1.0625 l 1.73438,0.76562 q -0.48438,0.98438 -1.375,1.53125 -0.89063,0.53125 -2.125,0.53125 z m 7.09033,0 q -1.1875,0 -1.95313,-0.6875 -0.75,-0.70312 -0.75,-1.82812 0,-0.75 0.39063,-1.3125 0.39062,-0.57813 1.07812,-0.89063 0.70313,-0.3125 1.53125,-0.3125 1.15625,0 1.98438,0.34375 v -0.32812 q 0,-0.60938 -0.46875,-0.98438 -0.45313,-0.39062 -1.23438,-0.39062 -0.53125,0 -1.03125,0.25 -0.48437,0.23437 -0.79687,0.625 l -1.23438,-0.96875 q 0.54688,-0.70313 1.35938,-1.07813 0.82812,-0.375 1.79687,-0.375 1.70313,0 2.59375,0.79688 0.90625,0.78125 0.90625,2.29687 v 4.60938 h -1.89062 v -0.76563 h -0.125 q -0.32813,0.4375 -0.89063,0.71875 -0.54687,0.28125 -1.26562,0.28125 z m 0.45312,-1.5 q 0.84375,0 1.32813,-0.53125 0.5,-0.53125 0.5,-1.25 -0.75,-0.35937 -1.57813,-0.35937 -1.48437,0 -1.48437,1.125 0,0.45312 0.3125,0.73437 0.32812,0.28125 0.92187,0.28125 z m 5.4878,-9.23437 h 1.92187 v 10.5 h -1.92187 z m 7.2373,10.73437 q -1.10937,0 -2.01562,-0.51562 -0.89063,-0.51563 -1.39063,-1.40625 -0.5,-0.90625 -0.5,-2.03125 0,-1.07813 0.5,-1.98438 0.5,-0.92187 1.375,-1.45312 0.875,-0.54688 1.96875,-0.54688 1.15625,0 1.98438,0.5 0.84375,0.48438 1.26562,1.35938 0.4375,0.85937 0.4375,1.92187 0,0.32813 -0.0469,0.64063 h -5.60938 q 0.14063,0.89062 0.70313,1.35937 0.5625,0.45313 1.35937,0.45313 0.65625,0 1.125,-0.28125 0.48438,-0.28125 0.76563,-0.76563 l 1.5625,0.75 q -1.15625,2 -3.48438,2 z m 1.78125,-4.875 q -0.0312,-0.35937 -0.26562,-0.70312 -0.21875,-0.34375 -0.625,-0.5625 -0.40625,-0.23438 -0.95313,-0.23438 -0.6875,0 -1.17187,0.40625 -0.48438,0.40625 -0.71875,1.09375 z m 3.32202,-2.82812 h 1.79688 v 0.98437 h 0.125 q 0.28125,-0.51562 0.85937,-0.85937 0.59375,-0.34375 1.29688,-0.34375 0.51562,0 0.9375,0.15625 v 1.92187 q -0.39063,-0.15625 -0.67188,-0.21875 -0.26562,-0.0625 -0.57812,-0.0625 -0.84375,0 -1.34375,0.625 -0.5,0.60938 -0.5,1.54688 v 3.71875 h -1.92188 z"
       id="path139"
       inkscape:connector-curvature="0"
       style="fill:#4285f4;fill-rule:nonzero" />
    <path
       d="m 806.0549,325.4062 v 70.48819"
       id="path141"
       inkscape:connector-curvature="0"
       style="fill:#000000;fill-opacity:0;fill-rule:evenodd" />
    <path
       d="m 806.0549,332.26035 v 63.634"
       id="path143"
       inkscape:connector-curvature="0"
       style="fill-rule:evenodd;stroke:#666666;stroke-width:2;stroke-linecap:butt;stroke-linejoin:round;stroke-dasharray:2, 6" />
    <path
       d="m 806.0549,332.26038 2.24915,2.24915 -2.24915,-6.17954 -2.24915,6.17954 z"
       id="path145"
       inkscape:connector-curvature="0"
       style="fill:#666666;fill-rule:evenodd;stroke:#666666;stroke-width:2;stroke-linecap:butt" />
    <path
       d="m 552.1828,317.15036 h 106.45667 v 24.53543 H 552.1828 Z"
       id="path147"
       inkscape:connector-curvature="0"
       style="fill:#f3f3f3;fill-rule:evenodd" />
    <path
       d="m 569.2682,326.21683 -1.76563,1.26563 -0.64062,-0.95313 2.85937,-2.0625 h 0.79688 v 10.03125 h -1.25 z m 7.22565,8.51563 q -1.1875,0 -2.10938,-0.6875 -0.90625,-0.70313 -1.40625,-1.89063 -0.48437,-1.20312 -0.48437,-2.67187 0,-1.46875 0.48437,-2.65625 0.5,-1.1875 1.40625,-1.89063 0.90625,-0.70312 2.10938,-0.70312 1.20312,0 2.10937,0.70312 0.90625,0.70313 1.40625,1.89063 0.5,1.1875 0.5,2.65625 0,1.46875 -0.5,2.67187 -0.5,1.1875 -1.42187,1.89063 -0.90625,0.6875 -2.09375,0.6875 z m 0,-1.1875 q 0.84375,0 1.45312,-0.53125 0.60938,-0.53125 0.9375,-1.45313 0.34375,-0.9375 0.34375,-2.07812 0,-1.14063 -0.34375,-2.0625 -0.32812,-0.92188 -0.9375,-1.45313 -0.60937,-0.54687 -1.45312,-0.54687 -0.82813,0 -1.45313,0.54687 -0.60937,0.53125 -0.9375,1.45313 -0.32812,0.92187 -0.32812,2.0625 0,1.14062 0.32812,2.07812 0.32813,0.92188 0.9375,1.45313 0.625,0.53125 1.45313,0.53125 z m 6.48462,1.04687 q -0.40625,0 -0.67188,-0.26562 -0.26562,-0.28125 -0.26562,-0.67188 0,-0.39062 0.26562,-0.65625 0.26563,-0.26562 0.67188,-0.26562 0.39062,0 0.65625,0.26562 0.28125,0.26563 0.28125,0.65625 0,0.39063 -0.28125,0.67188 -0.26563,0.26562 -0.65625,0.26562 z m 6.4569,0.14063 q -1.1875,0 -2.10937,-0.6875 -0.90625,-0.70313 -1.40625,-1.89063 -0.48438,-1.20312 -0.48438,-2.67187 0,-1.46875 0.48438,-2.65625 0.5,-1.1875 1.40625,-1.89063 0.90625,-0.70312 2.10937,-0.70312 1.20313,0 2.10938,0.70312 0.90625,0.70313 1.40625,1.89063 0.5,1.1875 0.5,2.65625 0,1.46875 -0.5,2.67187 -0.5,1.1875 -1.42188,1.89063 -0.90625,0.6875 -2.09375,0.6875 z m 0,-1.1875 q 0.84375,0 1.45313,-0.53125 0.60937,-0.53125 0.9375,-1.45313 0.34375,-0.9375 0.34375,-2.07812 0,-1.14063 -0.34375,-2.0625 -0.32813,-0.92188 -0.9375,-1.45313 -0.60938,-0.54687 -1.45313,-0.54687 -0.82812,0 -1.45312,0.54687 -0.60938,0.53125 -0.9375,1.45313 -0.32813,0.92187 -0.32813,2.0625 0,1.14062 0.32813,2.07812 0.32812,0.92188 0.9375,1.45313 0.625,0.53125 1.45312,0.53125 z m 6.48462,1.04687 q -0.40625,0 -0.67187,-0.26562 -0.26563,-0.28125 -0.26563,-0.67188 0,-0.39062 0.26563,-0.65625 0.26562,-0.26562 0.67187,-0.26562 0.39063,0 0.65625,0.26562 0.28125,0.26563 0.28125,0.65625 0,0.39063 -0.28125,0.67188 -0.26562,0.26562 -0.65625,0.26562 z m 6.45691,0.14063 q -1.1875,0 -2.10937,-0.6875 -0.90625,-0.70313 -1.40625,-1.89063 -0.48438,-1.20312 -0.48438,-2.67187 0,-1.46875 0.48438,-2.65625 0.5,-1.1875 1.40625,-1.89063 0.90625,-0.70312 2.10937,-0.70312 1.20313,0 2.10938,0.70312 0.90625,0.70313 1.40625,1.89063 0.5,1.1875 0.5,2.65625 0,1.46875 -0.5,2.67187 -0.5,1.1875 -1.42188,1.89063 -0.90625,0.6875 -2.09375,0.6875 z m 0,-1.1875 q 0.84375,0 1.45313,-0.53125 0.60937,-0.53125 0.9375,-1.45313 0.34375,-0.9375 0.34375,-2.07812 0,-1.14063 -0.34375,-2.0625 -0.32813,-0.92188 -0.9375,-1.45313 -0.60938,-0.54687 -1.45313,-0.54687 -0.82812,0 -1.45312,0.54687 -0.60938,0.53125 -0.9375,1.45313 -0.32813,0.92187 -0.32813,2.0625 0,1.14062 0.32813,2.07812 0.32812,0.92188 0.9375,1.45313 0.625,0.53125 1.45312,0.53125 z m 6.48462,1.04687 q -0.40625,0 -0.67187,-0.26562 -0.26563,-0.28125 -0.26563,-0.67188 0,-0.39062 0.26563,-0.65625 0.26562,-0.26562 0.67187,-0.26562 0.39063,0 0.65625,0.26562 0.28125,0.26563 0.28125,0.65625 0,0.39063 -0.28125,0.67188 -0.26562,0.26562 -0.65625,0.26562 z m 4.21399,-8.375 -1.76562,1.26563 -0.64063,-0.95313 2.85938,-2.0625 h 0.79687 v 10.03125 h -1.25 z m 7.22565,8.51563 q -1.1875,0 -2.10938,-0.6875 -0.90625,-0.70313 -1.40625,-1.89063 -0.48437,-1.20312 -0.48437,-2.67187 0,-1.46875 0.48437,-2.65625 0.5,-1.1875 1.40625,-1.89063 0.90625,-0.70312 2.10938,-0.70312 1.20312,0 2.10937,0.70312 0.90625,0.70313 1.40625,1.89063 0.5,1.1875 0.5,2.65625 0,1.46875 -0.5,2.67187 -0.5,1.1875 -1.42187,1.89063 -0.90625,0.6875 -2.09375,0.6875 z m 0,-1.1875 q 0.84375,0 1.45312,-0.53125 0.60938,-0.53125 0.9375,-1.45313 0.34375,-0.9375 0.34375,-2.07812 0,-1.14063 -0.34375,-2.0625 -0.32812,-0.92188 -0.9375,-1.45313 -0.60937,-0.54687 -1.45312,-0.54687 -0.82813,0 -1.45313,0.54687 -0.60937,0.53125 -0.9375,1.45313 -0.32812,0.92187 -0.32812,2.0625 0,1.14062 0.32812,2.07812 0.32813,0.92188 0.9375,1.45313 0.625,0.53125 1.45313,0.53125 z m 6.48462,-4.73438 q -0.40625,0 -0.67188,-0.26562 -0.26562,-0.28125 -0.26562,-0.67188 0,-0.39062 0.26562,-0.65625 0.26563,-0.28125 0.67188,-0.28125 0.39062,0 0.65625,0.28125 0.28125,0.26563 0.28125,0.65625 0,0.39063 -0.28125,0.67188 -0.26563,0.26562 -0.65625,0.26562 z m 0,5.78125 q -0.40625,0 -0.67188,-0.26562 -0.26562,-0.28125 -0.26562,-0.67188 0,-0.39062 0.26562,-0.65625 0.26563,-0.26562 0.67188,-0.26562 0.39062,0 0.65625,0.26562 0.28125,0.26563 0.28125,0.65625 0,0.39063 -0.28125,0.67188 -0.26563,0.26562 -0.65625,0.26562 z m 5.75378,0.14063 q -0.70312,0 -1.39062,-0.29688 -0.6875,-0.29687 -1.21875,-0.90625 -0.53125,-0.60937 -0.75,-1.51562 l 1.10937,-0.4375 q 0.23438,0.90625 0.8125,1.4375 0.59375,0.53125 1.40625,0.53125 0.98438,0 1.60938,-0.59375 0.625,-0.60938 0.625,-1.57813 0,-0.95312 -0.625,-1.5625 -0.60938,-0.625 -1.57813,-0.625 -0.53125,0 -1,0.23438 -0.46875,0.23437 -0.76562,0.67187 l -1.25,-0.5625 0.64062,-5.0625 h 5.1875 v 1.1875 h -4.15625 l -0.40625,3.04688 h 0.0625 q 0.78125,-0.65625 1.90625,-0.65625 0.85938,0 1.59375,0.4375 0.75,0.42187 1.1875,1.1875 0.4375,0.75 0.4375,1.6875 0,0.9375 -0.45312,1.71875 -0.4375,0.76562 -1.21875,1.21875 -0.78125,0.4375 -1.76563,0.4375 z m 8.06403,0 q -0.64063,0 -1.29688,-0.26563 -0.65625,-0.26562 -1.1875,-0.82812 -0.53125,-0.5625 -0.76562,-1.40625 l 1.125,-0.46875 q 0.23437,0.84375 0.79687,1.3125 0.5625,0.46875 1.32813,0.46875 0.54687,0 1.03125,-0.23438 0.48437,-0.25 0.76562,-0.67187 0.29688,-0.4375 0.29688,-0.96875 0,-0.51563 -0.29688,-0.9375 -0.28125,-0.42188 -0.76562,-0.65625 -0.48438,-0.25 -1.07813,-0.25 h -0.85937 v -1.15625 h 0.76562 q 0.8125,0 1.34375,-0.45313 0.54688,-0.46875 0.54688,-1.23437 0,-0.70313 -0.53125,-1.125 -0.51563,-0.4375 -1.29688,-0.4375 -0.76562,0 -1.20312,0.40625 -0.42188,0.39062 -0.60938,0.96875 l -1.14062,-0.48438 q 0.26562,-0.79687 1.01562,-1.4375 0.75,-0.64062 1.9375,-0.64062 0.875,0 1.57813,0.35937 0.70312,0.34375 1.10937,0.98438 0.40625,0.625 0.40625,1.40625 0,0.78125 -0.40625,1.32812 -0.39062,0.53125 -0.96875,0.84375 v 0.0469 q 0.75,0.3125 1.23438,0.95312 0.48437,0.64063 0.48437,1.5 0,0.875 -0.45312,1.57813 -0.45313,0.70312 -1.21875,1.10937 -0.76563,0.39063 -1.6875,0.39063 z"
       id="path149"
       inkscape:connector-curvature="0"
       style="fill:#666666;fill-rule:nonzero" />
    <path
       d="m 727.5382,208.4252 h 123.30707 v 24.53543 H 727.5382 Z"
       id="path151"
       inkscape:connector-curvature="0"
       style="fill:#f3f3f3;fill-rule:evenodd" />
    <path
       d="m 741.4269,217.49167 -1.76562,1.26562 -0.64063,-0.95312 2.85938,-2.0625 h 0.79687 v 10.03125 h -1.25 z m 6.67395,8.51562 q -1,0 -1.78125,-0.48437 -0.78125,-0.48438 -1.21875,-1.25 -0.4375,-0.76563 -0.4375,-1.625 0,-0.79688 0.32813,-1.53125 0.32812,-0.75 0.95312,-1.65625 l 2.625,-3.95313 1,0.6875 -2.53125,3.54688 0.0312,0.0156 q 0.51563,-0.34375 1.29688,-0.34375 0.75,0 1.48437,0.42188 0.73438,0.42187 1.1875,1.17187 0.46875,0.73438 0.46875,1.64063 0,0.875 -0.46875,1.65625 -0.46875,0.76562 -1.25,1.23437 -0.78125,0.46875 -1.6875,0.46875 z m 0,-1.1875 q 0.57813,0 1.07813,-0.28125 0.5,-0.29687 0.79687,-0.78125 0.29688,-0.48437 0.29688,-1.09375 0,-0.57812 -0.29688,-1.0625 -0.29687,-0.5 -0.79687,-0.78125 -0.5,-0.29687 -1.07813,-0.29687 -0.59375,0 -1.10937,0.29687 -0.5,0.28125 -0.79688,0.78125 -0.28125,0.48438 -0.28125,1.0625 0,0.60938 0.28125,1.09375 0.29688,0.48438 0.79688,0.78125 0.51562,0.28125 1.10937,0.28125 z m 6.6792,0.5 2.51562,-3.53125 -0.0312,-0.0312 q -0.5,0.34375 -1.28125,0.34375 -0.76562,0 -1.5,-0.42187 -0.73437,-0.42188 -1.20312,-1.15625 -0.45313,-0.75 -0.45313,-1.65625 0,-0.875 0.45313,-1.64063 0.46875,-0.78125 1.25,-1.25 0.79687,-0.46875 1.71875,-0.46875 1,0 1.78125,0.48438 0.78125,0.48437 1.20312,1.26562 0.4375,0.76563 0.4375,1.60938 0,0.8125 -0.32812,1.5625 -0.32813,0.73437 -0.9375,1.64062 l -2.625,3.9375 z m 1.46875,-4.32812 q 0.57812,0 1.07812,-0.28125 0.51563,-0.28125 0.8125,-0.76563 0.29688,-0.5 0.29688,-1.09375 0,-0.59375 -0.29688,-1.07812 -0.29687,-0.5 -0.8125,-0.78125 -0.5,-0.29688 -1.07812,-0.29688 -0.59375,0 -1.09375,0.29688 -0.5,0.28125 -0.79688,0.78125 -0.28125,0.48437 -0.28125,1.07812 0,0.59375 0.28125,1.09375 0.29688,0.48438 0.79688,0.76563 0.5,0.28125 1.09375,0.28125 z m 5.10211,4.875 q -0.40625,0 -0.67187,-0.26563 -0.26563,-0.28125 -0.26563,-0.67187 0,-0.39063 0.26563,-0.65625 0.26562,-0.26563 0.67187,-0.26563 0.39063,0 0.65625,0.26563 0.28125,0.26562 0.28125,0.65625 0,0.39062 -0.28125,0.67187 -0.26562,0.26563 -0.65625,0.26563 z m 2.39441,-1.34375 q 2.875,-2.89063 3.6875,-3.76563 0.73438,-0.79687 1,-1.25 0.26563,-0.46875 0.26563,-1.10937 0,-0.42188 -0.21875,-0.8125 -0.21875,-0.40625 -0.65625,-0.64063 -0.42188,-0.25 -1.03125,-0.25 -0.78125,0 -1.26563,0.46875 -0.48437,0.45313 -0.64062,1 l -1.125,-0.45312 q 0.14062,-0.46875 0.51562,-0.96875 0.375,-0.51563 1.01563,-0.875 0.65625,-0.35938 1.53125,-0.35938 0.92187,0 1.625,0.40625 0.71875,0.39063 1.10937,1.04688 0.40625,0.65625 0.40625,1.42187 0,1.54688 -1.60937,3.1875 l -3.01563,3.01563 h 4.73438 v 1.1875 h -6.32813 z m 11.0686,1.48437 q -0.70312,0 -1.39062,-0.29687 -0.6875,-0.29688 -1.21875,-0.90625 -0.53125,-0.60938 -0.75,-1.51563 l 1.10937,-0.4375 q 0.23438,0.90625 0.8125,1.4375 0.59375,0.53125 1.40625,0.53125 0.98438,0 1.60938,-0.59375 0.625,-0.60937 0.625,-1.57812 0,-0.95313 -0.625,-1.5625 -0.60938,-0.625 -1.57813,-0.625 -0.53125,0 -1,0.23437 -0.46875,0.23438 -0.76562,0.67188 l -1.25,-0.5625 0.64062,-5.0625 h 5.1875 v 1.1875 h -4.15625 l -0.40625,3.04687 h 0.0625 q 0.78125,-0.65625 1.90625,-0.65625 0.85938,0 1.59375,0.4375 0.75,0.42188 1.1875,1.1875 0.4375,0.75 0.4375,1.6875 0,0.9375 -0.45312,1.71875 -0.4375,0.76563 -1.21875,1.21875 -0.78125,0.4375 -1.76563,0.4375 z m 9.70465,-2.39062 h -4.8125 v -0.9375 l 4.6875,-6.9375 h 1.35938 v 6.70312 h 1.28125 v 1.17188 h -1.28125 v 2.15625 h -1.23438 z m 0,-1.17188 v -4.875 h -0.0625 l -3.32812,4.875 z m 4.97242,3.42188 q -0.40625,0 -0.67188,-0.26563 -0.26562,-0.28125 -0.26562,-0.67187 0,-0.39063 0.26562,-0.65625 0.26563,-0.26563 0.67188,-0.26563 0.39062,0 0.65625,0.26563 0.28125,0.26562 0.28125,0.65625 0,0.39062 -0.28125,0.67187 -0.26563,0.26563 -0.65625,0.26563 z m 4.21405,-8.375 -1.76563,1.26562 -0.64062,-0.95312 2.85937,-2.0625 h 0.79688 v 10.03125 h -1.25 z m 6.67395,8.51562 q -1,0 -1.78125,-0.48437 -0.78125,-0.48438 -1.21875,-1.25 -0.4375,-0.76563 -0.4375,-1.625 0,-0.79688 0.32812,-1.53125 0.32813,-0.75 0.95313,-1.65625 l 2.625,-3.95313 1,0.6875 -2.53125,3.54688 0.0312,0.0156 q 0.51562,-0.34375 1.29687,-0.34375 0.75,0 1.48438,0.42188 0.73437,0.42187 1.1875,1.17187 0.46875,0.73438 0.46875,1.64063 0,0.875 -0.46875,1.65625 -0.46875,0.76562 -1.25,1.23437 -0.78125,0.46875 -1.6875,0.46875 z m 0,-1.1875 q 0.57812,0 1.07812,-0.28125 0.5,-0.29687 0.79688,-0.78125 0.29687,-0.48437 0.29687,-1.09375 0,-0.57812 -0.29687,-1.0625 -0.29688,-0.5 -0.79688,-0.78125 -0.5,-0.29687 -1.07812,-0.29687 -0.59375,0 -1.10938,0.29687 -0.5,0.28125 -0.79687,0.78125 -0.28125,0.48438 -0.28125,1.0625 0,0.60938 0.28125,1.09375 0.29687,0.48438 0.79687,0.78125 0.51563,0.28125 1.10938,0.28125 z m 6.6792,0.5 2.51562,-3.53125 -0.0312,-0.0312 q -0.5,0.34375 -1.28125,0.34375 -0.76562,0 -1.5,-0.42187 -0.73437,-0.42188 -1.20312,-1.15625 -0.45313,-0.75 -0.45313,-1.65625 0,-0.875 0.45313,-1.64063 0.46875,-0.78125 1.25,-1.25 0.79687,-0.46875 1.71875,-0.46875 1,0 1.78125,0.48438 0.78125,0.48437 1.20312,1.26562 0.4375,0.76563 0.4375,1.60938 0,0.8125 -0.32812,1.5625 -0.32813,0.73437 -0.9375,1.64062 l -2.625,3.9375 z m 1.46875,-4.32812 q 0.57812,0 1.07812,-0.28125 0.51563,-0.28125 0.8125,-0.76563 0.29688,-0.5 0.29688,-1.09375 0,-0.59375 -0.29688,-1.07812 -0.29687,-0.5 -0.8125,-0.78125 -0.5,-0.29688 -1.07812,-0.29688 -0.59375,0 -1.09375,0.29688 -0.5,0.28125 -0.79688,0.78125 -0.28125,0.48437 -0.28125,1.07812 0,0.59375 0.28125,1.09375 0.29688,0.48438 0.79688,0.76563 0.5,0.28125 1.09375,0.28125 z m 5.10211,4.875 q -0.40625,0 -0.67188,-0.26563 -0.26562,-0.28125 -0.26562,-0.67187 0,-0.39063 0.26562,-0.65625 0.26563,-0.26563 0.67188,-0.26563 0.39062,0 0.65625,0.26563 0.28125,0.26562 0.28125,0.65625 0,0.39062 -0.28125,0.67187 -0.26563,0.26563 -0.65625,0.26563 z m 2.39447,-1.34375 q 2.875,-2.89063 3.6875,-3.76563 0.73437,-0.79687 1,-1.25 0.26562,-0.46875 0.26562,-1.10937 0,-0.42188 -0.21875,-0.8125 -0.21875,-0.40625 -0.65625,-0.64063 -0.42187,-0.25 -1.03125,-0.25 -0.78125,0 -1.26562,0.46875 -0.48438,0.45313 -0.64063,1 l -1.125,-0.45312 q 0.14063,-0.46875 0.51563,-0.96875 0.375,-0.51563 1.01562,-0.875 0.65625,-0.35938 1.53125,-0.35938 0.92188,0 1.625,0.40625 0.71875,0.39063 1.10938,1.04688 0.40625,0.65625 0.40625,1.42187 0,1.54688 -1.60938,3.1875 l -3.01562,3.01563 h 4.73437 v 1.1875 h -6.32812 z m 11.06854,1.48437 q -0.70312,0 -1.39062,-0.29687 -0.6875,-0.29688 -1.21875,-0.90625 -0.53125,-0.60938 -0.75,-1.51563 l 1.10937,-0.4375 q 0.23438,0.90625 0.8125,1.4375 0.59375,0.53125 1.40625,0.53125 0.98438,0 1.60938,-0.59375 0.625,-0.60937 0.625,-1.57812 0,-0.95313 -0.625,-1.5625 -0.60938,-0.625 -1.57813,-0.625 -0.53125,0 -1,0.23437 -0.46875,0.23438 -0.76562,0.67188 l -1.25,-0.5625 0.64062,-5.0625 h 5.1875 v 1.1875 h -4.15625 l -0.40625,3.04687 h 0.0625 q 0.78125,-0.65625 1.90625,-0.65625 0.85938,0 1.59375,0.4375 0.75,0.42188 1.1875,1.1875 0.4375,0.75 0.4375,1.6875 0,0.9375 -0.45312,1.71875 -0.4375,0.76563 -1.21875,1.21875 -0.78125,0.4375 -1.76563,0.4375 z m 9.70465,-2.39062 h -4.8125 v -0.9375 l 4.6875,-6.9375 h 1.35938 v 6.70312 h 1.28125 v 1.17188 h -1.28125 v 2.15625 h -1.23438 z m 0,-1.17188 v -4.875 h -0.0625 l -3.32812,4.875 z"
       id="path153"
       inkscape:connector-curvature="0"
       style="fill:#666666;fill-rule:nonzero" />
  </g>
</svg>
