<svg version="1.1" xmlns="http://www.w3.org/2000/svg" viewBox="0 0 520.7504241989132 902.7231084705113" width="520.7504241989132" height="902.7231084705113">
  <!-- svg-source:excalidraw -->
  
  <defs>
    <style>
      @font-face {
        font-family: "Virgil";
        src: url("https://excalidraw.com/Virgil.woff2");
      }
      @font-face {
        font-family: "Cascadia";
        src: url("https://excalidraw.com/Cascadia.woff2");
      }
    </style>
  </defs>
  <rect x="0" y="0" width="520.7504241989132" height="902.7231084705113" fill="#ffffff"></rect><g stroke-linecap="round" transform="translate(172.68651936744072 120.29051683787986) rotate(0 89.15461730957031 39.95843505859375)"><path d="M19.98 0 M19.98 0 C60.38 -0.22, 101.51 1.22, 158.33 0 M19.98 0 C53.57 1.08, 85.76 0.15, 158.33 0 M158.33 0 C170.76 -0.05, 176.61 6.22, 178.31 19.98 M158.33 0 C173.77 1.42, 177.09 8.19, 178.31 19.98 M178.31 19.98 C179.51 29.18, 178.38 39.43, 178.31 59.94 M178.31 19.98 C178.52 35.01, 177.83 49.61, 178.31 59.94 M178.31 59.94 C178.12 72.67, 169.7 80.09, 158.33 79.92 M178.31 59.94 C180.51 73.54, 173.75 77.92, 158.33 79.92 M158.33 79.92 C111.82 82.92, 63.51 81.29, 19.98 79.92 M158.33 79.92 C116.98 79.25, 77.03 78.3, 19.98 79.92 M19.98 79.92 C5.88 78.16, -1.44 71.54, 0 59.94 M19.98 79.92 C8.05 81.03, 2.06 73.5, 0 59.94 M0 59.94 C1.47 47.13, -0.71 34.76, 0 19.98 M0 59.94 C0.58 48.3, 1.13 38.07, 0 19.98 M0 19.98 C1.24 6.61, 7.86 -0.58, 19.98 0 M0 19.98 C-0.52 8.92, 4.52 2.04, 19.98 0" stroke="#e98d5e" stroke-width="1" fill="none"></path></g><g stroke-linecap="round"><g transform="translate(198.65109847887243 148.27682984586465) rotate(0 7.78513680707124 9.810970372141227)" fill-rule="evenodd"><path d="M0 0 L0.1 19.14 L15.57 19.62 L0 0" stroke="none" stroke-width="0" fill="#0eb1e4" fill-rule="evenodd"></path><path d="M0 0 C0.04 7.19, 0.08 14.39, 0.1 19.14 M0 0 C0.03 5.98, 0.06 11.95, 0.1 19.14 M0.1 19.14 C5.15 19.29, 10.21 19.45, 15.57 19.62 M0.1 19.14 C5.49 19.3, 10.88 19.47, 15.57 19.62 M15.57 19.62 C12.42 15.66, 9.28 11.69, 0 0 M15.57 19.62 C9.37 11.81, 3.17 3.99, 0 0 M0 0 C0 0, 0 0, 0 0 M0 0 C0 0, 0 0, 0 0" stroke="#0eb1e4" stroke-width="1" fill="none"></path></g></g><g stroke-linecap="round"><g transform="translate(197.21032890748302 155.86146344222288) rotate(0 -3.272865965346682 8.14055715768228)" fill-rule="evenodd"><path d="M0 0 L0.45 12.77 L-7 16.28 L0 0" stroke="none" stroke-width="0" fill="#0eb1e4" fill-rule="evenodd"></path><path d="M0 0 C0.17 4.69, 0.33 9.37, 0.45 12.77 M0 0 C0.18 4.99, 0.35 9.99, 0.45 12.77 M0.45 12.77 C-1.24 13.56, -2.93 14.36, -7 16.28 M0.45 12.77 C-2.45 14.14, -5.35 15.5, -7 16.28 M-7 16.28 C-5.35 12.44, -3.7 8.6, 0 0 M-7 16.28 C-5.55 12.91, -4.1 9.54, 0 0 M0 0 C0 0, 0 0, 0 0 M0 0 C0 0, 0 0, 0 0" stroke="#0eb1e4" stroke-width="1" fill="none"></path></g></g><g stroke-linecap="round"><g transform="translate(194.93206108383492 170.5580855023788) rotate(0 11.532467669565222 1.1788396263330014)" fill-rule="evenodd"><path d="M0 0 L23.06 -2.62 L6.18 4.98 L0 0" stroke="none" stroke-width="0" fill="#0eb1e4" fill-rule="evenodd"></path><path d="M0 0 C6.71 -0.76, 13.42 -1.52, 23.06 -2.62 M0 0 C4.91 -0.56, 9.83 -1.12, 23.06 -2.62 M23.06 -2.62 C19.52 -1.02, 15.97 0.57, 6.18 4.98 M23.06 -2.62 C17.82 -0.26, 12.58 2.1, 6.18 4.98 M6.18 4.98 C4.21 3.39, 2.24 1.8, 0 0 M6.18 4.98 C3.78 3.04, 1.37 1.11, 0 0 M0 0 C0 0, 0 0, 0 0 M0 0 C0 0, 0 0, 0 0" stroke="#0eb1e4" stroke-width="1" fill="none"></path></g></g><g stroke-linecap="round" transform="translate(300.81561795587186 164.36246131504726) rotate(306.4434673675469 5.210012233825864 1.5774469132125262)"><path d="M8.56 0.37 C9.41 0.59, 10.15 0.97, 10.34 1.3 C10.53 1.64, 10.28 2.07, 9.72 2.37 C9.16 2.66, 8.04 2.94, 6.99 3.06 C5.94 3.18, 4.48 3.18, 3.43 3.06 C2.38 2.94, 1.26 2.66, 0.7 2.37 C0.14 2.07, -0.11 1.64, 0.08 1.3 C0.27 0.97, 1.01 0.59, 1.86 0.37 C2.72 0.15, 4.09 0, 5.21 0 C6.33 0, 7.7 0.15, 8.56 0.37" stroke="none" stroke-width="0" fill="#0eb1e4"></path><path d="M8.56 0.37 C9.41 0.59, 10.15 0.97, 10.34 1.3 C10.53 1.64, 10.28 2.07, 9.72 2.37 C9.16 2.66, 8.04 2.94, 6.99 3.06 C5.94 3.18, 4.48 3.18, 3.43 3.06 C2.38 2.94, 1.26 2.66, 0.7 2.37 C0.14 2.07, -0.11 1.64, 0.08 1.3 C0.27 0.97, 1.01 0.59, 1.86 0.37 C2.72 0.15, 4.09 0, 5.21 0 C6.33 0, 7.7 0.15, 8.56 0.37" stroke="#0eb1e4" stroke-width="1" fill="none"></path></g><g stroke-linecap="round" transform="translate(323.6252173844973 164.29863523343346) rotate(44.97704373639855 5.210012233825864 1.5774469132125262)"><path d="M8.56 0.37 C9.41 0.59, 10.15 0.97, 10.34 1.3 C10.53 1.64, 10.28 2.07, 9.72 2.37 C9.16 2.66, 8.04 2.94, 6.99 3.06 C5.94 3.18, 4.48 3.18, 3.43 3.06 C2.38 2.94, 1.26 2.66, 0.7 2.37 C0.14 2.07, -0.11 1.64, 0.08 1.3 C0.27 0.97, 1.01 0.59, 1.86 0.37 C2.72 0.15, 4.09 0, 5.21 0 C6.33 0, 7.7 0.15, 8.56 0.37" stroke="none" stroke-width="0" fill="#0eb1e4"></path><path d="M8.56 0.37 C9.41 0.59, 10.15 0.97, 10.34 1.3 C10.53 1.64, 10.28 2.07, 9.72 2.37 C9.16 2.66, 8.04 2.94, 6.99 3.06 C5.94 3.18, 4.48 3.18, 3.43 3.06 C2.38 2.94, 1.26 2.66, 0.7 2.37 C0.14 2.07, -0.11 1.64, 0.08 1.3 C0.27 0.97, 1.01 0.59, 1.86 0.37 C2.72 0.15, 4.09 0, 5.21 0 C6.33 0, 7.7 0.15, 8.56 0.37" stroke="#0eb1e4" stroke-width="1" fill="none"></path></g><g stroke-linecap="round" transform="translate(318.87304468011007 163.5808197868559) rotate(14.251129668680113 3.594098570965798 6.229563298910975)"><path d="M5.9 1.46 C6.49 2.32, 7 3.83, 7.13 5.15 C7.27 6.46, 7.09 8.19, 6.71 9.34 C6.32 10.5, 5.55 11.63, 4.82 12.08 C4.1 12.54, 3.09 12.54, 2.36 12.08 C1.64 11.63, 0.87 10.5, 0.48 9.34 C0.1 8.19, -0.08 6.46, 0.05 5.15 C0.19 3.83, 0.69 2.32, 1.28 1.46 C1.87 0.6, 2.82 0, 3.59 0 C4.36 0, 5.31 0.6, 5.9 1.46" stroke="none" stroke-width="0" fill="#0eb1e4"></path><path d="M5.9 1.46 C6.49 2.32, 7 3.83, 7.13 5.15 C7.27 6.46, 7.09 8.19, 6.71 9.34 C6.32 10.5, 5.55 11.63, 4.82 12.08 C4.1 12.54, 3.09 12.54, 2.36 12.08 C1.64 11.63, 0.87 10.5, 0.48 9.34 C0.1 8.19, -0.08 6.46, 0.05 5.15 C0.19 3.83, 0.69 2.32, 1.28 1.46 C1.87 0.6, 2.82 0, 3.59 0 C4.36 0, 5.31 0.6, 5.9 1.46" stroke="#0eb1e4" stroke-width="1" fill="none"></path></g><g stroke-linecap="round" transform="translate(308.37023341070153 165.8583250925878) rotate(334.0400495723031 3.083156568769482 5.343960001754098)"><path d="M5.06 1.25 C5.57 1.99, 6 3.29, 6.12 4.42 C6.23 5.54, 6.08 7.02, 5.75 8.02 C5.42 9.01, 4.76 9.97, 4.14 10.37 C3.52 10.76, 2.65 10.76, 2.03 10.37 C1.41 9.97, 0.74 9.01, 0.41 8.02 C0.08 7.02, -0.07 5.54, 0.05 4.42 C0.16 3.29, 0.6 1.99, 1.1 1.25 C1.61 0.51, 2.42 0, 3.08 0 C3.74 0, 4.56 0.51, 5.06 1.25" stroke="none" stroke-width="0" fill="#0eb1e4"></path><path d="M5.06 1.25 C5.57 1.99, 6 3.29, 6.12 4.42 C6.23 5.54, 6.08 7.02, 5.75 8.02 C5.42 9.01, 4.76 9.97, 4.14 10.37 C3.52 10.76, 2.65 10.76, 2.03 10.37 C1.41 9.97, 0.74 9.01, 0.41 8.02 C0.08 7.02, -0.07 5.54, 0.05 4.42 C0.16 3.29, 0.6 1.99, 1.1 1.25 C1.61 0.51, 2.42 0, 3.08 0 C3.74 0, 4.56 0.51, 5.06 1.25" stroke="#0eb1e4" stroke-width="1" fill="none"></path></g><g stroke-linecap="round" transform="translate(306.34623634531636 154.32655103558784) rotate(0 10.405114328594436 10.25367209707619)"><path d="M17.09 2.4 C18.8 3.81, 20.27 6.31, 20.65 8.47 C21.04 10.64, 20.53 13.48, 19.42 15.38 C18.3 17.28, 16.06 19.14, 13.96 19.89 C11.87 20.64, 8.94 20.64, 6.85 19.89 C4.75 19.14, 2.51 17.28, 1.39 15.38 C0.28 13.48, -0.23 10.64, 0.16 8.47 C0.55 6.31, 2.01 3.81, 3.72 2.4 C5.42 0.99, 8.18 0, 10.41 0 C12.63 0, 15.39 0.99, 17.09 2.4" stroke="none" stroke-width="0" fill="#0eb1e4"></path><path d="M17.09 2.4 C18.8 3.81, 20.27 6.31, 20.65 8.47 C21.04 10.64, 20.53 13.48, 19.42 15.38 C18.3 17.28, 16.06 19.14, 13.96 19.89 C11.87 20.64, 8.94 20.64, 6.85 19.89 C4.75 19.14, 2.51 17.28, 1.39 15.38 C0.28 13.48, -0.23 10.64, 0.16 8.47 C0.55 6.31, 2.01 3.81, 3.72 2.4 C5.42 0.99, 8.18 0, 10.41 0 C12.63 0, 15.39 0.99, 17.09 2.4" stroke="#0eb1e4" stroke-width="1" fill="none"></path></g><g stroke-linecap="round" transform="translate(309.2151913616285 149.66291106015763) rotate(310.82721671153615 0.6894285459038656 4.366145434434387)"><path d="M0.34 0 L1.38 0.34 L1.03 8.73 L0 8.39 L0.34 0" stroke="none" stroke-width="0" fill="#0eb1e4"></path><path d="M0.34 0 M0.34 0 C0.61 0, 0.88 0, 1.03 0 M0.34 0 C0.57 0, 0.8 0, 1.03 0 M1.03 0 C1.26 0, 1.38 0.11, 1.38 0.34 M1.03 0 C1.26 0, 1.38 0.11, 1.38 0.34 M1.38 0.34 C1.38 2.92, 1.38 5.49, 1.38 8.39 M1.38 0.34 C1.38 2.23, 1.38 4.11, 1.38 8.39 M1.38 8.39 C1.38 8.62, 1.26 8.73, 1.03 8.73 M1.38 8.39 C1.38 8.62, 1.26 8.73, 1.03 8.73 M1.03 8.73 C0.83 8.73, 0.63 8.73, 0.34 8.73 M1.03 8.73 C0.82 8.73, 0.6 8.73, 0.34 8.73 M0.34 8.73 C0.11 8.73, 0 8.62, 0 8.39 M0.34 8.73 C0.11 8.73, 0 8.62, 0 8.39 M0 8.39 C0 5.62, 0 2.86, 0 0.34 M0 8.39 C0 6.09, 0 3.8, 0 0.34 M0 0.34 C0 0.11, 0.11 0, 0.34 0 M0 0.34 C0 0.11, 0.11 0, 0.34 0" stroke="#0eb1e4" stroke-width="1" fill="none"></path></g><g stroke-linecap="round" transform="translate(302.04150618076255 147.61980001327663) rotate(0 2.9200591362707655 3.158061594876685)"><path d="M4.8 0.74 C5.28 1.17, 5.69 1.94, 5.8 2.61 C5.9 3.28, 5.76 4.15, 5.45 4.74 C5.14 5.32, 4.51 5.89, 3.92 6.13 C3.33 6.36, 2.51 6.36, 1.92 6.13 C1.33 5.89, 0.7 5.32, 0.39 4.74 C0.08 4.15, -0.06 3.28, 0.04 2.61 C0.15 1.94, 0.56 1.17, 1.04 0.74 C1.52 0.3, 2.29 0, 2.92 0 C3.55 0, 4.32 0.3, 4.8 0.74" stroke="none" stroke-width="0" fill="#0eb1e4"></path><path d="M4.8 0.74 C5.28 1.17, 5.69 1.94, 5.8 2.61 C5.9 3.28, 5.76 4.15, 5.45 4.74 C5.14 5.32, 4.51 5.89, 3.92 6.13 C3.33 6.36, 2.51 6.36, 1.92 6.13 C1.33 5.89, 0.7 5.32, 0.39 4.74 C0.08 4.15, -0.06 3.28, 0.04 2.61 C0.15 1.94, 0.56 1.17, 1.04 0.74 C1.52 0.3, 2.29 0, 2.92 0 C3.55 0, 4.32 0.3, 4.8 0.74" stroke="#0eb1e4" stroke-width="1" fill="none"></path></g><g stroke-linecap="round"><g transform="translate(224.0757065748512 156.97915096414488) rotate(0 35.18485242550719 -6.986038357245093)"><path d="M1.09 -1.04 C3.47 -3.28, 7.07 -11.43, 15.4 -13.26 C23.74 -15.09, 42 -13.93, 51.12 -12.04 C60.25 -10.14, 67.15 -3.58, 70.16 -1.89 M0.21 1.02 C2.37 -1.09, 6.28 -9.61, 14.72 -12.13 C23.17 -14.66, 42.13 -16, 50.9 -14.11 C59.66 -12.23, 64.51 -2.91, 67.32 -0.82" stroke="#0dce93" stroke-width="1" fill="none"></path></g><g transform="translate(224.0757065748512 156.97915096414488) rotate(0 35.18485242550719 -6.986038357245093)"><path d="M56.72 -5.42 C60.78 -3.03, 65.78 -0.97, 67.27 -0.72 M57.18 -5.7 C60.29 -4.66, 63.12 -3.33, 66.93 -1.29" stroke="#0dce93" stroke-width="1" fill="none"></path></g><g transform="translate(224.0757065748512 156.97915096414488) rotate(0 35.18485242550719 -6.986038357245093)"><path d="M62.23 -10.44 C64.12 -6.01, 66.93 -1.97, 67.27 -0.72 M62.69 -10.72 C64.2 -8.25, 65.42 -5.45, 66.93 -1.29" stroke="#0dce93" stroke-width="1" fill="none"></path></g></g><g stroke-linecap="round"><g transform="translate(290.8308184486127 164.50183230061424) rotate(0 -33.27029937769362 6.724611871127777)"><path d="M-1.04 0.51 C-5.4 2.6, -16.82 11.66, -26.01 13.64 C-35.2 15.61, -49.34 14.82, -56.19 12.33 C-63.05 9.84, -65.32 0.94, -67.15 -1.29 M0.61 -0.27 C-3.38 2.02, -14.16 10.25, -23.71 12.05 C-33.26 13.86, -49.49 12.59, -56.69 10.56 C-63.89 8.53, -64.93 1.72, -66.94 -0.13" stroke="#0dce93" stroke-width="1" fill="none"></path></g><g transform="translate(290.8308184486127 164.50183230061424) rotate(0 -33.27029937769362 6.724611871127777)"><path d="M-60.11 4.33 C-61.82 3.6, -63.81 1.65, -66.86 -0.19 M-60.32 4.71 C-62.79 3.02, -65.01 1.25, -67.29 0.12" stroke="#0dce93" stroke-width="1" fill="none"></path></g><g transform="translate(290.8308184486127 164.50183230061424) rotate(0 -33.27029937769362 6.724611871127777)"><path d="M-64.84 7.33 C-65.1 5.7, -65.61 2.81, -66.86 -0.19 M-65.05 7.7 C-65.95 5.08, -66.63 2.33, -67.29 0.12" stroke="#0dce93" stroke-width="1" fill="none"></path></g></g><g stroke-opacity="0.1" fill-opacity="0.1" stroke-linecap="round" transform="translate(77.7603592061273 508.14282533566933) rotate(0 186.31630452473973 183.0531056722005)"><path d="M-1.88 -0.31 L371.08 1.4 L373.03 367.21 L1.67 368" stroke="none" stroke-width="0" fill="#62a1d6"></path><path d="M-0.7 0.58 C74.81 -1.9, 150.32 -1.95, 372.19 0.31 M0.07 0.05 C139.66 2.16, 278.28 2.58, 372.17 -0.51 M373.06 -0.62 C375.9 84.79, 375.63 172.24, 371.91 366.55 M372.84 0.52 C372.27 97.08, 371.55 194.13, 372.27 366.33 M373.23 366.61 C252.67 366.1, 134.1 366.47, -0.99 366 M372.26 366.14 C266.95 366.04, 162.19 366.28, -0.46 365.96 M0.42 365.88 C1.43 259.17, -0.67 153.24, -1.07 0.31 M-0.45 366.54 C-2.18 263.89, -1.87 161.31, 0 0.11" stroke="#62a1d6" stroke-width="1" fill="none"></path></g><g stroke-linecap="round"><g transform="translate(197.88659185986444 400.8471355743092) rotate(347.3141258726876 -4.817382222714059 20.244181290436416)"><path d="M0.94 0.2 C-2.14 10.05, -4.38 16.35, -9.23 40.29 M0.08 0.69 C-2.9 10.97, -5.05 21.79, -10.58 38.16" stroke="black" stroke-width="1" fill="none"></path></g><g transform="translate(197.88659185986444 400.8471355743092) rotate(347.3141258726876 -4.817382222714059 20.244181290436416)"><path d="M-10.88 36.6 L-11.17 23.69 L0.63 28.75 L-8.69 39.99" stroke="none" stroke-width="0" fill="black" fill-rule="evenodd"></path><path d="M-9.87 38.31 C-11.35 36.02, -11.85 31.05, -12.19 24.4 M-10.52 38.68 C-10.83 33.62, -10.89 28.96, -13.2 22.8 M-13.21 24.5 C-8.75 25.66, -2.21 25.48, -0.02 26.63 M-12.05 23.86 C-9.28 24.07, -6.01 24.84, -0.25 27.2 M0.14 26.25 C-4.68 31.6, -8.25 34.74, -10.7 37.89 M-0.43 26.36 C-3.92 30.48, -7.05 33.97, -10.75 38.1 M-10.58 38.16 C-10.58 38.16, -10.58 38.16, -10.58 38.16 M-10.58 38.16 C-10.58 38.16, -10.58 38.16, -10.58 38.16" stroke="black" stroke-width="1" fill="none"></path></g></g><g stroke-linecap="round" transform="translate(124.22819734824361 557.9216703393072) rotate(0 135 69.22396850585938)"><path d="M-1.56 1.4 L270.4 1.11 L271.67 140.34 L1.83 139.08" stroke="none" stroke-width="0" fill="white"></path><path d="M0.15 -0.23 C102.63 -1.29, 202.27 -0.6, 271.15 -0.15 M0.54 0.21 C57.14 0.58, 114.16 -0.82, 269.48 0.72 M271.9 -1.43 C271.94 38.68, 269.32 75.24, 269.3 137.64 M270.89 0.23 C270.22 43.64, 269.88 86.79, 270.2 139.43 M269.14 138.24 C187.2 139.58, 103.02 139.18, -0.28 139.06 M269.26 138.43 C189.33 138.85, 108.68 138.38, -0.06 138.29 M1.54 138.5 C-2.3 110.46, -2.19 79.5, -0.4 1.45 M-0.84 138.93 C0.66 95.12, 1 51.23, -0.94 -0.15" stroke="gray" stroke-width="1" fill="none"></path></g><g stroke-linecap="round" transform="translate(124.71867586386861 555.7134794213384) rotate(0 134.509521484375 14.113525390625)"><path d="M5.91 0.94 L262.16 -0.29 L266.59 0.07 L267.85 4.48 L270.49 20.98 L265.51 26.69 L262.12 29.61 L7.59 27.61 L3.66 24.94 L-1.67 19.85 L2.27 3.35 L4.66 -0.56 L8.95 -1.43" stroke="none" stroke-width="0" fill="#ced4da"></path><path d="M7.06 0 M7.06 0 C102.74 0.62, 196.61 1.39, 261.96 0 M7.06 0 C92.37 -2.04, 177.64 -2.31, 261.96 0 M261.96 0 C267.38 0.4, 270.98 2.49, 269.02 7.06 M261.96 0 C267.79 0.94, 267.76 2.05, 269.02 7.06 M269.02 7.06 C268.92 11.09, 269.6 15.6, 269.02 21.17 M269.02 7.06 C269.01 10.16, 269.29 13.3, 269.02 21.17 M269.02 21.17 C268.55 25.72, 266.25 26.52, 261.96 28.23 M269.02 21.17 C269.8 25.46, 268.43 28.29, 261.96 28.23 M261.96 28.23 C209.23 26.13, 156.86 26.7, 7.06 28.23 M261.96 28.23 C204.2 26.22, 145.97 26.5, 7.06 28.23 M7.06 28.23 C2.69 26.35, -0.31 24.32, 0 21.17 M7.06 28.23 C3.96 28.68, 1.27 27.8, 0 21.17 M0 21.17 C1.26 14.46, 0.07 9.14, 0 7.06 M0 21.17 C0.38 17, 0.01 12.53, 0 7.06 M0 7.06 C0.65 1.03, 2.01 1.12, 7.06 0 M0 7.06 C1.69 4.21, 0.09 2.25, 7.06 0" stroke="gray" stroke-width="1" fill="none"></path></g><g stroke-linecap="round" transform="translate(155.47249355115628 365.223666359893) rotate(0 96.18181818181802 20.235931396484375)"><path d="M11.06 0.2 L186.38 2.17 L191.36 4.97 L192.24 36.25 L189.64 36.19 L182.48 40.63 L7.08 40.37 L0.02 36.68 L-1.52 8.45 L1.21 4.36 L9.5 0.69" stroke="none" stroke-width="0" fill="white"></path><path d="M10.12 0 M10.12 0 C54.59 2.64, 94.99 1.95, 182.25 0 M10.12 0 C56.03 0.62, 102.16 0.03, 182.25 0 M182.25 0 C188.49 0.86, 191.19 4.08, 192.36 10.12 M182.25 0 C189.45 2.26, 192.52 4.5, 192.36 10.12 M192.36 10.12 C192.33 17.36, 190.64 23.74, 192.36 30.35 M192.36 10.12 C191.84 15.88, 191.5 21.51, 192.36 30.35 M192.36 30.35 C191.58 37.84, 187.48 40.01, 182.25 40.47 M192.36 30.35 C192.18 36.62, 187.03 41.25, 182.25 40.47 M182.25 40.47 C131.9 42.25, 83.49 41.02, 10.12 40.47 M182.25 40.47 C133.33 41.43, 85.01 41.22, 10.12 40.47 M10.12 40.47 C2.71 41.21, 0.02 37.44, 0 30.35 M10.12 40.47 C1.21 40.12, -1.79 38.71, 0 30.35 M0 30.35 C1.78 25.71, 0.52 19.37, 0 10.12 M0 30.35 C-0.14 25.04, -0.13 21.85, 0 10.12 M0 10.12 C-0.26 3.04, 1.98 0.65, 10.12 0 M0 10.12 C-1.52 2.98, 4.66 1.69, 10.12 0" stroke="#0eb1e4" stroke-width="1" fill="none"></path></g><g stroke-linecap="round" transform="translate(164.8872970212592 385.296330249669) rotate(306.4434673675469 4.050635566407891 1.2264198784974383)"><path d="M6.65 0.29 C7.32 0.46, 7.89 0.75, 8.04 1.01 C8.19 1.27, 7.99 1.61, 7.56 1.84 C7.12 2.07, 6.25 2.29, 5.44 2.38 C4.62 2.47, 3.48 2.47, 2.67 2.38 C1.85 2.29, 0.98 2.07, 0.54 1.84 C0.11 1.61, -0.09 1.27, 0.06 1.01 C0.21 0.75, 0.78 0.46, 1.45 0.29 C2.11 0.12, 3.18 0, 4.05 0 C4.92 0, 5.99 0.12, 6.65 0.29" stroke="none" stroke-width="0" fill="#0eb1e4"></path><path d="M6.65 0.29 C7.32 0.46, 7.89 0.75, 8.04 1.01 C8.19 1.27, 7.99 1.61, 7.56 1.84 C7.12 2.07, 6.25 2.29, 5.44 2.38 C4.62 2.47, 3.48 2.47, 2.67 2.38 C1.85 2.29, 0.98 2.07, 0.54 1.84 C0.11 1.61, -0.09 1.27, 0.06 1.01 C0.21 0.75, 0.78 0.46, 1.45 0.29 C2.11 0.12, 3.18 0, 4.05 0 C4.92 0, 5.99 0.12, 6.65 0.29" stroke="#0eb1e4" stroke-width="1" fill="none"></path></g><g stroke-linecap="round" transform="translate(182.621108489348 385.24670729589417) rotate(44.97704373639855 4.050635566407891 1.2264198784974383)"><path d="M6.65 0.29 C7.32 0.46, 7.89 0.75, 8.04 1.01 C8.19 1.27, 7.99 1.61, 7.56 1.84 C7.12 2.07, 6.25 2.29, 5.44 2.38 C4.62 2.47, 3.48 2.47, 2.67 2.38 C1.85 2.29, 0.98 2.07, 0.54 1.84 C0.11 1.61, -0.09 1.27, 0.06 1.01 C0.21 0.75, 0.78 0.46, 1.45 0.29 C2.11 0.12, 3.18 0, 4.05 0 C4.92 0, 5.99 0.12, 6.65 0.29" stroke="none" stroke-width="0" fill="#0eb1e4"></path><path d="M6.65 0.29 C7.32 0.46, 7.89 0.75, 8.04 1.01 C8.19 1.27, 7.99 1.61, 7.56 1.84 C7.12 2.07, 6.25 2.29, 5.44 2.38 C4.62 2.47, 3.48 2.47, 2.67 2.38 C1.85 2.29, 0.98 2.07, 0.54 1.84 C0.11 1.61, -0.09 1.27, 0.06 1.01 C0.21 0.75, 0.78 0.46, 1.45 0.29 C2.11 0.12, 3.18 0, 4.05 0 C4.92 0, 5.99 0.12, 6.65 0.29" stroke="#0eb1e4" stroke-width="1" fill="none"></path></g><g stroke-linecap="round" transform="translate(178.92643006822482 384.68862630730274) rotate(14.251129668680113 2.794308889758213 4.843307372279895)"><path d="M4.59 1.13 C5.05 1.8, 5.44 2.98, 5.55 4 C5.65 5.02, 5.51 6.37, 5.21 7.26 C4.91 8.16, 4.31 9.04, 3.75 9.39 C3.19 9.75, 2.4 9.75, 1.84 9.39 C1.28 9.04, 0.67 8.16, 0.37 7.26 C0.08 6.37, -0.06 5.02, 0.04 4 C0.15 2.98, 0.54 1.8, 1 1.13 C1.46 0.47, 2.2 0, 2.79 0 C3.39 0, 4.13 0.47, 4.59 1.13" stroke="none" stroke-width="0" fill="#0eb1e4"></path><path d="M4.59 1.13 C5.05 1.8, 5.44 2.98, 5.55 4 C5.65 5.02, 5.51 6.37, 5.21 7.26 C4.91 8.16, 4.31 9.04, 3.75 9.39 C3.19 9.75, 2.4 9.75, 1.84 9.39 C1.28 9.04, 0.67 8.16, 0.37 7.26 C0.08 6.37, -0.06 5.02, 0.04 4 C0.15 2.98, 0.54 1.8, 1 1.13 C1.46 0.47, 2.2 0, 2.79 0 C3.39 0, 4.13 0.47, 4.59 1.13" stroke="#0eb1e4" stroke-width="1" fill="none"></path></g><g stroke-linecap="round" transform="translate(170.76079456377602 386.4593215725043) rotate(334.0400495723031 2.3970660900138228 4.15477612663301)"><path d="M3.94 0.97 C4.33 1.54, 4.67 2.56, 4.76 3.43 C4.85 4.31, 4.73 5.46, 4.47 6.23 C4.22 7, 3.7 7.75, 3.22 8.06 C2.73 8.36, 2.06 8.36, 1.58 8.06 C1.09 7.75, 0.58 7, 0.32 6.23 C0.06 5.46, -0.05 4.31, 0.04 3.43 C0.13 2.56, 0.46 1.54, 0.86 0.97 C1.25 0.4, 1.88 0, 2.4 0 C2.91 0, 3.54 0.4, 3.94 0.97" stroke="none" stroke-width="0" fill="#0eb1e4"></path><path d="M3.94 0.97 C4.33 1.54, 4.67 2.56, 4.76 3.43 C4.85 4.31, 4.73 5.46, 4.47 6.23 C4.22 7, 3.7 7.75, 3.22 8.06 C2.73 8.36, 2.06 8.36, 1.58 8.06 C1.09 7.75, 0.58 7, 0.32 6.23 C0.06 5.46, -0.05 4.31, 0.04 3.43 C0.13 2.56, 0.46 1.54, 0.86 0.97 C1.25 0.4, 1.88 0, 2.4 0 C2.91 0, 3.54 0.4, 3.94 0.97" stroke="#0eb1e4" stroke-width="1" fill="none"></path></g><g stroke-linecap="round" transform="translate(169.187194708074 377.49369691700196) rotate(0 8.089678925954104 7.971936920424497)"><path d="M13.29 1.87 C14.62 2.96, 15.76 4.91, 16.06 6.59 C16.36 8.27, 15.96 10.48, 15.1 11.96 C14.23 13.44, 12.49 14.88, 10.86 15.46 C9.23 16.05, 6.95 16.05, 5.32 15.46 C3.69 14.88, 1.95 13.44, 1.08 11.96 C0.22 10.48, -0.18 8.27, 0.12 6.59 C0.42 4.91, 1.56 2.96, 2.89 1.87 C4.22 0.77, 6.36 0, 8.09 0 C9.82 0, 11.96 0.77, 13.29 1.87" stroke="none" stroke-width="0" fill="#0eb1e4"></path><path d="M13.29 1.87 C14.62 2.96, 15.76 4.91, 16.06 6.59 C16.36 8.27, 15.96 10.48, 15.1 11.96 C14.23 13.44, 12.49 14.88, 10.86 15.46 C9.23 16.05, 6.95 16.05, 5.32 15.46 C3.69 14.88, 1.95 13.44, 1.08 11.96 C0.22 10.48, -0.18 8.27, 0.12 6.59 C0.42 4.91, 1.56 2.96, 2.89 1.87 C4.22 0.77, 6.36 0, 8.09 0 C9.82 0, 11.96 0.77, 13.29 1.87" stroke="#0eb1e4" stroke-width="1" fill="none"></path></g><g stroke-linecap="round" transform="translate(171.41772521471057 373.91067633676886) rotate(310.82721671153615 0.5360109848502361 3.39455325459798)"><path d="M0.27 0 L1.07 0.27 L0.8 6.79 L0 6.52 L0.27 0" stroke="none" stroke-width="0" fill="#0eb1e4"></path><path d="M0.27 0 M0.27 0 C0.39 0, 0.51 0, 0.8 0 M0.27 0 C0.48 0, 0.69 0, 0.8 0 M0.8 0 C0.98 0, 1.07 0.09, 1.07 0.27 M0.8 0 C0.98 0, 1.07 0.09, 1.07 0.27 M1.07 0.27 C1.07 1.78, 1.07 3.28, 1.07 6.52 M1.07 0.27 C1.07 1.8, 1.07 3.33, 1.07 6.52 M1.07 6.52 C1.07 6.7, 0.98 6.79, 0.8 6.79 M1.07 6.52 C1.07 6.7, 0.98 6.79, 0.8 6.79 M0.8 6.79 C0.68 6.79, 0.56 6.79, 0.27 6.79 M0.8 6.79 C0.6 6.79, 0.4 6.79, 0.27 6.79 M0.27 6.79 C0.09 6.79, 0 6.7, 0 6.52 M0.27 6.79 C0.09 6.79, 0 6.7, 0 6.52 M0 6.52 C0 4.64, 0 2.76, 0 0.27 M0 6.52 C0 4.3, 0 2.08, 0 0.27 M0 0.27 C0 0.09, 0.09 0, 0.27 0 M0 0.27 C0 0.09, 0.09 0, 0.27 0" stroke="#0eb1e4" stroke-width="1" fill="none"></path></g><g stroke-linecap="round" transform="translate(165.84039007005185 372.27938973176316) rotate(0 2.270262498924467 2.455302606404871)"><path d="M3.73 0.57 C4.1 0.91, 4.42 1.51, 4.51 2.03 C4.59 2.55, 4.48 3.23, 4.24 3.68 C3.99 4.14, 3.5 4.58, 3.05 4.76 C2.59 4.94, 1.95 4.94, 1.49 4.76 C1.04 4.58, 0.55 4.14, 0.3 3.68 C0.06 3.23, -0.05 2.55, 0.03 2.03 C0.12 1.51, 0.44 0.91, 0.81 0.57 C1.18 0.24, 1.78 0, 2.27 0 C2.76 0, 3.36 0.24, 3.73 0.57" stroke="none" stroke-width="0" fill="#0eb1e4"></path><path d="M3.73 0.57 C4.1 0.91, 4.42 1.51, 4.51 2.03 C4.59 2.55, 4.48 3.23, 4.24 3.68 C3.99 4.14, 3.5 4.58, 3.05 4.76 C2.59 4.94, 1.95 4.94, 1.49 4.76 C1.04 4.58, 0.55 4.14, 0.3 3.68 C0.06 3.23, -0.05 2.55, 0.03 2.03 C0.12 1.51, 0.44 0.91, 0.81 0.57 C1.18 0.24, 1.78 0, 2.27 0 C2.76 0, 3.36 0.24, 3.73 0.57" stroke="#0eb1e4" stroke-width="1" fill="none"></path></g><g transform="translate(191.4704072585423 375.2069732446586) rotate(0 75.5 10.5)"><text x="75.5" y="16" font-family="Helvetica, Segoe UI Emoji" font-size="20px" fill="black" text-anchor="middle" style="white-space: pre;" direction="ltr">gloo-mesh-agent</text></g><g transform="translate(273.18607720652517 10) rotate(0 94.95488721804463 12.357142857142808)"><text x="94.95488721804468" y="19.714285714285616" font-family="Helvetica, Segoe UI Emoji" font-size="20.81203007518787px" fill="black" text-anchor="middle" style="white-space: pre;" direction="ltr">Management cluster</text></g><g stroke-linecap="round" transform="translate(111.43196892778496 60.14975112616662) rotate(0 144.2178932178931 80.90468983149006)"><path d="M40.45 0 M40.45 0 C103.76 1.2, 166.81 -1.97, 247.98 0 M40.45 0 C89.33 0.12, 138.43 -0.07, 247.98 0 M247.98 0 C276.41 1.41, 287.28 14.2, 288.44 40.45 M247.98 0 C274.14 -0.93, 288.72 14.26, 288.44 40.45 M288.44 40.45 C288.65 72.32, 287.98 103.18, 288.44 121.36 M288.44 40.45 C289.72 66.76, 288.68 92.12, 288.44 121.36 M288.44 121.36 C288.51 148.67, 273.34 161.64, 247.98 161.81 M288.44 121.36 C288.02 149.22, 274.9 160.43, 247.98 161.81 M247.98 161.81 C183.89 162.42, 119.85 161.35, 40.45 161.81 M247.98 161.81 C187.65 160.08, 127.39 160.26, 40.45 161.81 M40.45 161.81 C11.65 163.54, -1.72 148.83, 0 121.36 M40.45 161.81 C13.02 163.48, 0.36 146.67, 0 121.36 M0 121.36 C0.02 92.23, 0.7 61.98, 0 40.45 M0 121.36 C0.82 104.88, 0.68 88.84, 0 40.45 M0 40.45 C1.89 15.32, 14.11 1.97, 40.45 0 M0 40.45 C-1.87 13.81, 12.03 -0.26, 40.45 0" stroke="#e98d5e" stroke-width="1" fill="none"></path></g><g stroke-linecap="round" transform="translate(133.03844690681217 78.88904228492578) rotate(306.4434673675469 3.9783847055120987 1.2045443257382686)"><path d="M6.54 0.28 C7.19 0.45, 7.75 0.74, 7.9 1 C8.04 1.25, 7.85 1.58, 7.42 1.81 C7 2.03, 6.14 2.25, 5.34 2.34 C4.54 2.42, 3.42 2.42, 2.62 2.34 C1.82 2.25, 0.96 2.03, 0.53 1.81 C0.11 1.58, -0.09 1.25, 0.06 1 C0.21 0.74, 0.77 0.45, 1.42 0.28 C2.07 0.12, 3.13 0, 3.98 0 C4.83 0, 5.88 0.12, 6.54 0.28" stroke="none" stroke-width="0" fill="#0eb1e4"></path><path d="M6.54 0.28 C7.19 0.45, 7.75 0.74, 7.9 1 C8.04 1.25, 7.85 1.58, 7.42 1.81 C7 2.03, 6.14 2.25, 5.34 2.34 C4.54 2.42, 3.42 2.42, 2.62 2.34 C1.82 2.25, 0.96 2.03, 0.53 1.81 C0.11 1.58, -0.09 1.25, 0.06 1 C0.21 0.74, 0.77 0.45, 1.42 0.28 C2.07 0.12, 3.13 0, 3.98 0 C4.83 0, 5.88 0.12, 6.54 0.28" stroke="#0eb1e4" stroke-width="1" fill="none"></path></g><g stroke-linecap="round" transform="translate(150.45594180567878 78.84030445178718) rotate(44.97704373639855 3.9783847055120987 1.2045443257382686)"><path d="M6.54 0.28 C7.19 0.45, 7.75 0.74, 7.9 1 C8.04 1.25, 7.85 1.58, 7.42 1.81 C7 2.03, 6.14 2.25, 5.34 2.34 C4.54 2.42, 3.42 2.42, 2.62 2.34 C1.82 2.25, 0.96 2.03, 0.53 1.81 C0.11 1.58, -0.09 1.25, 0.06 1 C0.21 0.74, 0.77 0.45, 1.42 0.28 C2.07 0.12, 3.13 0, 3.98 0 C4.83 0, 5.88 0.12, 6.54 0.28" stroke="none" stroke-width="0" fill="#0eb1e4"></path><path d="M6.54 0.28 C7.19 0.45, 7.75 0.74, 7.9 1 C8.04 1.25, 7.85 1.58, 7.42 1.81 C7 2.03, 6.14 2.25, 5.34 2.34 C4.54 2.42, 3.42 2.42, 2.62 2.34 C1.82 2.25, 0.96 2.03, 0.53 1.81 C0.11 1.58, -0.09 1.25, 0.06 1 C0.21 0.74, 0.77 0.45, 1.42 0.28 C2.07 0.12, 3.13 0, 3.98 0 C4.83 0, 5.88 0.12, 6.54 0.28" stroke="#0eb1e4" stroke-width="1" fill="none"></path></g><g stroke-linecap="round" transform="translate(146.82716506647193 78.29217790891511) rotate(14.251129668680113 2.7444670267757374 4.756917688119756)"><path d="M4.51 1.11 C4.96 1.77, 5.35 2.93, 5.45 3.93 C5.55 4.93, 5.42 6.25, 5.12 7.14 C4.83 8.02, 4.24 8.88, 3.68 9.23 C3.13 9.58, 2.36 9.58, 1.81 9.23 C1.25 8.88, 0.66 8.02, 0.37 7.14 C0.07 6.25, -0.06 4.93, 0.04 3.93 C0.14 2.93, 0.53 1.77, 0.98 1.11 C1.43 0.46, 2.16 0, 2.74 0 C3.33 0, 4.06 0.46, 4.51 1.11" stroke="none" stroke-width="0" fill="#0eb1e4"></path><path d="M4.51 1.11 C4.96 1.77, 5.35 2.93, 5.45 3.93 C5.55 4.93, 5.42 6.25, 5.12 7.14 C4.83 8.02, 4.24 8.88, 3.68 9.23 C3.13 9.58, 2.36 9.58, 1.81 9.23 C1.25 8.88, 0.66 8.02, 0.37 7.14 C0.07 6.25, -0.06 4.93, 0.04 3.93 C0.14 2.93, 0.53 1.77, 0.98 1.11 C1.43 0.46, 2.16 0, 2.74 0 C3.33 0, 4.06 0.46, 4.51 1.11" stroke="#0eb1e4" stroke-width="1" fill="none"></path></g><g stroke-linecap="round" transform="translate(138.80717934593667 80.03128942504912) rotate(334.0400495723031 2.354309814908902 4.0806677189382725)"><path d="M3.87 0.95 C4.25 1.52, 4.59 2.51, 4.67 3.37 C4.76 4.23, 4.65 5.36, 4.39 6.12 C4.14 6.88, 3.63 7.62, 3.16 7.92 C2.69 8.21, 2.02 8.21, 1.55 7.92 C1.08 7.62, 0.57 6.88, 0.32 6.12 C0.06 5.36, -0.05 4.23, 0.04 3.37 C0.12 2.51, 0.45 1.52, 0.84 0.95 C1.23 0.39, 1.85 0, 2.35 0 C2.86 0, 3.48 0.39, 3.87 0.95" stroke="none" stroke-width="0" fill="#0eb1e4"></path><path d="M3.87 0.95 C4.25 1.52, 4.59 2.51, 4.67 3.37 C4.76 4.23, 4.65 5.36, 4.39 6.12 C4.14 6.88, 3.63 7.62, 3.16 7.92 C2.69 8.21, 2.02 8.21, 1.55 7.92 C1.08 7.62, 0.57 6.88, 0.32 6.12 C0.06 5.36, -0.05 4.23, 0.04 3.37 C0.12 2.51, 0.45 1.52, 0.84 0.95 C1.23 0.39, 1.85 0, 2.35 0 C2.86 0, 3.48 0.39, 3.87 0.95" stroke="#0eb1e4" stroke-width="1" fill="none"></path></g><g stroke-linecap="round" transform="translate(137.26164766433158 71.22558389562249) rotate(0 7.945383973424214 7.829742122580015)"><path d="M13.05 1.83 C14.36 2.91, 15.47 4.82, 15.77 6.47 C16.07 8.12, 15.68 10.29, 14.83 11.74 C13.98 13.2, 12.26 14.61, 10.66 15.19 C9.06 15.76, 6.83 15.76, 5.23 15.19 C3.63 14.61, 1.92 13.2, 1.06 11.74 C0.21 10.29, -0.17 8.12, 0.12 6.47 C0.42 4.82, 1.53 2.91, 2.84 1.83 C4.14 0.75, 6.24 0, 7.95 0 C9.65 0, 11.75 0.75, 13.05 1.83" stroke="none" stroke-width="0" fill="#0eb1e4"></path><path d="M13.05 1.83 C14.36 2.91, 15.47 4.82, 15.77 6.47 C16.07 8.12, 15.68 10.29, 14.83 11.74 C13.98 13.2, 12.26 14.61, 10.66 15.19 C9.06 15.76, 6.83 15.76, 5.23 15.19 C3.63 14.61, 1.92 13.2, 1.06 11.74 C0.21 10.29, -0.17 8.12, 0.12 6.47 C0.42 4.82, 1.53 2.91, 2.84 1.83 C4.14 0.75, 6.24 0, 7.95 0 C9.65 0, 11.75 0.75, 13.05 1.83" stroke="#0eb1e4" stroke-width="1" fill="none"></path></g><g stroke-linecap="round" transform="translate(139.45239237767328 67.70647336537598) rotate(310.82721671153615 0.5264502000129596 3.334004881143933)"><path d="M0.26 0 L1.05 0.26 L0.79 6.67 L0 6.4 L0.26 0" stroke="none" stroke-width="0" fill="#0eb1e4"></path><path d="M0.26 0 M0.26 0 C0.39 0, 0.52 0, 0.79 0 M0.26 0 C0.47 0, 0.67 0, 0.79 0 M0.79 0 C0.97 0, 1.05 0.09, 1.05 0.26 M0.79 0 C0.97 0, 1.05 0.09, 1.05 0.26 M1.05 0.26 C1.05 1.61, 1.05 2.96, 1.05 6.4 M1.05 0.26 C1.05 1.52, 1.05 2.79, 1.05 6.4 M1.05 6.4 C1.05 6.58, 0.97 6.67, 0.79 6.67 M1.05 6.4 C1.05 6.58, 0.97 6.67, 0.79 6.67 M0.79 6.67 C0.68 6.67, 0.56 6.67, 0.26 6.67 M0.79 6.67 C0.68 6.67, 0.56 6.67, 0.26 6.67 M0.26 6.67 C0.09 6.67, 0 6.58, 0 6.4 M0.26 6.67 C0.09 6.67, 0 6.58, 0 6.4 M0 6.4 C0 4.37, 0 2.33, 0 0.26 M0 6.4 C0 4.62, 0 2.84, 0 0.26 M0 0.26 C0 0.09, 0.09 0, 0.26 0 M0 0.26 C0 0.09, 0.09 0, 0.26 0" stroke="#0eb1e4" stroke-width="1" fill="none"></path></g><g stroke-linecap="round" transform="translate(133.97453971152845 66.10428388837494) rotate(0 2.2297680092776773 2.4115075712396674)"><path d="M3.66 0.56 C4.03 0.9, 4.34 1.48, 4.43 1.99 C4.51 2.5, 4.4 3.17, 4.16 3.62 C3.92 4.06, 3.44 4.5, 2.99 4.68 C2.54 4.85, 1.92 4.85, 1.47 4.68 C1.02 4.5, 0.54 4.06, 0.3 3.62 C0.06 3.17, -0.05 2.5, 0.03 1.99 C0.12 1.48, 0.43 0.9, 0.8 0.56 C1.16 0.23, 1.75 0, 2.23 0 C2.71 0, 3.3 0.23, 3.66 0.56" stroke="none" stroke-width="0" fill="#0eb1e4"></path><path d="M3.66 0.56 C4.03 0.9, 4.34 1.48, 4.43 1.99 C4.51 2.5, 4.4 3.17, 4.16 3.62 C3.92 4.06, 3.44 4.5, 2.99 4.68 C2.54 4.85, 1.92 4.85, 1.47 4.68 C1.02 4.5, 0.54 4.06, 0.3 3.62 C0.06 3.17, -0.05 2.5, 0.03 1.99 C0.12 1.48, 0.43 0.9, 0.8 0.56 C1.16 0.23, 1.75 0, 2.23 0 C2.71 0, 3.3 0.23, 3.66 0.56" stroke="#0eb1e4" stroke-width="1" fill="none"></path></g><g transform="translate(158.25014911874632 66.73405414143201) rotate(0 106.5 10.5)"><text x="106.5" y="16" font-family="Helvetica, Segoe UI Emoji" font-size="20px" fill="black" text-anchor="middle" style="white-space: pre;" direction="ltr">gloo-mesh-mgmt-server</text></g><g stroke-linecap="round" transform="translate(43.78083749916868 38.22236198574353) rotate(0 218.36066883237663 103.80409934344257)"><path d="M0.96 -0.72 C118.28 1.82, 234.49 1.47, 436.37 -0.41 M0.45 0.12 C136.19 -1.62, 272.34 -1.66, 436.82 0.5 M435.75 -0.23 C437.69 64.02, 436.19 127.27, 436.4 208.3 M435.88 -0.02 C435.26 62.12, 434.94 123.38, 436.65 207.42 M437.5 207.64 C342.03 208.08, 248.32 207.46, -0.2 208.34 M436.3 207.85 C298.73 209.32, 161.08 209.22, -0.47 207.53 M0.98 209.09 C0.39 163.12, -0.73 117.12, -1.44 0.26 M-0.09 207.92 C0.09 158.28, -0.41 109.54, -0.59 -0.15" stroke="#395be2" stroke-width="1" fill="none"></path></g><g stroke-linecap="round"><g transform="translate(479.78068387625854 17.762584305960445) rotate(0 0.0442808187196988 12.552519808201783)" fill-rule="evenodd"><path d="M-1.2 0.08 L11.7 5.81 L9.91 16.9 L0.8 25.61 L-12.43 18.9 L-11.56 4.04 L-0.07 -1.75" stroke="none" stroke-width="0" fill="#395be2" fill-rule="evenodd"></path><path d="M-0.91 0.93 C4.6 1.18, 7.89 3.49, 10.64 6.19 M0.15 -0.16 C4.05 1.54, 7.72 4.06, 11.78 6.08 M11 6.08 C11.41 9.27, 11.1 14.24, 11.62 18.08 M11.14 5.8 C11.38 8.48, 11.02 11.78, 11.03 17.6 M11.19 16.95 C8.52 19.12, 4.01 21.98, 0.92 24.35 M11.46 17.9 C8.88 19.4, 6.21 20.18, -0.1 23.65 M1.06 25.35 C-2.97 22.38, -7.02 18.71, -10.97 17.31 M0.23 24.07 C-3.27 21.95, -6.18 20.23, -11.26 18.47 M-9.97 17.43 C-10.2 14.46, -10.1 9.95, -10.89 5.59 M-11.21 18.49 C-11.03 14.54, -11.63 11.29, -10.75 6.25 M-11.57 5.01 C-7.03 3.22, -5.48 2.58, -0.63 0.42 M-11.69 5.87 C-7.63 3.82, -4.78 2.18, -0.25 -0.24 M0 0 C0 0, 0 0, 0 0 M0 0 C0 0, 0 0, 0 0" stroke="#395be2" stroke-width="2" fill="none"></path></g></g><g stroke-linecap="round" transform="translate(43.74478572298494 341.74388433487223) rotate(0 218.82928355099148 275.4896120678195)"><path d="M0.74 0.71 C108.78 1.94, 218.37 1.17, 437.78 0.34 M-0.13 0.22 C167.45 -0.34, 335.59 -0.02, 437.69 0.25 M437.69 0.14 C435.8 187.73, 436.3 375.9, 437.64 550.5 M437.5 0.15 C435.27 168.22, 435.54 336.55, 437.32 551.12 M436.74 551.85 C313.43 551.29, 190.73 551.77, 0.16 550.25 M437.49 551.16 C276.14 552.12, 114.13 551.96, -0.39 551.33 M0.76 551.71 C-0.97 375.5, -1.87 198.57, -0.5 -0.09 M-0.05 550.91 C-0.06 434.32, -0.04 317.32, 0.22 0.29" stroke="#395be2" stroke-width="1" fill="none"></path></g><g stroke-linecap="round"><g transform="translate(483.15128741578746 322.69024929310484) rotate(0 0.46903076902776775 12.145905783900673)" fill-rule="evenodd"><path d="M0.54 -0.23 L9.91 4.82 L11.96 19.57 L-1.28 24.93 L-11.56 16.11 L-11.22 4.29 L0.06 -1.83" stroke="none" stroke-width="0" fill="#395be2" fill-rule="evenodd"></path><path d="M0.9 -0.73 C4.82 1.85, 8.25 4.84, 11.58 7.09 M0.27 -0.37 C4.58 2.5, 9.32 4.77, 11.46 6.3 M11.36 5.06 C11.03 8.78, 11.61 11.93, 10.43 18.18 M11.37 5.58 C11.01 8.47, 11.02 10.48, 11.36 18 M12.25 17.02 C7.27 20.03, 3.67 22.76, -0.91 25.02 M11.39 18.12 C8.88 18.78, 6.27 20.19, 0.44 24.27 M1.16 24.55 C-2.77 21.08, -7.79 19.16, -11.29 17 M-0.11 23.71 C-3.05 21.96, -6.6 20.99, -10.69 18.62 M-10.11 18.97 C-10.12 16.53, -11.01 12.79, -11.19 5.09 M-11.13 18.13 C-11.71 15.27, -10.74 11.94, -11.13 6.41 M-10.38 5.17 C-7.75 4.05, -2.86 1.72, 0.08 0.52 M-11.03 5.6 C-8.92 4.42, -6.11 2.98, 0.45 -0.45 M0 0 C0 0, 0 0, 0 0 M0 0 C0 0, 0 0, 0 0" stroke="#395be2" stroke-width="2" fill="none"></path></g></g><g transform="translate(312.57545983193677 319.44025453923945) rotate(0 75.16666666666674 10.73809523809524)"><text x="75.16666666666676" y="16.4761904761905" font-family="Helvetica, Segoe UI Emoji" font-size="20.05367159395091px" fill="black" text-anchor="middle" style="white-space: pre;" direction="ltr">Workload cluster</text></g><g transform="translate(163.7281973482436 560.5415433861817) rotate(0 95.5 10.5)"><text x="0" y="16" font-family="Helvetica, Segoe UI Emoji" font-size="20px" fill="#000000" text-anchor="start" style="white-space: pre;" direction="ltr">Gloo Mesh resources</text></g><g stroke-linecap="round" transform="translate(260.7866232515639 715.4260953881349) rotate(0 84.76766967773438 69.22396850585938)"><path d="M1.73 1.42 L171.44 1.42 L169.97 137.71 L-0.06 136.88" stroke="none" stroke-width="0" fill="white"></path><path d="M-0.7 -0.81 C63.09 0.07, 127.36 1.17, 170 -0.5 M0.2 0.98 C58.19 -0.12, 116.66 -1.15, 169.41 0.04 M169.18 0.78 C168.37 42.72, 168.53 85.96, 169.48 137.66 M169.46 -0.21 C167.64 46.97, 168.31 94.03, 169.56 137.53 M169.14 139.9 C104.3 137.44, 39.82 137.19, 0.96 137.79 M168.6 138.29 C111.67 139.43, 55.56 139.29, 0.84 139.39 M-1.62 138.74 C-1.7 83.99, -2.2 29.78, 0.71 -0.26 M-0.66 138.28 C1.53 99.96, 1.77 59.02, 0.98 -0.56" stroke="gray" stroke-width="1" fill="none"></path></g><g stroke-linecap="round" transform="translate(100.03662325156392 713.6925748803224) rotate(0 71.01766967773438 69.22396850585938)"><path d="M1.42 1.9 L143.45 0.44 L141.3 138.39 L-1.57 137.74" stroke="none" stroke-width="0" fill="white"></path><path d="M-0.81 0.24 C35.08 2.17, 70.59 0.97, 141.53 0.86 M0.98 0.07 C34.74 0.12, 67.95 -0.42, 142.07 0.17 M142.82 -0.05 C140.71 30.47, 140.03 60.67, 141.25 139.18 M141.83 -0.85 C142.05 30.93, 142.48 62.24, 141.12 139.31 M143.49 138.76 C110.23 139.55, 79.61 139.12, -0.66 139.18 M141.88 137.67 C100.02 137.31, 57.15 137.95, 0.95 139.37 M0.29 137.19 C-1.58 90.79, -1.56 47.37, -0.26 -0.33 M-0.17 139.01 C0.28 107.37, -1.43 75.65, -0.56 0.87" stroke="gray" stroke-width="1" fill="none"></path></g><g stroke-linecap="round" transform="translate(323.7496842663745 440.8196297305828) rotate(0 41.035980224609375 20.330780029296875)"><path d="M2.71 2.35 C2.71 2.35, 2.71 2.35, 2.71 2.35 M2.71 2.35 C2.71 2.35, 2.71 2.35, 2.71 2.35 M0.48 11.01 C2.62 7.3, 6.52 4.28, 10.32 -0.31 M0.48 11.01 C2.94 8.53, 4.35 6.11, 10.32 -0.31 M0.87 16.66 C4.13 12.33, 5.55 10.67, 13.34 2.32 M0.87 16.66 C4.3 13.34, 7.98 7.74, 13.34 2.32 M1.27 22.3 C7.63 16.12, 14.94 5.65, 18.32 2.68 M1.27 22.3 C7.39 15.34, 14.03 7.9, 18.32 2.68 M1 28.7 C7.04 23.98, 11.34 19.97, 23.31 3.04 M1 28.7 C10.55 17.69, 18.51 7.75, 23.31 3.04 M0.74 35.1 C9.89 25.49, 16.99 14.98, 28.95 2.64 M0.74 35.1 C10.9 25.08, 20.53 12.57, 28.95 2.64 M3.76 37.72 C17.39 25.55, 29.39 10.27, 33.94 3 M3.76 37.72 C11.36 28.72, 20.28 19.72, 33.94 3 M6.78 40.34 C18.42 29.42, 27.1 18.52, 39.58 2.61 M6.78 40.34 C20.61 24.85, 32.27 10.72, 39.58 2.61 M11.77 40.7 C20.66 29.96, 26.36 21.3, 44.57 2.97 M11.77 40.7 C22.16 28.46, 32.63 17.5, 44.57 2.97 M16.75 41.06 C23.79 33.03, 32.35 23.03, 50.21 2.57 M16.75 41.06 C29.37 25.35, 42.82 10.19, 50.21 2.57 M22.4 40.67 C30.89 30.45, 38.86 23.03, 55.2 2.93 M22.4 40.67 C30.14 30.91, 37.51 22.88, 55.2 2.93 M27.38 41.03 C39.45 24.83, 52.03 11, 60.19 3.29 M27.38 41.03 C38.43 28.95, 47.04 19.02, 60.19 3.29 M33.03 40.64 C43.56 32.56, 49.61 19.66, 65.83 2.9 M33.03 40.64 C44.81 28.85, 55.81 14.85, 65.83 2.9 M38.01 41 C51.5 28.96, 60.97 13.16, 70.82 3.26 M38.01 41 C45.67 32.26, 52.09 23.15, 70.82 3.26 M43 41.36 C49.58 33.77, 58.37 25.72, 77.77 1.36 M43 41.36 C56.13 25.81, 69.55 11.21, 77.77 1.36 M48.64 40.96 C57.8 32.22, 67.52 18.81, 80.14 4.73 M48.64 40.96 C55.11 33.45, 60.95 26.83, 80.14 4.73 M53.63 41.32 C65.42 28.25, 75.11 14.29, 83.15 7.36 M53.63 41.32 C63.25 29.91, 72.8 18.93, 83.15 7.36 M59.27 40.93 C63.62 34.24, 70.07 27.89, 83.55 13 M59.27 40.93 C65.68 33.93, 71.84 27.68, 83.55 13 M64.26 41.29 C71.24 33.7, 76.75 30.05, 83.29 19.4 M64.26 41.29 C69.85 34.69, 75.52 30.07, 83.29 19.4 M69.25 41.65 C72.68 36.29, 78.62 32.38, 83.03 25.8 M69.25 41.65 C74.08 36.77, 77.22 32.57, 83.03 25.8 M73.58 42.76 C75.27 39.01, 80.69 35.58, 83.42 31.44 M73.58 42.76 C76.27 40.03, 78.43 36.96, 83.42 31.44" stroke="#0eb1e4" stroke-width="0.5" fill="none"></path><path d="M10.17 0 M10.17 0 C23.7 -1.93, 37.73 -1.01, 71.91 0 M10.17 0 C34.06 0.08, 57.51 0.15, 71.91 0 M71.91 0 C78.56 -1.89, 80.79 5.27, 82.07 10.17 M71.91 0 C77.19 -1.21, 79.87 1.57, 82.07 10.17 M82.07 10.17 C82.5 19.03, 82.14 26, 82.07 30.5 M82.07 10.17 C81.82 16.62, 82.58 24.94, 82.07 30.5 M82.07 30.5 C81.34 37.76, 78.22 40.82, 71.91 40.66 M82.07 30.5 C83.47 36.01, 77.49 40.65, 71.91 40.66 M71.91 40.66 C47.92 39.84, 22.81 41.13, 10.17 40.66 M71.91 40.66 C58.63 39.88, 44.94 39.62, 10.17 40.66 M10.17 40.66 C2.23 41.19, -0.2 35.54, 0 30.5 M10.17 40.66 C3.08 42.66, 0.36 37.01, 0 30.5 M0 30.5 C-0.04 22.94, -0.36 13.17, 0 10.17 M0 30.5 C-0.01 22.64, 0.51 14.7, 0 10.17 M0 10.17 C-1.26 3.53, 1.63 1.58, 10.17 0 M0 10.17 C0.54 5.03, 4.2 1.68, 10.17 0" stroke="#0eb1e4" stroke-width="1" fill="none"></path></g><g transform="translate(341.2856644909839 449.65040975987966) rotate(0 23.5 11.5)"><text x="0" y="18" font-family="Helvetica, Segoe UI Emoji" font-size="20px" fill="#000000" text-anchor="start" style="white-space: pre;" direction="ltr">istiod</text></g><g stroke-linecap="round" transform="translate(111.12027447633727 440.8196297305828) rotate(0 76.40106201171875 20.330780029296875)"><path d="M9.36 0.24 L147.76 2.3 L153.95 6.19 L151.66 35.8 L149.08 38.83 L143.04 42.63 L5.86 41 L1.45 33.85 L-0.26 10.24 L2.89 0.93 L10 -0.36" stroke="none" stroke-width="0" fill="#0eb1e4"></path><path d="M10.17 0 M10.17 0 C55.2 -1.09, 99.96 0.01, 142.64 0 M10.17 0 C54.7 0.1, 98.55 0.65, 142.64 0 M142.64 0 C149.05 1.54, 152.86 1.56, 152.8 10.17 M142.64 0 C151.41 -1.98, 153.38 2.93, 152.8 10.17 M152.8 10.17 C154.22 16.06, 153.79 24.66, 152.8 30.5 M152.8 10.17 C151.86 16.86, 152.02 24.56, 152.8 30.5 M152.8 30.5 C153.2 38.38, 151.09 42.55, 142.64 40.66 M152.8 30.5 C154.91 38, 151.68 38.8, 142.64 40.66 M142.64 40.66 C99.23 40.31, 60.06 40.25, 10.17 40.66 M142.64 40.66 C104.45 40.92, 68.14 41.83, 10.17 40.66 M10.17 40.66 C5 38.7, 1.96 36.15, 0 30.5 M10.17 40.66 C5.38 42.3, 2.19 38.9, 0 30.5 M0 30.5 C-1.49 23.24, -0.12 18.65, 0 10.17 M0 30.5 C0.57 24.98, 0.34 18.17, 0 10.17 M0 10.17 C1.24 5.38, 2.73 -1.62, 10.17 0 M0 10.17 C1.39 1.81, 1.45 0.6, 10.17 0" stroke="#0eb1e4" stroke-width="1" fill="none"></path></g><g transform="translate(121.52133648805511 449.65040975987966) rotate(0 66 11.5)"><text x="0" y="18" font-family="Helvetica, Segoe UI Emoji" font-size="20px" fill="#000000" text-anchor="start" style="white-space: pre;" direction="ltr">kube-apiserver</text></g><g transform="translate(136.2281973482436 591.9098295189947) rotate(0 123 10.5)"><text x="0" y="16" font-family="Helvetica, Segoe UI Emoji" font-size="20px" fill="#000000" text-anchor="start" style="white-space: pre;" direction="ltr">Policy (RetryTimeoutPolicy)</text></g><g transform="translate(135.2281973482436 625.0550016381353) rotate(0 124 10.5)"><text x="0" y="16" font-family="Helvetica, Segoe UI Emoji" font-size="20px" fill="#000000" text-anchor="start" style="white-space: pre;" direction="ltr">Admin (WorkspaceSettings)</text></g><g transform="translate(131.7281973482436 658.2001737572759) rotate(0 127.5 10.5)"><text x="0" y="16" font-family="Helvetica, Segoe UI Emoji" font-size="20px" fill="#000000" text-anchor="start" style="white-space: pre;" direction="ltr">Networking (VirtualGateway)</text></g><g transform="translate(284.0542929292983 749.0492032982911) rotate(0 61.5 11.5)"><text x="0" y="18" font-family="Helvetica, Segoe UI Emoji" font-size="20px" fill="#000000" text-anchor="start" style="white-space: pre;" direction="ltr">VirtualService</text></g><g transform="translate(275.0542929292983 785.4254545189942) rotate(0 70.5 11.5)"><text x="0" y="18" font-family="Helvetica, Segoe UI Emoji" font-size="20px" fill="#000000" text-anchor="start" style="white-space: pre;" direction="ltr">DestinationRule</text></g><g transform="translate(289.0542929292983 821.8017057396974) rotate(0 56.5 11.5)"><text x="0" y="18" font-family="Helvetica, Segoe UI Emoji" font-size="20px" fill="#000000" text-anchor="start" style="white-space: pre;" direction="ltr">ServiceEntry</text></g><g transform="translate(166.2599051119155 764.1579235441536) rotate(0 34 11.5)"><text x="0" y="18" font-family="Helvetica, Segoe UI Emoji" font-size="20px" fill="#000000" text-anchor="start" style="white-space: pre;" direction="ltr">Sidecar</text></g><g stroke-linecap="round"><g transform="translate(195.60925642186476 790.5931194670056) rotate(0 10.059668659340787 12.677376598020032)" fill-rule="evenodd"><path d="M0 0 L0.13 24.73 L20.12 25.35 L0 0" stroke="none" stroke-width="0" fill="#0eb1e4" fill-rule="evenodd"></path><path d="M0 0 C0.05 8.62, 0.09 17.25, 0.13 24.73 M0 0 C0.03 5.93, 0.06 11.86, 0.13 24.73 M0.13 24.73 C6.81 24.94, 13.48 25.15, 20.12 25.35 M0.13 24.73 C4.69 24.87, 9.25 25.01, 20.12 25.35 M20.12 25.35 C12.68 15.97, 5.23 6.59, 0 0 M20.12 25.35 C14.31 18.03, 8.5 10.71, 0 0 M0 0 C0 0, 0 0, 0 0 M0 0 C0 0, 0 0, 0 0" stroke="#0eb1e4" stroke-width="1" fill="none"></path></g></g><g stroke-linecap="round"><g transform="translate(193.74754674844507 800.3937052206907) rotate(0 -4.229077535017268 10.518929819489642)" fill-rule="evenodd"><path d="M0 0 L0.58 16.5 L-9.04 21.04 L0 0" stroke="none" stroke-width="0" fill="#0eb1e4" fill-rule="evenodd"></path><path d="M0 0 C0.2 5.62, 0.4 11.25, 0.58 16.5 M0 0 C0.18 5.04, 0.36 10.08, 0.58 16.5 M0.58 16.5 C-2.13 17.78, -4.84 19.06, -9.04 21.04 M0.58 16.5 C-2.97 18.17, -6.52 19.85, -9.04 21.04 M-9.04 21.04 C-6.15 14.31, -3.26 7.58, 0 0 M-9.04 21.04 C-7.13 16.58, -5.21 12.12, 0 0 M0 0 C0 0, 0 0, 0 0 M0 0 C0 0, 0 0, 0 0" stroke="#0eb1e4" stroke-width="1" fill="none"></path></g></g><g stroke-linecap="round"><g transform="translate(190.80365250598015 819.3841419979135) rotate(0 14.90183235765494 1.5232533913392103)" fill-rule="evenodd"><path d="M0 0 L29.8 -3.39 L7.99 6.43 L0 0" stroke="none" stroke-width="0" fill="#0eb1e4" fill-rule="evenodd"></path><path d="M0 0 C7.3 -0.83, 14.61 -1.66, 29.8 -3.39 M0 0 C6.12 -0.7, 12.25 -1.39, 29.8 -3.39 M29.8 -3.39 C21.59 0.31, 13.37 4.01, 7.99 6.43 M29.8 -3.39 C25.1 -1.27, 20.39 0.85, 7.99 6.43 M7.99 6.43 C5.15 4.15, 2.31 1.86, 0 0 M7.99 6.43 C5.67 4.57, 3.35 2.7, 0 0 M0 0 C0 0, 0 0, 0 0 M0 0 C0 0, 0 0, 0 0" stroke="#0eb1e4" stroke-width="1" fill="none"></path></g></g><g stroke-opacity="0.9" fill-opacity="0.9" stroke-linecap="round" transform="translate(113.74092317832174 795.2445339729702) rotate(0 23.15959552235904 16.032468558283938)"><path d="M-0.66 -1.62 L47.53 -1.37 L44.63 32.59 L-1 32.73" stroke="none" stroke-width="0" fill="#325476"></path><path d="M-1.61 -0.17 C12.94 0.7, 26.54 -1.28, 46.43 -1.89 M-0.75 -0.23 C13.7 -0.38, 26.7 0.17, 46.14 0.77 M44.6 0.5 C45.63 11.16, 46.34 17.97, 47.7 30.38 M46.33 0.17 C45.27 11, 45.43 23.01, 46.52 32.62 M46.95 34.03 C26.93 32.78, 9.52 32.27, -1.76 31.87 M45.62 32.39 C30.11 31.82, 15.78 32.72, 0.81 31.08 M1.42 33.97 C1.6 19.74, -0.56 6.49, -1.57 -0.71 M0.03 31.13 C0.38 23.42, 0.15 13.48, 0.62 0.99" stroke="#325476" stroke-width="1" fill="none"></path></g><g stroke-linecap="round"><g stroke-opacity="0.9" fill-opacity="0.9" transform="translate(124.41016401642673 803.4773204220664) rotate(0 -1.4051451701170663 7.722489690945281)"><path d="M-0.97 -0.1 C-1.39 2.64, -2.25 14.05, -2.47 16.65 M0.72 -1.2 C0.12 1.16, -2.9 11.84, -3.53 14.77" stroke="#325476" stroke-width="4" fill="none"></path></g></g><g stroke-linecap="round"><g stroke-opacity="0.9" fill-opacity="0.9" transform="translate(150.32148139743322 802.6519448942595) rotate(0 -1.3131008925033711 8.148164380250307)"><path d="M-0.1 -0.22 C-0.43 2.64, -1.31 13.41, -1.79 16.15 M-1.61 -1.37 C-2.08 1.77, -2.68 14.51, -2.49 17.67" stroke="#325476" stroke-width="4" fill="none"></path></g></g><g stroke-linecap="round"><g stroke-opacity="0.9" fill-opacity="0.9" transform="translate(136.36722541883364 802.9363823670128) rotate(0 -1.7320895764430588 8.141344992464212)"><path d="M-0.22 0.47 C-0.44 3.06, -1.96 13.03, -2.29 15.45 M-1.79 -0.33 C-2.08 2.41, -3.06 13.93, -3.25 16.61" stroke="#325476" stroke-width="4" fill="none"></path></g></g><g transform="translate(120.10951448691549 762.9294079191536) rotate(0 18 11.5)"><text x="0" y="18" font-family="Helvetica, Segoe UI Emoji" font-size="20px" fill="#000000" text-anchor="start" style="white-space: pre;" direction="ltr">App</text></g><g stroke-linecap="round" transform="translate(99.14676119101705 716.0236156828255) rotate(0 71.28253173828125 12.462646484375)"><path d="M5.87 0.78 L139.01 -0.81 L142.29 1.61 L142.13 20.63 L141.74 21.86 L135.87 24.77 L3.09 22.83 L1.07 21.06 L1.54 6.28 L-0.27 3.29 L4.51 0.5" stroke="none" stroke-width="0" fill="#ced4da"></path><path d="M6.23 0 M6.23 0 C41.22 1.18, 77.41 0.75, 136.33 0 M6.23 0 C41.12 -0.95, 75.52 -0.79, 136.33 0 M136.33 0 C141.89 0.4, 143.67 3.75, 142.57 6.23 M136.33 0 C142.66 2.11, 143.29 4.34, 142.57 6.23 M142.57 6.23 C142.44 7.86, 142.46 12.13, 142.57 18.69 M142.57 6.23 C142.75 9.4, 142.44 13.73, 142.57 18.69 M142.57 18.69 C144.03 24.46, 138.52 26.88, 136.33 24.93 M142.57 18.69 C141.27 24.84, 142.13 27.11, 136.33 24.93 M136.33 24.93 C88.03 22.88, 39.14 24.25, 6.23 24.93 M136.33 24.93 C88.29 25.54, 42.8 25.32, 6.23 24.93 M6.23 24.93 C2.16 26.16, 1.99 22.19, 0 18.69 M6.23 24.93 C0.21 26.32, -1.58 20.91, 0 18.69 M0 18.69 C0.14 15.14, -0.74 9.52, 0 6.23 M0 18.69 C-0.45 15.05, -0.27 11.62, 0 6.23 M0 6.23 C1.43 0.64, 2.06 -0.79, 6.23 0 M0 6.23 C-0.7 2.8, 2.44 -0.68, 6.23 0" stroke="gray" stroke-width="1" fill="none"></path></g><g transform="translate(155.5542929292983 719.3434704191536) rotate(0 18 11.5)"><text x="0" y="18" font-family="Helvetica, Segoe UI Emoji" font-size="20px" fill="#000000" text-anchor="start" style="white-space: pre;" direction="ltr">Pod</text></g><g stroke-linecap="round" transform="translate(261.6697714449242 713.4590543725099) rotate(0 83.884521484375 13.488525390625)"><path d="M0.66 0.13 L168.59 -1.3 L166.08 26.46 L0.4 25.6" stroke="none" stroke-width="0" fill="#ced4da"></path><path d="M-1.89 -0.05 C49.15 0.64, 98.37 -0.56, 167.61 -0.41 M0.77 0.03 C35.11 1.17, 71.18 0.56, 167.57 0.73 M166.08 0.96 C166.91 9.25, 167.59 17.37, 165.89 26.67 M168.32 0.84 C168.9 6.91, 168.27 12.97, 166.96 27.12 M167.57 27.69 C127.77 25.17, 86.89 26.15, -1.32 26.64 M166.79 27.96 C107.46 29.2, 48.98 29.28, 0.71 27.19 M-0.71 26.78 C1.25 19.96, 0.07 10.9, 1.16 1.34 M0.99 26.65 C-0.82 18.55, -0.7 8.06, 0.26 -0.5" stroke="gray" stroke-width="1" fill="none"></path></g><g transform="translate(280.5542929292983 715.2534574486817) rotate(0 65 11.5)"><text x="0" y="18" font-family="Helvetica, Segoe UI Emoji" font-size="20px" fill="#000000" text-anchor="start" style="white-space: pre;" direction="ltr">Istio resources</text></g><g transform="translate(210.40151515152093 518.9019329965736) rotate(0 50.5 10.5)"><text x="0" y="16" font-family="Helvetica, Segoe UI Emoji" font-size="20px" fill="#000000" text-anchor="start" style="white-space: pre;" direction="ltr">Workspace</text></g><g transform="translate(170.8521772345316 97.74142436512636) rotate(0 92 10.5)"><text x="92" y="16" font-family="Helvetica, Segoe UI Emoji" font-size="20px" fill="black" text-anchor="middle" style="white-space: pre;" direction="ltr">Resource translation</text></g><g stroke-linecap="round"><g transform="translate(302.56522358372376 363.0873462946333) rotate(0 -0.08040188722361563 -81.70322548668358)"><path d="M-0.68 -0.18 C-0.87 -27.2, -0.59 -134.72, -0.54 -161.59 M1.16 -1.32 C0.78 -28.71, -0.98 -136.25, -1.32 -163.23" stroke="black" stroke-width="1" fill="none"></path></g><g transform="translate(302.56522358372376 363.0873462946333) rotate(0 -0.08040188722361563 -81.70322548668358)"><path d="M-1.34 -163.65 L4.21 -149.6 L-5.68 -148.75 L-0.4 -161.79" stroke="none" stroke-width="0" fill="black" fill-rule="evenodd"></path><path d="M-1.54 -162.84 C2.19 -157.86, 4.68 -153.35, 4.9 -151.15 M-1.81 -162.67 C0.48 -159.03, 2.9 -155.71, 5.03 -150.12 M6.24 -149.65 C1.87 -148.82, -1.97 -149.21, -8.32 -148.46 M5.41 -149.5 C-0.12 -149.56, -4.36 -149.52, -7.71 -149.1 M-8.5 -150.47 C-3.73 -153.75, -4.12 -160.47, -0.57 -163.81 M-7.39 -149.08 C-5.65 -153.56, -4.09 -157.99, -0.8 -163.19 M-1.32 -163.23 C-1.32 -163.23, -1.32 -163.23, -1.32 -163.23 M-1.32 -163.23 C-1.32 -163.23, -1.32 -163.23, -1.32 -163.23" stroke="black" stroke-width="1" fill="none"></path></g></g><g stroke-linecap="round"><g transform="translate(198.70809939587662 364.150457278652) rotate(180 0.17816916242304615 -81.99571720691776)"><path d="M0.61 0.89 C0.59 -26.29, 1.08 -135.78, 0.86 -163.01 M-0.53 0.31 C-0.72 -27.24, -0.06 -137.46, 0.31 -164.88" stroke="black" stroke-width="1" fill="none"></path></g><g transform="translate(198.70809939587662 364.150457278652) rotate(180 0.17816916242304615 -81.99571720691776)"><path d="M-1.29 -165.2 L4.98 -150.63 L-6.9 -151.97 L-0.17 -165.89" stroke="none" stroke-width="0" fill="black" fill-rule="evenodd"></path><path d="M1.43 -163.93 C3.27 -160.75, 6.33 -153.39, 7.36 -150.55 M0.36 -164.94 C2.43 -160.61, 4.99 -155.35, 6.35 -150.62 M7.19 -152.19 C2.76 -150.5, 0.2 -150.79, -6.58 -150.68 M6.97 -151.84 C3.12 -150.88, -1.28 -150.95, -6.26 -151.19 M-6.33 -152.22 C-5 -153.43, -4.66 -155.89, -0.52 -165.02 M-5.93 -151.02 C-3.24 -156.32, -1.52 -159.9, 0.16 -165.26 M0.31 -164.88 C0.31 -164.88, 0.31 -164.88, 0.31 -164.88 M0.31 -164.88 C0.31 -164.88, 0.31 -164.88, 0.31 -164.88" stroke="black" stroke-width="1" fill="none"></path></g></g><g transform="translate(10 263.1252241285958) rotate(0 64.625 17.902871621621614)"><text x="64.62499999999991" y="13.902871621621603" font-family="Helvetica, Segoe UI Emoji" font-size="17.46621621621619px" fill="#000000" text-anchor="middle" style="white-space: pre;" direction="ltr">Translated Istio</text><text x="64.62499999999991" y="31.805743243243207" font-family="Helvetica, Segoe UI Emoji" font-size="17.46621621621619px" fill="#000000" text-anchor="middle" style="white-space: pre;" direction="ltr">resources pulled</text></g><g stroke-linecap="round" transform="translate(329.6195262024371 261.9172803088058) rotate(0 19.23402727925304 12.82268485283538)"><path d="M7.3 -0.74 L31.49 -1.34 L34.92 1.19 L38.19 7.31 L38.62 17.61 L36.33 23.14 L33.86 25.47 L5.33 27 L3.44 22.97 L0.48 19.82 L-0.33 5.12 L2.37 0.1 L7.71 0.21" stroke="none" stroke-width="0" fill="black"></path><path d="M6.41 0 M6.41 0 C10.72 -1.03, 19.49 0.98, 32.06 0 M6.41 0 C13.05 0.46, 18.82 -0.27, 32.06 0 M32.06 0 C38.29 -0.98, 39.89 3.68, 38.47 6.41 M32.06 0 C38.1 -2.2, 39.94 3.58, 38.47 6.41 M38.47 6.41 C37.48 11.08, 39.34 15.06, 38.47 19.23 M38.47 6.41 C38.79 10.81, 38.3 16.15, 38.47 19.23 M38.47 19.23 C37.41 24.77, 36.89 27.6, 32.06 25.65 M38.47 19.23 C37.13 22.09, 38.62 25.21, 32.06 25.65 M32.06 25.65 C25.48 27.34, 16.53 25.16, 6.41 25.65 M32.06 25.65 C22.25 24.98, 12.69 25.31, 6.41 25.65 M6.41 25.65 C3.44 24.03, 1.42 24.52, 0 19.23 M6.41 25.65 C3.42 24.66, 0.55 22.79, 0 19.23 M0 19.23 C-1.12 13.95, -0.58 10.68, 0 6.41 M0 19.23 C-0.48 15.83, -0.1 12.59, 0 6.41 M0 6.41 C-1.61 0.78, 3.95 -1.41, 6.41 0 M0 6.41 C-0.54 1.91, -0.01 -1.2, 6.41 0" stroke="black" stroke-width="1" fill="none"></path></g><g stroke-linecap="round" transform="translate(339.8838388370382 256.89300715733356) rotate(0 8.66147702799708 3.113199928212424)"><path d="M0.82 -0.56 L15.59 -1.55 L16.52 5.56 L1.28 5.99 L-1.63 1.02 L0.65 1.8" stroke="none" stroke-width="0" fill="black"></path><path d="M1.56 0 M1.56 0 C7 -0.86, 10.17 0.32, 15.77 0 M1.56 0 C4.77 0.41, 9.12 -0.56, 15.77 0 M15.77 0 C18.44 -0.68, 15.77 -0.6, 17.32 1.56 M15.77 0 C18.35 1.02, 15.57 1.5, 17.32 1.56 M17.32 1.56 C17.64 2.76, 17.66 3.83, 17.32 4.67 M17.32 1.56 C17.2 2.81, 17.44 3.93, 17.32 4.67 M17.32 4.67 C17.42 7.08, 15.25 6.65, 15.77 6.23 M17.32 4.67 C18.87 5.45, 18.37 7.31, 15.77 6.23 M15.77 6.23 C10.3 6.82, 5.09 7.06, 1.56 6.23 M15.77 6.23 C10.67 6.85, 6.32 5.92, 1.56 6.23 M1.56 6.23 C-0.49 7.28, 0.3 7.27, 0 4.67 M1.56 6.23 C-1.52 5.51, 1.35 6.46, 0 4.67 M0 4.67 C-0.28 3.32, 0.22 2.06, 0 1.56 M0 4.67 C-0.08 3.55, -0.06 2.41, 0 1.56 M0 1.56 C1 -0.23, -1.13 -1.62, 1.56 0 M0 1.56 C-0.92 0.39, -0.51 1.34, 1.56 0" stroke="black" stroke-width="1" fill="none"></path></g><g stroke-linecap="round" transform="translate(340.99349425699575 267.9895613569028) rotate(0 7.767587939698387 6.257223618090336)"><path d="M6.71 -0.36 C8 -0.65, 9.09 0.97, 10.41 1.57 C11.72 2.18, 13.88 2.14, 14.6 3.27 C15.33 4.41, 15.14 6.9, 14.78 8.38 C14.41 9.86, 13.82 11.51, 12.4 12.15 C10.97 12.78, 7.82 12.37, 6.24 12.18 C4.65 11.99, 3.79 12.02, 2.88 11.03 C1.98 10.03, 1.21 7.77, 0.82 6.22 C0.42 4.67, -0.41 2.65, 0.52 1.72 C1.46 0.8, 5.28 0.83, 6.42 0.68 C7.57 0.54, 7.2 0.76, 7.39 0.84 M6.58 0.89 C7.95 0.42, 9.63 -0.91, 10.82 -0.51 C12.01 -0.12, 13.03 1.95, 13.74 3.29 C14.45 4.62, 15.24 6.14, 15.08 7.5 C14.92 8.85, 14.34 10.63, 12.79 11.41 C11.24 12.19, 7.59 12.36, 5.78 12.17 C3.98 11.97, 3.13 11.36, 1.97 10.25 C0.8 9.14, -1.37 6.97, -1.2 5.49 C-1.03 4.01, 1.82 2.29, 2.98 1.37 C4.15 0.46, 5.47 0.31, 5.77 0 C6.06 -0.32, 4.53 -0.58, 4.75 -0.52" stroke="none" stroke-width="0" fill="white"></path><path d="M6.41 -0.25 C7.83 -0.28, 10.41 1.35, 11.88 2.09 C13.35 2.83, 14.62 2.89, 15.21 4.2 C15.81 5.5, 16.23 8.58, 15.43 9.92 C14.63 11.25, 11.98 11.88, 10.4 12.21 C8.81 12.54, 7.31 12.25, 5.92 11.91 C4.54 11.56, 3.19 11.09, 2.09 10.14 C0.98 9.2, -0.77 7.77, -0.71 6.26 C-0.65 4.74, 0.91 2.15, 2.47 1.05 C4.03 -0.05, 7.78 -0.1, 8.64 -0.34 C9.5 -0.59, 7.66 -0.65, 7.63 -0.41 M6.23 1.48 C7.78 0.7, 9.98 0.13, 11.58 0.26 C13.19 0.38, 15.02 0.88, 15.84 2.22 C16.66 3.57, 16.81 7.1, 16.52 8.31 C16.23 9.52, 15.36 8.63, 14.1 9.49 C12.84 10.34, 10.72 13.16, 8.97 13.45 C7.22 13.74, 4.9 12.42, 3.61 11.24 C2.31 10.06, 1.58 7.53, 1.19 6.37 C0.8 5.22, 0.65 5.13, 1.24 4.31 C1.83 3.49, 3.98 1.97, 4.72 1.47 C5.45 0.97, 5.47 1.5, 5.65 1.3" stroke="white" stroke-width="1" fill="none"></path></g><g stroke-linecap="round" transform="translate(344.01422290021173 269.93145834182764) rotate(0 4.962625628140586 4.099560301507466)"><path d="M5.93 -0.41 C7.02 -0.4, 9.57 0.98, 10.17 1.75 C10.78 2.51, 9.79 3.25, 9.56 4.18 C9.33 5.1, 9.41 6.78, 8.8 7.3 C8.19 7.82, 7.11 7.21, 5.9 7.31 C4.7 7.41, 2.5 8.18, 1.59 7.91 C0.68 7.65, 0.7 6.83, 0.43 5.73 C0.17 4.63, -0.31 2.3, -0.02 1.3 C0.27 0.31, 0.88 0.05, 2.15 -0.24 C3.42 -0.54, 6.62 -0.69, 7.6 -0.47 C8.58 -0.24, 8.08 0.97, 8.03 1.1 M6.31 -0.53 C7.19 -0.77, 6.85 -0.64, 7.35 0.08 C7.85 0.8, 9.17 2.57, 9.32 3.79 C9.47 5.02, 8.83 6.87, 8.26 7.44 C7.7 8, 6.92 7.11, 5.95 7.16 C4.98 7.2, 3.39 8.15, 2.43 7.71 C1.47 7.26, 0.72 5.07, 0.18 4.5 C-0.35 3.93, -0.97 4.97, -0.8 4.27 C-0.63 3.57, 0.16 1.25, 1.2 0.31 C2.23 -0.63, 4.82 -1.48, 5.41 -1.37 C6.01 -1.27, 4.81 0.58, 4.76 0.93" stroke="none" stroke-width="0" fill="black"></path><path d="M5.8 -0.35 C6.93 -0.09, 9.22 0.64, 9.82 1.53 C10.41 2.42, 9.43 4.18, 9.38 4.98 C9.33 5.78, 10.11 5.77, 9.52 6.35 C8.93 6.93, 7.09 8.13, 5.82 8.46 C4.55 8.78, 2.78 8.95, 1.91 8.3 C1.04 7.65, 0.75 5.51, 0.61 4.56 C0.46 3.61, 0.81 3.16, 1.04 2.61 C1.27 2.07, 1.11 1.8, 1.98 1.27 C2.86 0.74, 5.51 -0.53, 6.27 -0.54 C7.03 -0.56, 6.44 1.1, 6.54 1.16 M7.05 1.48 C7.81 1.63, 8.47 2.42, 8.83 3.06 C9.18 3.7, 9.02 4.5, 9.18 5.32 C9.34 6.15, 10.63 7.38, 9.8 8.01 C8.97 8.64, 5.29 9.09, 4.2 9.12 C3.11 9.16, 3.9 8.67, 3.26 8.21 C2.61 7.75, 0.98 7.27, 0.31 6.38 C-0.37 5.49, -1.35 3.88, -0.79 2.87 C-0.23 1.86, 2.36 0.65, 3.66 0.31 C4.97 -0.04, 6.52 0.72, 7.03 0.8 C7.54 0.88, 7.04 0.92, 6.73 0.78" stroke="black" stroke-width="1" fill="none"></path></g><g stroke-linecap="round" transform="translate(359.1178661162926 265.6161317086614) rotate(0 1.5103643216079945 1.5103643216080087)"><path d="M1.1 1.01 C1.22 1.08, 2.21 0.02, 2.44 0.18 C2.68 0.34, 2.45 1.48, 2.52 1.98 C2.59 2.49, 3.11 3.1, 2.85 3.22 C2.59 3.33, 1.18 2.68, 0.94 2.68 C0.7 2.67, 1.4 3.37, 1.39 3.17 C1.38 2.97, 1.26 1.99, 0.9 1.47 C0.53 0.96, -0.67 0.18, -0.79 0.08 C-0.91 -0.02, -0.15 0.77, 0.17 0.88 C0.49 1, 0.73 0.8, 1.15 0.77 C1.56 0.75, 2.62 0.79, 2.67 0.74 M0.71 -1.22 C0.73 -1.51, 0.72 -0.64, 1.07 -0.38 C1.43 -0.12, 2.4 -0.03, 2.85 0.35 C3.31 0.73, 4.05 1.55, 3.79 1.91 C3.54 2.28, 1.74 2.4, 1.3 2.54 C0.87 2.68, 1.53 2.96, 1.17 2.78 C0.81 2.6, -0.9 1.83, -0.87 1.44 C-0.84 1.05, 1.21 0.61, 1.36 0.43 C1.51 0.25, 0.27 0.57, 0.02 0.37 C-0.23 0.17, -0.47 -0.65, -0.13 -0.77 C0.22 -0.88, 1.81 -0.24, 2.1 -0.32" stroke="none" stroke-width="0" fill="white"></path><path d="M1.11 0.9 C1.54 0.85, 2.01 -0.37, 2.43 -0.15 C2.86 0.07, 3.71 1.77, 3.68 2.22 C3.65 2.67, 2.49 2.49, 2.25 2.55 C2.02 2.61, 2.36 2.46, 2.26 2.58 C2.17 2.71, 2.17 3.25, 1.7 3.29 C1.23 3.34, -0.32 3.34, -0.58 2.87 C-0.84 2.4, -0.19 0.96, 0.14 0.48 C0.47 0, 1.25 0.14, 1.4 -0.02 C1.55 -0.19, 0.83 -0.63, 1.05 -0.53 C1.28 -0.42, 2.75 0.4, 2.74 0.59 M3.55 0.09 C3.86 -0.09, 4.28 -0.35, 4.36 0.15 C4.43 0.64, 4.17 2.88, 4.03 3.08 C3.89 3.27, 3.8 1.17, 3.52 1.32 C3.24 1.47, 2.73 3.73, 2.33 3.95 C1.92 4.17, 1.29 3.22, 1.08 2.64 C0.86 2.06, 1.11 0.63, 1.03 0.47 C0.95 0.3, 0.61 1.54, 0.6 1.64 C0.59 1.74, 0.59 1.19, 0.97 1.07 C1.35 0.94, 2.57 1.16, 2.87 0.88 C3.16 0.61, 2.97 -0.58, 2.75 -0.56" stroke="white" stroke-width="1" fill="none"></path></g><g transform="translate(373.77315147164063 252.60282858590512) rotate(0 68.48863636363626 18.37499999999997)"><text x="68.4886363636363" y="14.374999999999982" font-family="Helvetica, Segoe UI Emoji" font-size="17.8181818181818px" fill="black" text-anchor="middle" style="white-space: pre;" direction="ltr">Resource</text><text x="68.4886363636363" y="32.749999999999964" font-family="Helvetica, Segoe UI Emoji" font-size="17.8181818181818px" fill="black" text-anchor="middle" style="white-space: pre;" direction="ltr">snapshot pushed</text></g><g stroke-linecap="round"><g transform="translate(213.66396762114255 286.2814722870575) rotate(0 -46.57323386497319 5.115918762105082)"><path d="M-25.49 0.25 C-27.89 2, -34.8 8.76, -40.72 10.58 C-46.64 12.4, -56.51 12.96, -60.99 11.16 C-65.48 9.36, -66.75 1.84, -67.62 -0.23 M-26.82 -0.6 C-29.28 1.28, -35.52 10.06, -41.37 11.73 C-47.22 13.39, -57.54 11.7, -61.92 9.39 C-66.3 7.07, -66.76 -0.46, -67.66 -2.16" stroke="#0dce93" stroke-width="1" fill="none"></path></g><g transform="translate(213.66396762114255 286.2814722870575) rotate(0 -46.57323386497319 5.115918762105082)"><path d="M-63.58 3.47 C-65.18 1.66, -65.14 0.21, -67.01 -1.7 M-63.88 3.25 C-64.94 1.71, -66.28 -0.18, -67.83 -2.23" stroke="#0dce93" stroke-width="1" fill="none"></path></g><g transform="translate(213.66396762114255 286.2814722870575) rotate(0 -46.57323386497319 5.115918762105082)"><path d="M-67.91 4.71 C-68.42 2.59, -67.3 0.82, -67.01 -1.7 M-68.21 4.5 C-67.92 2.52, -67.91 0.24, -67.83 -2.23" stroke="#0dce93" stroke-width="1" fill="none"></path></g></g><g stroke-linecap="round"><g transform="translate(317.7311859277834 579.0949787006782) rotate(68.91276984127826 117.72609378309471 16.66551294961306)"><path d="M-0.95 -0.42 C8.4 -5.27, 28.22 -29.87, 57.04 -29.11 C85.87 -28.34, 142.22 -11.35, 172.01 4.19 C201.79 19.73, 225.33 54.35, 235.76 64.15 M0.75 -1.69 C9.92 -6.87, 28.06 -31.95, 56.45 -30.82 C84.83 -29.68, 141.06 -10.36, 171.05 5.1 C201.04 20.57, 225.48 52.32, 236.4 61.99" stroke="#000000" stroke-width="1" fill="none"></path></g><g transform="translate(317.7311859277834 579.0949787006782) rotate(68.91276984127826 117.72609378309471 16.66551294961306)"><path d="M234.97 63.54 L223.9 56.63 L231.05 46.75 L234.82 62.88" stroke="none" stroke-width="0" fill="#000000" fill-rule="evenodd"></path><path d="M235.88 62.83 C232.05 59.4, 224.78 58.76, 223.32 56.14 M236.54 62.02 C233.22 60.34, 228.87 58.61, 221.89 57.2 M223.29 56.26 C226.25 53.81, 228.8 50.36, 230.4 47.06 M221.84 57.26 C225.62 53.63, 228.81 50.12, 231.66 47.74 M231.09 49.16 C233.15 52.2, 234.22 58.56, 237.49 60.66 M231.94 48.07 C233.84 53.59, 235.36 59.06, 235.88 62.68 M236.4 61.99 C236.4 61.99, 236.4 61.99, 236.4 61.99 M236.4 61.99 C236.4 61.99, 236.4 61.99, 236.4 61.99" stroke="#000000" stroke-width="1" fill="none"></path></g></g><g stroke-linecap="round"><g transform="translate(300.00873424960355 439.6219880337223) rotate(256.6737083583589 -6.469665440553854 25.183785140601685)"><path d="M-0.66 -0.54 C-2.61 12.13, -5.64 27.15, -11.9 49.58 M-1 -0.01 C-2.22 12.29, -5.87 23.67, -12.28 50.91" stroke="black" stroke-width="1" fill="none"></path></g><g transform="translate(300.00873424960355 439.6219880337223) rotate(256.6737083583589 -6.469665440553854 25.183785140601685)"><path d="M-10.54 51.49 L-13.36 37.07 L-2.06 39.89 L-13.96 52.02" stroke="none" stroke-width="0" fill="black" fill-rule="evenodd"></path><path d="M-12.77 50.5 C-12.45 46.81, -13.23 44.83, -15.18 34.74 M-13.02 50.9 C-12.36 47.51, -13.68 43.39, -15.46 35.74 M-16.35 36.1 C-11.93 36.33, -5.87 37.86, -2.33 39.69 M-14.9 36.31 C-11.93 36.73, -8.3 37.99, -3.11 39.65 M-3.9 38.4 C-5.06 42.8, -9.9 45.55, -13.62 50.92 M-2.64 38.84 C-6.65 44.2, -9.98 47.85, -12.96 50.24 M-12.28 50.91 C-12.28 50.91, -12.28 50.91, -12.28 50.91 M-12.28 50.91 C-12.28 50.91, -12.28 50.91, -12.28 50.91" stroke="black" stroke-width="1" fill="none"></path></g></g><g stroke-linecap="round"><g transform="translate(146.85112841526734 279.0397221377098) rotate(0 18.291987043612835 -6.888378572957407)"><path d="M1.05 -0.11 C2.26 -1.84, 2.61 -9.25, 7 -11.36 C11.39 -13.47, 22.51 -14.45, 27.38 -12.78 C32.25 -11.1, 34.9 -3.18, 36.2 -1.3 M0.15 -1.22 C1.76 -3.17, 4.78 -11.17, 9.29 -12.89 C13.8 -14.62, 22.68 -13.13, 27.2 -11.58 C31.72 -10.03, 34.84 -5.35, 36.44 -3.58" stroke="#0dce93" stroke-width="1" fill="none"></path></g><g transform="translate(146.85112841526734 279.0397221377098) rotate(0 18.291987043612835 -6.888378572957407)"><path d="M30.05 -7.75 C32.53 -5.61, 33.48 -5.27, 36.76 -4.23 M30.3 -7.34 C32.1 -5.78, 33.93 -5.05, 36.46 -3.27" stroke="#0dce93" stroke-width="1" fill="none"></path></g><g transform="translate(146.85112841526734 279.0397221377098) rotate(0 18.291987043612835 -6.888378572957407)"><path d="M33.89 -10.95 C35.27 -7.88, 35.15 -6.65, 36.76 -4.23 M34.14 -10.54 C34.67 -7.97, 35.25 -6.2, 36.46 -3.27" stroke="#0dce93" stroke-width="1" fill="none"></path></g></g></svg>