<svg version="1.1" xmlns="http://www.w3.org/2000/svg" viewBox="0 0 570.6798591534134 789.8659656133684" width="570.6798591534134" height="789.8659656133684">
  <!-- svg-source:excalidraw -->
  
  <defs>
    <style>
      @font-face {
        font-family: "Virgil";
        src: url("https://excalidraw.com/Virgil.woff2");
      }
      @font-face {
        font-family: "Cascadia";
        src: url("https://excalidraw.com/Cascadia.woff2");
      }
    </style>
  </defs>
  <rect x="0" y="0" width="570.6798591534134" height="789.8659656133684" fill="#ffffff"></rect><g stroke-opacity="0.1" fill-opacity="0.1" stroke-linecap="round" transform="translate(142.7295217069584 389.71425390709777) rotate(0 186.31630452473973 183.0531056722005)"><path d="M-0.65 1.26 L374.54 -0.87 L370.99 368.04 L0.16 367.25" stroke="none" stroke-width="0" fill="#62a1d6"></path><path d="M-0.65 -0.98 C143.31 -0.93, 286.48 -0.58, 371.94 -0.3 M-0.56 0.36 C82.01 0.42, 164.62 1.4, 373.19 0.11 M372.48 0.41 C374.15 110.65, 373.21 224.59, 372.06 366.32 M372.49 -0.13 C372.7 103.34, 373.42 206.45, 372.97 366.37 M373.03 366.51 C250.49 367.3, 128.88 367.02, 0.09 367.18 M373.1 365.61 C247.51 367.26, 121.34 367.05, -0.39 365.85 M0.16 365.75 C1.21 261.93, 0.77 157.8, 0.27 -0.09 M0.41 366.68 C-0.31 238.69, -0.61 111.72, 0.03 -0.11" stroke="#62a1d6" stroke-width="1" fill="none"></path></g><g stroke-linecap="round"><g transform="translate(137.25736916548317 410.686470070896) rotate(0 75.0406487433811 -72.23216873863203)"><path d="M1.64 -0.22 C45.61 -46.86, 92.18 -90.6, 150.53 -145.32 M-0.73 0.86 C53.6 -51.46, 107.99 -103.88, 150.81 -145.22" stroke="black" stroke-width="1" fill="none"></path></g><g transform="translate(137.25736916548317 410.686470070896) rotate(0 75.0406487433811 -72.23216873863203)"><path d="M151.39 -144.61 L146.38 -132.65 L135.45 -139.14 L150.58 -143.49" stroke="none" stroke-width="0" fill="black" fill-rule="evenodd"></path><path d="M152.2 -145.41 C147.84 -141.76, 145.99 -136.44, 145.17 -131.71 M150.19 -144.5 C149.05 -139.74, 146.78 -134.55, 145.4 -131.63 M144.46 -132.45 C141.99 -135.17, 137.63 -138.53, 136.59 -140.14 M145.75 -131.07 C143.62 -133.71, 141.39 -136.02, 136.11 -140.03 M137.47 -139.23 C142.47 -141.34, 145.43 -143.48, 150.18 -145.1 M136.28 -140.99 C141.16 -141.31, 144.37 -143.24, 151 -144.76 M150.81 -145.22 C150.81 -145.22, 150.81 -145.22, 150.81 -145.22 M150.81 -145.22 C150.81 -145.22, 150.81 -145.22, 150.81 -145.22" stroke="black" stroke-width="1" fill="none"></path></g></g><g stroke-linecap="round" transform="translate(189.19735984907516 439.4930989107356) rotate(0 135 69.2239685058594)"><path d="M-0.77 -0.58 L271.99 -0.97 L268.94 138.49 L1.18 140.3" stroke="none" stroke-width="0" fill="white"></path><path d="M1.16 -0.64 C64.98 0.8, 127.59 0.53, 268.64 -0.17 M-0.13 0.26 C60.46 -0.33, 121.4 -0.7, 270.68 0.36 M270.48 0.49 C269.13 40.84, 267.91 85.49, 271.82 138.8 M270.93 0.01 C271.31 49.79, 270.17 98.87, 269.23 137.55 M268.52 138.78 C174.55 141.01, 80.41 139.47, 1.51 137.97 M269.97 139.03 C170.93 137.22, 72.8 136.01, -0.42 139.09 M1.45 138.33 C-1.4 101.3, -1.65 64.68, -1.16 0.76 M0.01 137.63 C-0.7 105, 0.38 72.36, 0.59 0.73" stroke="gray" stroke-width="1" fill="none"></path></g><g stroke-linecap="round" transform="translate(189.68783836470016 437.2849079927669) rotate(0 134.509521484375 14.113525390625)"><path d="M6.24 1.83 L262.79 0.62 L265.54 -1.29 L268.37 2.49 L269.67 21.35 L266.93 27.12 L260.47 27.88 L5.29 26.94 L3.5 27.39 L0.05 19.7 L-0.77 4.45 L4.45 0.59 L6.02 -1.07" stroke="none" stroke-width="0" fill="#ced4da"></path><path d="M7.06 0 M7.06 0 C106.55 0.28, 204.21 1.14, 261.96 0 M7.06 0 C83.58 -0.83, 160.11 -1.91, 261.96 0 M261.96 0 C267.63 1.08, 270.15 0.46, 269.02 7.06 M261.96 0 C267.16 -2.1, 271.03 0.08, 269.02 7.06 M269.02 7.06 C270.08 12.54, 267.96 15.16, 269.02 21.17 M269.02 7.06 C268.95 11.76, 268.56 18.22, 269.02 21.17 M269.02 21.17 C268.28 27.61, 266.32 29.68, 261.96 28.23 M269.02 21.17 C268.88 25.65, 265.81 27.71, 261.96 28.23 M261.96 28.23 C196.85 29.55, 133.07 29.03, 7.06 28.23 M261.96 28.23 C207.13 28.69, 151.42 28.71, 7.06 28.23 M7.06 28.23 C1.58 27.65, 1.99 24.91, 0 21.17 M7.06 28.23 C1.13 28.28, 1.35 28, 0 21.17 M0 21.17 C1 15.62, 0.49 13.86, 0 7.06 M0 21.17 C-0.22 17.19, 0.68 13.96, 0 7.06 M0 7.06 C-0.23 1.12, 1.13 -1.3, 7.06 0 M0 7.06 C1.22 1.02, 3.43 2.13, 7.06 0" stroke="gray" stroke-width="1" fill="none"></path></g><g stroke-linecap="round" transform="translate(203.9643833247144 223.7950949313215) rotate(0 92.09090909090924 20.235931396484375)"><path d="M8.54 1.84 L177.13 0.28 L183.56 4.2 L185.42 33.1 L182.09 39.75 L174.52 41.34 L4.48 38.8 L0.73 36.22 L0.38 12.12 L1.21 3.51 L10.79 -0.23" stroke="none" stroke-width="0" fill="white"></path><path d="M10.12 0 M10.12 0 C47.24 0.08, 79.21 -2.85, 174.06 0 M10.12 0 C51.63 -1.68, 91.09 0.22, 174.06 0 M174.06 0 C179.96 -0.41, 183.19 4.19, 184.18 10.12 M174.06 0 C182.86 0.19, 185.8 2.63, 184.18 10.12 M184.18 10.12 C182.53 16.6, 182.85 28.04, 184.18 30.35 M184.18 10.12 C183.62 17.59, 183.48 24.1, 184.18 30.35 M184.18 30.35 C184.12 37.99, 179.48 39.58, 174.06 40.47 M184.18 30.35 C185.5 36.43, 181.01 39.56, 174.06 40.47 M174.06 40.47 C136.17 41.67, 97.93 41.56, 10.12 40.47 M174.06 40.47 C128.46 41.53, 81.81 41.13, 10.12 40.47 M10.12 40.47 C2.82 40.95, -0.17 37.68, 0 30.35 M10.12 40.47 C5.19 40.64, -1.14 36.66, 0 30.35 M0 30.35 C-0.64 22.43, -0.85 19.37, 0 10.12 M0 30.35 C0.11 24.76, -0.39 21.16, 0 10.12 M0 10.12 C1 5.23, 2.29 1.72, 10.12 0 M0 10.12 C1.71 4.43, 2.39 -1.9, 10.12 0" stroke="#0eb1e4" stroke-width="1" fill="none"></path></g><g stroke-linecap="round" transform="translate(206.10645952209097 244.77684973018836) rotate(306.4434673675469 4.050635566407891 1.2264198784974383)"><path d="M6.65 0.29 C7.32 0.46, 7.89 0.75, 8.04 1.01 C8.19 1.27, 7.99 1.61, 7.56 1.84 C7.12 2.07, 6.25 2.29, 5.44 2.38 C4.62 2.47, 3.48 2.47, 2.67 2.38 C1.85 2.29, 0.98 2.07, 0.54 1.84 C0.11 1.61, -0.09 1.27, 0.06 1.01 C0.21 0.75, 0.78 0.46, 1.45 0.29 C2.11 0.12, 3.18 0, 4.05 0 C4.92 0, 5.99 0.12, 6.65 0.29" stroke="none" stroke-width="0" fill="#0eb1e4"></path><path d="M6.65 0.29 C7.32 0.46, 7.89 0.75, 8.04 1.01 C8.19 1.27, 7.99 1.61, 7.56 1.84 C7.12 2.07, 6.25 2.29, 5.44 2.38 C4.62 2.47, 3.48 2.47, 2.67 2.38 C1.85 2.29, 0.98 2.07, 0.54 1.84 C0.11 1.61, -0.09 1.27, 0.06 1.01 C0.21 0.75, 0.78 0.46, 1.45 0.29 C2.11 0.12, 3.18 0, 4.05 0 C4.92 0, 5.99 0.12, 6.65 0.29" stroke="#0eb1e4" stroke-width="1" fill="none"></path></g><g stroke-linecap="round" transform="translate(223.8402709901793 244.72722677641354) rotate(44.97704373639855 4.050635566407891 1.2264198784974383)"><path d="M6.65 0.29 C7.32 0.46, 7.89 0.75, 8.04 1.01 C8.19 1.27, 7.99 1.61, 7.56 1.84 C7.12 2.07, 6.25 2.29, 5.44 2.38 C4.62 2.47, 3.48 2.47, 2.67 2.38 C1.85 2.29, 0.98 2.07, 0.54 1.84 C0.11 1.61, -0.09 1.27, 0.06 1.01 C0.21 0.75, 0.78 0.46, 1.45 0.29 C2.11 0.12, 3.18 0, 4.05 0 C4.92 0, 5.99 0.12, 6.65 0.29" stroke="none" stroke-width="0" fill="#0eb1e4"></path><path d="M6.65 0.29 C7.32 0.46, 7.89 0.75, 8.04 1.01 C8.19 1.27, 7.99 1.61, 7.56 1.84 C7.12 2.07, 6.25 2.29, 5.44 2.38 C4.62 2.47, 3.48 2.47, 2.67 2.38 C1.85 2.29, 0.98 2.07, 0.54 1.84 C0.11 1.61, -0.09 1.27, 0.06 1.01 C0.21 0.75, 0.78 0.46, 1.45 0.29 C2.11 0.12, 3.18 0, 4.05 0 C4.92 0, 5.99 0.12, 6.65 0.29" stroke="#0eb1e4" stroke-width="1" fill="none"></path></g><g stroke-linecap="round" transform="translate(220.14559256905613 244.16914578782212) rotate(14.251129668680113 2.7943088897583266 4.843307372279895)"><path d="M4.59 1.13 C5.05 1.8, 5.44 2.98, 5.55 4 C5.65 5.02, 5.51 6.37, 5.21 7.26 C4.91 8.16, 4.31 9.04, 3.75 9.39 C3.19 9.75, 2.4 9.75, 1.84 9.39 C1.28 9.04, 0.67 8.16, 0.37 7.26 C0.08 6.37, -0.06 5.02, 0.04 4 C0.15 2.98, 0.54 1.8, 1 1.13 C1.46 0.47, 2.2 0, 2.79 0 C3.39 0, 4.13 0.47, 4.59 1.13" stroke="none" stroke-width="0" fill="#0eb1e4"></path><path d="M4.59 1.13 C5.05 1.8, 5.44 2.98, 5.55 4 C5.65 5.02, 5.51 6.37, 5.21 7.26 C4.91 8.16, 4.31 9.04, 3.75 9.39 C3.19 9.75, 2.4 9.75, 1.84 9.39 C1.28 9.04, 0.67 8.16, 0.37 7.26 C0.08 6.37, -0.06 5.02, 0.04 4 C0.15 2.98, 0.54 1.8, 1 1.13 C1.46 0.47, 2.2 0, 2.79 0 C3.39 0, 4.13 0.47, 4.59 1.13" stroke="#0eb1e4" stroke-width="1" fill="none"></path></g><g stroke-linecap="round" transform="translate(211.97995706460733 245.93984105302366) rotate(334.0400495723031 2.3970660900138228 4.154776126633038)"><path d="M3.94 0.97 C4.33 1.54, 4.67 2.56, 4.76 3.43 C4.85 4.31, 4.73 5.46, 4.47 6.23 C4.22 7, 3.7 7.75, 3.22 8.06 C2.73 8.36, 2.06 8.36, 1.58 8.06 C1.09 7.75, 0.58 7, 0.32 6.23 C0.06 5.46, -0.05 4.31, 0.04 3.43 C0.13 2.56, 0.46 1.54, 0.86 0.97 C1.25 0.4, 1.88 0, 2.4 0 C2.91 0, 3.54 0.4, 3.94 0.97" stroke="none" stroke-width="0" fill="#0eb1e4"></path><path d="M3.94 0.97 C4.33 1.54, 4.67 2.56, 4.76 3.43 C4.85 4.31, 4.73 5.46, 4.47 6.23 C4.22 7, 3.7 7.75, 3.22 8.06 C2.73 8.36, 2.06 8.36, 1.58 8.06 C1.09 7.75, 0.58 7, 0.32 6.23 C0.06 5.46, -0.05 4.31, 0.04 3.43 C0.13 2.56, 0.46 1.54, 0.86 0.97 C1.25 0.4, 1.88 0, 2.4 0 C2.91 0, 3.54 0.4, 3.94 0.97" stroke="#0eb1e4" stroke-width="1" fill="none"></path></g><g stroke-linecap="round" transform="translate(210.40635720890577 236.97421639752133) rotate(0 8.089678925954104 7.971936920424497)"><path d="M13.29 1.87 C14.62 2.96, 15.76 4.91, 16.06 6.59 C16.36 8.27, 15.96 10.48, 15.1 11.96 C14.23 13.44, 12.49 14.88, 10.86 15.46 C9.23 16.05, 6.95 16.05, 5.32 15.46 C3.69 14.88, 1.95 13.44, 1.08 11.96 C0.22 10.48, -0.18 8.27, 0.12 6.59 C0.42 4.91, 1.56 2.96, 2.89 1.87 C4.22 0.77, 6.36 0, 8.09 0 C9.82 0, 11.96 0.77, 13.29 1.87" stroke="none" stroke-width="0" fill="#0eb1e4"></path><path d="M13.29 1.87 C14.62 2.96, 15.76 4.91, 16.06 6.59 C16.36 8.27, 15.96 10.48, 15.1 11.96 C14.23 13.44, 12.49 14.88, 10.86 15.46 C9.23 16.05, 6.95 16.05, 5.32 15.46 C3.69 14.88, 1.95 13.44, 1.08 11.96 C0.22 10.48, -0.18 8.27, 0.12 6.59 C0.42 4.91, 1.56 2.96, 2.89 1.87 C4.22 0.77, 6.36 0, 8.09 0 C9.82 0, 11.96 0.77, 13.29 1.87" stroke="#0eb1e4" stroke-width="1" fill="none"></path></g><g stroke-linecap="round" transform="translate(212.63688771554234 233.39119581728824) rotate(310.82721671153615 0.5360109848503498 3.39455325459798)"><path d="M0.27 0 L1.07 0.27 L0.8 6.79 L0 6.52 L0.27 0" stroke="none" stroke-width="0" fill="#0eb1e4"></path><path d="M0.27 0 M0.27 0 C0.44 0, 0.61 0, 0.8 0 M0.27 0 C0.41 0, 0.55 0, 0.8 0 M0.8 0 C0.98 0, 1.07 0.09, 1.07 0.27 M0.8 0 C0.98 0, 1.07 0.09, 1.07 0.27 M1.07 0.27 C1.07 1.83, 1.07 3.4, 1.07 6.52 M1.07 0.27 C1.07 2.65, 1.07 5.04, 1.07 6.52 M1.07 6.52 C1.07 6.7, 0.98 6.79, 0.8 6.79 M1.07 6.52 C1.07 6.7, 0.98 6.79, 0.8 6.79 M0.8 6.79 C0.68 6.79, 0.55 6.79, 0.27 6.79 M0.8 6.79 C0.65 6.79, 0.51 6.79, 0.27 6.79 M0.27 6.79 C0.09 6.79, 0 6.7, 0 6.52 M0.27 6.79 C0.09 6.79, 0 6.7, 0 6.52 M0 6.52 C0 4.7, 0 2.87, 0 0.27 M0 6.52 C0 4.25, 0 1.98, 0 0.27 M0 0.27 C0 0.09, 0.09 0, 0.27 0 M0 0.27 C0 0.09, 0.09 0, 0.27 0" stroke="#0eb1e4" stroke-width="1" fill="none"></path></g><g stroke-linecap="round" transform="translate(207.05955257088317 231.75990921228254) rotate(0 2.270262498924467 2.455302606404871)"><path d="M3.73 0.57 C4.1 0.91, 4.42 1.51, 4.51 2.03 C4.59 2.55, 4.48 3.23, 4.24 3.68 C3.99 4.14, 3.5 4.58, 3.05 4.76 C2.59 4.94, 1.95 4.94, 1.49 4.76 C1.04 4.58, 0.55 4.14, 0.3 3.68 C0.06 3.23, -0.05 2.55, 0.03 2.03 C0.12 1.51, 0.44 0.91, 0.81 0.57 C1.18 0.24, 1.78 0, 2.27 0 C2.76 0, 3.36 0.24, 3.73 0.57" stroke="none" stroke-width="0" fill="#0eb1e4"></path><path d="M3.73 0.57 C4.1 0.91, 4.42 1.51, 4.51 2.03 C4.59 2.55, 4.48 3.23, 4.24 3.68 C3.99 4.14, 3.5 4.58, 3.05 4.76 C2.59 4.94, 1.95 4.94, 1.49 4.76 C1.04 4.58, 0.55 4.14, 0.3 3.68 C0.06 3.23, -0.05 2.55, 0.03 2.03 C0.12 1.51, 0.44 0.91, 0.81 0.57 C1.18 0.24, 1.78 0, 2.27 0 C2.76 0, 3.36 0.24, 3.73 0.57" stroke="#0eb1e4" stroke-width="1" fill="none"></path></g><g transform="translate(233.5986606684644 233.77840181608713) rotate(0 75.5 10.5)"><text x="75.5" y="16" font-family="Helvetica, Segoe UI Emoji" font-size="20px" fill="black" text-anchor="middle" style="white-space: pre;" direction="ltr">gloo-mesh-agent</text></g><g stroke-linecap="round"><g transform="translate(294.1690724659129 220.1611207319354) rotate(0 -0.19403706705668355 -52.1711415152473)"><path d="M-1.03 -0.47 C-1.05 -17.51, 0.07 -85.06, 0.27 -102.36 M0.64 -1.76 C0.49 -19.09, -0.11 -86.94, -0.26 -103.87" stroke="black" stroke-width="1" fill="none"></path></g><g transform="translate(294.1690724659129 220.1611207319354) rotate(0 -0.19403706705668355 -52.1711415152473)"><path d="M-1.12 -105.52 L6.28 -89.52 L-4.58 -88.78 L-1.08 -105.87" stroke="none" stroke-width="0" fill="black" fill-rule="evenodd"></path><path d="M-0.84 -102.86 C3.34 -98.41, 3.1 -96.09, 5.43 -88.98 M-0.7 -103.15 C1.76 -99.29, 3.94 -94.14, 6.87 -90.27 M7.23 -89.56 C0.35 -91.16, -4.14 -88.97, -6.01 -90.06 M5.74 -90.12 C3.56 -89.95, 0.55 -90.49, -6.12 -90.41 M-6.81 -89.63 C-4.81 -93.98, -3.46 -98.28, -0.53 -104.18 M-6.33 -90.67 C-4.42 -95.18, -1.94 -100.28, 0.34 -103.82 M-0.26 -103.87 C-0.26 -103.87, -0.26 -103.87, -0.26 -103.87 M-0.26 -103.87 C-0.26 -103.87, -0.26 -103.87, -0.26 -103.87" stroke="black" stroke-width="1" fill="none"></path></g></g><g transform="translate(341.9766682787854 10) rotate(0 94.95488721804463 12.357142857142804)"><text x="94.95488721804468" y="19.714285714285616" font-family="Helvetica, Segoe UI Emoji" font-size="20.81203007518787px" fill="black" text-anchor="middle" style="white-space: pre;" direction="ltr">Management cluster</text></g><g stroke-linecap="round" transform="translate(165.7030794805646 66.59455632097189) rotate(0 126.03607503607509 22.877092428892624)"><path d="M13.22 0.17 L244.72 -0.47 L251.16 4.49 L252.58 4.62 L250.34 35.5 L251.05 43.64 L240.89 43.88 L7.58 46.87 L1.4 43.57 L0.65 40.21 L-1.33 10.54 L4 2.27 L11.61 -0.79" stroke="none" stroke-width="0" fill="white"></path><path d="M11.44 0 M11.44 0 C63.48 -0.31, 115.24 -0.4, 240.63 0 M11.44 0 C76.58 -1.67, 140.84 -2.01, 240.63 0 M240.63 0 C247.71 0.48, 251.91 4.4, 252.07 11.44 M240.63 0 C250.08 0.17, 250.93 3.38, 252.07 11.44 M252.07 11.44 C251.7 17.09, 251.49 27.61, 252.07 34.32 M252.07 11.44 C252.41 15.64, 251.92 21.84, 252.07 34.32 M252.07 34.32 C253.08 43.8, 247.18 47.47, 240.63 45.75 M252.07 34.32 C253.78 43, 247.27 43.86, 240.63 45.75 M240.63 45.75 C172.15 46.91, 99.51 46.9, 11.44 45.75 M240.63 45.75 C179.92 45.99, 118.84 45.49, 11.44 45.75 M11.44 45.75 C3.93 46.75, -1.84 41.76, 0 34.32 M11.44 45.75 C2.31 47.49, -1.28 40.53, 0 34.32 M0 34.32 C-0.42 25.35, 0.09 18.57, 0 11.44 M0 34.32 C-0.38 29.46, 0.35 22.32, 0 11.44 M0 11.44 C-1.63 2.31, 3.32 1.2, 11.44 0 M0 11.44 C0.41 2.75, 3.25 2.3, 11.44 0" stroke="#e98d5e" stroke-width="1" fill="none"></path></g><g stroke-linecap="round" transform="translate(173.2835834336163 88.84034098622442) rotate(306.4434673675469 3.9783847055120987 1.2045443257382686)"><path d="M6.54 0.28 C7.19 0.45, 7.75 0.74, 7.9 1 C8.04 1.25, 7.85 1.58, 7.42 1.81 C7 2.03, 6.14 2.25, 5.34 2.34 C4.54 2.42, 3.42 2.42, 2.62 2.34 C1.82 2.25, 0.96 2.03, 0.53 1.81 C0.11 1.58, -0.09 1.25, 0.06 1 C0.21 0.74, 0.77 0.45, 1.42 0.28 C2.07 0.12, 3.13 0, 3.98 0 C4.83 0, 5.88 0.12, 6.54 0.28" stroke="none" stroke-width="0" fill="#0eb1e4"></path><path d="M6.54 0.28 C7.19 0.45, 7.75 0.74, 7.9 1 C8.04 1.25, 7.85 1.58, 7.42 1.81 C7 2.03, 6.14 2.25, 5.34 2.34 C4.54 2.42, 3.42 2.42, 2.62 2.34 C1.82 2.25, 0.96 2.03, 0.53 1.81 C0.11 1.58, -0.09 1.25, 0.06 1 C0.21 0.74, 0.77 0.45, 1.42 0.28 C2.07 0.12, 3.13 0, 3.98 0 C4.83 0, 5.88 0.12, 6.54 0.28" stroke="#0eb1e4" stroke-width="1" fill="none"></path></g><g stroke-linecap="round" transform="translate(190.70107833248335 88.79160315308582) rotate(44.97704373639855 3.9783847055120987 1.2045443257382686)"><path d="M6.54 0.28 C7.19 0.45, 7.75 0.74, 7.9 1 C8.04 1.25, 7.85 1.58, 7.42 1.81 C7 2.03, 6.14 2.25, 5.34 2.34 C4.54 2.42, 3.42 2.42, 2.62 2.34 C1.82 2.25, 0.96 2.03, 0.53 1.81 C0.11 1.58, -0.09 1.25, 0.06 1 C0.21 0.74, 0.77 0.45, 1.42 0.28 C2.07 0.12, 3.13 0, 3.98 0 C4.83 0, 5.88 0.12, 6.54 0.28" stroke="none" stroke-width="0" fill="#0eb1e4"></path><path d="M6.54 0.28 C7.19 0.45, 7.75 0.74, 7.9 1 C8.04 1.25, 7.85 1.58, 7.42 1.81 C7 2.03, 6.14 2.25, 5.34 2.34 C4.54 2.42, 3.42 2.42, 2.62 2.34 C1.82 2.25, 0.96 2.03, 0.53 1.81 C0.11 1.58, -0.09 1.25, 0.06 1 C0.21 0.74, 0.77 0.45, 1.42 0.28 C2.07 0.12, 3.13 0, 3.98 0 C4.83 0, 5.88 0.12, 6.54 0.28" stroke="#0eb1e4" stroke-width="1" fill="none"></path></g><g stroke-linecap="round" transform="translate(187.0723015932765 88.24347661021375) rotate(14.251129668680113 2.7444670267756237 4.756917688119756)"><path d="M4.51 1.11 C4.96 1.77, 5.35 2.93, 5.45 3.93 C5.55 4.93, 5.42 6.25, 5.12 7.14 C4.83 8.02, 4.24 8.88, 3.68 9.23 C3.13 9.58, 2.36 9.58, 1.81 9.23 C1.25 8.88, 0.66 8.02, 0.37 7.14 C0.07 6.25, -0.06 4.93, 0.04 3.93 C0.14 2.93, 0.53 1.77, 0.98 1.11 C1.43 0.46, 2.16 0, 2.74 0 C3.33 0, 4.06 0.46, 4.51 1.11" stroke="none" stroke-width="0" fill="#0eb1e4"></path><path d="M4.51 1.11 C4.96 1.77, 5.35 2.93, 5.45 3.93 C5.55 4.93, 5.42 6.25, 5.12 7.14 C4.83 8.02, 4.24 8.88, 3.68 9.23 C3.13 9.58, 2.36 9.58, 1.81 9.23 C1.25 8.88, 0.66 8.02, 0.37 7.14 C0.07 6.25, -0.06 4.93, 0.04 3.93 C0.14 2.93, 0.53 1.77, 0.98 1.11 C1.43 0.46, 2.16 0, 2.74 0 C3.33 0, 4.06 0.46, 4.51 1.11" stroke="#0eb1e4" stroke-width="1" fill="none"></path></g><g stroke-linecap="round" transform="translate(179.05231587274125 89.98258812634776) rotate(334.0400495723031 2.354309814908902 4.0806677189382725)"><path d="M3.87 0.95 C4.25 1.52, 4.59 2.51, 4.67 3.37 C4.76 4.23, 4.65 5.36, 4.39 6.12 C4.14 6.88, 3.63 7.62, 3.16 7.92 C2.69 8.21, 2.02 8.21, 1.55 7.92 C1.08 7.62, 0.57 6.88, 0.32 6.12 C0.06 5.36, -0.05 4.23, 0.04 3.37 C0.12 2.51, 0.45 1.52, 0.84 0.95 C1.23 0.39, 1.85 0, 2.35 0 C2.86 0, 3.48 0.39, 3.87 0.95" stroke="none" stroke-width="0" fill="#0eb1e4"></path><path d="M3.87 0.95 C4.25 1.52, 4.59 2.51, 4.67 3.37 C4.76 4.23, 4.65 5.36, 4.39 6.12 C4.14 6.88, 3.63 7.62, 3.16 7.92 C2.69 8.21, 2.02 8.21, 1.55 7.92 C1.08 7.62, 0.57 6.88, 0.32 6.12 C0.06 5.36, -0.05 4.23, 0.04 3.37 C0.12 2.51, 0.45 1.52, 0.84 0.95 C1.23 0.39, 1.85 0, 2.35 0 C2.86 0, 3.48 0.39, 3.87 0.95" stroke="#0eb1e4" stroke-width="1" fill="none"></path></g><g stroke-linecap="round" transform="translate(177.50678419113615 81.17688259692113) rotate(0 7.9453839734243275 7.829742122580015)"><path d="M13.05 1.83 C14.36 2.91, 15.47 4.82, 15.77 6.47 C16.07 8.12, 15.68 10.29, 14.83 11.74 C13.98 13.2, 12.26 14.61, 10.66 15.19 C9.06 15.76, 6.83 15.76, 5.23 15.19 C3.63 14.61, 1.92 13.2, 1.06 11.74 C0.21 10.29, -0.17 8.12, 0.12 6.47 C0.42 4.82, 1.53 2.91, 2.84 1.83 C4.14 0.75, 6.24 0, 7.95 0 C9.65 0, 11.75 0.75, 13.05 1.83" stroke="none" stroke-width="0" fill="#0eb1e4"></path><path d="M13.05 1.83 C14.36 2.91, 15.47 4.82, 15.77 6.47 C16.07 8.12, 15.68 10.29, 14.83 11.74 C13.98 13.2, 12.26 14.61, 10.66 15.19 C9.06 15.76, 6.83 15.76, 5.23 15.19 C3.63 14.61, 1.92 13.2, 1.06 11.74 C0.21 10.29, -0.17 8.12, 0.12 6.47 C0.42 4.82, 1.53 2.91, 2.84 1.83 C4.14 0.75, 6.24 0, 7.95 0 C9.65 0, 11.75 0.75, 13.05 1.83" stroke="#0eb1e4" stroke-width="1" fill="none"></path></g><g stroke-linecap="round" transform="translate(179.6975289044774 77.65777206667462) rotate(310.82721671153615 0.5264502000129596 3.334004881143933)"><path d="M0.26 0 L1.05 0.26 L0.79 6.67 L0 6.4 L0.26 0" stroke="none" stroke-width="0" fill="#0eb1e4"></path><path d="M0.26 0 M0.26 0 C0.38 0, 0.5 0, 0.79 0 M0.26 0 C0.41 0, 0.55 0, 0.79 0 M0.79 0 C0.97 0, 1.05 0.09, 1.05 0.26 M0.79 0 C0.97 0, 1.05 0.09, 1.05 0.26 M1.05 0.26 C1.05 2.22, 1.05 4.19, 1.05 6.4 M1.05 0.26 C1.05 2.15, 1.05 4.04, 1.05 6.4 M1.05 6.4 C1.05 6.58, 0.97 6.67, 0.79 6.67 M1.05 6.4 C1.05 6.58, 0.97 6.67, 0.79 6.67 M0.79 6.67 C0.65 6.67, 0.5 6.67, 0.26 6.67 M0.79 6.67 C0.61 6.67, 0.43 6.67, 0.26 6.67 M0.26 6.67 C0.09 6.67, 0 6.58, 0 6.4 M0.26 6.67 C0.09 6.67, 0 6.58, 0 6.4 M0 6.4 C0 4.14, 0 1.88, 0 0.26 M0 6.4 C0 4.1, 0 1.79, 0 0.26 M0 0.26 C0 0.09, 0.09 0, 0.26 0 M0 0.26 C0 0.09, 0.09 0, 0.26 0" stroke="#0eb1e4" stroke-width="1" fill="none"></path></g><g stroke-linecap="round" transform="translate(174.21967623833302 76.05558258967358) rotate(0 2.2297680092776773 2.4115075712396674)"><path d="M3.66 0.56 C4.03 0.9, 4.34 1.48, 4.43 1.99 C4.51 2.5, 4.4 3.17, 4.16 3.62 C3.92 4.06, 3.44 4.5, 2.99 4.68 C2.54 4.85, 1.92 4.85, 1.47 4.68 C1.02 4.5, 0.54 4.06, 0.3 3.62 C0.06 3.17, -0.05 2.5, 0.03 1.99 C0.12 1.48, 0.43 0.9, 0.8 0.56 C1.16 0.23, 1.75 0, 2.23 0 C2.71 0, 3.3 0.23, 3.66 0.56" stroke="none" stroke-width="0" fill="#0eb1e4"></path><path d="M3.66 0.56 C4.03 0.9, 4.34 1.48, 4.43 1.99 C4.51 2.5, 4.4 3.17, 4.16 3.62 C3.92 4.06, 3.44 4.5, 2.99 4.68 C2.54 4.85, 1.92 4.85, 1.47 4.68 C1.02 4.5, 0.54 4.06, 0.3 3.62 C0.06 3.17, -0.05 2.5, 0.03 1.99 C0.12 1.48, 0.43 0.9, 0.8 0.56 C1.16 0.23, 1.75 0, 2.23 0 C2.71 0, 3.3 0.23, 3.66 0.56" stroke="#0eb1e4" stroke-width="1" fill="none"></path></g><g transform="translate(199.2974246829849 77.24920565658348) rotate(0 106.5 10.5)"><text x="106.5" y="16" font-family="Helvetica, Segoe UI Emoji" font-size="20px" fill="black" text-anchor="middle" style="white-space: pre;" direction="ltr">gloo-mesh-mgmt-server</text></g><g stroke-linecap="round" transform="translate(10 34.79379055717209) rotate(0 268.36066883237675 54.17909934344257)"><path d="M-0.36 0.46 C159.14 1.5, 318.43 0.86, 536.55 0.32 M0.09 -0.07 C149.81 1.56, 300.02 1.18, 536.8 -0.24 M537.31 1.58 C537.13 28.54, 536.6 59.36, 537.98 107.52 M537.6 -0.73 C536.43 28.95, 536.1 58.42, 536.44 108.36 M537.41 108.95 C349.15 106.86, 160.18 107.23, 0.33 109.12 M536.55 108.23 C337.27 106.16, 137.5 106.45, 0.27 108.36 M-0.18 107.05 C0.97 74.12, -1.77 43.69, -1.66 -1.13 M0.8 107.86 C-0.75 78.84, -0.44 50.77, 0.14 -0.56" stroke="#395be2" stroke-width="1" fill="none"></path></g><g stroke-linecap="round"><g transform="translate(548.5712749485183 17.762584305960445) rotate(0 -0.07930607393461742 12.367565824669427)" fill-rule="evenodd"><path d="M-1.08 -1.65 L12.73 5.02 L11.32 16.9 L0.37 25.52 L-12.74 17.19 L-11.7 6.68 L-0.05 -1.16" stroke="none" stroke-width="0" fill="#395be2" fill-rule="evenodd"></path><path d="M0.73 -0.37 C3.91 1.63, 6.74 3.93, 11.66 5.77 M-0.11 -0.13 C4.1 2.34, 7.14 4.05, 10.77 5.86 M12.11 6.13 C10.54 9.72, 11.32 14.62, 10.65 17.8 M10.71 6.37 C10.65 8.86, 10.51 11.24, 11.15 18.41 M12.1 18.69 C6.2 19.53, 2.41 23.47, 1.2 25.06 M10.94 18.54 C8.11 19.98, 5.7 21.62, 0.01 24.18 M-0.83 25.11 C-4.55 21.25, -6.74 18.86, -11.87 17.73 M-0.32 23.57 C-3.37 22.14, -5.82 20.88, -11.51 17.6 M-10.94 17.55 C-11.42 16.6, -10.5 12.7, -12.27 7.1 M-10.62 18.25 C-11.39 14.5, -11.17 10.03, -10.87 6.44 M-10.62 6.19 C-8.52 3.62, -4.06 1.46, -0.06 -0.28 M-11.41 6.66 C-6.81 4.19, -2.91 1.54, -0.3 0.1 M0 0 C0 0, 0 0, 0 0 M0 0 C0 0, 0 0, 0 0" stroke="#395be2" stroke-width="2" fill="none"></path></g></g><g stroke-linecap="round" transform="translate(11.213948223816033 200.3153129063008) rotate(0 267.5792835509915 289.77532635353384)"><path d="M0.63 0.06 C172.99 -0.78, 346.9 -0.12, 534.82 -0.21 M-0.29 0.22 C118.81 -1.8, 237.83 -2, 535.16 0.2 M535.75 0.37 C533.56 226.96, 533.94 455.58, 535.92 580.13 M535.03 0.27 C532.79 150.33, 533.08 300.48, 535.16 579.57 M534.64 580.15 C347.54 578.86, 161.44 578.69, -0.45 579.31 M534.96 579.19 C382.2 581.04, 229.82 581.33, -0.22 579.23 M0.14 579.18 C0.38 450.1, 0.99 319.05, -0.74 0.7 M0.35 579.64 C-0.97 381.42, -0.82 182.73, 0.19 0.26" stroke="#395be2" stroke-width="1" fill="none"></path></g><g stroke-linecap="round"><g transform="translate(548.120449916619 181.26167786453334) rotate(0 0.12101905108511346 11.512703523111668)" fill-rule="evenodd"><path d="M-0.94 -0.68 L9.37 6.79 L11.24 19.22 L0.03 25.57 L-13.12 19.9 L-12.82 5.76 L1.06 0.53" stroke="none" stroke-width="0" fill="#395be2" fill-rule="evenodd"></path><path d="M0.09 -0.63 C3.03 1.86, 7.32 2.9, 10.83 5.06 M0.34 -0.48 C3.13 1.04, 5.76 3.27, 11.47 6.63 M11.71 5.52 C10.26 9.06, 11.75 13.12, 12.02 17.62 M11.56 5.95 C11.44 8.82, 11.51 10.88, 11.19 18.41 M12.11 17.41 C8.05 20.3, 5.45 19.83, -0.38 23.97 M10.58 17.92 C7.54 20.38, 4.71 21.26, -0.52 23.67 M-0.59 23.84 C-1.84 23.16, -6.16 19.68, -10.04 18.65 M0.14 23.95 C-3.18 22.25, -7.28 20.49, -10.73 18.01 M-11 17.56 C-11.83 16.09, -12.25 12.68, -11.42 6.7 M-10.56 18.46 C-10.86 15.25, -11.34 11.52, -11.06 5.67 M-10.34 5.02 C-7.51 4.17, -2.28 0.13, -0.9 -0.94 M-11.35 5.46 C-7.5 4.32, -3.64 1.33, -0.5 -0.34 M0 0 C0 0, 0 0, 0 0 M0 0 C0 0, 0 0, 0 0" stroke="#395be2" stroke-width="2" fill="none"></path></g></g><g transform="translate(377.5446223327681 178.01168311066795) rotate(0 75.16666666666674 10.738095238095255)"><text x="75.16666666666676" y="16.4761904761905" font-family="Helvetica, Segoe UI Emoji" font-size="20.05367159395091px" fill="black" text-anchor="middle" style="white-space: pre;" direction="ltr">Workload cluster</text></g><g transform="translate(228.69735984907516 442.11297195761017) rotate(0 95.5 10.5)"><text x="0" y="16" font-family="Helvetica, Segoe UI Emoji" font-size="20px" fill="#000000" text-anchor="start" style="white-space: pre;" direction="ltr">Gloo Mesh resources</text></g><g stroke-linecap="round" transform="translate(325.75578575239524 596.9975239595633) rotate(0 84.76766967773438 69.22396850585938)"><path d="M-0.22 -0.64 L167.92 -0.33 L167.56 138.17 L0.05 140.34" stroke="none" stroke-width="0" fill="white"></path><path d="M0.54 -1.2 C62.35 -0.37, 126.57 -2.83, 171.4 1.03 M-0.29 0.98 C55.02 -0.41, 108.63 0.06, 168.63 -0.03 M170.21 0.28 C168.71 37.85, 167.93 79.42, 167.84 139.06 M169.5 -0.9 C170.37 39.79, 169.79 79.84, 170.46 137.78 M170.38 138.79 C114.45 137.41, 60.18 137.47, -1.91 137.58 M170.5 137.5 C102.31 137.84, 35.47 138.41, 0.89 139.1 M0.44 138.42 C0.1 108.73, 1.55 82.35, 0.16 0.21 M-0.45 138.46 C1.35 98.67, 1.62 59, -0.43 0.74" stroke="gray" stroke-width="1" fill="none"></path></g><g stroke-linecap="round" transform="translate(165.00578575239547 595.2640034517508) rotate(0 71.01766967773438 69.22396850585938)"><path d="M0.95 -1.6 L141.13 -0.28 L140.4 140.26 L-0.66 138.4" stroke="none" stroke-width="0" fill="white"></path><path d="M0.84 -0.81 C37 0.46, 73.1 -0.28, 140.7 0.27 M0.42 -0.94 C55.46 1.53, 112.85 1.27, 142.41 0.7 M141.47 -0.61 C143.31 43.72, 141.12 89.11, 143.79 137.9 M142.93 -0.89 C142.35 49.9, 142.11 101.34, 141.76 137.71 M141.78 138.37 C98.84 137.88, 54.81 139.13, -0.66 136.91 M142.35 138.89 C99.61 138.66, 59.3 137.42, -0.9 138.66 M1.54 139.42 C-0.82 90.86, -0.93 39.7, -0.99 -0.11 M0.25 139.12 C0.3 87.71, 1.02 36.31, -0.28 0.92" stroke="gray" stroke-width="1" fill="none"></path></g><g stroke-linecap="round" transform="translate(364.9688467672063 299.3910583020113) rotate(0 41.035980224609375 20.330780029296875)"><path d="M2.71 2.35 C2.71 2.35, 2.71 2.35, 2.71 2.35 M2.71 2.35 C2.71 2.35, 2.71 2.35, 2.71 2.35 M0.48 11.01 C1.42 7.81, 5.09 6.68, 10.32 -0.31 M0.48 11.01 C3.78 7.43, 5.2 5.65, 10.32 -0.31 M0.87 16.66 C3.27 11.96, 8.44 10.68, 13.34 2.32 M0.87 16.66 C4.68 12.55, 7.41 8.99, 13.34 2.32 M1.27 22.3 C5.89 18.43, 9.38 15.17, 18.32 2.68 M1.27 22.3 C5.22 17.18, 9.86 11.69, 18.32 2.68 M1 28.7 C8.1 24.76, 11.01 17.76, 23.31 3.04 M1 28.7 C6.99 21.47, 13.6 14.85, 23.31 3.04 M0.74 35.1 C8.6 23.64, 18.92 14.46, 28.95 2.64 M0.74 35.1 C8.5 26.05, 14.92 16.99, 28.95 2.64 M3.76 37.72 C11.67 29.31, 19.23 18.77, 33.94 3 M3.76 37.72 C12.07 28.62, 19.26 19.08, 33.94 3 M6.78 40.34 C14.73 29.81, 23.31 22.42, 39.58 2.61 M6.78 40.34 C16.73 28.39, 26.75 18.33, 39.58 2.61 M11.77 40.7 C20.46 30.99, 27.28 21.9, 44.57 2.97 M11.77 40.7 C24.13 26.32, 35.62 11.56, 44.57 2.97 M16.75 41.06 C26.75 30.19, 34.94 18.4, 50.21 2.57 M16.75 41.06 C28.07 26.64, 40.18 12.51, 50.21 2.57 M22.4 40.67 C29.48 33.57, 38.48 23.31, 55.2 2.93 M22.4 40.67 C33.21 26.37, 44.28 15.02, 55.2 2.93 M27.38 41.03 C35.06 29.18, 46.27 19.38, 60.19 3.29 M27.38 41.03 C38.77 29.85, 49.94 15.94, 60.19 3.29 M33.03 40.64 C45.85 26.34, 55.71 13.55, 65.83 2.9 M33.03 40.64 C41.34 33.29, 48.82 23.28, 65.83 2.9 M38.01 41 C46.12 31.46, 57.04 21.46, 70.82 3.26 M38.01 41 C48.55 28.67, 57.25 18.38, 70.82 3.26 M43 41.36 C54.26 25.42, 67.95 10.97, 77.77 1.36 M43 41.36 C51.31 31.64, 58.88 24.21, 77.77 1.36 M48.64 40.96 C59.2 33.22, 66.39 22.74, 80.14 4.73 M48.64 40.96 C57.38 31.76, 64.14 24.02, 80.14 4.73 M53.63 41.32 C64.91 28.08, 77.55 14.29, 83.15 7.36 M53.63 41.32 C61.15 31.78, 69.24 21.34, 83.15 7.36 M59.27 40.93 C63.44 33.18, 69.38 29.82, 83.55 13 M59.27 40.93 C67.96 31.27, 75 23.93, 83.55 13 M64.26 41.29 C71.62 30.72, 77.66 21.99, 83.29 19.4 M64.26 41.29 C69.07 35.63, 74.37 30.08, 83.29 19.4 M69.25 41.65 C75.31 37.33, 76.72 31.3, 83.03 25.8 M69.25 41.65 C73.88 35.68, 80.27 29.79, 83.03 25.8 M73.58 42.76 C77.17 39.25, 78.47 34.73, 83.42 31.44 M73.58 42.76 C75.74 39.68, 77.48 37.23, 83.42 31.44" stroke="#0eb1e4" stroke-width="0.5" fill="none"></path><path d="M10.17 0 M10.17 0 C29.51 -0.89, 49.81 0.25, 71.91 0 M10.17 0 C27.65 -0.56, 42.72 -0.41, 71.91 0 M71.91 0 C78.51 1.64, 82.57 3.04, 82.07 10.17 M71.91 0 C80.04 2.05, 80.46 3.95, 82.07 10.17 M82.07 10.17 C82.48 18.47, 82.29 24.52, 82.07 30.5 M82.07 10.17 C81.17 15.37, 81.73 19.95, 82.07 30.5 M82.07 30.5 C82.39 37.14, 78.67 41.19, 71.91 40.66 M82.07 30.5 C80.45 35.39, 79.1 39.37, 71.91 40.66 M71.91 40.66 C48.37 40.35, 24.96 41.4, 10.17 40.66 M71.91 40.66 C51.14 41.95, 28.47 42.07, 10.17 40.66 M10.17 40.66 C3.11 41.71, -1.31 38.06, 0 30.5 M10.17 40.66 C2.46 39.82, -0.47 35.48, 0 30.5 M0 30.5 C-1.14 24.53, -1.06 21.8, 0 10.17 M0 30.5 C-0.33 25.63, -0.86 21.02, 0 10.17 M0 10.17 C0.35 2.74, 3.05 1.94, 10.17 0 M0 10.17 C-0.41 1.64, 2.73 -1.44, 10.17 0" stroke="#0eb1e4" stroke-width="1" fill="none"></path></g><g transform="translate(382.50482699181566 308.22183833130816) rotate(0 23.5 11.5)"><text x="0" y="18" font-family="Helvetica, Segoe UI Emoji" font-size="20px" fill="#000000" text-anchor="start" style="white-space: pre;" direction="ltr">istiod</text></g><g stroke-linecap="round" transform="translate(152.33943697716836 299.3910583020113) rotate(0 76.40106201171864 20.330780029296875)"><path d="M9.92 -1.37 L147.69 1.38 L151.05 6.51 L151.84 33.67 L151.7 38.9 L142.27 42.52 L4.11 39.95 L-1.3 33.31 L-1.08 10.56 L3.26 1.89 L8.55 1.15" stroke="none" stroke-width="0" fill="#0eb1e4"></path><path d="M10.17 0 M10.17 0 C62.23 -0.17, 111.29 -0.43, 142.64 0 M10.17 0 C47.03 -1.67, 82.91 -1.45, 142.64 0 M142.64 0 C150.63 -0.98, 153.07 2.63, 152.8 10.17 M142.64 0 C147.39 -1.99, 152.59 4.35, 152.8 10.17 M152.8 10.17 C151.96 18.52, 151.86 22.54, 152.8 30.5 M152.8 10.17 C152.13 15.17, 151.84 22.4, 152.8 30.5 M152.8 30.5 C154.55 36.84, 150.06 40.35, 142.64 40.66 M152.8 30.5 C153.82 37.58, 148.84 40.89, 142.64 40.66 M142.64 40.66 C102.71 40.17, 61.84 39.27, 10.17 40.66 M142.64 40.66 C98.17 40.58, 53.52 40.04, 10.17 40.66 M10.17 40.66 C1.49 39.6, -0.5 37.03, 0 30.5 M10.17 40.66 C5.61 40.16, 1.64 35.93, 0 30.5 M0 30.5 C-1.46 24.3, -0.14 16.09, 0 10.17 M0 30.5 C0.56 25.37, -0.72 20.62, 0 10.17 M0 10.17 C-0.46 3.32, 4.07 1.7, 10.17 0 M0 10.17 C0.81 2.26, 4.88 1.47, 10.17 0" stroke="#0eb1e4" stroke-width="1" fill="none"></path></g><g transform="translate(162.7404989888862 308.22183833130816) rotate(0 66 11.5)"><text x="0" y="18" font-family="Helvetica, Segoe UI Emoji" font-size="20px" fill="#000000" text-anchor="start" style="white-space: pre;" direction="ltr">kube-apiserver</text></g><g stroke-linecap="round"><g transform="translate(303.869603603144 323.3474639416598) rotate(0 30.277099609375 -0.335540771484375)"><path d="M0 0 C10.09 -0.11, 50.46 -0.56, 60.55 -0.67 M0 0 C10.09 -0.11, 50.46 -0.56, 60.55 -0.67" stroke="#000000" stroke-width="1" fill="none"></path></g></g><g stroke-linecap="round"><g transform="translate(70.44441192270597 495.8996985905149) rotate(290.32906128949463 48.94809118526757 -15.897049746488364)"><path d="M-0.32 8.49 C6.81 0.66, 28.66 -30.58, 43.78 -38.27 C58.91 -45.96, 81.48 -40.75, 90.42 -37.65 C99.37 -34.55, 96.1 -22.43, 97.45 -19.67 M1.71 10.48 C8.61 2.86, 27.74 -29.33, 42.93 -37.21 C58.13 -45.09, 83.84 -39.94, 92.9 -36.8 C101.96 -33.67, 96.56 -20.99, 97.29 -18.41" stroke="#000000" stroke-width="1" fill="none"></path></g></g><g stroke-linecap="round"><g transform="translate(92.61604932942237 588.9687773871201) rotate(264.2674515627377 23.405568102335337 -12.63056246338158)"><path d="M0.56 -2.12 C1.18 -2.64, -1.14 -1.55, 3.01 -5.81 C7.16 -10.07, 18.08 -28.91, 25.48 -27.66 C32.88 -26.42, 43.49 -3.38, 47.41 1.63 M-0.6 -2.93 C0 -3.34, -1.72 -0.92, 2.53 -4.89 C6.78 -8.86, 17.47 -27.99, 24.9 -26.77 C32.34 -25.55, 43.3 -2.54, 47.14 2.4" stroke="#000000" stroke-width="1" fill="none"></path></g></g><g stroke-linecap="round"><g transform="translate(105.71462374392718 560.3795564728621) rotate(87.96559710576622 17.987465045433737 -19.032032332377128)"><path d="M-1.14 -15.06 C-0.93 -15.2, -2 -13.04, 1.57 -14.85 C5.15 -16.67, 14.39 -26.53, 20.31 -25.97 C26.24 -25.41, 34.25 -13.68, 37.12 -11.5 M0.46 -12.82 C0.48 -13.35, -2.65 -14.18, 0.57 -16.68 C3.79 -19.19, 13.75 -28.92, 19.78 -27.84 C25.81 -26.76, 33.5 -12.68, 36.74 -10.21" stroke="#000000" stroke-width="1" fill="none"></path></g></g><g transform="translate(201.19735984907516 473.4812580904231) rotate(0 123 10.500000000000028)"><text x="0" y="16" font-family="Helvetica, Segoe UI Emoji" font-size="20px" fill="#000000" text-anchor="start" style="white-space: pre;" direction="ltr">Policy (RetryTimeoutPolicy)</text></g><g transform="translate(200.19735984907516 506.6264302095638) rotate(0 124 10.5)"><text x="0" y="16" font-family="Helvetica, Segoe UI Emoji" font-size="20px" fill="#000000" text-anchor="start" style="white-space: pre;" direction="ltr">Admin (WorkspaceSettings)</text></g><g transform="translate(196.69735984907516 539.7716023287044) rotate(0 127.5 10.5)"><text x="0" y="16" font-family="Helvetica, Segoe UI Emoji" font-size="20px" fill="#000000" text-anchor="start" style="white-space: pre;" direction="ltr">Networking (VirtualGateway)</text></g><g transform="translate(349.0234554301296 630.6206318697195) rotate(0 61.5 11.5)"><text x="0" y="18" font-family="Helvetica, Segoe UI Emoji" font-size="20px" fill="#000000" text-anchor="start" style="white-space: pre;" direction="ltr">VirtualService</text></g><g transform="translate(340.0234554301296 666.9968830904227) rotate(0 70.5 11.5)"><text x="0" y="18" font-family="Helvetica, Segoe UI Emoji" font-size="20px" fill="#000000" text-anchor="start" style="white-space: pre;" direction="ltr">DestinationRule</text></g><g transform="translate(354.0234554301296 703.3731343111258) rotate(0 56.5 11.5)"><text x="0" y="18" font-family="Helvetica, Segoe UI Emoji" font-size="20px" fill="#000000" text-anchor="start" style="white-space: pre;" direction="ltr">ServiceEntry</text></g><g transform="translate(231.22906761274703 645.7293521155821) rotate(0 34 11.5)"><text x="0" y="18" font-family="Helvetica, Segoe UI Emoji" font-size="20px" fill="#000000" text-anchor="start" style="white-space: pre;" direction="ltr">Sidecar</text></g><g stroke-linecap="round"><g transform="translate(260.5784189226963 672.1645480384341) rotate(0 10.059668659340787 12.677376598020032)" fill-rule="evenodd"><path d="M0 0 L0.13 24.73 L20.12 25.35 L0 0" stroke="none" stroke-width="0" fill="#0eb1e4" fill-rule="evenodd"></path><path d="M0 0 C0.03 5.31, 0.06 10.62, 0.13 24.73 M0 0 C0.04 7.45, 0.08 14.89, 0.13 24.73 M0.13 24.73 C6.11 24.91, 12.1 25.1, 20.12 25.35 M0.13 24.73 C7.18 24.95, 14.24 25.17, 20.12 25.35 M20.12 25.35 C15.29 19.27, 10.46 13.18, 0 0 M20.12 25.35 C14.7 18.52, 9.28 11.69, 0 0 M0 0 C0 0, 0 0, 0 0 M0 0 C0 0, 0 0, 0 0" stroke="#0eb1e4" stroke-width="1" fill="none"></path></g></g><g stroke-linecap="round"><g transform="translate(258.7167092492766 681.9651337921191) rotate(0 -4.229077535017268 10.518929819489642)" fill-rule="evenodd"><path d="M0 0 L0.58 16.5 L-9.04 21.04 L0 0" stroke="none" stroke-width="0" fill="#0eb1e4" fill-rule="evenodd"></path><path d="M0 0 C0.19 5.4, 0.38 10.81, 0.58 16.5 M0 0 C0.12 3.44, 0.24 6.87, 0.58 16.5 M0.58 16.5 C-1.66 17.55, -3.9 18.61, -9.04 21.04 M0.58 16.5 C-2.66 18.03, -5.91 19.56, -9.04 21.04 M-9.04 21.04 C-5.54 12.88, -2.03 4.73, 0 0 M-9.04 21.04 C-6.58 15.31, -4.12 9.57, 0 0 M0 0 C0 0, 0 0, 0 0 M0 0 C0 0, 0 0, 0 0" stroke="#0eb1e4" stroke-width="1" fill="none"></path></g></g><g stroke-linecap="round"><g transform="translate(255.7728150068117 700.955570569342) rotate(0 14.90183235765494 1.5232533913392103)" fill-rule="evenodd"><path d="M0 0 L29.8 -3.39 L7.99 6.43 L0 0" stroke="none" stroke-width="0" fill="#0eb1e4" fill-rule="evenodd"></path><path d="M0 0 C7.35 -0.83, 14.7 -1.67, 29.8 -3.39 M0 0 C5.98 -0.68, 11.97 -1.36, 29.8 -3.39 M29.8 -3.39 C22.97 -0.31, 16.13 2.77, 7.99 6.43 M29.8 -3.39 C21.74 0.24, 13.68 3.87, 7.99 6.43 M7.99 6.43 C5.81 4.68, 3.64 2.93, 0 0 M7.99 6.43 C6.18 4.97, 4.37 3.52, 0 0 M0 0 C0 0, 0 0, 0 0 M0 0 C0 0, 0 0, 0 0" stroke="#0eb1e4" stroke-width="1" fill="none"></path></g></g><g stroke-opacity="0.9" fill-opacity="0.9" stroke-linecap="round" transform="translate(178.71008567915328 676.8159625443986) rotate(0 23.15959552235904 16.032468558283938)"><path d="M1.44 0.95 L45.35 0.86 L46.7 30.27 L1.09 32.03" stroke="none" stroke-width="0" fill="#325476"></path><path d="M-0.13 -1.49 C8.73 -1.76, 17.98 0.25, 44.88 1.87 M-0.19 -0.54 C9.16 -0.07, 20.57 1.13, 45.69 -0.43 M45.4 -1.55 C47.53 8.07, 48.04 18.93, 47.54 32.74 M47.01 -0.92 C47.13 10.94, 46.69 20.89, 46.25 32.6 M44.77 31.73 C34.49 31.73, 24.53 32.49, 1.05 33.84 M45.48 32.24 C34.72 32.8, 20.87 32.61, 0.68 31.76 M0.64 31.3 C0.56 22.73, 0.2 15.27, -1.98 -0.85 M-0.01 31.39 C-0.61 23.21, 0.54 13.48, -0.72 0.13" stroke="#325476" stroke-width="1" fill="none"></path></g><g stroke-linecap="round"><g stroke-opacity="0.9" fill-opacity="0.9" transform="translate(189.37932651725828 685.0487489934949) rotate(0 -1.1193204586405727 7.4522679477388465)"><path d="M-0.89 -0.49 C-1.58 2.11, -2.91 12.87, -3.07 15.51 M0.84 -1.79 C0.44 0.96, -0.25 13.7, -0.79 16.69" stroke="#325476" stroke-width="4" fill="none"></path></g></g><g stroke-linecap="round"><g stroke-opacity="0.9" fill-opacity="0.9" transform="translate(215.29064389826476 684.2233734656879) rotate(0 -0.8317339366918759 7.866330035940564)"><path d="M-0.82 -0.67 C-0.98 1.97, -1.82 12.67, -1.87 15.32 M0.95 1.59 C0.75 4.4, -2.24 14, -2.62 16.4" stroke="#325476" stroke-width="4" fill="none"></path></g></g><g stroke-linecap="round"><g stroke-opacity="0.9" fill-opacity="0.9" transform="translate(201.33638791966519 684.5078109384413) rotate(0 -0.5551277169782907 7.6668739792861516)"><path d="M0.39 -0.86 C0.33 1.78, -0.78 12.49, -1.14 15.18 M-0.87 1.3 C-0.91 4.12, -1.26 13.73, -1.5 16.19" stroke="#325476" stroke-width="4" fill="none"></path></g></g><g transform="translate(185.07867698774703 644.5008364905821) rotate(0 18 11.5)"><text x="0" y="18" font-family="Helvetica, Segoe UI Emoji" font-size="20px" fill="#000000" text-anchor="start" style="white-space: pre;" direction="ltr">App</text></g><g stroke-linecap="round" transform="translate(164.1159236918486 597.5950442542539) rotate(0 71.28253173828125 12.462646484375)"><path d="M5.29 1.54 L137.36 0.94 L141.11 4.83 L142.31 21.71 L140.99 23.61 L138.22 22.93 L4.41 24.56 L-1.44 19.44 L-0.8 6.82 L1.93 2.4 L5.42 0.03" stroke="none" stroke-width="0" fill="#ced4da"></path><path d="M6.23 0 M6.23 0 C48.66 0.28, 95.66 -0.45, 136.33 0 M6.23 0 C37.77 2.02, 71.24 1.76, 136.33 0 M136.33 0 C141.23 1.39, 143.09 2.27, 142.57 6.23 M136.33 0 C140.87 -0.64, 141.87 3.39, 142.57 6.23 M142.57 6.23 C143.59 8.74, 143.34 12.34, 142.57 18.69 M142.57 6.23 C142.58 9.41, 142.43 13.54, 142.57 18.69 M142.57 18.69 C142.01 21.38, 140.67 25.74, 136.33 24.93 M142.57 18.69 C142.85 22.55, 140.4 25.71, 136.33 24.93 M136.33 24.93 C101.45 23.72, 67.76 24.08, 6.23 24.93 M136.33 24.93 C100.97 26.19, 67.74 24.95, 6.23 24.93 M6.23 24.93 C0.28 25.34, 1.07 24.27, 0 18.69 M6.23 24.93 C1.03 26.7, 1.12 23.04, 0 18.69 M0 18.69 C-0.62 14.05, 0.89 8.5, 0 6.23 M0 18.69 C-0.57 16.65, -0.12 14.19, 0 6.23 M0 6.23 C-0.56 3.92, 3.03 -1.6, 6.23 0 M0 6.23 C-1.04 1.75, 0.2 2.08, 6.23 0" stroke="gray" stroke-width="1" fill="none"></path></g><g transform="translate(220.52345543012984 600.9148989905821) rotate(0 18 11.5)"><text x="0" y="18" font-family="Helvetica, Segoe UI Emoji" font-size="20px" fill="#000000" text-anchor="start" style="white-space: pre;" direction="ltr">Pod</text></g><g stroke-linecap="round" transform="translate(326.6389339457555 595.0304829439383) rotate(0 83.88452148437489 13.488525390625)"><path d="M-0.64 -1.61 L167.44 -1.98 L167.5 27.03 L1.89 25.49" stroke="none" stroke-width="0" fill="#ced4da"></path><path d="M-1.2 -1.5 C67.1 -1.58, 130.96 1.41, 168.8 0.47 M0.98 0.2 C45.39 -0.5, 91.61 -0.42, 167.74 -0.14 M168.05 -0.94 C166.1 6.59, 168.07 14.91, 168.38 26.71 M166.86 0.22 C167.82 8.93, 168.2 19.52, 167.1 27.23 M168.11 27.12 C100.88 28.8, 35.86 25.78, -0.87 28.93 M166.82 27.2 C112.19 29.42, 57.53 29.49, 0.65 26.03 M-0.03 27.07 C-1.22 20.43, 0.81 10.95, 0.21 -0.33 M0.02 27.38 C-0.51 21.41, -0.95 14.06, 0.74 -0.11" stroke="gray" stroke-width="1" fill="none"></path></g><g transform="translate(345.5234554301296 596.8248860201102) rotate(0 65 11.5)"><text x="0" y="18" font-family="Helvetica, Segoe UI Emoji" font-size="20px" fill="#000000" text-anchor="start" style="white-space: pre;" direction="ltr">Istio resources</text></g><g transform="translate(275.370677652352 400.473361568002) rotate(0 50.5 10.5)"><text x="0" y="16" font-family="Helvetica, Segoe UI Emoji" font-size="20px" fill="#000000" text-anchor="start" style="white-space: pre;" direction="ltr">Workspace</text></g><g transform="translate(24.552495834169576 553.564270658911) rotate(0 34.5 16.5)"><text x="34.5" y="12.5" font-family="Helvetica, Segoe UI Emoji" font-size="16px" fill="black" text-anchor="middle" style="white-space: pre;" direction="ltr">Resource</text><text x="34.5" y="29" font-family="Helvetica, Segoe UI Emoji" font-size="16px" fill="black" text-anchor="middle" style="white-space: pre;" direction="ltr">snapshot</text></g><g stroke-linecap="round"><g transform="translate(165.15877694929122 700.3102400957628) rotate(249.67093871050537 -48.65122668769823 -25.685317247748685)"><path d="M0.64 -0.04 C-6.77 -7.95, -29.09 -38.74, -44.39 -46.43 C-59.69 -54.13, -82.23 -49.08, -91.16 -46.21 C-100.08 -43.34, -96.91 -31.94, -97.94 -29.23 M-0.48 -1.1 C-7.52 -8.85, -26.86 -40.96, -42.09 -48.23 C-57.33 -55.51, -82.65 -48.15, -91.9 -44.76 C-101.14 -41.37, -96.46 -30.4, -97.54 -27.89" stroke="#000000" stroke-width="1" fill="none"></path></g></g><g stroke-linecap="round"><g transform="translate(143.8520054115006 612.8434602691236) rotate(92.03440289423379 -19.121334258095544 -4.873522442743877)"><path d="M-3.04 0.07 C-3.31 -0.16, -1.95 0.16, -4.87 -2.07 C-7.78 -4.3, -15.08 -14.24, -20.52 -13.3 C-25.96 -12.36, -34.67 0.9, -37.5 3.55 M-1.31 -0.91 C-1.15 -0.96, 0.53 0.88, -2.76 -1.03 C-6.06 -2.95, -15.41 -12.83, -21.09 -12.4 C-26.77 -11.96, -33.93 -0.99, -36.84 1.59" stroke="#000000" stroke-width="1" fill="none"></path></g></g><g stroke-linecap="round" transform="translate(37.52327505494168 598.0336793908837) rotate(0 23.153625269202735 15.43575017946847)"><path d="M6.72 1.35 L36.83 -1.33 L42.99 3.02 L44.36 7.14 L47.46 22.23 L45.95 28.68 L38.97 29.84 L8.17 30.73 L2.77 27.57 L-0.84 23.41 L2.42 2.44 L3.34 2.03 L9.56 -0.39" stroke="none" stroke-width="0" fill="black"></path><path d="M7.72 0 M7.72 0 C13.54 -1.03, 18.52 0.68, 38.59 0 M7.72 0 C17.22 -0.24, 27.99 -0.47, 38.59 0 M38.59 0 C43.6 -0.72, 47.05 3.58, 46.31 7.72 M38.59 0 C45.04 1.19, 46.01 2.13, 46.31 7.72 M46.31 7.72 C46.96 12.39, 44.93 19.27, 46.31 23.15 M46.31 7.72 C47.13 11.38, 46.91 15.19, 46.31 23.15 M46.31 23.15 C44.55 26.81, 44.28 28.9, 38.59 30.87 M46.31 23.15 C45.74 29.97, 44.15 29.62, 38.59 30.87 M38.59 30.87 C27.53 32.55, 17.95 31.13, 7.72 30.87 M38.59 30.87 C27 30.69, 13.99 31.5, 7.72 30.87 M7.72 30.87 C4.52 29.35, 1.46 28.46, 0 23.15 M7.72 30.87 C2.33 32.19, 0.1 28.37, 0 23.15 M0 23.15 C0.43 18.05, 0.17 13.58, 0 7.72 M0 23.15 C-0.62 17.22, 0.27 12.3, 0 7.72 M0 7.72 C1.58 1.61, 1.52 -0.65, 7.72 0 M0 7.72 C-0.68 3.76, 1.94 2.12, 7.72 0" stroke="black" stroke-width="1" fill="none"></path></g><g stroke-linecap="round" transform="translate(49.879296232256365 591.9855368926776) rotate(0 10.426552404881363 3.7476220387652006)"><path d="M0.42 -0.47 L20 -0.46 L20.25 6.3 L1.21 8.04 L1.14 2.91 L1.62 -0.39" stroke="none" stroke-width="0" fill="black"></path><path d="M1.87 0 M1.87 0 C8.94 -1.15, 13.04 0.13, 18.98 0 M1.87 0 C6.78 0.04, 10.64 0.15, 18.98 0 M18.98 0 C18.47 -1.49, 21.4 -1.34, 20.85 1.87 M18.98 0 C19.66 1.67, 21.27 -0.63, 20.85 1.87 M20.85 1.87 C20.7 3.42, 20.83 4.4, 20.85 5.62 M20.85 1.87 C20.88 3.22, 20.65 4.81, 20.85 5.62 M20.85 5.62 C22.8 5.35, 21.69 7.66, 18.98 7.5 M20.85 5.62 C20.61 8.18, 20.33 7.57, 18.98 7.5 M18.98 7.5 C14.2 7.12, 8.79 7.3, 1.87 7.5 M18.98 7.5 C12.1 7.39, 6.76 8.26, 1.87 7.5 M1.87 7.5 C2.21 6.53, -1.05 6.22, 0 5.62 M1.87 7.5 C-0.06 8.68, -0.63 9, 0 5.62 M0 5.62 C0.3 4.57, 0.05 3.04, 0 1.87 M0 5.62 C-0.04 4.43, 0 2.89, 0 1.87 M0 1.87 C-1.1 1.85, 0.57 -1.63, 1.87 0 M0 1.87 C-0.39 -1.12, -0.29 1.26, 1.87 0" stroke="black" stroke-width="1" fill="none"></path></g><g stroke-linecap="round" transform="translate(51.21508230548011 605.3433976249105) rotate(0 9.350502512562684 7.5323492462310355)"><path d="M8.2 -0.71 C9.92 -1.02, 13.06 -0.4, 14.84 0.69 C16.63 1.77, 18.44 3.97, 18.92 5.81 C19.39 7.65, 18.76 10.41, 17.69 11.72 C16.62 13.04, 14.48 13.31, 12.5 13.72 C10.52 14.14, 7.67 14.61, 5.8 14.22 C3.93 13.82, 2.3 12.58, 1.28 11.35 C0.26 10.12, -0.59 8.54, -0.33 6.84 C-0.08 5.13, 1 2.23, 2.81 1.1 C4.62 -0.02, 8.95 0.15, 10.52 0.08 C12.1 0.02, 12.17 0.63, 12.25 0.69 M11.3 -1.2 C13.31 -1.43, 16.51 0.15, 17.52 1.62 C18.54 3.09, 17.7 5.93, 17.39 7.63 C17.07 9.33, 16.82 10.38, 15.64 11.81 C14.45 13.25, 12.25 15.73, 10.28 16.23 C8.31 16.73, 5.24 15.73, 3.81 14.83 C2.39 13.93, 2.05 12.26, 1.73 10.83 C1.4 9.41, 1.28 8.09, 1.86 6.28 C2.44 4.48, 3.92 1.01, 5.21 0 C6.5 -1, 8.68 0.38, 9.61 0.25 C10.54 0.11, 10.49 -0.92, 10.81 -0.81" stroke="none" stroke-width="0" fill="white"></path><path d="M10.72 -0.41 C12.66 -0.22, 14.78 1.28, 15.99 2.71 C17.19 4.14, 17.94 6.49, 17.95 8.18 C17.97 9.87, 17.28 11.65, 16.07 12.83 C14.86 14.01, 12.4 14.95, 10.68 15.26 C8.97 15.58, 7.39 15.68, 5.76 14.73 C4.12 13.78, 1.66 11.22, 0.87 9.56 C0.07 7.91, 0.34 6.2, 0.99 4.79 C1.65 3.38, 3.19 1.95, 4.81 1.1 C6.44 0.24, 9.43 -0.21, 10.72 -0.32 C12.01 -0.43, 12.45 0.29, 12.54 0.43 M5.59 1.91 C7.47 0.92, 10.17 -0.95, 12.16 -0.77 C14.14 -0.59, 16.3 1.32, 17.51 2.97 C18.72 4.63, 19.59 7.64, 19.4 9.17 C19.21 10.71, 17.81 10.95, 16.38 12.17 C14.95 13.39, 12.72 16.41, 10.82 16.49 C8.92 16.57, 6.88 13.84, 4.98 12.65 C3.08 11.46, 0.19 10.65, -0.57 9.36 C-1.33 8.07, -0.82 6.47, 0.42 4.94 C1.66 3.4, 5.78 1.1, 6.87 0.15 C7.96 -0.8, 7.2 -0.9, 6.95 -0.77" stroke="white" stroke-width="1" fill="none"></path></g><g stroke-linecap="round" transform="translate(54.851388838142384 607.6810232530513) rotate(0 5.973932160803884 4.934987437185839)"><path d="M7.83 -0.4 C8.84 -0.1, 10.96 1.62, 11.49 2.81 C12.02 4, 11.38 5.86, 11.03 6.74 C10.68 7.62, 10.4 7.49, 9.41 8.09 C8.41 8.69, 6.2 10.33, 5.06 10.32 C3.93 10.31, 3.26 8.92, 2.58 8.02 C1.91 7.12, 1.4 6.02, 1.02 4.92 C0.63 3.82, -0.21 2.28, 0.27 1.4 C0.75 0.52, 2.32 -0.36, 3.9 -0.38 C5.49 -0.4, 8.58 0.72, 9.78 1.27 C10.99 1.82, 11.06 2.85, 11.13 2.92 M7.9 -0.89 C9.3 -0.36, 11.77 1.54, 12.51 2.9 C13.25 4.26, 12.86 6.43, 12.35 7.26 C11.84 8.08, 10.83 7.24, 9.45 7.85 C8.08 8.46, 5.17 10.78, 4.1 10.9 C3.02 11.03, 3.66 9.58, 3.02 8.59 C2.39 7.59, 0.76 5.98, 0.28 4.95 C-0.19 3.91, -0.55 3.25, 0.15 2.39 C0.85 1.53, 2.9 0.27, 4.49 -0.21 C6.07 -0.69, 9.22 -0.6, 9.68 -0.48 C10.14 -0.35, 7.61 0.37, 7.25 0.54" stroke="none" stroke-width="0" fill="black"></path><path d="M5.04 0.87 C6.13 0.74, 7.34 0.94, 8.23 1.18 C9.13 1.42, 9.87 1.36, 10.41 2.32 C10.96 3.28, 11.65 5.84, 11.53 6.93 C11.4 8.03, 10.52 8.4, 9.65 8.89 C8.77 9.38, 7.72 10.06, 6.28 9.86 C4.84 9.66, 2.09 8.6, 1.01 7.7 C-0.06 6.81, -0.25 5.44, -0.17 4.49 C-0.08 3.55, 0.65 2.63, 1.52 2.01 C2.4 1.4, 4.45 1.23, 5.07 0.78 C5.68 0.34, 5.32 -0.54, 5.2 -0.66 M5.82 -0.3 C6.86 -0.45, 7.05 -0.24, 8.03 0.28 C9.01 0.81, 11.13 1.67, 11.7 2.86 C12.26 4.04, 12.05 6.2, 11.42 7.38 C10.8 8.55, 9.05 9.28, 7.95 9.89 C6.85 10.51, 5.91 11.64, 4.83 11.07 C3.75 10.51, 2.12 7.76, 1.49 6.5 C0.86 5.24, 1.25 4.33, 1.07 3.52 C0.89 2.7, -0.17 2.29, 0.4 1.62 C0.97 0.95, 3.78 -0.47, 4.49 -0.5 C5.2 -0.54, 4.65 1.11, 4.66 1.41" stroke="black" stroke-width="1" fill="none"></path></g><g stroke-linecap="round" transform="translate(73.03292150145921 602.48629963496) rotate(0 1.818153266331592 1.8181532663316489)"><path d="M2.16 -0.88 C2.79 -0.85, 3.63 0.21, 3.95 0.49 C4.27 0.78, 4.17 0.53, 4.07 0.81 C3.97 1.09, 3.57 1.7, 3.35 2.17 C3.13 2.65, 3.12 3.56, 2.77 3.68 C2.41 3.8, 1.49 2.98, 1.22 2.91 C0.94 2.85, 1.32 3.57, 1.11 3.29 C0.89 3, 0.14 1.57, -0.07 1.23 C-0.29 0.89, -0.44 1.32, -0.19 1.23 C0.06 1.15, 0.98 0.82, 1.41 0.73 C1.84 0.65, 2.36 0.95, 2.41 0.72 M2.01 1.47 C2.39 1.17, 2.03 0.48, 2.09 0.23 C2.15 -0.02, 1.96 -0.69, 2.38 -0.04 C2.81 0.61, 4.57 3.66, 4.63 4.14 C4.7 4.63, 3.1 3.08, 2.76 2.86 C2.42 2.64, 3.15 2.76, 2.6 2.82 C2.05 2.88, -0.21 3.44, -0.52 3.22 C-0.83 3, 0.61 1.72, 0.75 1.49 C0.88 1.26, 0.2 2.13, 0.31 1.84 C0.41 1.54, 1.07 0.2, 1.38 -0.29 C1.7 -0.78, 2.08 -1.09, 2.22 -1.09" stroke="none" stroke-width="0" fill="white"></path><path d="M3.34 0.62 C3.93 0.81, 4.24 1.73, 4.34 1.89 C4.45 2.05, 4.36 1.34, 3.97 1.59 C3.58 1.84, 2.39 3.17, 2 3.39 C1.61 3.62, 1.78 2.96, 1.62 2.92 C1.46 2.88, 1.47 3.35, 1.05 3.14 C0.63 2.92, -0.85 1.87, -0.89 1.62 C-0.93 1.37, 0.49 1.73, 0.79 1.64 C1.1 1.54, 0.69 1.44, 0.94 1.06 C1.19 0.69, 2.08 -0.38, 2.27 -0.59 C2.47 -0.8, 2.15 -0.38, 2.11 -0.21 M3.2 0.3 C3.69 0, 4.54 -0.11, 4.46 0 C4.38 0.11, 3.15 0.3, 2.73 0.96 C2.3 1.61, 2 3.38, 1.92 3.93 C1.85 4.47, 2.25 4.26, 2.27 4.21 C2.29 4.15, 2.57 4.09, 2.02 3.61 C1.47 3.14, -0.85 1.5, -1 1.35 C-1.15 1.2, 0.79 2.83, 1.12 2.71 C1.45 2.58, 0.9 1.22, 0.99 0.6 C1.07 -0.01, 1.41 -0.88, 1.63 -0.98 C1.86 -1.09, 2.33 -0.38, 2.32 0" stroke="white" stroke-width="1" fill="none"></path></g><g stroke-linecap="round" transform="translate(243.65536407145282 156.3886910563537) rotate(0 20.017946877243048 13.34529791816199)"><path d="M5.12 1.98 L32.05 -1.86 L36.78 -0.18 L40.64 8.1 L40.89 18.44 L37.41 26.06 L32.29 27.64 L6.45 26.73 L1.67 25.74 L0.75 20.34 L2.02 5.25 L1.78 0.23 L6.15 -0.11" stroke="none" stroke-width="0" fill="black"></path><path d="M6.67 0 M6.67 0 C16.21 -0.49, 24.9 1.96, 33.36 0 M6.67 0 C15.05 -0.3, 21.91 -0.05, 33.36 0 M33.36 0 C38.66 1.96, 40.56 2.49, 40.04 6.67 M33.36 0 C38.51 2.08, 41.82 0.25, 40.04 6.67 M40.04 6.67 C41.26 11.93, 39.06 15.29, 40.04 20.02 M40.04 6.67 C39.79 9.84, 39.8 11.76, 40.04 20.02 M40.04 20.02 C40.93 24.26, 39.79 27.43, 33.36 26.69 M40.04 20.02 C41.34 26.27, 36.32 27.42, 33.36 26.69 M33.36 26.69 C25.99 24.73, 16.51 25.91, 6.67 26.69 M33.36 26.69 C26.22 26.08, 16.97 26.51, 6.67 26.69 M6.67 26.69 C1.18 28.03, 0.51 22.53, 0 20.02 M6.67 26.69 C4.07 28.63, 1.24 25.19, 0 20.02 M0 20.02 C-0.86 17.71, 1.34 12.92, 0 6.67 M0 20.02 C-0.14 14.64, -0.53 9.54, 0 6.67 M0 6.67 C-1.54 1.73, 3.87 1.09, 6.67 0 M0 6.67 C-1.72 2.35, 3.36 -1.81, 6.67 0" stroke="black" stroke-width="1" fill="none"></path></g><g stroke-linecap="round" transform="translate(254.33801841459626 151.15964403553477) rotate(0 9.014492103373868 3.2400843503229737)"><path d="M3.6 -1.31 L15.76 -1.18 L15.77 6.68 L1.83 6.93 L-1.58 0.66 L2.66 -1.07" stroke="none" stroke-width="0" fill="black"></path><path d="M1.62 0 M1.62 0 C6.76 0.53, 12.46 0.23, 16.41 0 M1.62 0 C6.71 -0.2, 12.82 0.05, 16.41 0 M16.41 0 C15.76 -0.46, 19.33 -0.01, 18.03 1.62 M16.41 0 C19.52 2.18, 17.99 1.28, 18.03 1.62 M18.03 1.62 C17.82 2.2, 18.18 3.29, 18.03 4.86 M18.03 1.62 C18.18 2.8, 17.89 3.81, 18.03 4.86 M18.03 4.86 C17.94 7.11, 19.34 7.42, 16.41 6.48 M18.03 4.86 C16.36 4.81, 15.36 8.54, 16.41 6.48 M16.41 6.48 C10.57 5.57, 6.97 6.41, 1.62 6.48 M16.41 6.48 C11.09 6.08, 4.85 6.58, 1.62 6.48 M1.62 6.48 C1.51 5.58, 0.67 4.1, 0 4.86 M1.62 6.48 C-0.32 5.73, 0.02 6.27, 0 4.86 M0 4.86 C-0.13 3.73, -0.2 2.98, 0 1.62 M0 4.86 C0.17 3.89, 0.08 2.64, 0 1.62 M0 1.62 C-1.9 -0.9, -0.94 1.18, 1.62 0 M0 1.62 C2.08 -1, 2.68 -1.72, 1.62 0" stroke="black" stroke-width="1" fill="none"></path></g><g stroke-linecap="round" transform="translate(255.49289996520747 162.70845954163673) rotate(0 8.084170854271179 6.512248743718487)"><path d="M10.24 0.73 C12.02 0.67, 14.27 0.9, 15.3 1.92 C16.34 2.94, 16.61 5.42, 16.48 6.84 C16.34 8.27, 15.68 9.62, 14.51 10.49 C13.33 11.35, 11.3 11.86, 9.44 12.05 C7.58 12.25, 4.85 12.24, 3.34 11.66 C1.82 11.08, 0.79 9.72, 0.37 8.59 C-0.04 7.46, 0.31 6.25, 0.87 4.88 C1.42 3.52, 2.17 1.26, 3.71 0.4 C5.25 -0.46, 8.81 -0.32, 10.09 -0.26 C11.38 -0.2, 11.57 0.43, 11.41 0.76 M10.37 -0.85 C11.6 -0.65, 13.2 0.84, 14.28 2.56 C15.35 4.28, 17.22 7.69, 16.81 9.46 C16.4 11.23, 13.55 12.49, 11.81 13.19 C10.07 13.89, 8.03 14.03, 6.38 13.64 C4.73 13.26, 3.2 11.96, 1.91 10.89 C0.61 9.82, -1.1 8.62, -1.38 7.22 C-1.65 5.81, -1.18 3.51, 0.24 2.48 C1.65 1.46, 5.44 1.37, 7.11 1.06 C8.78 0.76, 9.44 0.91, 10.27 0.65 C11.09 0.39, 11.7 -0.43, 12.07 -0.49" stroke="none" stroke-width="0" fill="white"></path><path d="M8.51 -0.4 C10.12 -0.45, 13.31 0.56, 14.67 1.67 C16.02 2.78, 16.68 4.76, 16.64 6.24 C16.6 7.73, 15.52 9.4, 14.42 10.57 C13.32 11.75, 11.71 12.86, 10.04 13.27 C8.36 13.68, 5.83 13.75, 4.37 13.03 C2.92 12.31, 2.08 10.42, 1.31 8.94 C0.53 7.47, -0.71 5.49, -0.3 4.17 C0.12 2.86, 2.31 1.75, 3.82 1.04 C5.33 0.32, 7.63 0.06, 8.75 -0.11 C9.87 -0.28, 10.27 -0.28, 10.54 0.02 M8.64 -0.82 C10.04 -0.76, 10.87 -0.23, 12.21 1.04 C13.55 2.31, 16.12 5.32, 16.67 6.8 C17.22 8.27, 16.4 8.72, 15.51 9.91 C14.63 11.11, 12.86 13.73, 11.37 13.97 C9.88 14.21, 8.14 12.07, 6.55 11.36 C4.96 10.66, 2.76 10.51, 1.83 9.75 C0.9 8.99, 0.7 8.37, 0.98 6.82 C1.27 5.28, 2.49 1.84, 3.53 0.47 C4.58 -0.89, 6.3 -1.43, 7.27 -1.39 C8.24 -1.34, 9.37 0.26, 9.36 0.75" stroke="white" stroke-width="1" fill="none"></path></g><g stroke-linecap="round" transform="translate(258.6367441863131 164.72950225520475) rotate(0 5.164886934673291 4.266645728643141)"><path d="M5.46 0.79 C6.23 0.68, 6.83 0.67, 7.62 1.18 C8.42 1.68, 9.93 2.9, 10.21 3.79 C10.5 4.69, 9.98 5.87, 9.32 6.54 C8.66 7.21, 7.26 7.52, 6.27 7.82 C5.27 8.12, 4.21 8.52, 3.33 8.36 C2.45 8.19, 1.38 7.71, 0.98 6.83 C0.58 5.95, 0.87 4.06, 0.93 3.07 C0.99 2.08, 0.63 1.3, 1.32 0.9 C2.01 0.51, 4.2 0.96, 5.07 0.68 C5.94 0.4, 6.3 -0.88, 6.52 -0.78 M5.11 -0.93 C5.88 -0.44, 7.21 1.96, 8.3 2.73 C9.4 3.49, 11.35 3.08, 11.67 3.66 C11.98 4.24, 11.1 5.47, 10.19 6.18 C9.28 6.9, 7.6 7.95, 6.22 7.97 C4.83 7.99, 2.88 6.96, 1.88 6.33 C0.88 5.7, 0.5 4.63, 0.21 4.19 C-0.09 3.75, -0.48 4.5, 0.13 3.67 C0.73 2.85, 2.75 -0.27, 3.83 -0.74 C4.91 -1.2, 6.37 0.5, 6.62 0.89 C6.87 1.29, 5.51 1.9, 5.33 1.61" stroke="none" stroke-width="0" fill="black"></path><path d="M6.49 0.78 C7.33 1.25, 8.51 1.92, 9.12 2.64 C9.73 3.35, 10.24 4.18, 10.13 5.06 C10.02 5.94, 9.23 7.31, 8.46 7.91 C7.69 8.52, 6.48 8.64, 5.51 8.69 C4.53 8.75, 3.52 9, 2.62 8.26 C1.72 7.53, 0.49 5.3, 0.13 4.26 C-0.23 3.23, -0.12 2.87, 0.45 2.05 C1.01 1.24, 2.38 -0.46, 3.52 -0.62 C4.65 -0.77, 6.56 0.73, 7.25 1.1 C7.93 1.48, 7.47 1.68, 7.63 1.63 M5.17 -0.96 C6.37 -0.88, 7.53 1.19, 8.63 2.12 C9.74 3.05, 11.68 3.72, 11.8 4.6 C11.92 5.48, 10.08 6.58, 9.36 7.42 C8.64 8.25, 8.82 9.4, 7.49 9.62 C6.15 9.83, 2.56 9.2, 1.36 8.7 C0.15 8.21, 0.22 7.51, 0.27 6.65 C0.32 5.8, 1.48 4.7, 1.67 3.56 C1.87 2.43, 0.95 0.22, 1.43 -0.14 C1.92 -0.5, 3.74 1.49, 4.6 1.4 C5.46 1.31, 6.23 -0.39, 6.6 -0.67" stroke="black" stroke-width="1" fill="none"></path></g><g stroke-linecap="round" transform="translate(274.35596529184113 160.23829622505332) rotate(0 1.5719221105526913 1.571922110552734)"><path d="M3.1 -0.46 C3.38 -0.42, 3.27 0.66, 3.35 1.01 C3.42 1.35, 3.65 1.45, 3.55 1.62 C3.45 1.78, 3.16 1.79, 2.74 1.99 C2.31 2.19, 1.36 2.67, 0.97 2.8 C0.58 2.93, 0.53 2.81, 0.41 2.76 C0.29 2.71, 0.36 2.92, 0.24 2.51 C0.11 2.1, -0.47 0.78, -0.34 0.28 C-0.21 -0.22, 0.42 -0.54, 1.01 -0.49 C1.6 -0.44, 3.07 0.27, 3.18 0.57 C3.3 0.87, 1.69 1.23, 1.7 1.29 M0.73 -1.09 C1.37 -0.6, 3.41 1.23, 3.64 1.9 C3.88 2.57, 2.46 2.73, 2.14 2.94 C1.81 3.16, 1.81 3.22, 1.68 3.2 C1.54 3.18, 1.7 2.86, 1.32 2.82 C0.94 2.79, -0.21 3.16, -0.61 2.99 C-1 2.81, -1.37 1.95, -1.05 1.76 C-0.73 1.58, 1.21 2.12, 1.32 1.88 C1.44 1.64, -0.57 0.82, -0.36 0.31 C-0.16 -0.2, 1.97 -0.97, 2.56 -1.16 C3.15 -1.35, 3.55 -0.98, 3.19 -0.84" stroke="none" stroke-width="0" fill="white"></path><path d="M2.42 -0.5 C2.95 -0.39, 3.17 0.14, 3.29 0.5 C3.41 0.85, 3.2 1.21, 3.16 1.63 C3.13 2.05, 3.3 2.62, 3.09 3.01 C2.89 3.39, 2.21 3.94, 1.95 3.93 C1.68 3.92, 1.91 3.31, 1.48 2.96 C1.05 2.6, -0.41 2.11, -0.64 1.79 C-0.88 1.47, -0.04 1.37, 0.06 1.06 C0.17 0.76, -0.5 0.15, -0.02 -0.05 C0.45 -0.25, 2.34 -0.35, 2.91 -0.12 C3.49 0.11, 3.56 1.21, 3.44 1.34 M-0.14 -0.28 C0.14 -0.06, 2.02 1.33, 2.58 1.52 C3.14 1.7, 3.06 0.58, 3.23 0.84 C3.4 1.09, 3.49 2.94, 3.59 3.03 C3.7 3.12, 4.06 1.36, 3.87 1.37 C3.68 1.37, 2.84 2.58, 2.46 3.07 C2.08 3.55, 1.86 4.62, 1.57 4.27 C1.29 3.91, 1.13 1.71, 0.76 0.93 C0.4 0.14, -0.85 -0.42, -0.61 -0.45 C-0.37 -0.47, 2.1 0.53, 2.22 0.78 C2.33 1.04, 0.42 1.33, 0.08 1.09" stroke="white" stroke-width="1" fill="none"></path></g><g transform="translate(112.80898934065613 151.86946546410633) rotate(0 61.5 16.5)"><text x="61.5" y="12.5" font-family="Helvetica, Segoe UI Emoji" font-size="16px" fill="black" text-anchor="middle" style="white-space: pre;" direction="ltr">Resource</text><text x="61.5" y="29" font-family="Helvetica, Segoe UI Emoji" font-size="16px" fill="black" text-anchor="middle" style="white-space: pre;" direction="ltr">snapshot pushed</text></g></svg>