<svg xmlns="http://www.w3.org/2000/svg" viewBox="0 0 736 978" width="736" height="978"><defs><clipPath id="a"><path d="M308.75 20h140.5v87h-140.5z"/></clipPath><clipPath id="b"><path d="M308.75 127h140.5v54h-140.5z"/></clipPath><clipPath id="c"><path d="M308.75 346.667h140.5v109.5h-140.5z"/></clipPath><clipPath id="d"><path d="M309.75 686.967h140.5v98.3h-140.5z"/></clipPath><clipPath id="e"><path d="M308.75 568.667h140.5v98.3h-140.5z"/></clipPath></defs><g fill="none"><title>03-DiagramsForCloud NATdocs-Diagram-062018</title><title>Layer 1</title><title>zone internal - grey</title><path d="M204.5 202.333h347v755.834h-347z" stroke="#000" stroke-linecap="round" stroke-linejoin="round" stroke-dasharray="1.0,3.0"/><text transform="translate(214.5 217.333)" fill="#757575"><tspan font-family="Roboto" font-size="10" font-weight="400" x="0" y="9">GCP Project</tspan></text><title>zone internal - purple</title><path fill="#e8f5fc" d="M225.5 246.833h306v691.333h-306z"/><text transform="translate(235.5 261.833)" fill="#757575"><tspan font-family="Roboto" font-size="10" font-weight="400" x="0" y="9">VPC Network</tspan></text><path fill="#fff" d="M308.75 20h140.5v87h-140.5z"/><path stroke="#dfdfdf" stroke-linecap="round" stroke-linejoin="round" stroke-width="2" clip-path="url(#a)" d="M308.75 20h140.5v87h-140.5z"/><path fill="#dfdfdf" d="M324.75 74h104v1h-104z"/><text transform="translate(324.75 83)" fill="#757575"><tspan font-family="Roboto" font-size="10" font-weight="400" x="24.591" y="9">203.0.113.1</tspan></text><text transform="translate(352.75 41)" fill="#212121"><tspan font-family="Roboto" font-size="12" font-weight="400" x="0" y="11">Update Service</tspan></text><path d="M324.75 40.8v3.6h18v-3.6zm3.6 2.7h-1.8v-1.8h1.8zm-3.6 2.7v3.6h18v-3.6zm3.6 2.7h-1.8v-1.8h1.8zm-3.6 2.7v3.6h18v-3.6zm3.6 2.7h-1.8v-1.8h1.8z" fill="#616161"/><path fill="#fff" d="M308.75 127h140.5v54h-140.5z"/><path stroke="#dfdfdf" stroke-linecap="round" stroke-linejoin="round" stroke-width="2" clip-path="url(#b)" d="M308.75 127h140.5v54h-140.5z"/><text transform="translate(349.75 147)" fill="#212121"><tspan font-family="Roboto" font-size="12" font-weight="400" x="0" y="11">Internet</tspan></text><path d="M339.262 152.53a5.617 5.617 0 0 0-5.512-4.53 5.622 5.622 0 0 0-4.988 3.03 4.496 4.496 0 0 0-4.012 4.47c0 2.482 2.017 4.5 4.5 4.5H339c2.07 0 3.75-1.68 3.75-3.75a3.732 3.732 0 0 0-3.488-3.72z" fill="#616161"/><title>zone external - blue</title><path fill="#e5f2ec" d="M246.5 291.167h265v627h-265z"/><path stroke="#fff" stroke-linecap="round" stroke-linejoin="round" stroke-width="2" d="M246.5 291.167h265v627h-265z"/><text transform="translate(256.5 306.167)" fill="#757575"><tspan font-family="Roboto" font-size="10" font-weight="400" x="0" y="9">Region:</tspan> <tspan font-family="Roboto" font-size="10" font-weight="400" x="0" y="20">us-east1</tspan></text><path fill="#fff" d="M308.75 346.667h140.5v109.5h-140.5z"/><path stroke="#dfdfdf" stroke-linecap="round" stroke-linejoin="round" stroke-width="2" clip-path="url(#c)" d="M308.75 346.667h140.5v109.5h-140.5z"/><path fill="#dfdfdf" d="M324.75 400.667h104v1h-104z"/><text transform="translate(324.75 409.667)" fill="#757575"><tspan font-family="Roboto" font-size="10" font-weight="400" x="33.253" y="9">NAT IPs</tspan> <tspan font-family="Roboto" font-size="10" font-weight="400" x="18.976" y="20">198.51.100.50</tspan> <tspan font-family="Roboto" font-size="10" font-weight="400" x="18.976" y="31">198.51.100.60</tspan></text><text transform="translate(336.625 360.667)" fill="#212121"><tspan font-family="Roboto" font-size="12" font-weight="400" x="6.533" y="11">NAT Gateway</tspan> <tspan font-family="Roboto" font-size="12" font-weight="400" x="21.542" y="25">US-East</tspan></text><g><title>zone internal - green</title><path fill="#ece7f6" d="M266.75 479.667H491.5v418.5H266.75z"/><path stroke="#fff" stroke-linecap="round" stroke-linejoin="round" stroke-width="2" d="M266.75 479.667H491.5v418.5H266.75z"/><text transform="translate(276.75 494.667)" fill="#757575"><tspan font-family="Roboto" font-size="10" font-weight="400" x="0" y="9">Subnet 1</tspan> <tspan font-family="Roboto" font-size="10" font-weight="400" x="31.848" y="372">Primary IP range: 10.240.0.0/24</tspan> <tspan font-family="Roboto" font-size="10" font-weight="400" x="31.242" y="383">Secondary IP range: 10.0.0.0/16</tspan></text></g><g><title>zone internal - yellow</title><path fill="#fdf7e2" d="M288.5 525.167h183v318.5h-183z"/><path stroke="#fff" stroke-linecap="round" stroke-linejoin="round" stroke-width="2" d="M288.5 525.167h183v318.5h-183z"/><text transform="translate(298.5 540.167)" fill="#757575"><tspan font-family="Roboto" font-size="10" font-weight="400" x="0" y="9">VM Instance</tspan> <tspan font-family="Roboto" font-size="10" font-weight="400" x="12.472" y="273">Instance primary IP: 10.240.0.2</tspan> <tspan font-family="Roboto" font-size="10" font-weight="400" x="16.119" y="284">Secondary range: 10.0.1.0/24</tspan></text></g><g><path fill="#fff" d="M309.75 686.967h140.5v98.3h-140.5z"/><path stroke="#dfdfdf" stroke-linecap="round" stroke-linejoin="round" stroke-width="2" clip-path="url(#d)" d="M309.75 686.967h140.5v98.3h-140.5z"/><path fill="#dfdfdf" d="M325.75 740.967h104v1h-104z"/><text transform="translate(325.75 749.967)" fill="#757575"><tspan font-family="Roboto" font-size="10" font-weight="400" x="30.176" y="9">IP: 10.0.1.2</tspan> <tspan font-family="Roboto" font-size="10" font-weight="400" x=".821" y="20">(Configured as alias IPs)</tspan></text><text transform="translate(353.75 707.967)" fill="#212121"><tspan font-family="Roboto" font-size="12" font-weight="400" x="0" y="11">Pod2</tspan></text><path d="M342.75 716.167h-16c-.55 0-1 .45-1 1v6c0 .55.45 1 1 1h16c.55 0 1-.45 1-1v-6c0-.55-.45-1-1-1zm-13 6c-1.1 0-2-.9-2-2s.9-2 2-2 2 .9 2 2-.9 2-2 2zm13-16h-16c-.55 0-1 .45-1 1v6c0 .55.45 1 1 1h16c.55 0 1-.45 1-1v-6c0-.55-.45-1-1-1zm-13 6c-1.1 0-2-.9-2-2s.9-2 2-2 2 .9 2 2-.9 2-2 2z" fill="#616161"/></g><g><title>path solid</title><path d="M379 107v20" stroke="#616161" stroke-linecap="round" stroke-linejoin="round"/></g><g><title>path solid</title><path d="M379 456.167v112.5" stroke="#616161" stroke-linecap="round" stroke-linejoin="round"/></g><g><path fill="#fff" d="M308.75 568.667h140.5v98.3h-140.5z"/><path stroke="#dfdfdf" stroke-linecap="round" stroke-linejoin="round" stroke-width="2" clip-path="url(#e)" d="M308.75 568.667h140.5v98.3h-140.5z"/><path fill="#dfdfdf" d="M324.75 622.667h104v1h-104z"/><text transform="translate(324.75 631.667)" fill="#757575"><tspan font-family="Roboto" font-size="10" font-weight="400" x="30.176" y="9">IP: 10.0.1.1</tspan> <tspan font-family="Roboto" font-size="10" font-weight="400" x=".821" y="20">(Configured as alias IPs)</tspan></text><text transform="translate(352.75 589.667)" fill="#212121"><tspan font-family="Roboto" font-size="12" font-weight="400" x="0" y="11">Pod1</tspan></text><path d="M341.75 597.867h-16c-.55 0-1 .45-1 1v6c0 .55.45 1 1 1h16c.55 0 1-.45 1-1v-6c0-.55-.45-1-1-1zm-13 6c-1.1 0-2-.9-2-2s.9-2 2-2 2 .9 2 2-.9 2-2 2zm13-16h-16c-.55 0-1 .45-1 1v6c0 .55.45 1 1 1h16c.55 0 1-.45 1-1v-6c0-.55-.45-1-1-1zm-13 6c-1.1 0-2-.9-2-2s.9-2 2-2 2 .9 2 2-.9 2-2 2z" fill="#616161"/></g><g><title>path solid</title><path stroke="#616161" stroke-linecap="round" stroke-linejoin="round" d="M379 181l.167 165.5"/></g><g><title>path solid</title><path d="M379 666.967v20" stroke="#616161" stroke-linecap="round" stroke-linejoin="round"/></g></g></svg>