<svg xmlns="http://www.w3.org/2000/svg" viewBox="0 0 736 405" width="736" height="405"><defs><clipPath id="a"><path d="M121.7 144.5h113.8v54H121.7z"/></clipPath><clipPath id="b"><path d="M41.2 238.6h71.5v54H41.2z"/></clipPath><clipPath id="c"><path d="M132.7 239.6h71.5v54h-71.5z"/></clipPath><clipPath id="d"><path d="M244.2 239.6h71.5v54h-71.5z"/></clipPath><marker orient="auto" overflow="visible" id="e" stroke-miterlimit="10" viewBox="-1 -5 10 10" markerWidth="10" markerHeight="10" color="#5e5e5e"><path d="M8 0H0m4-4l4 4-4 4" fill="none" stroke="currentColor"/></marker><clipPath id="f"><path d="M396.6 238.6h71.5v54h-71.5z"/></clipPath><clipPath id="g"><path d="M498.8 239.6h71.5v54h-71.5z"/></clipPath><clipPath id="h"><path d="M622.5 239.6H694v54h-71.5z"/></clipPath><clipPath id="i"><path d="M486.7 144.6h121.2v54H486.7z"/></clipPath><marker orient="auto" overflow="visible" id="j" stroke-miterlimit="10" viewBox="-9 -5 10 10" markerWidth="10" markerHeight="10" color="#5e5e5e"><path d="M-8 0h8m-4 4l-4-4 4-4" fill="none" stroke="currentColor"/></marker><marker orient="auto" overflow="visible" id="k" stroke-miterlimit="10" viewBox="-1 -5 10 10" markerWidth="10" markerHeight="10" color="#5e5e5e"><path d="M8 0H0m4-4l4 4-4 4" fill="none" stroke="currentColor"/></marker></defs><g fill="none"><title>07-DiagramsForCloud NATdocs-Diagram-062018</title><title>Layer 1</title><title>zone external - grey</title><path fill="#eaedef" d="M21.5 100h314.2v264.2H21.5z"/><text transform="translate(31.5 115)" fill="#757575"><tspan font-family="Roboto" font-size="10" font-weight="400" x="0" y="9">Network</tspan> <tspan font-family="Roboto" font-size="10" font-weight="400" x="0" y="20">NAT IP: 203.0.113.1</tspan></text><title>dedicated game server</title><path fill="#fff" d="M121.7 144.5h113.8v54H121.7z"/><path stroke="#dfdfdf" stroke-linecap="round" stroke-linejoin="round" stroke-width="2" clip-path="url(#a)" d="M121.7 144.5h113.8v54H121.7z"/><text transform="translate(162.7 164.5)" fill="#212121"><tspan font-family="Roboto" font-size="12" font-weight="400" x="0" y="11">NAT Proxy</tspan></text><path d="M155.33 172.265a.36.36 0 0 0 .37-.37v-.633a.416.416 0 0 0-.422-.422h-2.006v-2.111h2.006a.36.36 0 0 0 .37-.37v-.686c0-.211-.16-.37-.423-.37h-2.006v-1.9a.416.416 0 0 0-.422-.422h-1.9v-2.059a.36.36 0 0 0-.37-.37h-.633a.36.36 0 0 0-.37.37v2.006h-2.111v-2.006a.36.36 0 0 0-.37-.37h-.633c-.211 0-.37.16-.423.37v2.006h-2.111v-1.953c0-.211-.158-.37-.37-.422h-.686a.36.36 0 0 0-.37.37v2.005h-1.9a.416.416 0 0 0-.422.422v1.954h-2.058a.36.36 0 0 0-.37.369v.686c0 .211.158.37.37.37h2.005v2.111h-2.005a.36.36 0 0 0-.37.37v.686c0 .211.158.37.37.422h2.005v2.112h-2.005a.36.36 0 0 0-.37.37v.633c0 .21.158.37.37.37h2.005v1.9c0 .263.212.422.423.422h1.953v2.006c0 .21.158.369.37.369h.685a.36.36 0 0 0 .37-.37v-2.005h2.111v2.006c0 .21.159.369.37.369h.686a.36.36 0 0 0 .37-.37v-2.005h2.111v2.006c0 .21.158.369.37.369h.633a.36.36 0 0 0 .37-.37v-2.005h1.9a.416.416 0 0 0 .422-.423v-1.9h2.006a.36.36 0 0 0 .37-.37v-.633a.416.416 0 0 0-.423-.422h-2.006v-2.112h2.165zm-3.483 4.434h-10.24v-10.24h10.24v10.24z" fill="#616161"/><path d="M144.193 169.468c0-.211.21-.37.422-.423h4.223c.264 0 .422.212.422.423v4.17a.416.416 0 0 1-.422.422h-4.223a.454.454 0 0 1-.422-.422z" fill="#616161"/><title>zone external - yellow</title><path fill="#fef7e0" d="M41.2 40h86.818v40H41.2z"/><text transform="translate(51.2 55)" fill="#757575"><tspan font-family="Roboto" font-size="10" font-weight="400" x="8.121" y="9">Destination</tspan></text><title>zone external - yellow</title><path fill="#fef7e0" d="M228.882 40H315.7v40h-86.818z"/><text transform="translate(238.882 55)" fill="#757575"><tspan font-family="Roboto" font-size="10" font-weight="400" x="8.121" y="9">Destination</tspan></text><title>dedicated game server</title><path fill="#fff" d="M41.2 238.6h71.5v54H41.2z"/><path stroke="#dfdfdf" stroke-linecap="round" stroke-linejoin="round" stroke-width="2" clip-path="url(#b)" d="M41.2 238.6h71.5v54H41.2z"/><text transform="translate(82.2 253.1)" fill="#212121"><tspan font-family="Roboto" font-size="12" font-weight="400" x="0" y="11">VM</tspan> <tspan font-family="Roboto" font-size="10" font-weight="400" fill="#797979" x="0" y="23">IP3</tspan></text><path d="M74.83 266.365a.36.36 0 0 0 .37-.37v-.633a.416.416 0 0 0-.422-.422h-2.006v-2.111h2.006a.36.36 0 0 0 .37-.37v-.686c0-.211-.16-.37-.423-.37h-2.006v-1.9a.416.416 0 0 0-.422-.422h-1.9v-2.059a.36.36 0 0 0-.37-.37h-.633a.36.36 0 0 0-.37.37v2.006h-2.111v-2.006a.36.36 0 0 0-.37-.37h-.633c-.211 0-.37.16-.423.37v2.006h-2.111v-1.953c0-.211-.158-.37-.37-.422h-.686a.36.36 0 0 0-.37.37v2.005h-1.9a.416.416 0 0 0-.422.422v1.954H57.57a.36.36 0 0 0-.369.369v.686c0 .211.158.37.37.37h2.005v2.111H57.57a.36.36 0 0 0-.369.37v.686c0 .211.158.37.37.422h2.005v2.112H57.57a.36.36 0 0 0-.369.37v.633c0 .21.158.37.37.37h2.005v1.9c0 .263.212.422.423.422h1.953v2.005c0 .212.158.37.37.37h.685a.36.36 0 0 0 .37-.37v-2.005h2.111v2.005c0 .212.159.37.37.37h.686a.36.36 0 0 0 .37-.37v-2.005h2.111v2.005c0 .212.158.37.37.37h.633a.36.36 0 0 0 .37-.37v-2.005h1.9a.416.416 0 0 0 .422-.423v-1.9h2.006a.36.36 0 0 0 .37-.37v-.633a.416.416 0 0 0-.423-.422h-2.006v-2.112h2.165zm-3.483 4.434h-10.24v-10.24h10.24v10.24z" fill="#616161"/><path d="M63.693 263.568c0-.211.21-.37.422-.423h4.223c.264 0 .422.212.422.423v4.17a.416.416 0 0 1-.422.422h-4.223a.454.454 0 0 1-.422-.422z" fill="#616161"/><title>dedicated game server</title><path fill="#fff" d="M132.7 239.6h71.5v54h-71.5z"/><path stroke="#dfdfdf" stroke-linecap="round" stroke-linejoin="round" stroke-width="2" clip-path="url(#c)" d="M132.7 239.6h71.5v54h-71.5z"/><text transform="translate(173.7 254.1)" fill="#212121"><tspan font-family="Roboto" font-size="12" font-weight="400" x="0" y="11">VM</tspan> <tspan font-family="Roboto" font-size="10" font-weight="400" fill="#797979" x="0" y="23">IP4</tspan></text><path d="M166.33 267.365a.36.36 0 0 0 .37-.37v-.633a.416.416 0 0 0-.422-.422h-2.006v-2.111h2.006a.36.36 0 0 0 .37-.37v-.686c0-.211-.16-.37-.423-.37h-2.006v-1.9a.416.416 0 0 0-.422-.422h-1.9v-2.059a.36.36 0 0 0-.37-.37h-.633a.36.36 0 0 0-.37.37v2.006h-2.111v-2.006a.36.36 0 0 0-.37-.37h-.633c-.211 0-.37.16-.423.37v2.006h-2.111v-1.953c0-.211-.158-.37-.37-.422h-.686a.36.36 0 0 0-.37.37v2.005h-1.9a.416.416 0 0 0-.422.422v1.954h-2.058a.36.36 0 0 0-.37.369v.686c0 .211.158.37.37.37h2.005v2.111h-2.005a.36.36 0 0 0-.37.37v.686c0 .211.158.37.37.422h2.005v2.112h-2.005a.36.36 0 0 0-.37.37v.633c0 .21.158.37.37.37h2.005v1.9c0 .263.212.422.423.422h1.953v2.005c0 .212.158.37.37.37h.685a.36.36 0 0 0 .37-.37v-2.005h2.111v2.005c0 .212.159.37.37.37h.686a.36.36 0 0 0 .37-.37v-2.005h2.111v2.005c0 .212.158.37.37.37h.633a.36.36 0 0 0 .37-.37v-2.005h1.9a.416.416 0 0 0 .422-.423v-1.9h2.006a.36.36 0 0 0 .37-.37v-.633a.416.416 0 0 0-.423-.422h-2.006v-2.112h2.165zm-3.483 4.434h-10.24v-10.24h10.24v10.24z" fill="#616161"/><path d="M155.193 264.568c0-.211.21-.37.422-.423h4.223c.264 0 .422.212.422.423v4.17a.416.416 0 0 1-.422.422h-4.223a.454.454 0 0 1-.422-.422z" fill="#616161"/><title>dedicated game server</title><path fill="#fff" d="M244.2 239.6h71.5v54h-71.5z"/><path stroke="#dfdfdf" stroke-linecap="round" stroke-linejoin="round" stroke-width="2" clip-path="url(#d)" d="M244.2 239.6h71.5v54h-71.5z"/><text transform="translate(285.2 254.1)" fill="#212121"><tspan font-family="Roboto" font-size="12" font-weight="400" x="0" y="11">VM</tspan> <tspan font-family="Roboto" font-size="10" font-weight="400" fill="#797979" x="0" y="23">IP5</tspan></text><path d="M277.83 267.365a.36.36 0 0 0 .37-.37v-.633a.416.416 0 0 0-.422-.422h-2.006v-2.111h2.006a.36.36 0 0 0 .37-.37v-.686c0-.211-.16-.37-.423-.37h-2.006v-1.9a.416.416 0 0 0-.422-.422h-1.9v-2.059a.36.36 0 0 0-.37-.37h-.633a.36.36 0 0 0-.37.37v2.006h-2.111v-2.006a.36.36 0 0 0-.37-.37h-.633c-.211 0-.37.16-.423.37v2.006h-2.111v-1.953c0-.211-.158-.37-.37-.422h-.686a.36.36 0 0 0-.37.37v2.005h-1.9a.416.416 0 0 0-.422.422v1.954h-2.058a.36.36 0 0 0-.37.369v.686c0 .211.158.37.37.37h2.005v2.111h-2.005a.36.36 0 0 0-.37.37v.686c0 .211.158.37.37.422h2.005v2.112h-2.005a.36.36 0 0 0-.37.37v.633c0 .21.158.37.37.37h2.005v1.9c0 .263.212.422.423.422h1.953v2.005c0 .212.158.37.37.37h.685a.36.36 0 0 0 .37-.37v-2.005h2.111v2.005c0 .212.159.37.37.37h.686a.36.36 0 0 0 .37-.37v-2.005h2.111v2.005c0 .212.158.37.37.37h.633a.36.36 0 0 0 .37-.37v-2.005h1.9a.416.416 0 0 0 .422-.423v-1.9h2.006a.36.36 0 0 0 .37-.37v-.633a.416.416 0 0 0-.423-.422h-2.006v-2.112h2.164zm-3.483 4.434h-10.24v-10.24h10.24v10.24z" fill="#616161"/><path d="M266.693 264.568c0-.211.21-.37.422-.423h4.223c.264 0 .422.212.422.423v4.17a.416.416 0 0 1-.422.422h-4.223a.454.454 0 0 1-.422-.422z" fill="#616161"/><title>path dash big</title><path d="M128.018 60h100.864" stroke="#616161" stroke-linecap="round" stroke-linejoin="round" stroke-dasharray="4.0,4.0"/><path marker-end="url(#e)" stroke="#5e5e5e" stroke-linecap="round" stroke-linejoin="round" stroke-dasharray="4.0,4.0" d="M106.116 238.6l36.053-33.375M251.176 239.6l-36.582-34.326M155.84 144.5l-47.991-56.931M201.287 144.5l47.83-56.921"/><text transform="translate(117.95 379)" fill="#757575"><tspan font-family="Roboto" font-size="10" font-weight="400" x="0" y="9">1. Typical NAT Proxies</tspan></text><title>zone external - grey</title><path fill="#eaedef" d="M376.6 100H714v264.2H376.6z"/><text transform="translate(386.6 115)" fill="#757575"><tspan font-family="Roboto" font-size="10" font-weight="400" x="0" y="9">Virtual Network</tspan></text><title>zone external - yellow</title><path fill="#fef7e0" d="M419.4 40h86.818v40H419.4z"/><text transform="translate(429.4 55)" fill="#757575"><tspan font-family="Roboto" font-size="10" font-weight="400" x="8.121" y="9">Destination</tspan></text><title>zone external - yellow</title><path fill="#fef7e0" d="M607.2 40h86.818v40H607.2z"/><text transform="translate(617.2 55)" fill="#757575"><tspan font-family="Roboto" font-size="10" font-weight="400" x="8.121" y="9">Destination</tspan></text><title>dedicated game server</title><path fill="#fff" d="M396.6 238.6h71.5v54h-71.5z"/><path stroke="#dfdfdf" stroke-linecap="round" stroke-linejoin="round" stroke-width="2" clip-path="url(#f)" d="M396.6 238.6h71.5v54h-71.5z"/><text transform="translate(437.6 253.1)" fill="#212121"><tspan font-family="Roboto" font-size="12" font-weight="400" x="0" y="11">VM</tspan> <tspan font-family="Roboto" font-size="10" font-weight="400" fill="#797979" x="0" y="23">IP3</tspan></text><g fill="#616161"><path d="M430.23 266.365a.36.36 0 0 0 .37-.37v-.633a.416.416 0 0 0-.422-.422h-2.006v-2.111h2.006a.36.36 0 0 0 .37-.37v-.686c0-.211-.16-.37-.423-.37h-2.006v-1.9a.416.416 0 0 0-.422-.422h-1.9v-2.059a.36.36 0 0 0-.37-.37h-.633a.36.36 0 0 0-.37.37v2.006h-2.111v-2.006a.36.36 0 0 0-.37-.37h-.633c-.211 0-.37.16-.423.37v2.006h-2.111v-1.953c0-.211-.158-.37-.37-.422h-.686a.36.36 0 0 0-.37.37v2.005h-1.9a.416.416 0 0 0-.422.422v1.954h-2.059a.36.36 0 0 0-.369.369v.686c0 .211.158.37.37.37h2.005v2.111h-2.006a.36.36 0 0 0-.369.37v.686c0 .211.158.37.37.422h2.005v2.112h-2.006a.36.36 0 0 0-.369.37v.633c0 .21.158.37.37.37h2.005v1.9c0 .263.212.422.423.422h1.953v2.005c0 .212.158.37.37.37h.685a.36.36 0 0 0 .37-.37v-2.005h2.111v2.005c0 .212.159.37.37.37h.686a.36.36 0 0 0 .37-.37v-2.005h2.111v2.005c0 .212.158.37.37.37h.633a.36.36 0 0 0 .37-.37v-2.005h1.9a.416.416 0 0 0 .422-.423v-1.9h2.006a.36.36 0 0 0 .37-.37v-.633a.416.416 0 0 0-.423-.422h-2.006v-2.112h2.165zm-3.483 4.434h-10.24v-10.24h10.24v10.24z"/><path d="M419.093 263.568c0-.211.21-.37.422-.423h4.223c.264 0 .422.212.422.423v4.17a.416.416 0 0 1-.422.422h-4.223a.454.454 0 0 1-.422-.422z"/></g><title>dedicated game server</title><path fill="#fff" d="M498.8 239.6h71.5v54h-71.5z"/><path stroke="#dfdfdf" stroke-linecap="round" stroke-linejoin="round" stroke-width="2" clip-path="url(#g)" d="M498.8 239.6h71.5v54h-71.5z"/><text transform="translate(539.8 254.1)" fill="#212121"><tspan font-family="Roboto" font-size="12" font-weight="400" x="0" y="11">VM</tspan> <tspan font-family="Roboto" font-size="10" font-weight="400" fill="#797979" x="0" y="23">IP4</tspan></text><g fill="#616161"><path d="M532.43 267.365a.36.36 0 0 0 .37-.37v-.633a.416.416 0 0 0-.422-.422h-2.006v-2.111h2.006a.36.36 0 0 0 .37-.37v-.686c0-.211-.16-.37-.423-.37h-2.006v-1.9a.416.416 0 0 0-.422-.422h-1.9v-2.059a.36.36 0 0 0-.37-.37h-.633a.36.36 0 0 0-.37.37v2.006h-2.111v-2.006a.36.36 0 0 0-.37-.37h-.633c-.211 0-.37.16-.423.37v2.006h-2.111v-1.953c0-.211-.158-.37-.37-.422h-.686a.36.36 0 0 0-.37.37v2.005h-1.9a.416.416 0 0 0-.422.422v1.954h-2.058a.36.36 0 0 0-.37.369v.686c0 .211.158.37.37.37h2.005v2.111h-2.005a.36.36 0 0 0-.37.37v.686c0 .211.158.37.37.422h2.005v2.112h-2.005a.36.36 0 0 0-.37.37v.633c0 .21.158.37.37.37h2.005v1.9c0 .263.212.422.423.422h1.953v2.005c0 .212.158.37.37.37h.685a.36.36 0 0 0 .37-.37v-2.005h2.111v2.005c0 .212.159.37.37.37h.686a.36.36 0 0 0 .37-.37v-2.005h2.111v2.005c0 .212.158.37.37.37h.633a.36.36 0 0 0 .37-.37v-2.005h1.9a.416.416 0 0 0 .422-.423v-1.9h2.006a.36.36 0 0 0 .37-.37v-.633a.416.416 0 0 0-.423-.422h-2.006v-2.112h2.165zm-3.483 4.434h-10.24v-10.24h10.24v10.24z"/><path d="M521.293 264.568c0-.211.21-.37.422-.423h4.223c.264 0 .422.212.422.423v4.17a.416.416 0 0 1-.422.422h-4.223a.454.454 0 0 1-.422-.422z"/></g><title>dedicated game server</title><path fill="#fff" d="M622.5 239.6H694v54h-71.5z"/><path stroke="#dfdfdf" stroke-linecap="round" stroke-linejoin="round" stroke-width="2" clip-path="url(#h)" d="M622.5 239.6H694v54h-71.5z"/><text transform="translate(663.5 254.1)" fill="#212121"><tspan font-family="Roboto" font-size="12" font-weight="400" x="0" y="11">VM</tspan> <tspan font-family="Roboto" font-size="10" font-weight="400" fill="#797979" x="0" y="23">IP5</tspan></text><g fill="#616161"><path d="M656.13 267.365a.36.36 0 0 0 .37-.37v-.633a.416.416 0 0 0-.422-.422h-2.006v-2.111h2.006a.36.36 0 0 0 .37-.37v-.686c0-.211-.16-.37-.423-.37h-2.006v-1.9a.416.416 0 0 0-.422-.422h-1.9v-2.059a.36.36 0 0 0-.37-.37h-.633a.36.36 0 0 0-.37.37v2.006h-2.111v-2.006a.36.36 0 0 0-.37-.37h-.633c-.212 0-.37.16-.423.37v2.006h-2.111v-1.953c0-.211-.158-.37-.37-.422h-.686a.36.36 0 0 0-.37.37v2.005h-1.9a.416.416 0 0 0-.422.422v1.954h-2.058a.36.36 0 0 0-.37.369v.686c0 .211.158.37.37.37h2.005v2.111h-2.005a.36.36 0 0 0-.37.37v.686c0 .211.158.37.37.422h2.005v2.112h-2.005a.36.36 0 0 0-.37.37v.633c0 .21.158.37.37.37h2.005v1.9c0 .263.212.422.423.422h1.953v2.005c0 .212.158.37.37.37h.685a.36.36 0 0 0 .37-.37v-2.005h2.111v2.005c0 .212.159.37.37.37h.686a.36.36 0 0 0 .37-.37v-2.005h2.111v2.005c0 .212.158.37.37.37h.633a.36.36 0 0 0 .37-.37v-2.005h1.9a.416.416 0 0 0 .422-.423v-1.9h2.006a.36.36 0 0 0 .37-.37v-.633a.416.416 0 0 0-.423-.422h-2.006v-2.112h2.164zm-3.483 4.434h-10.24v-10.24h10.24v10.24z"/><path d="M644.993 264.568c0-.211.21-.37.422-.423h4.223c.264 0 .422.212.422.423v4.17a.416.416 0 0 1-.422.422h-4.223a.454.454 0 0 1-.422-.422z"/></g><g><title>path dash big</title><path d="M506.218 60H607.2" stroke="#616161" stroke-linecap="round" stroke-linejoin="round" stroke-dasharray="4.0,4.0"/></g><g><text transform="translate(510.5 379)" fill="#757575"><tspan font-family="Roboto" font-size="10" font-weight="400" x="0" y="9">2. Google Cloud NAT</tspan></text></g><g><title>gateway</title><path fill="#fff" d="M486.7 144.6h121.2v54H486.7z"/><path stroke="#dfdfdf" stroke-linecap="round" stroke-linejoin="round" stroke-width="2" clip-path="url(#i)" d="M486.7 144.6h121.2v54H486.7z"/><text transform="translate(527.7 164.6)" fill="#212121"><tspan font-family="Roboto" font-size="12" font-weight="400" x="0" y="11">Cloud NAT</tspan></text><path d="M518.417 167.296h-15.065a2.158 2.158 0 0 0-2.152 2.152v4.304c0 1.184.968 2.152 2.152 2.152h15.065a2.158 2.158 0 0 0 2.152-2.152v-4.304a2.158 2.158 0 0 0-2.152-2.152zm-11.837 5.38h-2.152v-2.152h2.152zm3.766 0h-2.152v-2.152h2.152zm3.767 0h-2.153v-2.152h2.153z" fill="#616161"/></g><g><path d="M468.1 241.448c24.915-26.28 34.584-65.117 22.106-101.52l-17.331-50.563" marker-end="url(#e)" stroke="#5e5e5e" stroke-linecap="round" stroke-linejoin="round" stroke-dasharray="4.0,4.0"/></g><g><path d="M632.684 88.37l-17.438 27.597c-25.031 39.616-20.291 89.563 8.307 123.633" marker-start="url(#j)" stroke="#5e5e5e" stroke-linecap="round" stroke-linejoin="round" stroke-dasharray="4.0,4.0"/></g><g><text transform="translate(386.85 320.6)" fill="#757575"><tspan font-family="Roboto" font-size="10" font-weight="400" x=".1" y="9">NAT IP: 203.0.113.1,</tspan> <tspan font-family="Roboto" font-size="10" font-weight="400" x="3.247" y="21">ports 32000-32063</tspan></text></g><g><text transform="translate(489.05 320.6)" fill="#757575"><tspan font-family="Roboto" font-size="10" font-weight="400" x=".1" y="9">NAT IP: 203.0.113.1,</tspan> <tspan font-family="Roboto" font-size="10" font-weight="400" x="3.247" y="21">ports 32101-32164</tspan></text></g><g><text transform="translate(612.75 320.6)" fill="#757575"><tspan font-family="Roboto" font-size="10" font-weight="400" x=".1" y="9">NAT IP: 203.0.113.1,</tspan> <tspan font-family="Roboto" font-size="10" font-weight="400" x="3.247" y="21">ports 32300-32363</tspan></text></g><g><path marker-end="url(#k)" stroke="#5e5e5e" stroke-linecap="round" stroke-linejoin="round" d="M432.35 315.6v-13.1"/></g><g><path marker-end="url(#k)" stroke="#5e5e5e" stroke-linecap="round" stroke-linejoin="round" d="M534.55 315.6v-12.1"/></g><g><path marker-end="url(#k)" stroke="#5e5e5e" stroke-linecap="round" stroke-linejoin="round" d="M658.25 315.6v-12.1"/></g><g><text transform="translate(624 130.1)" fill="#757575"><tspan font-family="Roboto" font-size="10" font-weight="400" x="0" y="9">There is no </tspan> <tspan font-family="Roboto" font-size="10" font-weight="400" x="0" y="21">intermediate NAT </tspan> <tspan font-family="Roboto" font-size="10" font-weight="400" x="0" y="33">proxy in the data </tspan> <tspan font-family="Roboto" font-size="10" font-weight="400" x="0" y="45">path. Each VM is </tspan> <tspan font-family="Roboto" font-size="10" font-weight="400" x="0" y="57">programmed by </tspan> <tspan font-family="Roboto" font-size="10" font-weight="400" x="0" y="69">GCP to NAT using </tspan> <tspan font-family="Roboto" font-size="10" font-weight="400" x="0" y="81">assigned ports.</tspan></text></g><g><path marker-end="url(#k)" stroke="#5e5e5e" stroke-linecap="round" stroke-linejoin="round" d="M619 171.6h-1.2"/></g><g><text transform="translate(208 256.9)" fill="#212121"><tspan font-family="Roboto" font-size="12" font-weight="400" x="7.892" y="11">. . .</tspan></text></g><g><text transform="translate(580.8 256.9)" fill="#212121"><tspan font-family="Roboto" font-size="12" font-weight="400" x="7.892" y="11">. . .</tspan></text></g></g></svg>